P2
104 129
255
255 255 255 255 255 255 255 255 255 255 255 255 255 255 255 255 255 255 255 255 255 255 255 255 255 255 255 255 255 255 255 255 255 255 255 255 255 255 255 255 255 255 255 255 255 255 255 255 255 255 255 255 255 255 255 255 255 255 255 255 255 255 255 255 255 255 255 255 255 255 255 255 255 255 255 255 255 255 255 255 255 255 255 255 255 255 255 255 255 255 255 255 255 255 255 255 255 255 255 255 255 255 255 255 
255 255 255 255 255 255 255 255 255 255 255 255 255 255 255 255 255 255 255 255 255 255 255 255 255 255 255 255 255 255 255 255 255 255 255 255 255 255 255 255 255 255 255 255 255 255 255 255 255 255 255 255 255 255 255 255 255 255 255 255 255 255 255 255 255 255 255 255 255 255 255 255 255 255 255 255 255 255 255 255 255 255 255 255 255 255 255 255 255 255 255 255 255 255 255 255 255 255 255 255 255 255 255 255 
255 255 255 255 255 255 255 255 255 255 255 255 255 255 255 255 255 255 255 255 255 255 255 255 255 255 255 255 255 255 255 255 255 255 255 255 255 255 255 255 255 255 255 221 187 187 109 88 88 80 32 32 32 46 88 88 88 88 88 88 109 187 187 187 187 187 255 255 255 255 255 255 255 255 255 255 255 255 255 255 255 255 255 255 255 255 255 255 255 255 255 255 255 255 255 255 255 255 255 255 255 255 255 255 
255 255 255 255 255 255 255 255 255 255 255 255 255 255 255 255 255 255 255 255 255 255 255 255 255 255 255 255 255 255 255 255 255 255 204 133 88 88 32 48 56 19 32 16 0 0 0 0 0 0 0 0 0 0 0 0 0 0 0 0 0 0 0 0 0 0 32 29 48 62 88 143 187 238 255 255 255 255 255 255 255 255 255 255 255 255 255 255 255 255 255 255 255 255 255 255 255 255 255 255 255 255 255 255 
255 255 255 255 255 255 255 255 255 255 255 255 255 255 255 255 255 255 255 255 255 255 255 255 255 255 255 255 255 204 133 80 48 23 8 0 12 32 41 55 64 50 50 50 88 88 96 119 119 153 187 187 119 119 96 88 63 50 62 64 55 37 40 32 32 12 0 0 0 0 0 0 0 24 19 56 46 88 159 255 255 255 255 255 255 255 255 255 255 255 255 255 255 255 255 255 255 255 255 255 255 255 255 255 
255 255 255 255 255 255 255 255 255 255 255 255 255 255 255 255 255 255 255 255 255 255 255 255 238 159 88 40 28 12 21 32 37 55 75 112 170 204 255 255 255 255 255 255 255 255 255 255 255 255 255 255 255 255 255 255 255 255 255 255 255 255 255 255 221 170 104 57 46 32 12 0 0 0 0 0 0 0 0 23 46 133 238 255 255 255 255 255 255 255 255 255 255 255 255 255 255 255 255 255 255 255 255 255 
255 255 255 255 255 255 255 255 255 255 255 255 255 255 255 255 255 255 255 255 255 255 133 46 17 0 0 34 75 136 187 238 255 255 255 255 255 255 255 255 255 255 255 255 255 255 255 255 255 255 255 255 255 255 255 255 255 255 255 255 255 255 255 255 255 255 255 255 255 221 170 104 57 46 32 0 0 0 0 0 0 0 21 46 109 221 255 255 255 255 255 255 255 255 255 255 255 255 255 255 255 255 255 255 
255 255 255 255 255 255 255 255 255 255 255 255 255 255 255 255 255 255 255 221 80 29 0 0 0 0 0 19 23 48 64 114 207 255 255 255 255 255 255 255 255 255 255 255 255 255 255 255 255 255 255 255 255 255 255 255 255 255 255 255 255 255 255 255 255 255 255 255 255 255 255 255 255 255 221 112 41 28 0 0 0 0 0 0 0 16 40 175 255 255 255 255 255 255 255 255 255 255 255 255 255 255 255 255 
255 255 255 255 255 255 255 255 255 255 255 255 255 255 255 255 255 255 109 17 0 0 0 0 0 0 0 0 0 0 0 0 0 17 55 133 204 255 255 255 255 255 255 255 255 255 255 255 255 255 255 255 255 255 255 255 255 255 255 255 255 255 255 255 255 255 255 255 255 255 255 255 255 255 255 255 255 187 82 41 0 0 0 0 0 0 0 8 72 238 255 255 255 255 255 255 255 255 255 255 255 255 255 255 
255 255 255 255 255 255 255 255 255 255 255 255 255 255 255 255 255 62 0 0 0 0 0 0 0 0 0 0 0 0 0 0 0 0 0 0 24 51 187 255 255 255 255 255 255 255 255 255 255 255 255 255 255 255 255 255 255 255 255 255 255 255 255 255 255 255 255 255 255 255 255 255 255 255 255 255 255 255 255 102 64 0 0 0 0 0 0 0 0 34 238 255 255 255 255 255 255 255 255 255 255 255 255 255 
255 255 255 255 255 255 255 255 255 255 255 255 255 255 255 255 136 0 0 0 0 0 0 0 0 0 0 0 0 0 0 0 0 0 0 0 0 0 32 89 238 255 255 255 255 255 255 255 255 255 255 255 255 255 255 255 255 255 255 255 255 255 255 255 255 255 255 255 255 255 255 255 255 255 255 255 255 255 255 255 153 41 0 0 0 0 0 0 0 0 56 255 255 255 255 255 255 255 255 255 255 255 255 255 
255 255 255 255 255 255 255 255 255 255 255 255 255 255 255 238 19 0 0 0 0 0 0 0 0 0 0 0 0 0 0 0 0 0 0 0 0 0 0 0 46 127 255 255 255 255 255 255 255 255 255 255 255 255 255 255 255 255 255 255 255 255 255 255 255 255 255 255 255 255 255 255 255 255 255 255 255 255 255 255 255 75 0 0 0 0 0 0 0 0 0 148 255 255 255 255 255 255 255 255 255 255 255 255 
255 255 255 255 255 255 255 255 255 255 255 255 255 255 255 187 0 0 0 0 0 0 0 0 0 0 0 0 0 0 0 0 0 0 0 0 0 0 0 0 0 21 46 187 255 255 255 255 255 255 255 255 255 255 255 255 255 255 255 255 255 255 255 255 255 255 255 255 255 255 255 255 255 255 255 255 255 255 255 255 255 57 0 0 0 0 0 0 0 0 0 88 255 255 255 255 255 255 255 255 255 255 255 255 
255 255 255 255 255 255 255 255 255 255 255 255 255 255 255 255 32 0 0 0 0 0 0 0 0 0 0 0 0 0 0 0 0 0 0 0 0 0 0 0 0 0 0 32 89 238 255 255 255 255 255 255 255 255 255 255 255 255 255 255 255 255 255 255 255 255 255 255 255 255 255 255 255 255 255 255 255 255 255 255 127 28 0 0 0 0 0 0 0 0 0 88 255 255 255 255 255 255 255 255 255 255 255 255 
255 255 255 255 255 255 255 255 255 255 255 255 255 255 255 255 19 0 0 0 0 0 0 0 0 0 0 0 0 0 0 0 0 0 0 0 0 0 0 0 0 0 0 0 0 46 143 238 255 255 255 255 255 255 255 255 255 255 255 255 255 255 255 255 255 255 255 255 255 255 255 255 255 255 255 255 255 255 238 89 31 0 0 0 0 0 0 0 0 0 0 187 255 255 255 255 255 255 255 255 255 255 255 255 
255 255 255 255 255 255 255 255 255 255 255 255 255 255 255 255 41 0 0 0 0 0 0 0 0 0 0 0 0 0 0 0 0 0 0 0 0 0 0 0 0 0 0 0 0 0 21 55 96 170 255 255 255 255 255 255 255 255 255 255 255 255 255 255 255 255 255 255 255 255 255 255 255 255 255 255 170 75 41 0 0 0 0 0 0 0 0 0 0 0 0 187 255 255 255 255 255 255 255 255 255 255 255 255 
255 255 255 255 255 255 255 255 255 255 255 255 255 255 255 255 48 0 0 0 0 0 0 0 0 0 0 0 0 0 0 0 0 0 0 0 0 0 0 0 0 0 0 0 0 0 0 0 0 62 50 102 204 255 255 255 255 255 255 255 255 255 255 255 255 255 255 255 255 255 255 255 255 204 104 46 21 0 0 0 0 0 0 0 0 0 0 0 0 0 32 255 255 255 255 255 255 255 255 255 255 255 255 255 
255 255 255 255 255 255 255 255 255 255 255 255 255 255 255 255 32 0 0 0 0 0 0 0 0 0 0 0 0 0 0 0 0 0 0 0 0 0 0 0 0 0 0 0 0 0 0 0 0 0 0 30 55 57 112 187 221 255 255 255 255 255 255 255 255 255 255 238 187 136 75 62 40 28 0 0 0 0 0 0 0 0 0 0 0 0 0 17 0 0 19 255 255 255 255 255 255 255 255 255 255 255 255 255 
255 255 255 255 255 255 255 255 255 255 255 255 255 255 255 255 88 0 0 0 0 24 24 0 0 0 0 0 0 0 0 0 0 0 0 0 0 0 0 0 0 0 0 0 0 0 0 0 0 0 0 0 0 0 0 32 48 64 68 50 63 88 75 50 63 57 55 40 28 0 0 0 0 0 0 0 0 0 0 0 0 0 0 0 28 0 0 19 0 0 56 255 255 255 255 255 255 255 255 255 255 255 255 255 
255 255 255 255 255 255 255 255 255 255 255 255 255 255 255 255 88 0 0 0 0 32 32 0 7 0 0 28 0 0 0 0 0 0 0 0 0 0 0 0 0 0 0 0 0 0 0 0 0 0 0 0 0 0 0 0 0 0 0 0 0 0 0 0 0 0 0 0 0 0 0 0 0 0 0 0 0 0 0 0 0 28 0 0 0 0 0 19 0 0 32 255 255 255 255 255 255 255 255 255 255 255 255 255 
255 255 255 255 255 255 255 255 255 255 255 255 255 255 255 255 133 0 0 0 0 32 32 0 0 0 0 37 0 32 0 0 0 0 0 0 0 0 0 0 0 0 0 0 0 0 0 0 0 0 0 0 0 0 0 0 0 0 0 0 0 0 0 0 0 0 0 0 0 0 0 0 0 0 0 0 23 0 0 32 0 37 28 0 0 0 0 19 0 0 88 255 255 255 255 255 255 255 255 255 255 255 255 255 
255 255 255 255 255 255 255 255 255 255 255 255 255 255 255 255 187 0 0 21 0 32 32 0 0 0 0 37 0 37 0 0 0 0 31 41 0 0 0 0 0 0 0 0 0 0 0 0 0 0 0 0 0 0 0 0 0 0 0 0 0 0 0 0 0 0 0 0 13 0 0 21 0 32 32 0 0 0 0 37 0 37 32 0 0 0 0 19 0 0 88 255 255 255 255 255 255 255 255 255 255 255 255 255 
255 255 255 255 255 255 255 255 255 255 255 255 255 255 255 255 187 0 0 50 0 32 32 0 0 0 0 37 0 37 0 0 0 0 32 50 0 40 0 0 40 0 37 0 0 32 0 0 21 0 23 0 0 24 0 21 12 0 29 0 24 24 0 14 0 0 19 0 32 0 0 19 0 32 32 0 0 0 0 37 0 37 32 0 0 0 0 19 0 0 187 255 255 255 255 255 255 255 255 255 255 255 255 255 
255 255 255 255 255 255 255 255 255 255 255 255 255 255 255 255 255 32 0 50 0 32 32 0 0 0 0 37 0 37 0 0 0 0 32 50 0 37 0 0 37 0 37 0 0 0 0 32 32 0 0 0 0 37 0 32 32 0 0 0 32 32 0 19 0 0 32 0 32 0 0 23 0 32 32 0 0 0 0 37 0 37 32 0 0 0 0 19 0 8 187 255 255 255 255 255 255 255 255 255 255 255 255 255 
255 255 255 255 255 255 255 255 255 255 255 255 255 255 255 255 255 19 0 50 0 32 32 0 0 0 0 37 0 37 0 0 0 0 32 50 0 37 0 0 37 0 37 0 0 0 0 32 32 0 0 0 0 37 0 37 32 0 0 0 32 32 0 19 0 0 37 0 37 0 0 37 0 32 32 0 0 0 0 37 0 37 32 0 0 0 0 19 0 32 255 255 255 255 255 255 255 255 255 255 255 255 255 255 
255 255 255 255 255 255 255 255 255 255 255 255 255 255 255 255 255 48 0 50 0 32 32 0 0 0 0 37 0 37 0 0 0 0 32 50 0 37 0 0 37 0 37 0 0 0 0 32 32 0 0 0 0 37 0 37 32 0 0 0 32 32 0 19 0 0 37 0 37 0 0 37 0 32 32 0 0 0 0 37 0 37 32 0 0 0 0 19 0 29 255 255 255 255 255 255 255 255 255 255 255 255 255 255 
255 255 255 255 255 255 255 255 255 255 255 255 255 255 255 255 255 48 0 50 0 32 32 0 0 0 0 37 0 37 0 0 0 0 32 50 0 37 0 0 37 0 37 0 0 0 0 32 32 0 0 0 0 37 0 37 32 0 0 0 32 32 0 19 0 0 37 0 37 0 0 37 0 32 32 0 0 0 0 37 0 37 32 0 0 0 0 23 0 56 255 255 255 255 255 255 255 255 255 255 255 255 255 255 
255 255 255 255 255 255 255 255 255 255 255 255 255 255 255 255 255 46 0 50 0 32 32 0 0 0 0 37 0 37 0 0 0 0 32 50 0 37 0 0 37 0 37 0 0 0 0 32 32 0 0 0 0 37 0 37 21 0 0 0 32 32 0 19 0 0 37 0 37 0 0 37 0 32 32 0 0 0 0 37 0 37 32 0 0 0 0 32 0 46 255 255 255 255 255 255 255 255 255 255 255 255 255 255 
255 255 255 255 255 255 255 255 255 255 255 255 255 255 255 255 255 88 0 50 0 32 32 0 0 0 0 37 0 37 0 0 28 0 32 50 0 37 0 0 37 0 37 0 0 0 0 40 32 0 0 0 0 37 0 37 0 0 0 0 32 32 0 0 0 0 37 0 37 0 0 37 0 32 32 0 0 0 0 37 0 37 32 0 0 0 0 32 0 88 255 255 255 255 255 255 255 255 255 255 255 255 255 255 
255 255 255 255 255 255 255 255 255 255 255 255 255 255 255 255 255 88 0 50 0 32 32 0 0 0 0 37 0 37 0 0 37 0 32 50 0 37 0 0 37 0 37 0 0 0 0 37 32 0 0 0 0 37 0 37 0 0 0 0 32 32 0 0 0 0 37 0 37 0 0 37 0 32 32 0 0 0 0 37 0 37 32 0 0 0 24 56 0 109 255 255 255 255 255 255 255 255 255 255 255 255 255 255 
255 255 255 255 255 255 255 255 255 255 255 255 255 255 255 255 255 159 0 50 0 32 32 0 0 0 0 37 0 37 0 0 37 0 32 50 0 37 0 0 37 0 37 0 0 37 0 37 32 0 0 0 0 37 0 37 0 0 0 0 32 32 0 0 0 0 37 0 37 0 0 37 0 32 32 0 0 0 0 37 0 37 32 0 0 0 32 56 0 187 255 255 255 255 255 255 255 255 255 255 255 255 255 255 
255 255 255 255 255 255 255 255 255 255 255 255 255 255 255 255 255 187 0 50 0 32 32 0 0 0 0 37 0 37 0 0 37 0 32 50 0 37 0 0 37 0 37 0 0 37 0 37 32 0 0 0 0 37 0 37 0 0 0 0 32 32 0 0 0 0 37 0 37 0 0 37 0 32 32 0 0 0 0 37 0 37 32 0 0 0 32 56 8 204 255 255 255 255 255 255 255 255 255 255 255 255 255 255 
255 255 255 255 255 255 255 255 255 255 255 255 255 255 255 255 255 187 0 50 0 32 32 0 0 0 0 37 0 37 0 0 37 0 32 50 0 37 0 0 37 0 37 0 0 37 0 37 32 0 0 0 0 37 0 37 0 0 0 0 32 32 0 0 0 0 37 0 37 0 0 37 0 32 32 0 0 0 0 37 0 37 32 0 0 0 32 56 28 255 255 255 255 255 255 255 255 255 255 255 255 255 255 255 
255 255 255 255 255 255 255 255 255 255 255 255 255 255 255 255 255 255 19 50 0 32 32 0 0 0 0 37 0 37 0 0 37 0 32 50 0 37 0 0 37 0 37 0 0 37 0 37 32 0 0 0 0 37 0 37 0 0 0 0 32 32 0 0 0 0 37 0 37 0 0 37 0 32 32 0 0 0 0 37 0 37 32 0 0 0 32 56 29 255 255 255 255 255 255 255 255 255 255 255 255 255 255 255 
255 255 255 255 255 255 255 255 255 255 255 255 255 255 255 255 255 255 5 50 0 32 32 0 0 0 0 37 0 37 0 0 37 0 32 50 0 28 0 0 37 0 37 0 0 37 0 37 32 0 0 0 21 37 0 37 0 0 0 0 32 32 0 0 0 0 37 0 37 0 0 37 0 32 32 0 0 0 0 37 0 37 13 0 0 0 32 56 48 255 255 255 255 255 255 255 255 255 255 255 255 255 255 255 
255 255 255 255 255 255 255 255 255 255 255 255 255 255 255 255 255 255 6 50 0 32 32 0 0 0 0 37 0 37 0 0 37 0 32 50 0 0 0 0 37 0 37 0 0 37 0 37 32 0 0 0 32 37 0 37 0 0 0 0 32 32 0 0 0 0 37 0 37 0 0 37 0 32 32 0 0 0 0 37 0 37 0 0 8 0 32 56 46 255 255 255 255 255 255 255 255 255 255 255 255 255 255 255 
255 255 255 255 255 255 255 255 255 255 255 255 255 255 255 255 255 255 32 50 0 32 32 0 0 0 0 37 0 37 0 0 37 0 32 50 0 0 0 0 37 0 37 0 0 37 0 37 32 0 0 0 32 37 0 37 0 0 0 0 32 32 0 0 0 0 37 0 37 0 0 37 0 32 32 0 0 0 0 37 0 37 0 0 19 0 32 48 88 255 255 255 255 255 255 255 255 255 255 255 255 255 255 255 
255 255 255 255 255 255 255 255 255 255 255 255 255 255 255 255 255 255 32 50 0 32 32 0 0 0 0 37 0 37 0 0 37 0 32 50 0 0 0 0 37 0 37 0 0 37 0 37 32 0 0 0 32 37 0 37 0 0 0 0 32 32 0 0 0 0 37 0 37 0 0 37 0 32 32 0 0 0 0 37 0 37 0 0 19 0 32 32 118 255 255 255 255 255 255 255 255 255 255 255 255 255 255 255 
255 255 255 255 255 255 255 255 255 255 255 255 255 255 255 255 255 255 80 50 0 32 32 0 0 0 0 37 0 37 0 0 37 0 32 50 0 0 0 0 37 0 37 0 0 37 0 37 32 0 0 0 32 37 0 37 0 0 0 0 32 32 0 0 0 0 37 0 37 0 0 37 0 32 32 0 0 0 0 37 0 37 0 0 19 0 32 32 187 255 255 255 255 255 255 255 255 255 255 255 255 255 255 255 
255 255 255 255 255 255 255 255 255 255 255 255 255 255 255 255 255 255 88 50 0 32 32 0 0 0 0 37 0 37 0 0 37 0 32 50 0 0 0 0 32 0 37 0 0 37 0 37 32 0 0 0 32 37 0 37 0 0 0 0 32 32 0 0 0 0 37 0 37 0 0 37 0 32 32 0 0 0 0 37 0 37 0 0 19 0 32 41 221 255 255 255 255 255 255 255 255 255 255 255 255 255 255 255 
255 255 255 255 255 255 255 255 255 255 255 255 255 255 255 255 255 255 163 75 0 32 32 0 0 0 0 37 0 37 0 0 37 0 32 50 0 0 0 0 32 0 37 0 0 37 0 37 32 0 0 0 32 37 0 37 0 0 21 0 32 32 0 0 0 0 37 0 37 0 0 37 0 32 32 0 0 0 28 37 0 37 0 0 19 0 32 50 255 255 255 255 255 255 255 255 255 255 255 255 255 255 255 255 
255 255 255 255 255 255 255 255 255 255 255 255 255 255 255 255 255 255 255 88 0 32 32 0 0 0 0 37 0 37 0 0 37 0 32 50 0 0 0 0 32 0 37 0 0 37 0 37 32 0 0 0 32 37 0 37 0 0 37 0 32 32 0 0 0 0 37 0 37 0 0 37 0 37 32 0 0 0 32 37 0 37 0 0 19 0 32 89 255 255 255 255 255 255 255 255 255 255 255 255 255 255 255 255 
255 255 255 255 255 255 255 255 255 255 255 255 255 255 255 255 255 255 255 88 0 32 32 0 0 0 0 37 0 37 0 0 37 0 40 50 0 0 0 12 32 0 37 0 0 37 0 37 32 0 0 0 32 37 0 37 0 0 37 0 32 32 0 0 0 0 37 0 37 0 0 37 0 37 32 0 0 0 32 37 0 37 0 0 19 0 32 221 255 255 255 255 255 255 255 255 255 255 255 255 255 255 255 255 
255 255 255 255 255 255 255 255 255 255 255 255 255 255 255 255 255 255 255 88 0 32 32 0 0 0 0 37 0 37 0 0 37 0 37 50 0 0 0 32 32 0 37 0 0 37 0 37 32 0 0 0 32 37 0 37 0 0 37 0 32 32 0 0 0 0 37 0 37 0 0 37 0 37 32 0 0 0 32 37 0 37 0 0 19 0 32 255 255 255 255 255 255 255 255 255 255 255 255 255 255 255 255 255 
255 255 255 255 255 255 255 255 255 255 255 255 255 255 255 255 255 255 255 40 0 32 32 0 0 0 21 37 0 37 0 0 37 0 37 50 0 0 0 32 32 0 37 0 0 37 0 37 32 0 0 0 32 37 0 37 0 0 37 0 32 32 0 0 0 0 37 0 37 0 0 37 0 37 32 0 0 0 32 37 0 37 0 0 19 0 24 191 255 255 255 255 255 255 255 255 255 255 255 255 255 255 255 255 
255 255 255 255 255 255 255 255 255 255 255 255 255 255 255 255 255 255 255 19 0 32 32 0 0 0 32 37 0 21 0 0 37 0 37 50 0 0 0 32 32 0 37 0 0 37 0 37 32 0 0 0 32 37 0 37 0 0 37 0 32 32 0 0 0 0 37 0 37 0 0 37 0 37 32 0 0 0 32 37 0 37 0 0 19 0 0 187 255 255 255 255 255 255 255 255 255 255 255 255 255 255 255 255 
255 255 255 255 255 255 255 255 255 255 255 255 255 255 255 255 255 255 255 48 0 32 32 0 0 0 32 37 0 0 0 0 37 0 37 50 0 0 0 32 32 0 37 0 0 37 0 37 32 0 0 0 32 37 0 37 0 0 37 0 32 32 0 0 0 0 37 0 37 0 0 37 0 37 32 0 0 0 32 37 0 37 0 0 19 0 0 187 255 255 255 255 255 255 255 255 255 255 255 255 255 255 255 255 
255 255 255 255 255 255 255 255 255 255 255 255 255 255 255 255 255 255 255 46 0 32 32 0 0 0 32 37 0 0 0 0 37 0 37 50 0 0 0 32 32 0 37 0 0 37 0 37 32 0 0 0 32 32 0 37 0 0 37 0 32 32 0 0 0 28 37 0 37 0 0 37 0 37 32 0 0 0 32 37 0 37 0 0 19 0 32 255 255 255 255 255 255 255 255 255 255 255 255 255 255 255 255 255 
255 255 255 255 255 255 255 255 255 255 255 255 255 255 255 255 255 255 255 88 0 32 32 0 0 0 32 37 0 0 0 0 37 0 37 50 0 0 0 32 32 0 37 0 0 37 0 37 32 0 0 0 32 32 0 37 0 0 37 0 32 28 0 0 0 32 37 0 37 0 0 37 0 37 32 0 0 0 32 37 0 37 0 0 19 0 19 255 255 255 255 255 255 255 255 255 255 255 255 255 255 255 255 255 
255 255 255 255 255 255 255 255 255 255 255 255 255 255 255 255 255 255 255 88 0 32 32 0 0 0 32 37 0 0 0 0 37 0 37 50 0 0 0 32 32 0 37 0 0 37 0 37 32 0 0 0 32 32 0 37 0 0 37 0 40 0 0 0 0 32 37 0 37 0 0 37 0 37 32 0 0 0 32 37 0 37 0 0 19 0 56 255 255 255 255 255 255 255 255 255 255 255 255 255 255 255 255 255 
255 255 255 255 255 255 255 255 255 255 255 255 255 255 255 255 255 255 255 109 0 32 32 0 0 0 32 37 0 0 0 0 37 0 37 50 0 0 0 32 32 0 37 0 0 37 0 37 32 0 0 0 32 32 0 37 0 0 37 0 37 0 0 0 0 32 37 0 37 0 0 37 0 37 32 0 0 0 32 37 0 37 0 0 19 0 32 255 255 255 255 255 255 255 255 255 255 255 255 255 255 255 255 255 
255 255 255 255 255 255 255 255 255 255 255 255 255 255 255 255 255 255 255 187 0 32 32 0 0 0 32 37 0 0 0 0 37 0 37 50 0 0 0 32 32 0 37 0 0 37 0 37 32 0 0 0 32 32 0 37 0 0 37 0 37 0 0 0 0 32 37 0 37 0 0 37 0 37 32 0 0 0 32 37 0 37 0 0 19 0 80 255 255 255 255 255 255 255 255 255 255 255 255 255 255 255 255 255 
255 255 255 255 255 255 255 255 255 255 255 255 255 255 255 255 255 255 255 187 0 32 32 0 0 0 32 37 0 0 0 0 37 0 37 50 0 0 0 32 32 0 37 0 0 37 0 37 32 0 0 0 32 32 0 37 0 0 37 0 37 0 0 0 0 32 37 0 37 0 0 37 0 37 32 0 0 0 32 37 0 37 0 0 19 0 88 255 255 255 255 255 255 255 255 255 255 255 255 255 255 255 255 255 
255 255 255 255 255 255 255 255 255 255 255 255 255 255 255 255 255 255 255 221 16 32 32 0 0 0 32 55 0 0 0 0 37 0 37 50 0 0 0 32 32 0 12 0 0 37 0 37 32 0 23 0 32 32 0 37 0 0 37 0 37 0 0 0 0 32 37 0 37 0 0 37 0 37 32 0 0 0 32 37 0 37 0 0 19 0 159 255 255 255 255 255 255 255 255 255 255 255 255 255 255 255 255 255 
255 255 255 255 255 255 255 255 255 255 255 255 255 255 255 255 255 255 255 255 32 32 32 0 0 0 32 64 0 0 0 28 37 0 37 50 0 0 0 32 32 0 0 0 0 37 0 37 32 0 19 0 32 32 0 37 0 0 37 0 37 0 0 0 0 32 37 0 37 0 0 37 0 37 32 0 0 0 32 37 0 37 0 0 19 0 187 255 255 255 255 255 255 255 255 255 255 255 255 255 255 255 255 255 
255 255 255 255 255 255 255 255 255 255 255 255 255 255 255 255 255 255 255 255 19 0 0 0 0 0 32 64 0 0 0 32 37 0 37 50 0 0 0 32 32 0 0 0 0 37 0 37 32 0 19 0 32 32 0 37 0 0 37 0 37 0 0 0 0 32 41 0 37 0 0 37 0 37 32 0 0 0 32 40 0 37 0 0 16 24 238 255 255 255 255 255 255 255 255 255 255 255 255 255 255 255 255 255 
255 255 255 255 255 255 255 255 255 255 255 255 255 255 255 255 255 255 255 255 41 0 0 32 21 0 32 64 0 0 0 32 37 0 37 50 0 0 0 32 32 0 0 0 0 37 0 37 32 0 19 0 32 32 0 12 0 0 37 0 37 0 0 0 0 32 32 0 37 0 0 37 0 37 32 0 0 0 32 32 0 37 0 0 0 19 255 255 255 255 255 255 255 255 255 255 255 255 255 255 255 255 255 255 
255 255 255 255 255 255 255 255 255 255 255 255 255 255 255 255 255 255 255 255 56 0 0 55 221 104 34 55 0 38 0 32 37 0 37 50 0 0 0 32 32 0 0 0 0 37 0 37 32 0 19 0 32 32 0 0 0 0 37 0 37 0 0 0 0 32 32 0 32 0 0 37 0 37 32 0 0 0 28 23 34 104 55 0 0 56 255 255 255 255 255 255 255 255 255 255 255 255 255 255 255 255 255 255 
255 255 255 255 255 255 255 255 255 255 255 255 255 255 255 255 255 255 255 255 32 0 0 37 255 255 255 204 96 96 34 29 37 0 37 50 0 0 0 32 32 0 0 0 0 37 0 37 32 0 19 0 32 32 0 0 0 0 37 0 37 0 0 0 0 32 32 0 19 0 0 37 0 37 32 0 0 48 68 153 255 255 37 0 0 32 255 255 255 255 255 255 255 255 255 255 255 255 255 255 255 255 255 255 
255 255 255 255 255 255 255 255 255 255 255 255 255 255 255 255 255 255 255 255 80 0 0 46 255 255 255 255 255 255 238 170 112 63 55 46 21 0 0 32 32 0 0 0 0 37 0 37 32 0 19 0 32 32 0 0 0 0 37 0 37 0 0 0 0 32 32 0 19 0 0 31 29 23 55 104 204 255 255 255 255 255 41 0 0 80 255 255 255 255 255 255 255 255 255 255 255 255 255 255 255 255 255 255 
255 255 255 255 255 255 255 255 255 255 255 255 255 255 255 255 255 255 255 255 88 0 0 64 255 255 255 255 255 255 255 255 255 255 255 255 187 187 112 96 63 64 30 29 28 21 11 21 28 0 14 0 28 32 0 0 0 0 28 0 40 0 19 0 32 32 46 75 80 133 187 221 255 255 255 255 255 255 255 255 255 238 32 0 0 88 255 255 255 255 255 255 255 255 255 255 255 255 255 255 255 255 255 255 
255 255 255 255 255 255 255 255 255 255 255 255 255 255 255 255 255 255 255 255 88 0 0 64 238 255 255 255 255 255 255 255 255 255 255 255 255 255 255 255 255 255 255 255 255 221 187 187 170 119 119 119 112 96 88 112 112 136 119 153 175 175 187 187 204 255 255 255 255 255 255 255 255 255 255 255 255 255 255 255 255 187 32 0 0 159 255 255 255 255 255 255 255 255 255 255 255 255 255 255 255 255 255 255 
255 255 255 255 255 255 255 255 255 255 255 255 221 150 88 113 175 238 255 255 159 0 0 32 187 255 255 255 255 255 255 255 255 255 255 255 255 255 255 255 255 255 255 255 255 255 255 255 255 255 255 255 255 255 255 255 255 255 255 255 255 255 255 255 255 255 255 255 255 255 255 255 255 255 255 255 255 255 255 255 255 187 21 0 0 187 255 255 255 255 255 255 255 255 255 255 255 255 255 255 255 255 255 255 
255 255 255 255 255 255 255 255 133 64 34 0 0 0 0 0 0 0 10 48 14 0 0 37 187 255 255 255 255 255 255 255 255 255 255 255 255 255 255 255 255 255 255 255 255 255 255 255 255 255 255 255 255 255 255 255 255 255 255 255 255 255 255 255 255 255 255 255 255 255 255 255 255 255 255 255 255 255 255 255 255 170 0 0 24 238 255 255 255 255 255 255 255 255 255 255 255 255 255 255 255 255 255 255 
255 255 255 255 255 255 192 34 0 0 0 0 0 0 0 0 0 0 0 0 0 0 0 13 119 221 255 255 255 255 255 255 255 255 255 255 255 255 255 255 255 255 255 255 255 255 255 255 255 255 255 255 255 255 255 255 255 255 255 255 255 255 255 255 255 255 255 255 255 255 255 255 255 255 255 255 255 255 255 255 255 112 0 0 23 255 255 255 255 255 255 255 255 255 255 255 255 255 255 255 255 255 255 255 
255 255 255 255 255 82 0 0 0 0 0 0 0 0 0 0 0 0 0 0 0 0 0 0 0 40 46 96 170 238 255 255 255 255 255 255 255 255 255 255 255 255 255 255 255 255 255 255 255 255 255 255 255 255 255 255 255 255 255 255 255 255 255 255 255 255 255 255 255 255 255 255 255 255 255 255 255 255 255 255 255 88 0 0 56 255 255 255 255 255 255 255 255 255 255 255 255 255 255 255 255 255 255 255 
255 255 255 238 55 0 0 0 0 0 0 0 0 0 0 0 0 0 0 0 0 0 0 0 0 0 0 0 21 41 51 112 187 255 255 255 255 255 255 255 255 255 255 255 255 255 255 255 255 255 255 255 255 255 255 255 255 255 255 255 255 255 255 255 255 255 255 255 255 255 255 255 255 255 255 255 255 255 255 255 255 50 0 0 40 238 255 255 255 255 255 255 255 255 255 255 255 255 255 255 255 255 255 255 
255 255 255 113 0 0 0 0 0 0 0 0 0 0 0 0 0 0 0 0 0 0 0 0 0 0 0 0 0 0 0 0 28 48 57 136 221 255 255 255 255 255 255 255 255 255 255 255 255 255 255 255 255 255 255 255 255 255 255 255 255 255 255 255 255 255 255 255 255 255 255 255 255 255 255 255 255 255 255 255 255 64 0 0 28 43 25 40 32 88 204 255 255 255 255 255 255 255 255 255 255 255 255 255 
255 255 255 10 0 0 0 0 0 0 0 0 0 0 0 0 0 0 0 0 0 0 10 32 32 32 24 0 0 0 0 0 0 0 0 0 32 46 82 170 238 255 255 255 255 255 255 255 255 255 255 255 255 255 255 255 255 255 255 255 255 255 255 255 255 255 255 255 255 255 255 255 255 255 255 255 255 255 255 255 255 37 0 0 96 238 96 23 0 0 0 23 91 221 255 255 255 255 255 255 255 255 255 255 
255 255 148 0 0 0 0 0 0 0 0 0 0 0 0 0 0 0 0 11 41 82 187 255 255 255 221 187 104 80 48 23 8 0 0 0 0 0 0 12 41 55 82 153 204 255 255 255 255 255 255 255 255 255 255 255 255 255 255 255 255 255 255 255 255 255 255 255 255 255 255 255 255 255 255 255 255 255 255 255 255 40 0 0 119 255 255 63 0 0 0 0 0 16 72 238 255 255 255 255 255 255 255 255 
255 255 56 0 0 0 0 0 0 0 0 0 0 0 0 0 0 0 28 127 255 255 255 255 255 255 255 255 255 255 255 255 204 133 55 14 0 0 0 0 0 0 0 0 32 46 57 112 187 238 255 255 255 255 255 255 255 255 255 255 255 255 255 255 255 255 255 255 255 255 255 255 255 255 255 255 255 255 255 255 187 32 0 0 187 255 255 221 48 0 0 0 0 0 0 19 163 255 255 255 255 255 255 255 
255 255 23 0 0 0 0 0 0 0 0 0 0 0 0 0 0 21 143 255 255 255 255 255 255 255 255 255 255 255 255 255 255 255 255 221 109 40 16 0 0 0 0 0 0 0 0 0 21 41 55 82 153 204 255 255 255 255 255 255 255 255 255 255 255 255 255 255 255 255 255 255 255 255 255 255 255 255 255 255 187 12 0 28 187 255 255 255 55 0 0 0 0 0 0 0 8 109 255 255 255 255 255 255 
255 255 29 0 0 0 0 0 0 0 0 0 0 0 0 0 0 75 255 255 255 255 255 255 255 255 255 255 255 255 255 255 255 255 255 255 255 255 204 80 34 10 0 0 0 0 0 0 0 0 0 0 0 32 40 57 104 187 238 255 255 255 255 255 255 255 255 255 255 255 255 255 255 255 255 255 255 255 255 255 136 0 0 32 204 255 255 238 40 0 0 0 0 0 0 0 0 8 150 255 255 255 255 255 
255 255 48 0 0 0 0 0 0 0 0 0 0 0 0 0 16 204 255 255 255 255 255 255 255 255 255 255 255 255 255 255 255 255 255 255 255 255 255 255 255 187 62 28 0 0 0 0 0 0 0 0 0 0 0 0 0 21 34 55 63 112 170 187 255 255 255 255 255 255 255 255 255 255 255 255 255 255 255 255 104 0 0 40 255 255 255 80 14 0 0 0 0 0 0 0 0 0 17 223 255 255 255 255 
255 255 68 0 0 0 0 0 0 0 0 0 0 0 0 0 23 255 255 255 255 255 255 255 255 255 255 255 255 255 255 255 255 255 255 255 255 255 255 255 255 255 255 221 62 14 0 0 0 0 0 0 0 0 0 0 0 0 0 0 0 0 0 32 40 55 57 88 119 187 221 255 255 255 255 255 255 255 255 255 75 0 0 37 255 255 112 24 0 0 0 0 0 0 0 0 0 0 0 40 255 255 255 255 
255 255 175 8 0 0 0 0 0 0 0 0 0 0 0 0 32 221 255 255 255 255 255 255 255 255 255 255 255 255 255 255 255 255 255 255 255 255 255 255 255 255 255 255 255 221 62 14 0 0 0 0 0 0 0 0 0 0 0 0 0 0 0 0 0 0 0 0 0 21 32 40 64 50 88 96 119 119 187 187 41 0 0 46 80 41 13 0 0 0 0 0 0 0 0 0 0 0 0 8 204 255 255 255 
255 255 255 40 0 0 0 0 0 0 0 0 0 0 0 0 0 170 255 255 255 255 255 255 255 255 255 255 255 255 255 255 255 255 255 255 255 255 255 221 187 187 187 221 255 255 255 221 51 16 0 19 24 19 0 0 0 0 0 0 0 0 0 0 0 0 0 0 0 0 0 0 0 0 0 0 0 0 0 0 0 0 0 0 0 0 0 0 0 0 0 0 0 0 0 0 0 0 0 0 150 255 255 255 
255 255 255 187 21 0 0 0 0 0 0 0 0 0 0 0 0 32 255 255 255 255 255 255 255 255 255 255 255 255 255 255 255 255 255 191 91 40 28 8 0 0 0 0 0 32 28 72 177 175 40 8 0 37 0 40 21 0 0 0 0 0 0 0 0 0 0 0 0 0 0 0 0 0 0 0 0 0 0 0 0 0 0 0 0 0 0 0 0 0 0 0 0 0 0 0 0 0 0 0 91 255 255 255 
255 255 255 255 133 7 0 0 0 0 0 0 0 0 0 0 0 13 82 255 255 255 255 255 255 255 255 255 255 255 255 255 238 88 29 0 0 0 0 0 0 0 0 0 0 0 0 0 0 23 91 152 40 8 13 46 32 68 41 12 0 0 0 0 0 0 0 0 0 0 0 0 0 0 0 0 0 0 0 0 0 0 0 0 0 0 0 0 0 0 0 0 0 0 0 0 0 0 0 0 56 255 255 255 
255 255 255 255 255 123 7 0 0 0 0 0 0 0 0 0 0 0 11 46 187 255 255 255 255 255 255 255 255 255 255 113 10 0 0 0 0 32 0 0 0 0 0 0 0 0 0 0 0 0 0 17 123 175 40 16 13 37 136 153 41 40 0 0 0 0 0 0 0 0 0 0 0 0 0 0 0 0 0 0 0 0 0 0 0 0 0 0 0 0 0 0 0 0 0 0 0 0 0 0 80 255 255 255 
255 255 255 255 255 255 159 23 0 0 0 0 0 0 0 0 0 0 0 0 16 51 187 255 255 255 255 255 255 191 16 0 72 55 119 153 187 221 187 153 119 55 72 34 24 0 0 0 0 0 0 0 8 136 255 187 62 14 21 37 127 204 112 41 28 0 0 0 0 0 0 0 0 0 0 0 0 0 0 0 0 0 0 0 0 0 0 0 0 0 0 0 0 0 0 0 0 0 0 0 109 255 255 255 
255 255 255 255 255 255 255 238 68 14 0 0 0 0 0 0 0 0 0 0 0 0 19 41 62 50 96 255 255 238 221 255 255 255 255 255 221 113 75 255 255 255 255 159 116 143 51 32 0 0 0 0 0 28 255 255 255 221 62 14 13 40 89 221 204 104 37 19 0 0 0 0 0 0 0 0 0 0 0 0 0 0 0 0 0 0 0 0 0 0 0 0 0 0 0 0 0 0 0 12 238 255 255 255 
255 255 255 255 255 255 255 255 255 238 82 23 0 0 0 0 0 0 0 0 0 0 0 0 12 48 159 255 255 255 255 255 255 255 175 40 16 7 143 221 88 125 204 187 6 28 72 207 88 28 0 0 0 28 255 255 255 255 255 221 62 28 0 34 75 187 255 170 104 46 40 0 0 0 0 0 0 0 0 0 0 0 0 0 0 0 0 0 0 0 0 0 0 0 0 0 0 0 0 56 255 255 255 255 
255 255 255 255 255 255 255 255 255 255 255 255 175 88 48 34 23 32 32 19 32 48 32 123 238 255 255 255 255 255 255 255 255 96 8 0 0 109 204 17 0 0 12 150 104 0 0 19 238 255 191 80 62 207 255 255 255 255 255 255 255 221 88 23 0 24 41 153 255 255 221 136 68 40 21 0 0 0 0 0 0 0 0 0 0 0 0 0 0 0 0 0 0 0 0 0 0 0 14 238 255 255 255 255 
255 255 255 255 255 255 255 255 255 255 255 255 255 255 255 255 255 255 255 255 255 255 255 255 255 255 255 255 255 255 255 255 175 8 0 0 32 221 62 0 0 0 0 23 221 24 0 0 48 255 255 255 255 255 255 255 255 255 255 255 255 255 255 238 88 23 0 11 46 112 221 255 255 255 170 104 46 40 0 0 0 0 0 0 0 0 0 0 0 0 0 8 34 51 45 25 0 8 96 255 255 255 255 255 
255 255 255 255 255 255 255 255 255 255 255 255 255 255 255 255 255 255 255 255 255 255 255 255 255 255 255 255 255 255 255 255 88 0 0 0 40 255 56 0 0 0 0 0 187 34 0 0 32 255 255 255 255 255 255 255 255 255 255 255 255 255 255 255 255 238 88 28 10 0 41 68 153 238 255 255 255 221 136 88 55 32 28 32 23 19 32 41 46 88 133 221 255 170 34 0 7 123 255 255 255 255 255 255 
255 255 255 255 255 255 255 255 255 255 255 255 255 255 255 255 255 255 255 255 255 255 255 255 255 255 255 255 255 255 255 255 148 7 0 0 41 238 55 0 0 0 0 29 238 29 0 0 23 255 255 255 255 255 255 255 255 255 255 255 255 255 255 255 255 255 255 255 187 62 34 0 12 41 68 153 238 255 255 255 255 255 255 255 255 255 255 255 255 255 238 153 75 32 0 14 164 255 255 255 255 255 255 255 
255 255 255 255 255 255 255 255 255 255 255 255 255 255 255 255 255 255 255 255 255 255 255 255 255 255 255 255 255 255 255 255 255 72 0 0 12 143 238 23 0 0 14 133 104 0 0 8 96 255 255 255 255 255 255 255 255 255 255 255 255 255 255 255 255 255 255 255 255 255 255 143 55 21 0 12 41 68 153 187 238 255 255 255 255 255 255 204 119 80 62 34 0 8 40 238 255 255 255 255 255 255 255 255 
255 255 255 255 255 255 255 255 255 255 255 255 255 255 255 255 255 255 255 255 255 255 255 255 255 255 255 255 255 255 255 255 255 255 64 8 0 28 204 238 163 138 204 143 24 0 23 150 255 255 255 255 255 255 255 255 255 255 255 255 255 255 255 255 255 255 255 255 255 255 255 255 255 238 109 40 16 0 12 32 56 64 50 50 88 88 46 55 41 0 0 14 48 191 255 255 255 255 255 255 255 255 255 255 
255 255 255 255 255 255 255 255 255 255 255 255 255 255 255 255 255 255 255 255 255 255 255 255 255 255 255 255 255 255 255 255 255 255 255 175 72 28 8 204 255 255 175 16 40 109 238 255 255 255 255 255 255 255 255 255 255 255 255 255 255 255 255 255 255 255 255 255 255 255 255 255 255 255 255 255 204 80 34 28 0 0 0 0 0 0 0 14 34 40 123 238 255 255 255 255 255 255 255 255 255 255 255 255 
255 255 255 255 255 255 255 255 255 255 255 255 255 255 255 255 255 255 255 255 255 255 255 255 255 255 255 255 255 255 255 255 255 255 255 255 255 255 255 255 255 255 255 255 255 255 255 255 255 255 255 255 255 255 255 255 255 255 255 255 255 255 255 255 255 255 255 255 255 255 255 255 255 255 255 255 255 255 255 255 238 187 163 138 125 187 221 255 255 255 255 255 255 255 255 255 255 255 255 255 255 255 255 255 
255 255 255 255 255 255 255 255 255 255 255 255 255 255 255 255 255 255 255 255 255 255 255 255 255 255 255 255 255 255 255 255 255 255 255 255 255 255 255 255 255 255 255 255 255 255 255 255 255 255 255 255 255 255 255 255 255 255 255 255 255 255 255 255 255 255 255 255 255 255 255 255 255 255 255 255 255 255 255 255 255 255 255 255 255 255 255 255 255 255 255 255 255 255 255 255 255 255 255 255 255 255 255 255 
255 255 255 255 255 255 255 255 255 255 255 255 255 255 255 255 255 255 255 255 255 255 255 255 255 255 255 255 255 255 255 255 255 255 255 255 255 255 255 255 255 255 255 255 255 255 255 255 255 255 255 255 255 255 255 255 255 255 255 255 255 255 255 255 255 255 255 255 255 255 255 255 255 255 255 255 255 255 255 255 255 255 255 255 255 255 255 255 255 255 255 255 255 255 255 255 255 255 255 255 255 255 255 255 
255 255 255 255 255 255 255 255 255 255 255 255 255 255 255 255 255 255 255 255 255 255 255 255 255 255 255 255 255 255 255 255 255 255 255 255 255 255 255 255 255 255 255 255 255 255 255 255 255 255 255 255 255 255 255 255 255 255 255 255 255 255 255 255 255 255 255 255 255 255 255 255 255 255 255 255 255 255 255 255 255 255 255 255 255 255 255 255 255 255 255 255 255 255 255 255 255 255 255 255 255 255 255 255 
255 255 255 255 255 255 255 255 255 255 255 255 255 255 255 255 255 255 255 255 255 255 255 255 255 255 255 255 255 255 255 255 255 255 255 255 255 255 255 255 255 255 255 255 255 255 255 255 255 255 255 255 255 255 255 255 255 255 255 255 255 255 255 255 255 255 255 255 255 255 255 255 255 255 255 255 255 255 255 255 255 255 255 255 255 255 255 255 255 255 255 255 255 255 255 255 255 255 255 255 255 255 255 255 
255 255 255 255 255 255 255 255 255 255 255 255 255 255 255 255 255 255 255 255 255 255 255 255 255 255 255 255 255 255 255 255 255 255 255 255 255 255 255 255 255 255 255 255 255 255 255 255 255 255 255 255 255 255 255 255 255 255 255 255 255 255 255 255 255 255 255 255 255 255 255 255 255 255 255 255 255 255 255 255 255 255 255 255 255 255 255 255 255 255 255 255 255 255 255 255 255 255 255 255 255 255 255 255 
255 255 255 255 255 255 255 255 255 255 255 255 255 255 255 255 255 255 255 255 255 255 255 255 255 255 255 255 255 255 255 255 255 255 255 255 255 255 255 255 255 255 255 255 255 255 255 255 255 255 255 255 255 255 255 255 255 255 255 255 255 255 255 255 255 255 255 255 255 255 255 255 255 255 255 255 255 255 255 255 255 255 255 255 255 255 255 255 255 255 255 255 255 255 255 255 255 255 255 255 255 255 255 255 
255 255 255 255 255 255 255 255 255 255 255 255 255 255 255 255 255 255 255 255 255 255 255 255 255 255 255 255 255 255 255 255 255 255 255 255 255 255 255 255 255 255 255 255 255 255 255 255 255 255 255 255 255 255 255 255 255 255 255 255 255 255 255 255 255 255 255 255 255 255 255 255 255 255 255 255 255 255 255 255 255 255 255 255 255 255 255 255 255 255 255 255 255 255 255 255 255 255 255 255 255 255 255 255 
255 255 255 255 255 255 255 255 255 255 255 255 255 255 255 255 255 255 255 255 255 255 255 255 255 255 255 255 255 255 255 255 255 255 255 255 255 255 255 255 255 255 255 255 255 255 255 255 255 255 255 255 255 255 255 255 255 255 255 255 255 255 255 255 255 255 255 255 255 255 255 255 255 255 255 255 255 255 255 255 255 255 255 255 255 255 255 255 255 255 255 255 255 255 255 255 255 255 255 255 255 255 255 255 
255 255 255 255 255 255 255 255 255 255 255 255 255 255 255 255 123 204 255 255 255 255 255 255 255 255 255 255 255 255 255 255 255 255 255 255 255 255 255 255 255 255 255 255 255 255 255 255 255 255 255 255 255 255 255 255 255 255 255 255 255 255 255 255 255 255 255 255 255 255 255 255 255 255 255 255 255 255 255 255 255 255 255 255 255 255 255 255 255 255 255 255 255 255 255 255 255 255 255 255 255 255 255 255 
255 255 255 255 255 255 255 255 255 255 255 255 255 255 255 255 64 68 255 255 255 255 255 255 255 255 255 255 255 255 255 255 255 255 255 255 255 255 255 255 255 255 255 255 255 255 255 255 255 255 255 255 204 255 255 255 255 255 255 255 255 255 255 255 255 255 255 255 255 255 255 255 255 255 255 255 255 255 255 255 255 255 255 255 255 255 255 255 204 255 255 255 255 255 255 255 255 255 255 255 255 255 255 255 
255 255 255 255 255 255 255 255 255 255 255 255 255 255 255 255 32 34 255 255 255 255 255 255 255 255 255 255 255 255 255 255 255 255 255 255 255 255 255 255 255 255 255 255 255 255 255 255 255 255 255 221 7 221 255 255 255 255 255 255 255 255 255 255 255 255 255 255 255 255 255 255 255 255 255 255 255 255 255 255 255 255 255 255 255 255 255 187 32 255 255 255 255 255 255 255 255 255 255 255 255 255 255 255 
255 255 255 255 255 255 255 255 255 255 255 255 255 255 255 255 32 11 143 255 255 255 255 255 255 255 255 255 255 255 255 255 255 255 255 255 255 255 255 255 255 255 255 255 255 255 255 255 255 255 255 89 0 82 255 255 255 255 255 255 255 255 255 255 255 255 255 255 255 255 255 255 255 255 255 255 255 255 255 255 255 255 255 255 255 255 255 63 32 255 255 255 255 255 255 255 255 255 255 255 255 255 255 255 
255 255 255 255 255 255 255 255 255 255 255 255 255 255 255 255 56 0 62 255 255 255 255 255 255 255 255 255 255 255 255 255 255 255 255 255 255 255 255 255 255 255 255 255 255 255 255 255 255 255 187 48 0 41 238 255 255 255 255 255 255 255 255 255 255 255 255 255 255 255 255 255 255 255 255 255 255 255 255 255 255 255 255 255 255 255 221 48 32 255 255 255 255 255 255 255 255 255 255 255 255 255 255 255 
255 255 255 255 255 255 255 255 255 255 255 255 255 255 255 255 56 0 16 187 255 255 255 255 255 255 255 255 255 255 255 255 255 255 255 255 255 255 255 255 255 255 255 255 255 255 255 255 255 255 64 16 0 0 118 255 255 255 255 255 255 255 255 255 255 255 255 255 255 255 255 255 255 255 255 255 255 255 255 255 255 255 255 255 255 255 96 15 23 255 255 255 255 255 255 255 255 255 255 255 255 255 255 255 
255 255 255 255 255 255 255 255 255 255 255 255 255 255 255 255 56 0 0 41 255 255 255 255 255 255 255 255 255 255 255 255 255 255 255 255 255 255 255 255 255 255 255 255 255 255 255 255 255 153 72 0 0 0 28 255 255 255 255 255 255 255 255 255 255 255 255 255 255 255 255 255 255 255 255 255 255 255 255 255 255 255 255 255 255 221 48 0 19 255 255 255 255 255 255 255 255 255 255 255 255 255 255 255 
255 255 255 255 255 255 255 255 255 255 255 255 255 255 255 255 40 0 0 11 143 255 255 255 255 255 255 255 255 255 255 255 255 255 255 255 255 255 255 255 255 255 255 255 255 255 255 255 238 50 0 0 0 0 0 96 255 255 255 255 255 255 255 255 255 255 255 255 255 255 255 255 255 255 255 255 255 255 255 255 255 255 255 255 255 82 0 0 19 255 255 255 255 255 255 255 255 255 255 255 255 255 255 255 
255 255 255 255 255 255 255 255 255 255 255 255 255 255 255 255 56 0 0 0 29 238 255 255 255 255 255 255 255 255 255 255 255 255 255 255 255 255 255 255 255 255 255 255 255 255 255 255 112 25 0 0 0 0 0 32 187 255 255 255 255 255 255 255 255 255 255 255 255 255 255 255 255 255 255 255 255 255 255 255 255 255 255 255 221 28 0 0 29 255 255 255 255 255 255 255 255 255 255 255 255 255 255 255 
255 255 255 255 255 255 255 255 255 255 255 255 255 255 255 255 100 0 0 0 0 41 238 255 255 255 255 255 255 255 255 255 255 255 255 255 255 255 255 255 255 255 255 255 255 255 255 221 29 0 0 0 0 0 0 0 32 238 255 255 255 255 255 255 255 255 255 255 255 255 255 255 255 255 255 255 255 255 255 255 255 255 255 238 37 0 0 0 48 255 255 255 255 255 255 255 255 255 255 255 255 255 255 255 
255 255 255 255 255 255 255 255 255 255 255 255 255 255 255 255 175 0 0 0 0 0 82 255 255 255 255 255 255 255 255 255 255 255 255 255 255 255 255 255 255 255 255 255 255 255 238 37 0 0 0 0 0 0 0 0 0 62 255 255 255 255 255 255 255 255 255 255 255 255 255 255 255 255 255 255 255 255 255 255 255 255 255 75 0 0 0 0 113 255 255 255 255 255 255 255 255 255 255 255 255 255 255 255 
255 255 255 255 255 255 255 255 255 255 255 255 255 255 255 255 221 16 0 0 0 0 14 75 255 255 255 255 255 255 255 255 255 255 255 255 255 255 255 255 255 255 255 255 255 204 51 0 0 0 0 0 0 0 0 0 0 11 68 238 255 255 255 255 255 255 255 255 255 255 255 255 255 255 255 255 255 255 255 255 255 255 96 14 0 0 0 0 223 255 255 255 255 255 255 255 255 255 255 255 255 255 255 255 
255 255 255 255 255 255 255 255 255 255 255 255 255 255 255 255 255 40 0 0 0 0 0 0 51 221 255 255 255 255 255 255 255 255 255 255 255 255 255 255 255 255 255 255 187 32 0 0 0 0 0 0 10 0 0 0 0 0 0 41 204 255 255 255 255 255 255 255 255 255 255 255 255 255 255 255 255 255 255 255 255 62 12 0 0 0 0 29 255 255 255 255 255 255 255 255 255 255 255 255 255 255 255 255 
255 255 255 255 255 255 255 255 255 255 255 255 255 255 255 255 255 123 0 0 0 0 0 0 0 29 112 238 255 255 255 255 255 255 255 255 255 255 255 255 255 255 238 104 21 0 0 0 0 0 0 8 159 12 0 0 0 0 0 0 40 159 255 255 255 255 255 255 255 255 255 255 255 255 255 255 255 255 255 170 32 0 0 0 0 0 0 72 255 255 255 255 255 255 255 255 255 255 255 255 255 255 255 255 
255 255 255 255 255 255 255 255 255 255 255 255 255 255 255 255 255 255 23 0 0 0 0 0 0 0 13 32 133 238 255 255 255 255 255 255 255 255 255 255 187 89 34 0 0 0 0 0 0 0 0 40 255 72 0 0 0 0 0 0 0 16 62 187 255 255 255 255 255 255 255 255 255 255 255 255 255 221 63 24 0 0 0 0 0 0 8 204 255 255 255 255 255 255 255 255 255 255 255 255 255 255 255 255 
255 255 255 255 255 255 255 255 255 255 255 255 255 255 255 255 255 255 88 0 0 0 0 0 0 0 0 0 0 32 46 75 136 187 187 187 153 112 88 40 24 0 0 0 0 0 0 0 0 0 16 187 255 238 12 0 0 0 0 0 0 0 0 19 41 112 221 255 255 255 255 255 255 255 204 127 51 28 0 0 0 0 0 0 0 0 40 255 255 255 255 255 255 255 255 255 255 255 255 255 255 255 255 255 
255 255 255 255 255 255 255 255 255 255 255 255 255 255 255 255 255 255 238 19 0 0 0 0 0 0 0 0 0 0 0 0 0 0 0 0 0 0 0 0 0 0 0 0 0 0 0 0 0 0 57 255 255 255 100 0 0 0 0 0 0 0 0 0 0 0 21 56 55 50 50 75 51 40 32 0 0 0 0 0 0 0 0 0 0 12 238 255 255 255 255 255 255 255 255 255 255 255 255 255 255 255 255 255 
255 255 255 255 255 255 255 255 255 255 255 255 255 255 255 255 255 255 255 148 8 0 0 0 0 0 0 0 0 0 0 0 0 0 0 0 0 0 0 0 0 0 0 0 0 0 0 0 0 23 238 255 255 255 255 23 0 0 0 0 0 0 0 0 0 0 0 0 0 0 0 0 0 0 0 0 0 0 0 0 0 0 0 0 0 91 255 255 255 255 255 255 255 255 255 255 255 255 255 255 255 255 255 255 
255 255 255 255 255 255 255 255 255 255 255 255 255 255 255 255 255 255 255 255 64 0 0 0 0 0 0 0 0 0 0 0 0 0 0 0 0 0 0 0 0 0 0 0 0 0 0 0 8 148 255 255 255 255 255 175 14 0 0 0 0 0 0 0 0 0 0 0 0 0 0 0 0 0 0 0 0 0 0 0 0 0 0 0 34 255 255 255 255 255 255 255 255 255 255 255 255 255 255 255 255 255 255 255 
255 255 255 255 255 255 255 255 255 255 255 255 255 255 255 255 255 255 255 255 238 34 0 0 0 0 0 0 0 0 0 0 0 0 0 0 0 0 0 0 0 0 0 0 0 0 0 0 62 255 255 255 255 255 255 255 123 7 0 0 0 0 0 0 0 0 0 0 0 0 0 0 0 0 0 0 0 0 0 0 0 0 0 17 207 255 255 255 255 255 255 255 255 255 255 255 255 255 255 255 255 255 255 255 
255 255 255 255 255 255 255 255 255 255 255 255 255 255 255 255 255 255 255 255 255 191 14 0 0 0 0 0 0 0 0 0 0 0 0 0 0 0 0 0 0 0 0 0 0 0 0 62 255 255 255 255 255 255 255 255 255 92 0 0 0 0 0 0 0 0 0 0 0 0 0 0 0 0 0 0 0 0 0 0 0 0 14 175 255 255 255 255 255 255 255 255 255 255 255 255 255 255 255 255 255 255 255 255 
255 255 255 255 255 255 255 255 255 255 255 255 255 255 255 255 255 255 255 255 255 255 191 17 0 0 0 0 0 0 0 0 0 0 0 0 0 0 0 0 0 0 0 0 0 0 62 255 255 255 255 255 255 255 255 255 255 255 102 7 0 0 0 0 0 0 0 0 0 0 0 0 0 0 0 0 0 0 0 0 0 17 191 255 255 255 255 255 255 255 255 255 255 255 255 255 255 255 255 255 255 255 255 255 
255 255 255 255 255 255 255 255 255 255 255 255 255 255 255 255 255 255 255 255 255 255 255 238 40 0 0 0 0 0 0 0 0 0 0 0 0 0 0 0 0 0 0 0 8 88 255 255 255 255 255 255 255 255 255 255 255 255 255 123 7 0 0 0 0 0 0 0 0 0 0 0 0 0 0 0 0 0 0 0 23 223 255 255 255 255 255 255 255 255 255 255 255 255 255 255 255 255 255 255 255 255 255 255 
255 255 255 255 255 255 255 255 255 255 255 255 255 255 255 255 255 255 255 255 255 255 255 255 255 80 14 0 0 0 0 0 0 0 0 0 0 0 0 0 0 0 0 40 175 255 255 255 255 255 255 255 255 255 255 255 255 255 255 255 159 28 0 0 0 0 0 0 0 0 0 0 0 0 0 0 0 0 8 62 255 255 255 255 255 255 255 255 255 255 255 255 255 255 255 255 255 255 255 255 255 255 255 255 
255 255 255 255 255 255 255 255 255 255 255 255 255 255 255 255 255 255 255 255 255 255 255 255 255 255 207 56 12 0 0 0 0 0 0 0 0 0 0 0 0 34 163 255 255 255 255 255 255 255 255 255 255 255 255 255 255 255 255 255 255 255 113 41 0 0 0 0 0 0 0 0 0 0 0 0 7 48 191 255 255 255 255 255 255 255 255 255 255 255 255 255 255 255 255 255 255 255 255 255 255 255 255 255 
255 255 255 255 255 255 255 255 255 255 255 255 255 255 255 255 255 255 255 255 255 255 255 255 255 255 255 255 238 109 48 19 0 0 0 0 0 17 34 72 159 255 255 255 255 255 255 255 255 255 255 255 255 255 255 255 255 255 255 255 255 255 255 255 175 80 32 28 21 0 0 0 14 32 48 123 238 255 255 255 255 255 255 255 255 255 255 255 255 255 255 255 255 255 255 255 255 255 255 255 255 255 255 255 
255 255 255 255 255 255 255 255 255 255 255 255 255 255 255 255 255 255 255 255 255 255 255 255 255 255 255 255 255 255 255 255 255 221 187 187 204 255 255 255 255 255 255 255 255 255 255 255 255 255 255 255 255 255 255 255 255 255 255 255 255 255 255 255 255 255 255 255 255 187 204 255 255 255 255 255 255 255 255 255 255 255 255 255 255 255 255 255 255 255 255 255 255 255 255 255 255 255 255 255 255 255 255 255 
255 255 255 255 255 255 255 255 255 255 255 255 255 255 255 255 255 255 255 255 255 255 255 255 255 255 255 255 255 255 255 255 255 255 255 255 255 255 255 255 255 255 255 255 255 255 255 255 255 255 255 255 255 255 255 255 255 255 255 255 255 255 255 255 255 255 255 255 255 255 255 255 255 255 255 255 255 255 255 255 255 255 255 255 255 255 255 255 255 255 255 255 255 255 255 255 255 255 255 255 255 255 255 255 
255 255 255 255 255 255 255 255 255 255 255 255 255 255 255 255 255 255 255 255 255 255 255 255 255 255 255 255 255 255 255 255 255 255 255 255 255 255 255 255 255 255 255 255 255 255 255 255 255 255 255 255 255 255 255 255 255 255 255 255 255 255 255 255 255 255 255 255 255 255 255 255 255 255 255 255 255 255 255 255 255 255 255 255 255 255 255 255 255 255 255 255 255 255 255 255 255 255 255 255 255 255 255 255 
255 255 255 255 255 255 255 255 255 255 255 255 255 255 255 255 255 255 255 255 255 255 255 255 255 255 255 255 255 255 255 255 255 255 255 255 255 255 255 255 255 255 255 255 255 255 255 255 255 255 255 255 255 255 255 255 255 255 255 255 255 255 255 255 255 255 255 255 255 255 255 255 255 255 255 255 255 255 255 255 255 255 255 255 255 255 255 255 255 255 255 255 255 255 255 255 255 255 255 255 255 255 255 255 
