P2
78 113
255
255 255 255 255 255 255 255 255 255 255 255 255 255 255 255 255 255 255 255 255 255 255 255 255 255 255 255 255 255 255 255 255 255 255 255 255 255 255 255 255 255 255 255 255 255 255 255 255 255 255 255 255 255 255 255 255 255 255 255 255 255 255 255 255 255 255 255 255 255 255 255 255 255 255 255 255 255 255 
255 255 255 255 255 255 255 255 255 255 255 255 255 255 255 255 255 255 255 255 255 255 255 255 255 255 255 255 255 255 255 255 255 255 255 255 255 255 255 255 255 255 255 255 255 255 255 255 255 255 255 255 255 255 255 255 255 255 255 255 255 255 255 255 255 255 255 255 255 255 255 255 255 255 255 255 255 255 
255 255 255 255 255 255 255 255 255 255 255 255 255 255 255 255 255 255 255 255 255 255 255 255 255 255 255 255 255 255 255 255 255 255 255 255 255 255 255 255 255 255 255 255 255 255 255 255 255 255 255 255 255 255 255 255 255 255 255 255 255 255 255 255 255 255 255 255 255 255 255 255 255 255 255 255 255 255 
255 255 255 255 255 255 255 255 255 255 255 255 255 255 255 255 255 255 255 255 255 255 255 255 255 255 255 255 255 255 255 255 255 255 255 255 255 255 255 255 255 255 255 255 255 255 255 255 255 255 255 255 255 255 255 255 255 255 255 255 255 255 255 255 255 255 255 255 255 255 255 255 255 255 255 255 255 255 
255 255 255 255 255 255 255 255 255 255 255 255 255 255 255 255 255 255 255 255 255 255 255 255 255 255 255 255 255 255 255 255 255 255 255 255 255 255 255 255 255 255 255 255 255 255 255 255 255 255 255 255 255 255 255 255 255 255 255 255 255 255 255 255 255 255 255 255 255 255 255 255 255 255 255 255 255 255 
255 255 255 255 255 255 255 255 255 255 255 255 255 255 255 255 255 255 255 255 255 255 255 255 255 255 255 255 255 255 255 255 255 255 255 255 255 255 255 255 255 255 255 255 255 255 255 255 255 255 255 255 255 255 255 255 255 255 255 255 255 255 255 255 255 255 255 255 255 255 255 255 255 255 255 255 255 255 
255 255 255 255 255 255 255 255 255 255 255 255 255 255 255 255 255 255 255 255 255 255 255 255 255 255 255 255 255 255 255 255 255 255 255 255 255 204 187 187 187 187 187 238 255 255 255 255 255 255 255 255 255 255 255 255 255 255 255 255 255 255 255 255 255 255 255 255 255 255 255 255 255 255 255 255 255 255 
255 255 255 255 255 255 255 255 255 255 255 255 255 255 255 255 255 255 255 255 255 255 255 255 255 255 255 255 255 255 255 221 153 102 68 17 0 0 0 0 0 0 0 0 0 68 102 153 238 255 255 255 255 255 255 255 255 255 255 255 255 255 255 255 255 255 255 255 255 255 255 255 255 255 255 255 255 255 
255 255 255 255 255 255 255 255 255 255 255 255 255 255 255 255 255 255 255 255 255 255 255 255 255 255 255 255 204 119 34 0 0 0 0 0 0 0 0 0 0 0 0 0 0 0 0 0 0 51 136 238 255 255 255 255 255 255 255 255 255 255 255 255 255 255 255 255 255 255 255 255 255 255 255 255 255 255 
255 255 255 255 255 255 255 255 255 255 255 255 255 255 255 255 255 255 255 255 255 255 255 255 255 238 153 34 0 0 0 0 0 0 0 0 0 0 0 0 0 0 0 0 0 0 0 0 0 0 0 0 85 187 255 255 255 255 255 255 255 255 255 255 255 255 255 255 255 255 255 255 255 255 255 255 255 255 
255 255 255 255 255 255 255 255 255 255 255 255 255 255 255 255 255 255 255 255 255 255 255 238 119 17 0 0 0 0 0 0 0 0 0 0 0 0 0 0 0 0 0 0 0 0 0 0 0 0 0 0 0 0 68 187 255 255 255 255 255 255 255 255 255 255 255 255 255 255 255 255 255 255 255 255 255 255 
255 255 255 255 255 255 255 255 255 255 255 255 255 255 255 255 255 255 255 255 255 238 119 17 0 0 0 0 0 0 0 0 0 0 0 0 0 0 0 0 0 0 0 0 0 0 0 0 0 0 0 0 0 0 0 0 68 187 255 255 255 255 255 255 255 255 255 255 255 255 255 255 255 255 255 255 255 255 
255 255 255 255 255 255 255 255 255 255 255 255 255 255 255 255 255 255 255 255 153 17 0 0 0 0 0 0 0 0 0 0 0 0 0 0 0 0 0 0 0 0 0 0 0 0 0 0 0 0 0 0 0 0 0 0 0 0 119 255 255 255 255 255 255 255 255 255 255 255 255 255 255 255 255 255 255 255 
255 255 255 255 255 255 255 255 255 255 255 255 255 255 255 255 255 255 204 68 0 0 0 0 0 0 0 0 0 0 0 0 0 0 0 0 0 0 0 0 0 0 0 0 0 0 0 0 0 0 0 0 0 0 0 0 0 0 0 51 204 255 255 255 255 255 255 255 255 255 255 255 255 255 255 255 255 255 
255 255 255 255 255 255 255 255 255 255 255 255 255 255 255 255 255 136 0 0 0 0 0 0 0 0 0 0 0 0 0 0 0 0 0 0 0 0 0 0 0 0 0 0 0 0 0 0 0 0 0 0 0 0 0 0 0 0 0 0 0 153 255 255 255 255 255 255 255 255 255 255 255 255 255 255 255 255 
255 255 255 255 255 255 255 255 255 255 255 255 255 255 255 238 68 0 0 0 0 0 0 0 0 0 0 0 0 0 0 0 0 0 0 0 0 0 0 0 0 0 0 0 0 0 0 0 0 0 0 0 0 0 0 0 0 0 0 0 0 0 153 255 255 255 255 255 255 255 255 255 255 255 255 255 255 255 
255 255 255 255 255 255 255 255 255 255 255 255 255 255 187 17 0 0 0 0 0 0 0 0 0 0 0 0 0 0 0 0 0 0 0 0 0 0 0 0 0 0 0 0 0 0 0 0 0 0 0 0 0 0 0 0 0 0 0 0 0 0 0 119 255 255 255 255 255 255 255 255 255 255 255 255 255 255 
255 255 255 255 255 255 255 255 255 255 255 255 255 136 0 0 0 0 0 0 0 0 0 0 0 0 0 0 0 0 0 0 0 0 0 0 0 0 0 0 0 0 0 0 0 0 0 0 0 0 0 0 0 0 0 0 0 0 0 0 0 0 0 0 102 255 255 255 255 255 255 255 255 255 255 255 255 255 
255 255 255 255 255 255 255 255 255 255 255 255 102 0 0 0 0 0 0 0 0 0 0 0 0 0 0 0 0 0 0 0 0 0 0 0 0 0 0 0 0 0 0 0 0 0 0 0 0 0 0 0 0 0 0 0 0 0 0 0 0 0 0 0 0 153 255 255 255 255 255 255 255 255 255 255 255 255 
255 255 255 255 255 255 255 255 255 255 238 85 0 0 0 0 0 0 0 0 0 0 0 0 0 0 0 0 0 0 0 0 0 0 0 0 0 0 0 0 0 0 0 0 0 0 0 0 0 0 0 0 0 0 0 0 0 0 0 0 0 0 0 0 0 0 187 255 255 255 255 255 255 255 255 255 255 255 
255 255 255 255 255 255 255 255 255 238 51 0 0 0 0 0 0 0 0 0 0 0 0 0 0 0 0 0 0 0 0 0 0 0 0 0 0 0 0 0 0 0 0 0 0 0 0 0 0 0 0 0 0 0 0 0 0 0 0 0 0 0 0 0 0 0 17 204 255 255 255 255 255 255 255 255 255 255 
255 255 255 255 255 255 255 255 238 51 0 0 0 0 0 0 0 0 0 0 0 0 0 0 0 0 0 0 0 0 0 0 0 0 0 0 0 0 0 0 0 0 0 0 0 0 0 0 0 0 0 0 0 0 0 0 0 0 0 0 0 0 0 0 0 0 0 51 255 255 255 255 255 255 255 255 255 255 
255 255 255 255 255 255 255 238 51 0 0 0 0 0 0 0 0 0 0 0 0 0 0 0 0 0 0 0 0 0 0 0 0 0 0 0 0 0 0 0 0 0 0 0 0 0 0 0 0 0 0 0 0 0 0 0 0 0 0 0 0 0 0 0 0 0 0 0 119 255 255 255 255 255 255 255 255 255 
255 255 255 255 255 255 238 51 0 0 0 0 0 0 0 0 0 0 0 0 0 0 0 0 0 0 0 0 0 0 0 0 0 0 0 0 0 0 0 0 0 0 0 0 0 0 0 0 0 0 0 0 0 0 0 0 0 0 0 0 0 0 0 0 0 0 0 0 0 221 255 255 255 255 255 255 255 255 
255 255 255 255 255 255 102 0 0 0 0 0 0 0 0 0 0 0 0 0 0 0 0 0 0 0 0 0 0 0 0 0 0 0 0 0 0 0 0 0 0 0 0 0 0 0 0 0 0 0 0 0 0 0 0 0 0 0 0 0 0 0 0 0 0 0 0 0 0 68 255 255 255 255 255 255 255 255 
255 255 255 255 255 119 0 0 0 0 0 0 0 0 0 0 0 0 0 0 0 0 0 0 0 0 0 0 0 0 0 0 0 0 0 0 0 0 0 0 0 0 0 0 0 0 0 0 0 0 0 0 0 0 0 0 0 0 0 0 0 0 0 0 0 0 0 0 0 0 153 255 255 255 255 255 255 255 
255 255 255 255 187 0 0 0 0 0 0 0 0 0 0 85 17 0 0 0 0 0 0 0 0 0 0 0 0 0 0 0 0 0 0 0 0 0 0 0 0 0 0 0 0 0 0 0 0 0 0 0 0 0 0 0 0 0 0 0 0 0 0 0 0 0 0 0 0 0 51 255 255 255 255 255 255 255 
255 255 255 238 34 0 0 0 0 0 0 0 0 0 0 255 255 221 153 102 51 0 0 0 0 0 0 0 0 0 0 0 0 0 0 0 0 0 0 0 0 0 0 0 0 0 0 0 0 0 0 0 0 0 0 0 0 0 0 0 0 0 0 0 0 0 0 0 0 0 0 187 255 255 255 255 255 255 
255 255 255 119 0 0 0 0 0 0 0 0 0 0 0 187 255 255 255 255 255 255 187 136 102 51 0 0 0 0 0 0 0 0 0 0 0 0 0 0 0 0 0 0 0 0 0 0 0 0 0 0 0 0 0 0 0 0 0 0 0 0 0 0 0 0 0 0 0 0 0 68 255 255 255 255 255 255 
255 255 238 17 0 0 0 0 0 0 0 0 0 0 0 153 255 255 255 255 255 255 255 255 255 255 255 221 187 136 102 68 17 0 0 0 0 0 0 0 0 0 0 0 0 0 0 0 0 0 0 0 0 0 0 0 0 0 0 0 0 0 0 0 0 0 0 0 0 0 0 0 204 255 255 255 255 255 
255 255 136 0 0 0 0 0 0 0 0 0 0 0 0 136 255 255 255 255 255 255 255 255 255 255 255 255 255 255 255 255 255 255 221 187 153 136 136 102 68 68 51 0 0 0 0 0 0 0 0 0 0 0 34 68 68 102 136 68 0 0 0 0 0 0 0 0 0 0 0 0 119 255 255 255 255 255 
255 255 85 0 0 0 0 0 0 0 0 0 0 0 0 68 255 255 255 255 255 255 255 255 255 255 255 255 255 255 255 255 255 255 255 255 255 255 255 255 255 255 255 255 255 255 255 255 255 255 255 255 255 255 255 255 255 255 255 221 0 0 0 0 0 0 0 0 0 0 0 0 34 255 255 255 255 255 
255 255 0 0 0 0 0 0 0 0 0 0 0 0 0 34 255 255 255 255 255 255 255 255 255 255 255 255 255 255 255 255 255 255 255 255 255 255 255 255 255 255 255 255 255 255 255 255 255 255 255 255 255 255 255 255 255 255 255 255 102 0 0 0 0 0 0 0 0 0 0 0 0 221 255 255 255 255 
255 255 0 0 0 0 0 0 0 0 0 0 0 0 0 0 255 255 255 255 255 255 255 255 255 255 255 255 255 255 255 255 255 255 255 255 255 255 255 255 255 255 255 255 255 255 255 255 255 255 255 255 255 255 255 255 255 255 255 255 221 0 0 0 0 0 0 0 0 0 0 0 0 136 255 255 255 255 
255 255 0 0 0 0 0 0 0 0 0 0 0 0 0 0 187 255 255 255 255 255 255 255 255 255 255 255 255 255 255 255 255 255 255 255 255 255 255 255 255 255 255 255 255 255 255 255 255 255 255 255 255 255 255 255 255 255 255 255 255 102 0 0 0 0 0 0 0 0 0 0 0 68 255 255 255 255 
255 255 0 0 0 0 0 0 0 0 0 0 0 0 0 0 136 255 255 255 255 255 187 102 68 221 255 255 255 255 255 255 255 255 255 255 255 255 255 255 255 255 255 255 255 255 255 255 255 255 255 255 255 255 255 255 255 255 255 255 255 238 17 0 0 0 0 0 0 0 0 0 0 34 255 255 255 255 
255 255 0 0 0 0 0 0 0 0 0 0 0 0 0 0 136 255 255 255 238 68 102 221 255 255 255 255 255 255 255 255 255 255 255 255 255 255 255 255 255 255 255 255 255 255 255 255 255 255 255 255 255 255 255 255 255 255 255 255 255 255 136 0 0 0 0 0 0 0 0 0 0 0 255 255 255 255 
255 255 68 0 0 0 0 0 0 0 0 0 0 0 0 0 136 255 255 204 68 204 255 255 255 255 255 255 255 255 255 255 255 255 255 255 255 255 255 255 255 255 255 255 255 255 255 255 255 255 255 255 255 255 255 255 255 255 255 255 255 255 255 34 0 0 0 0 0 0 0 0 0 0 187 255 255 255 
255 255 102 0 0 0 0 0 0 0 0 0 0 0 0 0 68 255 238 85 238 255 255 255 255 255 255 255 255 255 255 255 255 255 255 255 255 255 255 255 255 255 255 255 255 255 255 255 255 255 255 255 255 255 255 255 170 221 255 255 255 255 255 187 0 0 0 0 0 0 0 0 0 0 170 255 255 255 
255 255 119 0 0 0 0 0 0 0 0 0 0 0 0 0 68 255 170 204 255 255 255 255 255 255 255 255 255 255 255 255 255 255 255 255 255 255 255 255 255 255 255 255 255 255 255 255 255 255 255 255 255 255 255 255 204 85 255 255 255 255 255 255 85 0 0 0 0 0 0 0 0 0 119 255 255 255 
255 255 187 0 0 0 0 0 0 0 0 0 0 0 0 0 68 255 255 255 255 255 255 255 255 255 255 255 255 255 255 255 255 255 255 255 255 255 255 255 255 255 255 255 255 255 255 255 255 255 255 255 255 255 255 255 255 102 187 255 255 255 255 255 221 0 0 0 0 0 0 0 0 0 119 255 255 255 
255 255 238 0 0 0 0 0 0 0 0 0 0 0 0 0 102 255 255 255 255 255 255 255 255 255 255 255 255 255 255 255 255 255 255 255 255 255 255 255 255 255 255 255 255 255 255 255 255 255 255 255 255 255 255 255 255 238 51 204 255 255 255 255 255 119 0 0 0 0 0 0 0 0 85 255 255 255 
255 255 255 17 0 0 0 0 0 0 0 0 0 0 0 0 136 255 255 255 255 255 255 255 255 255 255 255 255 255 255 255 255 255 255 255 255 255 255 255 255 255 255 255 255 255 255 255 255 255 255 255 255 255 255 255 255 255 238 51 153 255 255 255 255 238 0 0 0 0 0 0 0 0 68 255 255 255 
255 255 255 68 0 0 0 0 0 0 0 0 0 0 0 0 153 255 255 255 255 255 255 255 255 255 255 255 255 255 255 255 255 255 255 255 255 255 255 255 255 255 255 255 255 255 255 255 255 255 255 255 255 255 255 255 255 255 255 238 119 102 221 255 255 255 102 0 0 0 0 0 0 0 68 255 255 255 
255 255 255 119 0 0 0 0 0 0 0 0 0 0 0 0 204 255 255 255 255 255 255 255 255 255 255 255 255 255 255 255 255 255 255 255 255 255 255 255 255 255 255 255 255 255 255 255 255 255 255 255 255 255 255 255 255 255 255 255 255 187 85 119 238 255 221 0 0 0 0 0 0 0 119 255 255 255 
255 255 255 136 0 0 0 0 0 0 0 0 0 0 17 170 255 255 255 255 255 255 255 255 255 255 255 255 255 255 255 255 255 255 255 255 255 255 255 255 255 255 255 255 255 255 255 255 255 255 255 255 255 255 255 255 255 255 255 255 255 255 255 187 119 102 238 85 0 0 0 0 0 0 119 255 255 255 
255 255 255 187 0 0 0 0 0 0 0 34 102 170 238 204 119 68 17 0 0 0 0 0 0 0 17 68 68 68 68 68 68 68 68 68 68 102 119 119 119 119 119 119 119 170 187 187 136 119 119 119 119 119 119 102 119 119 119 170 238 255 255 255 255 238 238 170 0 0 0 0 0 0 153 255 255 255 
255 255 255 238 0 0 0 0 0 85 221 255 255 170 34 0 0 0 0 0 0 0 0 0 0 0 0 0 0 0 0 0 0 0 0 0 0 0 0 0 0 0 0 0 0 0 0 0 0 0 0 0 0 0 0 0 0 0 0 0 0 34 136 238 255 255 255 255 0 0 0 0 0 0 187 255 255 255 
255 255 255 255 0 0 0 0 85 255 255 238 102 0 0 0 0 0 0 0 0 0 0 0 0 0 0 0 0 0 0 0 0 0 0 0 0 0 0 0 0 0 0 0 0 0 0 0 0 0 0 0 0 0 0 0 0 0 0 0 0 0 0 17 153 255 255 255 68 0 0 0 0 0 255 255 255 255 
255 255 255 255 51 0 0 0 187 255 238 51 0 0 0 0 0 0 0 0 0 0 0 0 0 0 0 0 0 0 0 0 0 0 0 0 0 0 0 0 0 0 0 0 0 0 0 0 0 0 0 0 0 0 0 0 0 0 0 0 0 0 0 0 0 102 255 255 136 0 0 0 0 51 255 255 255 255 
255 255 255 255 68 0 0 0 255 255 119 0 0 0 0 0 0 0 0 0 0 0 0 0 0 0 0 0 0 0 0 0 0 0 0 0 0 68 153 119 17 0 0 0 0 0 0 0 0 0 0 0 0 0 0 0 0 0 0 0 0 0 0 0 0 0 119 255 187 0 0 0 0 119 255 255 255 255 
255 255 255 255 85 0 0 0 255 238 17 0 0 0 0 0 0 0 0 0 0 0 0 0 0 0 0 0 0 0 0 0 0 0 0 0 153 255 255 255 204 0 0 0 0 0 0 0 0 0 0 0 0 0 0 0 0 0 0 0 0 0 0 0 0 0 0 170 255 0 0 0 0 187 255 255 255 255 
255 255 255 255 119 0 0 51 255 119 0 0 0 0 0 0 0 0 0 0 0 0 0 0 0 0 0 0 0 0 0 0 0 0 0 119 255 255 255 255 255 119 0 0 0 0 0 0 0 0 0 0 0 0 0 0 0 0 0 0 0 0 0 0 0 0 0 51 255 68 0 0 17 255 255 255 255 255 
255 255 255 255 119 0 0 68 255 34 0 0 0 0 0 0 0 0 0 0 0 0 0 0 0 0 0 0 0 0 0 0 0 0 0 187 255 255 255 255 255 204 0 0 0 0 0 0 0 0 0 0 0 0 0 0 0 0 0 0 0 0 0 0 0 0 0 0 221 119 0 0 85 255 255 255 255 255 
255 255 255 255 119 0 0 85 221 0 0 0 0 0 0 0 0 0 0 0 0 0 0 0 0 0 0 0 0 0 0 0 0 0 0 255 255 255 255 255 255 255 17 0 0 0 0 0 0 0 0 0 0 0 0 0 0 0 0 0 0 0 0 0 0 0 0 0 153 153 0 0 153 255 255 255 255 255 
255 255 255 255 119 0 0 136 136 0 0 0 0 0 0 0 0 0 0 0 0 0 0 0 0 0 0 0 0 0 0 0 0 0 0 204 255 255 255 255 255 255 85 0 0 0 0 0 0 0 0 0 0 0 0 0 0 0 0 0 0 0 0 0 0 0 0 0 119 221 0 0 221 255 255 255 255 255 
255 255 255 255 119 0 0 136 85 0 0 0 0 0 0 0 0 0 0 0 0 0 0 0 0 0 0 0 0 0 0 0 0 0 0 187 255 255 255 255 255 255 119 0 0 0 0 0 0 0 0 0 0 0 0 0 0 0 0 0 0 0 0 0 0 0 0 0 119 255 17 34 255 255 255 255 255 255 
255 255 255 255 119 0 0 136 68 0 0 0 0 0 0 0 0 0 0 0 0 0 0 0 0 0 0 0 0 0 0 0 0 0 0 170 255 255 255 255 255 255 187 0 0 0 0 0 0 0 0 0 0 0 0 0 0 0 0 0 0 0 0 0 0 0 0 0 119 255 85 102 255 255 255 255 255 255 
255 255 255 255 119 0 0 187 68 0 0 0 0 0 0 0 0 0 0 0 0 0 0 0 0 0 0 0 0 0 0 0 0 0 34 119 255 255 255 255 255 255 238 0 0 0 0 0 0 0 0 0 0 0 0 0 0 0 0 0 0 0 0 0 0 0 0 0 119 255 136 153 255 255 255 255 255 255 
255 255 255 255 119 0 0 187 34 0 0 0 0 0 0 0 0 0 0 0 0 0 0 0 0 0 0 0 0 0 0 0 0 0 85 119 255 255 255 255 255 255 255 51 0 0 0 0 0 0 0 0 0 0 0 0 0 0 0 0 0 0 0 0 0 0 0 0 136 255 136 187 255 255 255 255 255 255 
255 255 255 255 187 0 0 187 0 0 0 0 0 0 0 0 0 0 0 0 0 0 0 0 0 0 0 0 0 0 0 0 0 0 102 68 255 255 255 255 255 255 255 119 0 0 0 0 0 0 0 0 0 0 0 0 0 0 0 0 0 0 0 0 0 0 0 0 187 255 136 255 255 255 255 255 255 255 
255 255 255 255 255 17 0 187 68 0 0 0 0 0 0 0 0 0 0 0 0 0 0 0 0 0 0 0 0 0 0 0 0 0 51 68 255 255 255 255 255 255 255 170 0 0 0 0 0 0 0 0 0 0 0 0 0 0 0 0 0 0 0 0 0 0 0 0 255 255 119 255 255 255 255 255 255 255 
255 255 255 255 255 119 51 221 68 0 0 0 0 0 0 0 0 0 0 0 0 0 0 0 0 0 0 0 0 0 0 0 0 0 0 102 255 255 255 255 255 238 255 255 34 0 0 0 0 0 0 0 0 0 0 0 0 0 0 0 0 0 0 0 0 0 0 85 255 255 117 255 255 255 255 255 255 255 
255 255 255 255 255 204 119 255 85 0 0 0 0 0 0 0 0 0 0 0 0 0 0 0 0 0 0 0 0 0 0 0 0 0 0 170 255 255 255 255 255 153 187 255 119 0 0 0 0 0 0 0 0 0 0 0 0 0 0 0 0 0 0 0 0 0 0 153 255 255 117 255 255 255 255 255 255 255 
255 255 255 255 255 255 78 255 136 0 0 0 0 0 0 0 0 0 0 0 0 0 0 0 0 0 0 0 0 0 0 0 0 0 34 238 255 255 255 255 255 68 68 255 238 17 0 0 0 0 0 0 0 0 0 0 0 0 0 0 0 0 0 0 0 0 0 238 255 255 117 255 255 255 255 255 255 255 
255 255 255 255 255 255 119 255 238 17 0 0 0 0 0 0 0 0 0 0 0 0 0 0 0 0 0 0 0 0 0 0 0 0 187 255 255 255 255 255 255 68 0 136 255 153 0 0 0 0 0 0 0 0 0 0 0 0 0 0 0 0 0 0 0 0 102 255 255 255 92 255 255 255 255 255 255 255 
255 255 255 255 255 255 136 187 255 119 0 0 0 0 0 0 0 0 0 0 0 0 0 0 0 0 0 0 0 0 68 0 0 119 255 255 255 255 255 255 255 119 0 0 153 255 153 0 0 0 0 0 0 0 0 0 0 0 0 0 0 0 0 0 0 51 238 255 255 255 68 255 255 255 255 255 255 255 
255 255 255 255 255 255 187 187 255 255 102 0 0 0 0 0 0 0 0 0 0 0 0 0 0 0 0 0 102 221 51 0 102 255 255 255 255 255 255 255 255 221 0 0 17 204 255 153 17 0 0 0 0 0 0 0 0 0 0 0 0 0 0 0 34 221 255 255 255 255 119 221 255 255 255 255 255 255 
255 255 255 255 255 255 187 187 255 255 255 119 0 0 0 0 0 0 0 0 0 0 0 0 0 34 119 221 255 153 0 102 255 255 255 255 255 255 255 255 255 255 170 51 0 17 221 255 238 119 68 0 0 0 0 0 0 0 0 0 0 0 34 119 255 255 255 255 255 255 136 187 255 255 255 255 255 255 
255 255 255 255 255 255 187 187 255 255 255 255 221 119 34 0 0 0 0 0 0 34 68 119 204 255 255 255 255 85 187 255 255 255 255 255 255 255 255 255 255 255 255 255 187 51 85 255 255 255 255 255 238 187 187 119 119 119 119 119 170 221 255 255 255 255 255 255 255 255 136 187 255 255 255 255 255 255 
255 255 255 255 255 255 187 187 255 255 255 255 255 255 255 255 255 221 187 187 255 255 255 255 255 255 255 255 255 255 255 255 255 255 255 255 255 255 255 255 255 255 255 255 255 255 85 221 255 255 255 255 255 255 255 255 255 255 255 255 255 255 255 255 255 255 255 255 255 255 136 187 255 255 255 255 255 255 
255 255 255 255 255 255 187 187 255 255 255 255 255 255 255 255 255 255 255 255 255 255 255 255 255 255 255 255 204 119 68 85 187 255 255 255 255 255 255 255 255 255 255 255 255 255 187 187 255 255 255 255 255 255 255 255 255 255 255 255 255 255 255 255 255 255 255 255 255 255 136 187 255 255 255 255 255 255 
255 255 255 255 255 255 187 187 255 255 255 255 255 255 255 255 255 255 255 255 255 255 255 255 255 255 255 187 0 0 0 0 0 153 255 255 255 255 255 255 255 170 51 68 187 255 221 221 255 255 255 255 255 255 255 255 255 255 255 255 255 255 255 255 255 255 255 255 255 255 153 187 255 255 255 255 255 255 
255 255 255 255 255 255 187 187 255 255 255 255 255 255 255 255 255 255 255 255 255 255 255 255 255 255 255 119 0 0 0 0 0 0 221 255 255 255 255 255 153 0 0 0 0 170 255 255 255 255 255 255 255 255 255 255 255 255 255 255 255 255 255 255 255 255 255 255 255 255 187 187 255 255 255 255 255 255 
255 255 255 255 255 255 221 187 255 255 255 255 255 255 255 255 255 255 255 255 255 255 255 255 255 255 255 136 0 0 0 0 0 0 51 221 255 255 255 136 0 0 0 0 0 34 255 255 255 255 255 255 255 255 255 255 255 255 255 255 255 255 255 255 255 255 255 255 255 255 187 187 255 255 255 255 255 255 
255 255 255 255 255 255 255 153 255 255 255 255 255 255 255 255 255 255 255 255 255 255 255 255 255 255 255 255 136 119 119 119 119 85 17 0 34 68 17 17 102 170 204 187 68 17 255 255 255 255 255 255 255 255 255 255 255 255 255 255 255 255 255 255 255 255 255 255 255 255 187 187 255 255 255 255 255 255 
255 255 255 255 255 255 255 112 255 255 255 255 255 255 255 255 255 255 255 255 255 255 255 255 255 255 255 255 255 255 255 255 255 255 238 102 68 102 153 238 255 255 255 255 255 255 255 255 255 255 255 255 255 255 255 255 255 255 255 255 255 255 255 255 255 255 255 255 255 255 136 187 255 255 255 255 255 255 
255 255 255 255 255 255 255 105 255 255 255 255 255 255 255 255 255 255 255 255 255 255 255 255 255 255 255 255 255 255 255 238 170 119 119 221 255 255 170 68 0 0 85 153 238 255 255 255 255 255 255 255 255 255 255 255 255 255 255 255 255 255 255 255 255 255 255 255 255 255 136 238 255 255 255 255 255 255 
255 255 255 255 255 255 255 119 255 255 255 255 255 255 255 255 255 255 255 255 255 255 255 255 255 255 255 255 255 221 119 17 0 0 0 0 204 255 34 0 0 0 0 0 17 136 255 255 255 255 255 255 255 255 255 255 255 255 255 255 255 255 255 255 255 255 255 255 255 255 143 255 255 255 255 255 255 255 
255 255 255 255 255 255 255 170 170 255 255 255 255 255 255 255 255 255 255 255 255 255 255 255 255 255 255 221 102 0 0 0 0 0 0 0 34 255 0 0 0 0 0 0 0 0 17 119 238 255 255 255 255 255 255 255 255 255 255 255 255 255 255 255 255 255 255 255 255 255 130 255 255 255 255 255 255 255 
255 255 255 255 255 255 255 238 119 255 255 255 255 255 255 255 255 255 255 255 255 255 255 255 238 153 85 0 0 0 0 0 0 0 0 0 0 204 0 0 0 0 0 0 0 0 0 0 0 85 153 221 255 255 255 255 255 255 255 255 255 255 255 255 255 255 255 255 255 255 122 255 255 255 255 255 255 255 
255 255 255 255 255 255 255 255 78 255 255 255 255 255 255 255 255 255 255 255 255 255 170 85 0 0 0 0 0 0 0 0 0 0 0 0 0 119 0 0 0 0 0 0 0 0 0 0 0 0 0 0 51 136 238 255 255 255 255 255 255 255 255 255 255 255 255 255 255 221 170 255 255 255 255 255 255 255 
255 255 255 255 255 255 255 255 119 221 255 255 255 255 255 255 255 255 255 255 204 68 0 0 0 0 0 0 0 0 0 0 0 0 0 0 0 119 0 0 0 0 0 0 0 0 0 0 0 0 0 0 0 0 17 153 255 255 255 255 255 255 255 255 255 255 255 255 255 153 238 255 255 255 255 255 255 255 
255 255 255 255 255 255 255 255 221 136 255 255 255 255 255 255 255 255 255 204 17 0 0 0 0 0 0 0 0 0 0 0 0 0 0 0 0 187 0 0 0 0 0 0 0 0 0 0 0 0 0 0 0 0 0 0 221 255 255 255 255 255 255 255 255 255 255 255 255 105 255 255 255 255 255 255 255 255 
255 255 255 255 255 255 255 255 255 78 255 255 255 255 255 255 255 255 255 51 0 0 0 0 0 0 0 0 0 0 0 0 0 0 0 0 102 255 170 17 0 0 0 0 0 0 0 0 0 0 0 0 0 0 0 0 119 255 255 255 255 255 255 255 255 255 255 255 187 153 255 255 255 255 255 255 255 255 
255 255 255 255 255 255 255 255 255 153 170 255 255 255 255 255 255 255 204 0 0 0 0 0 0 0 0 0 0 0 0 0 0 0 85 153 255 255 255 221 119 34 0 0 0 0 0 0 0 0 0 0 0 0 0 0 68 255 255 255 255 255 255 255 255 255 255 255 102 238 255 255 255 255 255 255 255 255 
255 255 255 255 255 255 255 255 255 238 96 255 255 255 255 255 255 255 153 0 0 0 0 0 0 0 0 0 0 17 102 153 204 255 255 255 255 255 255 255 255 255 255 221 187 187 255 255 238 187 187 119 102 51 0 34 170 255 255 255 255 255 255 255 255 255 255 187 102 255 255 255 255 255 255 255 255 255 
255 255 255 255 255 255 255 255 255 255 119 221 255 255 255 255 255 255 119 0 0 0 0 0 0 0 68 17 17 136 238 255 255 255 255 255 255 255 255 255 255 255 255 255 255 255 136 187 255 255 255 255 255 255 255 255 255 255 255 255 255 255 255 255 255 255 255 80 238 255 255 255 255 255 255 255 255 255 
255 255 255 255 255 255 255 255 255 255 238 112 255 255 255 255 255 255 255 221 187 187 187 187 221 255 255 153 0 0 0 119 238 255 255 255 255 255 255 255 255 255 255 255 187 34 17 221 255 255 255 255 255 255 255 255 255 255 255 255 255 255 255 255 255 255 153 119 255 255 255 255 255 255 255 255 255 255 
255 255 255 255 255 255 255 255 255 255 255 119 187 255 255 255 255 255 255 255 255 255 255 255 255 255 255 255 102 0 0 0 17 136 255 255 255 255 255 255 255 255 221 68 0 0 136 255 255 255 255 255 255 255 255 255 255 255 255 255 255 255 255 255 255 238 48 238 255 255 255 255 255 255 255 255 255 255 
255 255 255 255 255 255 255 255 255 255 255 238 80 255 255 255 255 255 255 255 255 255 255 255 255 255 255 255 255 102 0 0 0 0 51 153 255 255 255 255 170 102 0 0 0 85 255 255 255 255 255 255 255 255 255 255 255 255 255 255 255 255 255 255 255 119 187 255 255 255 255 255 255 255 255 255 255 255 
255 255 255 255 255 255 255 255 255 255 255 255 136 187 255 255 255 255 255 255 255 255 255 255 255 255 255 255 255 255 119 0 0 0 0 0 34 68 51 0 0 0 0 0 119 255 255 255 255 255 255 255 255 255 255 255 255 255 255 255 255 255 255 255 187 119 255 255 255 255 255 255 255 255 255 255 255 255 
255 255 255 255 255 255 255 255 255 255 255 255 255 92 238 255 255 255 255 255 255 255 255 255 255 255 255 255 255 255 255 187 51 0 0 0 0 0 0 0 0 0 85 204 255 255 255 255 255 255 255 255 255 255 255 255 255 255 255 255 255 255 255 238 91 238 255 255 255 255 255 255 255 255 255 255 255 255 
255 255 255 255 255 255 255 255 255 255 255 255 255 221 112 255 255 255 255 255 255 255 255 255 255 255 255 255 255 255 255 255 255 153 102 51 0 0 68 68 136 221 255 255 255 255 255 255 255 255 255 255 255 255 255 255 255 255 255 255 255 255 255 119 204 255 255 255 255 255 255 255 255 255 255 255 255 255 
255 255 255 255 255 255 255 255 255 255 255 255 255 255 136 170 255 255 255 255 255 255 255 255 255 255 255 255 255 255 255 255 255 255 255 255 255 255 255 255 255 255 255 255 255 255 255 255 255 255 255 255 255 255 255 255 255 255 255 255 255 255 187 136 255 255 255 255 255 255 255 255 255 255 255 255 255 255 
255 255 255 255 255 255 255 255 255 255 255 255 255 255 255 96 238 255 255 255 255 255 255 255 255 255 255 255 255 255 255 255 255 255 255 255 255 255 255 255 255 255 255 255 255 255 255 255 255 255 255 255 255 255 255 255 255 255 255 255 255 238 96 255 255 255 255 255 255 255 255 255 255 255 255 255 255 255 
255 255 255 255 255 255 255 255 255 255 255 255 255 255 255 238 91 238 255 255 255 255 255 255 255 255 255 255 255 255 255 255 255 255 255 255 255 255 255 255 255 255 255 255 255 255 255 255 255 255 255 255 255 255 255 255 255 255 255 255 255 78 238 255 255 255 255 255 255 255 255 255 255 255 255 255 255 255 
255 255 255 255 255 255 255 255 255 255 255 255 255 255 255 255 204 112 255 255 255 255 255 255 255 255 255 255 255 255 255 255 255 255 255 255 255 255 255 255 255 255 255 255 255 255 255 255 255 255 255 255 255 255 255 255 255 255 255 255 112 204 255 255 255 255 255 255 255 255 255 255 255 255 255 255 255 255 
255 255 255 255 255 255 255 255 255 255 255 255 255 255 255 255 255 170 119 255 255 255 255 255 255 255 255 255 255 255 255 255 255 255 255 255 255 255 255 255 255 255 255 255 255 255 255 255 255 255 255 255 255 255 255 255 255 255 255 153 153 255 255 255 255 255 255 255 255 255 255 255 255 255 255 255 255 255 
255 255 255 255 255 255 255 255 255 255 255 255 255 255 255 255 255 255 153 153 255 255 255 255 255 255 255 255 255 255 255 255 255 255 255 255 255 255 255 255 255 255 255 255 255 255 255 255 255 255 255 255 255 255 255 255 255 255 153 136 255 255 255 255 255 255 255 255 255 255 255 255 255 255 255 255 255 255 
255 255 255 255 255 255 255 255 255 255 255 255 255 255 255 255 255 255 255 153 153 255 255 255 255 255 255 255 255 255 255 255 255 255 255 255 255 255 255 255 255 255 255 255 255 255 255 255 255 255 255 255 255 255 255 255 255 204 102 255 255 255 255 255 255 255 255 255 255 255 255 255 255 255 255 255 255 255 
255 255 255 255 255 255 255 255 255 255 255 255 255 255 255 255 255 255 255 255 102 102 255 255 255 255 255 255 255 255 255 255 255 255 255 255 255 255 255 255 255 255 255 255 255 255 255 255 255 255 255 255 255 255 255 255 204 112 255 255 255 255 255 255 255 255 255 255 255 255 255 255 255 255 255 255 255 255 
255 255 255 255 255 255 255 255 255 255 255 255 255 255 255 255 255 255 255 255 255 102 102 255 255 255 255 255 255 255 255 255 255 255 255 255 255 255 255 255 255 255 255 255 255 255 255 255 255 255 255 255 255 255 255 187 112 255 255 255 255 255 255 255 255 255 255 255 255 255 255 255 255 255 255 255 255 255 
255 255 255 255 255 255 255 255 255 255 255 255 255 255 255 255 255 255 255 255 255 255 153 68 221 255 255 255 255 255 255 255 255 255 255 255 255 255 255 255 255 255 255 255 255 255 255 255 255 255 255 255 255 255 153 102 255 255 255 255 255 255 255 255 255 255 255 255 255 255 255 255 255 255 255 255 255 255 
255 255 255 255 255 255 255 255 255 255 255 255 255 255 255 255 255 255 255 255 255 255 255 170 32 170 255 255 255 255 255 255 255 255 255 255 255 255 255 255 255 255 255 255 255 255 255 255 255 255 255 255 255 136 119 255 255 255 255 255 255 255 255 255 255 255 255 255 255 255 255 255 255 255 255 255 255 255 
255 255 255 255 255 255 255 255 255 255 255 255 255 255 255 255 255 255 255 255 255 255 255 255 238 85 119 238 255 255 255 255 255 255 255 255 255 255 255 255 255 255 255 255 255 255 255 255 255 255 255 238 96 170 255 255 255 255 255 255 255 255 255 255 255 255 255 255 255 255 255 255 255 255 255 255 255 255 
255 255 255 255 255 255 255 255 255 255 255 255 255 255 255 255 255 255 255 255 255 255 255 255 255 255 153 48 153 255 255 255 255 255 255 255 255 255 255 255 255 255 255 255 255 255 255 255 255 255 187 78 221 255 255 255 255 255 255 255 255 255 255 255 255 255 255 255 255 255 255 255 255 255 255 255 255 255 
255 255 255 255 255 255 255 255 255 255 255 255 255 255 255 255 255 255 255 255 255 255 255 255 255 255 255 238 119 48 170 255 255 255 255 255 255 255 255 255 255 255 255 255 255 255 255 255 238 128 119 255 255 255 255 255 255 255 255 255 255 255 255 255 255 255 255 255 255 255 255 255 255 255 255 255 255 255 
255 255 255 255 255 255 255 255 255 255 255 255 255 255 255 255 255 255 255 255 255 255 255 255 255 255 255 255 255 238 153 63 136 204 255 255 255 255 255 255 255 255 255 255 255 255 255 153 122 238 255 255 255 255 255 255 255 255 255 255 255 255 255 255 255 255 255 255 255 255 255 255 255 255 255 255 255 255 
255 255 255 255 255 255 255 255 255 255 255 255 255 255 255 255 255 255 255 255 255 255 255 255 255 255 255 255 255 255 255 255 204 119 78 102 136 187 255 255 255 255 255 255 187 137 146 221 255 255 255 255 255 255 255 255 255 255 255 255 255 255 255 255 255 255 255 255 255 255 255 255 255 255 255 255 255 255 
255 255 255 255 255 255 255 255 255 255 255 255 255 255 255 255 255 255 255 255 255 255 255 255 255 255 255 255 255 255 255 255 255 255 255 255 187 153 119 119 119 119 119 119 187 255 255 255 255 255 255 255 255 255 255 255 255 255 255 255 255 255 255 255 255 255 255 255 255 255 255 255 255 255 255 255 255 255 
255 255 255 255 255 255 255 255 255 255 255 255 255 255 255 255 255 255 255 255 255 255 255 255 255 255 255 255 255 255 255 255 255 255 255 255 255 255 255 255 255 255 255 255 255 255 255 255 255 255 255 255 255 255 255 255 255 255 255 255 255 255 255 255 255 255 255 255 255 255 255 255 255 255 255 255 255 255 
255 255 255 255 255 255 255 255 255 255 255 255 255 255 255 255 255 255 255 255 255 255 255 255 255 255 255 255 255 255 255 255 255 255 255 255 255 255 255 255 255 255 255 255 255 255 255 255 255 255 255 255 255 255 255 255 255 255 255 255 255 255 255 255 255 255 255 255 255 255 255 255 255 255 255 255 255 255 
