P2
84 107
255
255 255 255 255 255 255 255 255 255 255 255 255 255 255 255 255 255 255 255 255 255 255 255 255 255 255 255 255 255 255 255 255 255 255 255 255 255 255 255 255 255 255 255 255 255 255 255 255 255 255 255 255 255 255 255 255 255 255 255 255 255 255 255 255 255 255 255 255 255 255 255 255 255 255 255 255 255 255 255 255 255 255 255 255 
255 255 255 255 255 255 255 255 255 255 255 255 255 255 255 255 255 255 255 255 255 255 255 255 255 255 255 255 255 255 255 255 255 255 255 255 255 255 255 255 255 255 255 255 255 255 255 255 255 255 255 255 187 68 0 0 0 0 0 0 0 0 0 0 119 238 255 255 255 255 255 255 255 255 255 255 255 255 255 255 255 255 255 255 
255 255 255 255 255 255 255 255 255 255 255 255 255 255 255 255 255 255 255 255 255 255 255 255 255 255 255 255 255 255 255 255 255 255 255 255 255 255 255 255 255 255 255 255 255 255 255 255 255 221 119 68 17 0 0 0 0 0 0 0 0 0 0 0 0 0 68 119 136 187 238 255 255 255 255 255 255 255 255 255 255 255 255 255 
255 255 255 255 255 255 255 255 255 255 255 255 255 255 255 255 255 255 255 255 255 255 255 255 255 255 255 255 255 255 255 255 255 255 255 255 255 255 255 255 255 255 255 255 255 255 170 102 0 0 0 0 0 0 0 24 109 128 148 152 133 106 80 53 40 0 0 0 0 0 0 34 85 153 238 255 255 255 255 255 255 255 255 255 
255 255 255 255 255 255 255 255 255 255 255 255 255 255 255 255 255 255 255 255 255 255 255 255 255 255 255 255 255 255 255 255 255 255 255 255 255 255 255 255 255 255 238 153 102 17 0 0 0 0 0 12 75 101 151 190 190 190 190 190 190 167 161 175 198 200 173 120 80 26 0 0 0 0 17 170 255 255 255 255 255 255 255 255 
255 255 255 255 255 255 255 255 255 255 255 255 255 255 255 255 255 255 255 255 255 255 255 255 255 255 255 255 255 255 255 255 255 255 255 255 255 255 255 255 153 85 0 0 0 0 0 0 0 63 113 177 190 190 190 190 190 190 190 190 190 190 190 190 190 181 162 174 198 200 120 53 0 0 0 17 255 255 255 255 255 255 255 255 
255 255 255 255 255 255 255 255 255 255 255 255 255 255 255 255 255 255 255 255 255 255 255 255 255 255 255 255 255 255 255 255 255 255 255 255 255 204 102 17 0 0 0 0 0 0 24 101 177 190 190 190 190 190 190 190 190 190 190 190 190 190 190 190 190 190 190 190 190 176 174 199 160 80 0 0 0 119 238 255 255 255 255 255 
255 255 255 255 255 255 255 255 255 255 255 255 255 255 255 255 255 255 255 255 255 255 255 255 255 255 255 255 255 255 255 255 255 255 255 187 68 0 0 0 0 0 0 0 50 133 187 160 154 158 158 158 158 158 158 158 158 153 160 164 187 190 190 190 190 190 190 190 190 190 190 190 167 180 133 13 0 0 51 255 255 255 255 255 
255 255 255 255 255 255 255 255 255 255 255 255 255 255 255 255 255 255 255 255 255 255 255 255 255 255 255 255 255 255 255 255 255 204 68 0 0 0 0 0 0 0 86 144 179 179 179 179 179 179 179 179 179 179 179 179 179 179 179 179 179 179 179 158 160 187 190 190 190 190 190 190 190 190 174 163 40 0 0 119 255 255 255 255 
255 255 255 255 255 255 255 255 255 255 255 255 255 255 255 255 255 255 255 255 255 255 255 255 255 255 255 255 255 255 255 255 153 17 0 0 0 0 0 35 95 166 179 155 118 95 47 83 179 179 179 179 179 179 179 179 179 179 179 179 179 179 179 179 179 179 179 153 170 190 190 190 190 190 190 190 174 107 0 0 221 255 255 255 
255 255 255 255 255 255 255 255 255 255 255 255 255 255 255 255 255 255 255 255 255 255 255 255 255 255 255 255 255 255 255 238 0 0 0 0 23 83 107 107 95 47 11 0 0 0 0 0 179 179 179 179 179 179 179 179 179 179 179 179 179 179 179 179 179 179 179 179 179 179 153 186 190 190 190 190 190 190 50 0 85 255 255 255 
255 255 255 255 255 255 255 255 255 255 255 255 255 255 255 255 255 255 255 255 255 255 255 255 255 255 255 255 255 221 136 85 0 0 0 0 35 0 0 0 0 0 0 0 0 0 22 73 148 154 167 167 167 167 167 167 167 148 148 143 150 176 178 179 179 179 179 179 179 179 179 179 168 177 190 190 190 190 177 24 0 221 255 255 
255 255 255 255 255 255 255 255 255 255 255 255 255 255 255 255 255 255 255 255 255 255 255 255 255 255 255 187 85 0 0 0 0 0 0 0 0 0 0 0 54 109 118 128 167 167 167 167 167 167 167 167 167 167 167 167 167 167 167 167 167 167 167 154 147 167 179 179 179 179 179 179 179 179 168 170 190 190 190 151 12 119 255 255 
255 255 255 255 255 255 255 255 255 255 255 255 255 255 255 255 255 255 255 255 255 255 255 255 255 221 68 0 0 0 0 0 0 0 0 35 71 99 137 152 167 167 167 167 167 167 167 167 167 167 167 167 167 167 167 167 167 167 167 167 167 167 167 167 167 167 167 147 167 179 179 179 179 179 179 179 168 177 190 190 101 17 255 255 
255 255 255 255 255 255 255 255 255 255 255 255 255 255 255 255 255 255 255 255 255 255 255 238 119 0 0 0 0 0 23 95 131 155 179 167 142 167 167 167 167 167 167 167 167 167 167 167 167 165 165 165 147 131 156 165 165 165 167 167 167 167 167 167 167 167 167 167 167 167 143 178 179 179 179 179 179 179 161 190 177 12 170 255 
255 255 255 255 255 255 255 255 255 255 255 255 255 255 255 255 255 255 255 255 255 255 187 34 0 0 0 11 71 131 179 179 179 167 148 167 167 167 167 167 167 167 167 166 149 135 138 150 158 158 158 158 158 158 158 158 158 158 158 145 138 140 156 167 167 167 167 167 167 167 167 167 143 178 179 179 179 179 179 170 170 101 102 255 
255 255 255 255 255 255 255 255 255 255 255 255 255 255 255 255 255 255 255 255 255 119 0 0 0 23 107 166 179 179 179 177 148 167 167 167 167 167 167 167 156 134 145 158 158 158 158 158 158 158 158 158 158 158 158 158 158 158 158 158 158 158 158 158 141 135 165 167 167 167 167 167 167 167 147 178 179 179 179 179 179 153 28 255 
255 255 255 255 255 255 255 255 255 255 255 255 255 255 255 255 255 255 255 238 85 0 0 11 95 166 179 179 179 179 150 167 167 167 167 167 167 166 140 145 158 158 158 158 158 158 158 158 158 158 158 158 158 158 158 158 158 158 158 158 158 158 158 158 158 158 158 141 144 167 167 167 167 167 167 158 160 179 179 179 179 179 89 204 
255 255 255 255 255 255 255 255 255 255 255 255 255 255 255 255 255 255 238 51 0 0 103 166 179 179 179 179 167 159 167 167 167 167 167 166 134 158 158 158 158 158 158 158 158 158 158 155 139 131 131 129 129 129 129 125 131 131 146 155 158 158 158 158 158 158 158 158 158 150 143 166 167 167 167 167 167 152 167 179 179 179 118 187 
255 255 255 255 255 255 255 255 255 255 255 255 255 255 255 255 255 204 51 0 12 147 179 179 179 179 179 150 167 167 167 167 167 165 142 158 158 158 158 158 158 158 158 139 125 134 146 146 146 146 146 146 146 146 146 146 146 146 146 146 146 131 126 139 158 158 158 158 158 158 158 158 143 167 167 167 167 167 167 153 179 179 131 187 
255 255 255 255 255 255 255 255 255 255 255 255 255 255 255 255 238 51 0 70 158 179 179 179 179 177 152 167 167 167 167 167 140 158 158 158 158 158 158 158 139 125 146 146 146 146 146 146 146 146 146 146 146 146 146 146 146 146 146 146 146 146 146 146 137 121 146 158 158 158 158 158 158 150 144 167 167 167 167 167 151 179 131 187 
255 255 255 255 255 255 255 255 255 255 255 255 255 255 255 255 85 0 81 165 179 179 179 179 167 167 167 167 167 167 148 142 158 158 158 158 158 157 129 146 146 146 146 146 146 146 146 146 146 146 146 146 146 146 146 146 146 146 146 146 146 146 107 97 146 146 146 140 131 158 158 158 158 158 158 136 156 167 167 167 167 160 127 187 
255 255 255 255 255 255 255 255 255 255 255 255 255 255 255 204 0 101 153 179 179 179 179 167 167 167 167 167 167 135 158 158 158 158 158 157 125 146 146 146 146 146 146 146 146 144 129 120 118 88 29 44 63 97 120 133 133 118 118 120 129 145 126 0 107 146 146 146 146 139 131 158 158 158 158 158 149 142 167 167 167 167 99 187 
255 255 255 255 255 255 255 255 255 255 255 255 255 255 204 85 101 168 179 179 179 179 167 167 167 167 167 167 136 158 158 158 158 158 131 146 146 146 146 146 87 107 136 114 122 133 133 133 133 123 79 17 0 0 0 26 70 123 133 133 133 133 119 57 19 146 107 48 146 146 146 133 138 158 158 158 158 158 134 167 167 167 66 238 
255 255 255 255 255 255 255 255 255 255 255 255 238 68 0 24 160 179 179 179 179 167 167 167 167 167 156 150 158 158 158 158 147 136 146 146 146 146 146 144 102 70 58 8 35 70 79 106 133 133 133 133 79 35 0 0 0 8 70 123 133 133 133 88 0 103 59 0 146 146 146 146 146 45 116 158 158 158 158 139 167 167 22 255 
255 255 255 255 255 255 255 255 255 255 255 238 51 0 0 126 179 179 179 179 167 167 167 167 167 156 149 158 158 158 158 136 146 146 146 146 146 144 120 101 70 35 8 0 0 0 0 0 0 26 53 70 97 126 110 71 15 0 0 8 70 133 133 133 8 44 35 0 122 145 146 146 58 68 139 138 158 158 158 158 139 144 68 255 
255 255 255 255 255 255 255 255 255 255 255 119 0 0 44 171 179 179 179 167 167 167 167 167 156 158 158 158 158 158 125 146 146 136 107 77 48 9 0 0 8 0 0 0 0 0 98 147 147 131 98 49 0 0 7 32 49 7 0 0 0 17 97 133 53 0 17 0 97 127 136 58 27 136 146 146 126 158 158 158 158 99 85 255 
255 255 255 255 255 255 255 255 255 255 221 0 0 0 140 179 179 179 177 158 167 167 167 156 149 158 158 158 158 129 146 48 19 0 0 0 8 44 35 35 17 0 0 0 0 131 246 246 246 246 246 246 229 147 98 16 0 0 0 0 0 0 0 61 79 0 0 0 97 133 79 0 111 146 146 146 86 106 158 158 158 52 136 255 
255 255 255 255 255 255 255 255 255 255 119 0 0 47 179 179 179 179 152 167 167 167 156 149 158 158 158 156 140 146 146 77 38 70 53 53 35 0 0 0 0 0 49 114 164 246 246 246 246 246 246 246 246 246 246 246 164 98 0 0 0 0 0 0 8 0 0 0 79 79 0 44 129 143 107 19 0 48 132 158 136 0 187 255 
255 255 255 255 255 255 255 255 255 255 34 0 0 131 179 179 179 150 167 167 167 167 142 158 158 158 156 140 146 146 146 107 58 9 0 0 0 0 32 131 180 246 246 246 246 246 246 246 246 246 246 246 246 246 246 246 246 246 229 147 82 0 0 0 0 0 0 0 44 8 8 123 123 64 0 0 18 117 146 135 68 0 255 255 
255 255 255 255 255 255 255 255 255 221 0 0 47 179 179 179 167 167 167 167 167 138 158 158 158 158 140 146 146 136 29 0 0 0 0 0 0 0 131 246 246 246 246 246 246 246 246 246 246 246 246 246 246 246 246 246 246 246 246 246 246 213 65 0 0 0 0 0 0 0 70 88 8 0 0 0 103 146 146 126 9 85 255 255 
255 255 255 255 255 255 255 255 255 153 0 0 131 179 179 179 154 167 167 167 140 158 158 158 158 129 146 146 117 19 0 0 0 0 0 0 16 131 246 246 246 246 246 246 246 246 246 246 246 246 246 246 246 246 246 246 246 246 246 246 246 246 246 131 65 131 0 0 0 15 43 0 0 0 0 0 27 58 136 29 0 153 255 255 
255 255 255 255 255 255 255 255 255 102 0 23 179 179 179 155 167 167 167 156 158 158 158 158 125 146 146 146 126 17 0 0 0 0 0 82 229 246 246 246 246 246 246 246 246 246 246 246 246 246 246 246 246 246 246 246 246 246 246 246 246 246 246 246 246 213 0 0 0 0 0 0 0 0 0 0 8 82 58 0 17 255 255 255 
255 255 255 255 255 255 255 255 255 34 0 107 179 179 178 167 167 167 167 145 158 158 158 135 146 146 146 146 103 17 0 0 0 0 114 246 246 246 246 246 246 246 246 246 246 246 246 246 246 246 246 246 246 246 246 246 246 246 246 246 246 246 246 246 246 246 16 0 0 0 0 0 0 59 79 106 123 44 0 0 153 255 255 255 
255 255 255 255 255 255 255 255 255 0 11 166 179 179 151 167 167 167 140 158 158 158 147 146 146 146 97 19 26 61 70 0 0 0 164 246 246 246 246 246 246 246 246 246 246 246 246 246 246 246 246 246 246 246 246 246 246 246 246 246 246 246 246 246 246 246 229 147 65 0 0 0 15 69 74 70 17 0 0 119 255 255 255 255 
255 255 255 255 255 255 255 255 187 0 83 179 179 176 167 167 167 166 150 158 158 158 133 146 146 107 99 115 133 79 0 0 7 0 98 246 246 246 246 246 246 246 246 246 246 246 246 246 246 246 246 246 246 246 246 246 246 246 246 246 246 246 246 246 246 246 246 246 246 131 0 0 0 0 0 0 0 0 119 255 255 255 255 255 
255 255 255 255 255 255 255 255 136 0 155 179 179 151 167 167 167 134 158 158 158 135 146 146 146 143 133 133 79 0 0 57 7 0 164 246 246 246 246 246 246 246 246 246 246 246 246 246 246 246 246 246 246 246 246 246 246 246 246 246 246 246 246 246 246 246 246 246 246 246 65 0 0 0 0 0 0 34 238 255 255 255 255 255 
255 255 255 255 255 255 255 255 119 35 179 179 176 167 167 167 166 158 158 158 158 139 146 146 146 121 133 79 0 7 57 7 0 65 246 246 246 246 246 246 246 246 246 246 246 246 246 246 246 246 246 246 246 246 246 246 246 246 246 246 246 246 246 246 246 246 246 246 246 246 180 0 0 0 0 17 136 255 255 255 255 255 255 255 
255 255 255 255 255 255 255 255 68 95 179 179 143 167 167 167 143 158 158 158 131 146 146 146 129 133 70 0 15 77 7 0 0 82 246 246 246 246 246 246 246 246 246 246 246 246 246 246 246 246 246 246 246 246 246 246 246 246 246 246 246 246 246 246 246 246 246 246 246 246 246 32 0 0 0 119 255 255 255 255 255 255 255 255 
255 255 255 255 255 255 255 255 34 143 179 179 159 167 167 167 158 158 158 158 139 146 146 144 126 53 0 26 99 7 0 0 0 49 246 246 246 246 246 246 246 246 246 246 246 246 246 246 246 246 246 246 246 246 246 246 246 246 246 246 246 246 246 246 246 246 246 246 246 246 246 65 0 0 0 187 255 255 255 255 255 255 255 255 
255 255 255 255 255 255 255 255 23 179 179 167 167 167 167 150 158 158 158 131 146 146 146 125 61 0 26 97 8 7 0 0 0 0 229 246 246 246 246 246 246 246 246 246 246 246 246 246 246 246 246 246 246 246 246 246 246 246 246 246 246 246 246 246 246 246 246 246 246 246 246 65 0 0 0 204 255 255 255 255 255 255 255 255 
255 255 255 255 255 255 255 187 83 179 179 143 167 167 167 141 158 158 158 134 146 146 145 121 61 61 79 8 32 15 0 7 7 0 82 246 246 246 246 246 246 246 246 246 246 246 246 246 246 246 246 246 246 246 246 246 246 246 246 246 246 246 246 246 246 246 246 246 246 246 246 65 0 0 0 187 255 255 255 255 255 255 255 255 
255 255 255 255 255 255 255 136 131 179 179 159 167 167 166 158 158 158 146 146 146 146 129 116 133 79 0 37 24 0 47 37 0 0 65 246 246 246 246 246 246 246 246 246 246 246 246 246 246 246 246 246 246 246 246 246 246 246 246 246 246 246 246 246 246 246 246 246 246 246 246 114 0 0 0 187 255 255 255 255 255 255 255 255 
255 255 255 255 255 255 255 85 155 179 176 167 167 167 146 158 158 158 125 146 146 146 119 116 79 0 66 24 0 49 56 0 0 0 65 246 246 246 246 246 246 246 246 246 246 246 246 246 246 246 246 246 246 246 246 246 246 246 246 246 246 246 246 246 246 246 246 246 246 246 246 131 0 0 0 136 255 255 255 255 255 255 255 255 
255 255 255 255 255 255 255 0 179 179 150 167 167 167 138 158 158 158 139 146 146 144 133 83 8 77 38 0 73 49 0 7 37 0 49 246 246 246 246 246 246 246 246 246 246 246 246 246 246 246 246 246 246 246 246 246 246 246 246 246 246 246 246 246 246 246 246 246 246 246 246 131 0 0 0 119 255 255 255 255 255 255 255 255 
255 255 255 255 255 255 204 47 179 179 150 167 167 167 158 158 158 156 146 146 146 125 79 8 97 26 7 80 49 0 22 29 0 0 0 196 246 246 246 246 246 246 246 246 246 246 246 246 246 246 246 246 246 246 246 246 246 246 246 246 246 246 246 246 246 246 246 246 246 246 246 164 0 0 0 85 255 255 255 255 255 255 255 255 
255 255 255 255 255 255 238 71 179 179 167 167 167 165 158 158 158 131 146 146 146 106 26 104 26 24 90 32 0 44 81 0 0 0 32 246 246 246 246 246 246 246 246 246 246 246 246 246 246 246 246 246 246 246 246 246 246 246 246 246 246 246 246 246 246 246 246 246 246 246 246 180 0 0 0 68 255 255 255 255 255 255 255 255 
255 255 255 255 255 255 255 111 179 176 167 167 167 140 158 158 158 129 146 146 126 34 115 26 46 106 24 0 80 111 37 0 0 0 98 246 246 246 246 246 246 246 246 246 246 246 246 246 246 246 246 246 246 246 246 246 246 246 246 246 246 246 246 246 246 246 246 246 246 246 246 213 0 0 0 119 255 255 255 255 255 255 255 255 
255 255 255 255 255 255 255 116 179 167 167 167 167 134 158 158 158 146 146 146 143 123 26 61 118 24 7 80 99 44 0 0 0 0 180 246 246 246 246 246 246 246 246 246 246 246 246 246 246 246 246 246 246 246 246 246 246 246 246 246 246 246 246 246 246 246 246 246 246 246 246 246 0 0 0 119 255 255 255 255 255 255 255 255 
255 255 255 255 255 255 204 116 179 150 167 167 167 138 158 158 158 146 146 146 118 26 70 113 26 24 106 96 54 0 0 0 0 82 246 246 246 246 246 246 246 246 246 246 246 246 246 246 246 246 246 246 246 246 246 246 246 246 246 246 246 246 246 246 246 246 246 246 246 246 246 246 65 0 0 153 255 255 255 255 255 255 255 255 
255 255 255 255 255 255 85 116 179 142 167 167 167 158 158 158 155 146 146 146 63 79 123 26 47 114 114 24 0 26 8 0 32 229 246 246 246 246 246 246 246 246 246 246 246 246 246 246 246 246 246 246 246 246 246 246 246 246 246 246 246 246 246 246 246 246 246 246 246 246 246 246 98 0 0 187 255 255 255 255 255 255 255 255 
255 255 255 255 255 187 0 83 179 148 167 167 167 158 158 158 139 146 146 146 118 123 26 89 123 98 15 8 53 8 0 0 196 246 246 246 246 246 246 246 246 246 246 246 246 246 246 246 246 246 246 246 246 246 246 246 246 246 246 246 246 246 246 246 246 246 246 246 246 246 246 246 131 0 0 187 255 255 255 255 255 255 255 255 
255 255 255 255 255 51 0 0 0 0 0 0 0 0 0 0 0 0 68 146 118 123 115 116 87 7 26 61 0 0 0 131 246 246 246 246 246 246 246 246 246 246 246 246 246 246 246 246 246 246 246 246 246 246 246 246 246 246 246 246 246 214 246 246 246 246 246 246 246 246 246 246 180 0 0 187 255 255 255 255 255 255 255 255 
255 255 255 255 153 0 0 0 0 0 44 44 88 83 115 126 131 146 146 146 118 133 133 81 0 53 44 0 0 0 82 246 246 246 246 246 246 246 246 246 246 246 246 246 246 246 246 246 230 181 132 115 197 246 246 246 246 246 230 148 82 0 66 246 246 246 246 246 246 246 246 246 246 0 0 170 255 255 255 255 255 255 255 255 
255 255 255 255 34 0 0 0 0 52 88 99 131 158 158 158 131 146 146 146 126 123 53 8 70 35 0 17 8 16 229 246 246 246 246 246 246 246 246 246 246 246 230 181 132 115 66 17 0 0 0 0 82 214 132 181 164 82 0 0 0 0 0 246 246 246 246 246 246 246 246 246 246 65 0 119 255 255 255 255 255 255 255 255 
255 255 255 153 0 0 0 11 23 0 0 0 0 0 30 52 84 107 136 146 90 8 0 53 26 0 53 44 0 180 246 246 246 246 246 246 246 246 246 197 66 17 0 33 82 115 17 0 0 0 0 0 0 0 0 0 0 0 0 0 0 0 33 246 246 246 246 246 246 246 246 246 246 114 0 119 255 255 255 255 255 255 255 255 
255 255 255 34 0 108 166 156 179 52 0 0 0 0 0 0 0 0 0 0 0 0 0 0 0 61 53 0 131 246 246 246 246 246 246 246 246 246 246 214 148 181 246 246 246 246 230 164 115 66 17 0 0 0 0 33 33 0 0 0 0 0 66 246 246 246 246 246 246 246 246 246 147 0 0 119 255 255 255 255 255 255 255 255 
255 255 170 0 118 156 179 156 71 0 0 0 0 0 0 0 0 0 0 0 0 0 0 0 0 0 0 65 246 246 246 246 246 246 246 246 246 246 246 246 246 246 246 246 246 246 246 246 246 246 246 230 181 132 214 246 246 181 17 0 0 0 66 246 246 246 246 246 246 246 246 147 0 0 0 102 255 255 255 255 255 255 255 255 
255 255 85 88 165 164 179 78 0 42 77 0 0 131 229 246 180 65 0 0 0 0 0 16 16 0 16 229 246 246 246 246 246 246 246 246 246 246 246 246 246 246 246 246 246 246 246 246 246 246 246 246 246 246 246 197 164 246 197 17 0 17 164 246 246 246 246 246 246 246 147 0 0 0 0 68 255 255 255 255 255 255 255 255 
255 221 24 177 165 164 71 11 118 148 66 0 131 246 246 246 246 246 147 16 0 0 131 229 32 0 82 246 246 246 246 246 246 246 246 246 246 246 246 246 246 246 246 246 246 246 246 246 246 246 246 230 148 82 0 0 0 66 181 99 115 230 246 246 246 246 246 246 246 147 0 0 119 17 0 68 255 255 255 255 255 255 255 255 
255 153 138 190 160 65 35 151 179 90 0 32 246 246 246 246 246 246 246 196 32 0 180 98 0 0 0 65 246 246 246 246 246 246 246 246 246 246 246 132 197 246 246 246 246 246 246 246 214 132 66 0 0 0 0 0 0 17 115 230 246 246 246 246 246 246 246 246 147 0 34 204 255 170 0 85 255 255 255 255 255 255 255 255 
255 92 180 177 47 56 166 156 107 0 0 114 246 246 164 50 99 230 246 246 229 164 131 0 0 0 0 114 246 246 246 246 246 246 246 246 246 246 246 197 33 50 115 115 115 115 66 17 0 0 0 34 34 0 0 17 115 230 246 246 246 246 246 246 246 246 246 147 0 85 238 255 255 102 0 119 255 255 255 255 255 255 255 255 
255 80 162 37 12 163 179 138 11 0 0 180 246 181 0 0 0 50 230 246 246 213 0 0 0 16 164 246 246 246 246 246 246 246 246 246 246 246 246 246 246 197 99 0 0 0 0 0 0 0 0 136 68 0 115 230 246 246 246 246 246 246 246 246 246 246 147 0 0 136 255 238 102 0 0 170 255 255 255 255 255 255 255 255 
238 106 74 0 138 165 171 35 95 47 0 229 246 33 115 164 17 0 66 246 246 114 0 0 0 0 164 246 246 246 246 246 246 246 246 246 246 246 246 246 246 246 246 197 181 181 181 181 181 181 181 181 181 214 246 246 246 246 246 246 246 246 246 246 246 246 131 0 0 0 68 17 0 0 68 255 255 255 255 255 255 255 255 255 
187 13 0 75 165 165 86 102 179 47 0 246 197 0 246 246 197 17 0 164 246 98 0 0 0 0 32 246 246 246 246 246 246 246 246 246 246 246 246 246 246 246 246 246 246 246 246 246 246 246 246 246 246 246 115 115 246 246 246 246 246 246 246 246 246 246 164 0 0 0 0 0 0 0 136 255 255 255 255 255 255 255 255 255 
187 0 24 177 165 98 45 156 179 23 0 246 181 0 246 246 246 197 0 66 246 164 0 0 0 0 65 246 246 246 246 246 246 246 246 246 246 246 246 246 246 246 246 246 246 246 246 246 246 246 246 246 246 164 50 246 246 246 246 246 246 246 246 246 246 246 196 0 0 0 0 0 0 51 238 255 255 255 255 255 255 255 255 255 
238 0 99 190 128 0 143 156 107 0 0 246 230 115 246 246 246 214 0 0 246 246 32 0 0 0 180 246 246 246 246 246 246 246 246 246 246 246 246 246 246 246 246 246 246 246 246 246 246 246 246 246 148 50 230 246 246 246 246 246 246 246 246 246 246 246 246 0 0 0 0 0 51 238 255 255 255 255 255 255 255 255 255 255 
255 68 173 151 12 94 190 116 0 0 0 180 246 246 246 246 246 148 0 0 246 246 131 0 16 180 246 246 246 246 246 246 246 246 246 246 246 246 246 246 246 246 246 246 246 246 246 246 246 246 115 50 17 197 246 246 246 246 246 246 246 246 246 246 246 246 246 49 0 0 0 119 238 255 255 255 255 255 255 255 255 255 255 255 
255 187 186 40 0 159 179 22 0 11 0 180 246 246 246 246 246 82 0 0 246 246 229 16 0 16 229 246 246 246 246 246 246 246 246 246 246 246 246 246 246 246 246 246 246 246 246 246 246 181 0 0 164 246 246 246 246 246 246 246 246 246 246 246 246 246 246 82 0 0 17 204 255 255 255 255 255 255 255 255 255 255 255 255 
255 255 67 0 63 165 101 0 95 83 0 114 246 246 246 246 246 17 0 148 246 246 246 164 0 0 229 246 246 246 246 246 246 246 246 246 246 246 246 246 246 246 246 246 246 246 246 246 246 214 0 132 246 246 246 246 246 246 246 246 246 246 246 246 246 246 246 131 0 0 0 187 255 255 255 255 255 255 255 255 255 255 255 255 
255 255 68 0 134 160 12 12 167 155 0 16 213 246 246 246 246 0 82 246 246 246 246 246 180 131 246 246 246 246 246 246 246 246 246 246 246 246 246 246 246 246 246 246 246 246 246 246 246 246 197 246 246 246 246 246 246 246 246 246 246 246 246 246 246 246 246 164 0 0 0 187 255 255 255 255 255 255 255 255 255 255 255 255 
255 255 102 0 169 108 0 101 158 179 47 0 65 246 246 246 246 17 0 197 246 246 246 246 246 246 246 246 246 246 246 246 246 246 246 246 246 246 246 246 246 246 246 246 246 246 246 246 246 246 246 246 246 246 246 246 246 246 246 246 246 246 246 246 246 246 246 196 0 0 0 187 255 255 255 255 255 255 255 255 255 255 255 255 
255 255 119 0 179 24 0 177 171 179 107 0 0 131 246 246 246 115 0 0 99 181 246 246 246 246 246 246 246 246 246 246 246 246 246 246 246 246 246 246 246 246 246 246 246 246 246 246 246 246 246 246 246 246 246 246 246 246 246 246 246 246 246 246 246 246 246 246 65 0 34 255 255 255 255 255 255 255 255 255 255 255 255 255 
255 255 204 40 106 0 87 190 190 140 143 11 0 0 180 246 246 230 148 115 115 230 246 246 246 246 246 246 246 246 246 246 246 246 246 246 246 246 246 246 246 246 246 246 246 246 246 246 246 246 246 246 246 246 246 246 246 246 246 246 246 246 246 246 246 246 246 246 229 16 119 255 255 255 255 255 255 255 255 255 255 255 255 255 
255 255 255 40 13 0 125 190 190 46 95 95 0 0 16 196 246 246 246 246 246 246 246 246 246 246 246 246 246 246 246 246 246 246 246 246 246 246 246 246 246 246 246 246 246 246 246 246 246 246 246 246 246 246 246 246 246 246 246 246 246 246 246 246 246 246 246 246 246 196 85 255 255 255 255 255 255 255 255 255 255 255 255 255 
255 255 255 102 0 0 125 190 151 0 95 155 0 0 0 16 196 246 246 246 246 246 246 246 246 246 246 246 246 246 246 246 246 246 246 246 246 246 246 246 246 246 246 246 246 246 246 246 246 246 246 246 246 246 246 246 164 164 246 246 246 246 246 246 246 246 246 246 246 246 151 255 255 255 255 255 255 255 255 255 255 255 255 255 
255 255 255 153 0 0 159 190 101 0 71 179 59 0 0 0 16 147 246 246 246 246 246 246 246 246 246 246 246 246 246 246 246 246 246 246 246 246 246 246 246 246 246 246 246 246 246 246 246 246 246 246 246 246 246 246 132 0 148 246 246 246 246 246 246 246 246 246 246 246 90 255 255 255 255 255 255 255 255 255 255 255 255 255 
255 255 255 238 0 0 168 190 75 0 75 179 118 0 0 0 0 0 32 147 131 65 196 246 246 246 246 246 246 246 246 246 246 246 246 246 246 246 246 246 246 246 246 246 246 246 246 246 246 246 246 246 246 246 246 246 214 0 0 115 164 214 246 246 246 246 246 246 246 131 0 255 255 255 255 255 255 255 255 255 255 255 255 255 
255 255 255 255 68 0 106 178 50 0 50 162 179 23 0 0 0 0 0 0 0 0 114 246 246 246 246 246 246 246 246 246 246 246 246 246 246 246 246 246 246 246 246 246 246 246 246 246 246 246 246 246 246 246 246 246 246 132 115 115 115 115 115 230 246 246 229 180 114 0 0 204 255 255 255 255 255 255 255 255 255 255 255 255 
255 255 255 255 119 0 53 82 0 0 24 190 171 95 0 11 11 0 0 0 0 0 32 246 246 246 246 246 246 246 246 246 246 246 246 246 246 246 246 246 246 246 246 246 246 246 246 246 246 246 246 246 246 246 246 246 246 246 246 246 246 246 230 197 213 65 0 0 0 0 0 187 255 255 255 255 255 255 255 255 255 255 255 255 
255 255 255 255 187 0 0 0 0 0 0 151 171 156 0 35 143 11 0 0 0 0 0 131 246 246 246 246 246 246 246 246 246 246 246 246 246 246 246 246 246 246 246 246 246 246 246 246 246 246 246 246 246 246 246 246 246 246 246 246 246 246 115 115 131 0 0 0 0 0 136 255 255 255 255 255 255 255 255 255 255 255 255 255 
255 255 255 255 204 0 0 0 0 0 0 0 75 144 59 0 95 166 35 35 83 0 0 0 246 246 246 246 246 246 246 246 246 246 246 246 246 246 246 246 246 246 246 246 246 246 246 246 246 246 246 246 246 246 246 246 246 246 246 246 246 246 132 230 65 0 0 0 68 221 255 255 255 255 255 255 255 255 255 255 255 255 255 255 
255 255 255 255 255 0 0 0 0 0 0 0 0 0 0 0 0 107 166 166 95 0 0 0 246 246 246 246 246 246 246 246 246 246 246 246 246 246 246 246 246 246 246 246 246 246 246 246 246 246 246 246 246 246 246 246 246 147 82 164 246 246 246 246 16 0 0 136 255 255 255 255 255 255 255 255 255 255 255 255 255 255 255 255 
255 255 255 255 255 153 51 0 0 0 0 0 0 0 0 0 0 0 83 179 95 0 0 0 246 246 246 246 246 246 246 246 246 246 246 246 246 246 246 246 246 246 246 246 246 246 246 246 246 246 147 164 246 246 229 131 32 0 0 0 147 246 246 180 0 34 187 255 255 255 255 255 255 255 255 255 255 255 255 255 255 255 255 255 
255 255 255 255 255 255 255 238 119 17 0 0 0 0 0 0 0 0 0 71 95 0 0 0 180 246 246 246 246 246 246 246 246 246 246 246 246 246 246 246 246 246 246 246 246 246 246 246 246 131 0 213 213 131 16 0 0 0 0 0 0 49 32 0 0 68 255 255 255 255 255 255 255 255 255 255 255 255 255 255 255 255 255 255 
255 255 255 255 255 255 255 255 255 238 119 17 0 0 0 0 0 0 0 0 11 0 0 0 180 246 246 246 246 246 246 246 246 246 246 246 246 246 246 246 246 246 246 246 246 246 246 246 98 0 32 98 0 0 0 98 180 114 16 0 0 0 0 0 0 68 255 255 255 255 255 255 255 255 255 255 255 255 255 255 255 255 255 255 
255 255 255 255 255 255 255 255 255 255 255 238 136 68 17 0 0 0 0 0 0 0 0 0 131 246 246 246 246 246 246 246 246 246 246 246 246 246 246 246 246 246 246 246 246 246 246 98 0 0 0 0 0 98 213 246 246 246 246 164 98 16 0 0 0 68 255 255 255 255 255 255 255 255 255 255 255 255 255 255 255 255 255 255 
255 255 255 255 255 255 255 255 255 255 255 255 255 255 153 0 0 0 0 0 0 0 0 0 49 246 246 246 246 246 246 246 246 246 246 246 246 246 246 246 246 246 246 246 246 246 147 0 0 0 16 114 213 246 246 246 246 246 246 246 246 246 32 0 0 68 255 255 255 255 255 255 255 255 255 255 255 255 255 255 255 255 255 255 
255 255 255 255 255 255 255 255 255 255 255 255 255 255 255 119 0 0 0 0 0 0 0 0 0 180 246 246 246 246 246 246 246 246 246 246 246 246 246 246 246 246 246 246 246 246 131 0 0 114 229 246 229 131 229 246 246 246 246 246 246 246 114 0 0 68 255 255 255 255 255 255 255 255 255 255 255 255 255 255 255 255 255 255 
255 255 255 255 255 255 255 255 255 255 255 255 255 255 255 255 136 0 0 0 0 0 0 0 0 32 229 246 246 246 246 246 246 246 246 246 246 246 246 246 246 246 246 246 246 246 196 32 147 246 246 246 147 0 32 196 246 246 246 246 246 246 196 0 0 85 255 255 255 255 255 255 255 255 255 255 255 255 255 255 255 255 255 255 
255 255 255 255 255 255 255 255 255 255 255 255 255 255 255 255 255 136 68 0 0 0 0 0 0 0 49 213 246 246 246 246 246 246 246 246 246 246 246 246 246 246 246 246 246 246 246 246 246 246 246 246 246 49 0 0 131 164 131 131 114 65 65 0 0 119 255 255 255 255 255 255 255 255 255 255 255 255 255 255 255 255 255 255 
255 255 255 255 255 255 255 255 255 255 255 255 255 255 255 255 255 255 255 170 34 0 0 0 0 0 0 16 131 246 246 246 246 246 246 246 246 246 246 246 246 246 246 246 246 246 246 246 246 246 246 246 246 180 0 0 0 0 0 0 0 0 0 0 0 153 255 255 255 255 255 255 255 255 255 255 255 255 255 255 255 255 255 255 
255 255 255 255 255 255 255 255 255 255 255 255 255 255 255 255 255 255 255 255 255 204 187 187 136 85 17 0 0 49 180 246 246 246 246 246 246 246 246 246 246 246 246 246 246 246 246 246 246 246 246 246 246 246 82 0 0 0 0 0 0 0 0 0 0 221 255 255 255 255 255 255 255 255 255 255 255 255 255 255 255 255 255 255 
255 255 255 255 255 255 255 255 255 255 255 255 255 255 255 255 255 255 255 255 255 255 255 255 255 255 238 128 17 0 0 114 229 246 246 246 246 246 246 246 246 246 246 246 246 246 246 246 246 246 246 246 246 246 131 0 0 0 0 0 0 0 0 17 153 255 255 255 255 255 255 255 255 255 255 255 255 255 255 255 255 255 255 255 
255 255 255 255 255 255 255 255 255 255 255 255 255 255 255 255 255 255 255 255 255 255 255 255 255 255 255 255 247 112 0 0 32 180 246 246 246 246 246 246 246 246 246 246 246 246 246 246 246 246 246 246 246 246 49 0 0 147 164 16 0 0 0 119 255 255 255 255 255 255 255 255 255 255 255 255 255 255 255 255 255 255 255 255 
255 255 255 255 255 255 255 255 255 255 255 255 255 255 255 255 255 255 255 255 255 255 255 255 255 255 255 255 255 255 200 34 0 0 82 229 246 246 246 246 246 246 246 246 246 246 246 246 246 246 246 246 246 229 0 0 16 246 246 65 0 0 0 136 255 255 255 255 255 255 255 255 255 255 255 255 255 255 255 255 255 255 255 255 
255 255 255 255 255 255 255 255 255 255 255 255 255 255 255 255 255 255 255 255 255 255 255 255 255 255 255 255 255 255 255 245 85 0 0 32 196 246 246 246 246 246 246 246 246 246 246 246 246 246 246 246 246 213 82 147 229 246 246 82 0 0 0 204 255 255 255 255 255 255 255 255 255 255 255 255 255 255 255 255 255 255 255 255 
255 255 255 255 255 255 255 255 255 255 255 255 255 255 255 255 255 255 255 255 255 255 255 255 255 255 255 255 255 255 255 255 255 143 0 0 0 131 246 246 246 246 246 246 246 246 246 246 246 246 246 246 246 246 246 246 246 246 246 180 0 0 0 255 255 255 255 255 255 255 255 255 255 255 255 255 255 255 255 255 255 255 255 255 
255 255 255 255 255 255 255 255 255 255 255 255 255 255 255 255 255 255 255 255 255 255 255 255 255 255 255 255 255 255 255 255 255 255 214 34 0 0 82 229 246 246 246 246 246 246 246 246 246 246 246 246 246 246 246 246 246 246 246 246 65 0 85 255 255 255 255 255 255 255 255 255 255 255 255 255 255 255 255 255 255 255 255 255 
255 255 255 255 255 255 255 255 255 255 255 255 255 255 255 255 255 255 255 255 255 255 255 255 255 255 255 255 255 255 255 255 255 255 255 247 68 0 0 49 229 246 246 246 246 246 246 246 246 246 246 246 246 246 246 246 246 246 246 246 213 0 136 255 255 255 255 255 255 255 255 255 255 255 255 255 255 255 255 255 255 255 255 255 
255 255 255 255 255 255 255 255 255 255 255 255 255 255 255 255 255 255 255 255 255 255 255 255 255 255 255 255 255 255 255 255 255 255 255 255 255 199 17 0 49 229 246 246 246 246 246 246 246 246 246 246 246 246 246 246 246 246 246 246 229 16 221 255 255 255 255 255 255 255 255 255 255 255 255 255 255 255 255 255 255 255 255 255 
255 255 255 255 255 255 255 255 255 255 255 255 255 255 255 255 255 255 255 255 255 255 255 255 255 255 255 255 255 255 255 255 255 255 255 255 255 255 214 51 0 49 229 246 246 246 246 246 246 246 246 246 246 246 246 246 246 246 246 246 131 34 255 255 255 255 255 255 255 255 255 255 255 255 255 255 255 255 255 255 255 255 255 255 
255 255 255 255 255 255 255 255 255 255 255 255 255 255 255 255 255 255 255 255 255 255 255 255 255 255 255 255 255 255 255 255 255 255 255 255 255 255 255 255 119 0 16 131 229 246 246 246 246 246 246 246 246 246 246 246 246 246 196 114 0 136 255 255 255 255 255 255 255 255 255 255 255 255 255 255 255 255 255 255 255 255 255 255 
255 255 255 255 255 255 255 255 255 255 255 255 255 255 255 255 255 255 255 255 255 255 255 255 255 255 255 255 255 255 255 255 255 255 255 255 255 255 255 255 255 204 51 0 16 131 229 246 246 246 246 246 246 246 246 196 114 32 0 0 17 238 255 255 255 255 255 255 255 255 255 255 255 255 255 255 255 255 255 255 255 255 255 255 
255 255 255 255 255 255 255 255 255 255 255 255 255 255 255 255 255 255 255 255 255 255 255 255 255 255 255 255 255 255 255 255 255 255 255 255 255 255 255 255 255 255 255 119 17 0 16 131 229 246 246 246 196 114 32 0 0 0 0 0 204 255 255 255 255 255 255 255 255 255 255 255 255 255 255 255 255 255 255 255 255 255 255 255 
255 255 255 255 255 255 255 255 255 255 255 255 255 255 255 255 255 255 255 255 255 255 255 255 255 255 255 255 255 255 255 255 255 255 255 255 255 255 255 255 255 255 255 255 221 102 0 0 16 131 114 32 0 0 0 0 0 0 34 187 255 255 255 255 255 255 255 255 255 255 255 255 255 255 255 255 255 255 255 255 255 255 255 255 
255 255 255 255 255 255 255 255 255 255 255 255 255 255 255 255 255 255 255 255 255 255 255 255 255 255 255 255 255 255 255 255 255 255 255 255 255 255 255 255 255 255 255 255 255 255 221 119 34 0 0 0 0 0 0 34 102 153 221 255 255 255 255 255 255 255 255 255 255 255 255 255 255 255 255 255 255 255 255 255 255 255 255 255 
