P2
86 124
255
255 255 255 255 255 255 255 255 255 255 255 255 255 255 255 255 255 255 255 255 255 255 255 255 255 255 255 255 255 255 255 255 255 255 255 255 255 255 255 255 187 221 204 119 119 255 255 255 255 255 255 255 255 255 255 255 255 255 255 255 255 255 255 255 255 255 255 255 255 255 255 255 255 255 255 255 255 255 255 255 255 255 255 255 255 255 
255 255 255 255 255 255 255 255 255 255 255 255 255 255 255 255 255 255 255 255 255 255 255 255 255 255 255 255 255 255 255 255 255 255 255 255 255 221 119 34 0 0 0 0 0 34 119 255 255 255 255 255 255 255 255 255 255 255 255 255 255 255 255 255 255 255 255 255 255 255 255 255 255 255 255 255 255 255 255 255 255 255 255 255 255 255 
255 255 255 255 255 255 255 255 255 255 255 255 255 255 255 255 255 255 255 255 255 255 255 255 255 255 255 255 255 255 255 255 255 238 170 85 68 0 0 0 0 0 0 0 0 0 0 51 136 187 187 119 136 238 255 255 255 255 255 255 255 255 255 255 255 255 255 255 255 255 255 255 255 255 255 255 255 255 255 255 255 255 255 255 255 255 
255 255 255 255 255 255 255 255 255 255 255 255 255 255 255 255 255 255 255 255 255 255 255 255 255 255 255 255 255 255 187 119 51 0 0 0 0 0 0 0 0 0 39 13 0 0 0 0 0 0 0 0 0 0 34 85 119 187 238 255 255 255 255 255 255 255 255 255 255 255 255 255 255 255 255 255 255 255 255 255 255 255 255 255 255 255 
255 255 255 255 255 255 255 255 255 255 255 255 255 255 255 255 255 255 255 255 255 255 255 255 255 255 221 119 68 0 0 0 0 0 0 0 0 0 26 104 170 104 170 183 91 0 0 0 0 0 0 0 0 0 0 0 0 0 0 34 85 170 255 255 255 255 255 255 255 255 255 255 255 255 255 255 255 255 255 255 255 255 255 255 255 255 
255 255 255 255 255 255 255 255 255 255 255 255 255 255 255 255 255 255 255 255 221 68 85 102 66 0 0 0 0 0 0 0 0 0 0 0 78 157 197 183 104 52 157 197 117 78 144 117 52 13 39 39 0 0 0 0 0 0 0 0 0 0 102 238 255 255 255 255 255 255 255 255 255 255 255 255 255 255 255 255 255 255 255 255 255 255 
255 255 255 255 255 255 255 255 255 255 255 255 255 255 255 255 255 255 187 114 64 52 52 104 131 104 0 0 0 0 0 52 144 144 131 170 197 197 104 78 131 197 197 197 197 197 197 197 197 197 197 197 197 157 131 104 65 39 0 0 0 0 0 51 221 255 255 255 255 255 255 255 255 255 255 255 255 255 255 255 255 255 255 255 255 255 
255 255 255 255 255 255 255 255 255 255 255 255 255 255 255 238 153 34 104 197 197 197 197 197 197 78 0 0 0 0 98 197 197 197 197 197 157 104 170 197 197 197 197 197 197 197 197 197 197 197 197 197 197 197 197 197 197 197 197 170 104 13 0 0 17 170 255 255 255 255 255 255 255 255 255 255 255 255 255 255 255 255 255 255 255 255 
255 255 255 255 255 255 255 255 255 255 255 255 255 221 119 17 78 170 197 197 197 197 197 197 157 0 0 0 0 70 13 118 197 197 183 197 197 197 197 197 197 197 197 197 197 197 197 197 197 197 197 197 197 197 197 197 197 197 197 197 197 183 104 0 0 0 17 204 255 255 255 255 255 255 255 255 255 255 255 255 255 255 255 255 255 255 
255 255 255 255 255 255 255 255 255 255 255 255 68 0 52 144 197 197 197 197 197 197 197 197 39 0 0 12 52 0 39 184 197 170 183 197 197 197 197 197 197 197 197 197 197 197 197 197 197 197 197 197 197 197 197 197 197 197 197 197 197 197 197 131 13 0 0 17 85 153 255 255 255 255 255 255 255 255 255 255 255 255 255 255 255 255 
255 255 255 255 255 255 255 255 255 255 255 255 57 131 197 197 197 197 197 197 197 197 197 91 0 0 31 21 13 131 197 197 197 197 197 197 197 197 197 197 197 197 197 197 197 197 197 197 197 197 197 197 197 197 197 197 197 197 197 197 197 197 197 197 170 78 0 0 0 0 17 102 187 255 255 255 255 255 255 255 255 255 255 255 255 255 
255 255 255 255 255 255 255 255 255 255 255 151 117 197 197 197 197 197 197 197 197 197 157 0 0 44 0 26 158 197 197 197 197 197 197 197 197 197 197 197 197 197 197 197 197 197 197 197 197 197 197 197 197 197 197 197 197 197 197 197 197 197 197 197 197 197 91 26 0 0 0 0 0 34 119 238 255 255 255 255 255 255 255 255 255 255 
255 255 255 255 255 255 255 255 255 255 255 53 183 197 197 197 197 197 197 197 197 197 13 0 31 26 39 184 197 197 197 197 197 197 197 197 197 197 197 197 197 197 197 197 197 197 197 197 197 197 197 197 197 197 197 197 197 197 197 197 197 197 197 197 197 197 197 197 131 52 0 0 0 0 0 34 153 255 255 255 255 255 255 255 255 255 
255 255 255 255 255 255 255 255 221 255 164 39 197 197 197 197 197 197 197 197 197 91 0 13 42 39 184 197 197 197 197 197 197 197 197 197 197 197 197 197 197 197 197 197 197 197 197 197 197 197 197 197 197 197 197 197 197 197 197 197 197 197 197 197 197 197 197 197 197 197 170 91 13 0 0 0 0 136 255 255 255 255 255 255 255 255 
255 255 255 255 255 255 255 119 0 45 0 0 197 197 197 197 197 197 197 197 131 13 13 94 171 197 197 197 197 197 197 197 197 197 197 197 197 197 197 197 197 197 197 197 197 197 197 197 197 197 197 197 197 197 197 197 197 197 197 197 197 197 197 197 197 197 197 197 197 197 197 197 183 117 39 0 0 34 255 255 255 255 255 255 255 255 
255 255 255 255 255 255 99 0 104 13 0 0 157 197 197 197 197 197 197 157 0 0 94 118 197 197 197 197 197 197 197 197 197 197 197 197 197 197 197 197 197 197 197 197 197 197 197 197 197 197 197 197 197 197 197 197 197 197 197 197 197 197 197 197 197 197 197 197 197 197 197 197 197 197 197 157 78 0 170 255 255 255 255 255 255 255 
255 255 255 255 255 255 0 91 197 117 0 14 52 197 197 197 197 197 197 39 0 104 197 197 197 197 197 197 197 197 197 197 197 197 197 197 191 198 202 202 206 203 205 206 206 206 205 202 202 202 200 197 197 197 197 197 197 197 197 197 197 197 197 197 197 197 197 197 197 197 197 197 197 197 197 197 183 26 68 255 255 255 255 255 255 255 
255 255 255 255 255 255 62 183 197 197 91 86 129 144 197 197 197 197 104 0 26 183 197 197 197 197 197 197 197 197 197 197 185 152 95 75 57 57 57 57 57 28 57 14 86 173 216 216 216 216 215 211 214 212 211 209 202 206 190 197 197 197 197 197 197 197 197 197 197 197 197 197 197 197 197 197 197 144 0 204 255 255 255 255 255 255 
255 255 255 255 255 170 104 197 197 197 197 65 158 128 197 197 197 157 0 0 117 197 197 197 197 197 197 197 195 164 145 39 43 101 173 129 144 158 158 129 101 101 72 28 0 0 72 158 216 216 216 216 216 216 216 216 216 216 216 216 211 206 200 197 197 197 197 197 197 197 197 197 197 197 197 197 197 197 26 102 255 255 255 255 255 255 
255 255 255 255 255 84 104 197 197 197 197 183 39 0 157 197 197 52 0 78 197 157 157 197 197 197 197 201 215 216 216 202 216 216 216 216 216 216 216 216 216 216 216 216 202 158 101 28 43 115 187 216 216 216 216 216 216 216 216 216 216 216 216 215 210 194 197 197 197 197 197 197 197 197 197 197 197 197 117 0 238 255 255 255 255 255 
255 255 255 255 255 65 104 197 197 197 197 197 157 13 78 197 104 0 26 183 183 197 197 197 163 131 113 66 57 115 216 216 216 216 216 216 216 216 216 216 216 216 216 216 216 216 216 216 144 72 0 28 101 202 216 216 216 216 216 216 216 216 216 216 216 216 211 205 197 197 197 197 197 197 197 197 197 197 197 26 119 255 255 255 255 255 
255 255 255 255 255 163 104 197 197 157 183 197 197 144 13 183 13 0 117 197 144 197 199 142 115 115 129 144 72 0 101 216 216 216 216 216 216 216 216 216 216 216 216 216 216 216 216 216 216 216 202 144 101 28 115 216 216 216 216 216 216 216 216 216 216 216 216 216 214 205 197 197 197 197 197 197 197 197 197 117 17 255 255 255 255 255 
255 255 255 255 255 114 104 197 131 0 52 197 197 197 52 13 0 26 197 131 183 179 204 216 216 216 216 216 216 0 0 187 216 216 216 216 216 216 216 216 216 216 216 216 216 216 216 216 216 216 216 216 216 202 86 28 86 129 187 216 216 216 216 216 216 216 216 216 216 216 214 206 194 197 197 197 197 197 197 197 26 204 255 255 255 255 
255 255 255 255 255 110 104 197 50 144 43 91 197 197 117 0 0 117 144 170 172 216 216 216 216 216 216 216 216 57 0 158 216 216 216 216 216 216 216 202 158 202 216 216 216 216 216 216 216 216 216 216 216 216 216 202 115 43 0 72 216 216 216 216 216 216 216 216 216 216 216 216 214 205 197 197 197 197 197 197 104 153 255 255 255 255 
255 255 255 255 255 94 104 117 101 216 202 101 117 197 183 0 0 65 104 165 216 216 216 173 115 101 144 216 216 86 0 158 216 216 216 216 216 216 202 14 0 0 43 72 28 101 202 216 216 216 216 216 216 216 216 216 216 216 101 14 14 173 216 216 216 216 216 216 216 216 216 216 216 215 206 197 197 197 197 197 144 119 255 255 255 255 
255 255 255 255 255 62 26 13 158 216 216 216 39 157 197 65 0 13 208 216 187 115 14 59 72 103 0 115 187 0 0 158 216 216 216 216 216 216 216 202 115 72 28 43 0 0 14 101 187 216 216 216 216 216 216 216 216 216 216 173 72 14 101 216 216 216 216 216 216 216 216 216 216 216 216 199 197 197 197 197 157 68 255 255 255 255 
255 255 255 255 255 62 0 0 187 216 216 216 158 13 183 117 0 111 210 172 14 98 177 203 203 203 122 14 43 0 0 28 43 115 202 216 216 216 115 57 101 187 144 216 187 144 57 0 0 86 144 216 216 216 216 216 216 216 216 216 216 115 0 43 173 216 216 216 216 216 216 216 216 216 216 216 199 197 197 197 197 34 255 255 255 255 
255 255 255 255 255 78 0 0 216 216 216 216 216 86 26 13 13 183 183 127 203 203 203 203 203 203 177 0 0 0 28 100 72 0 28 101 202 216 216 101 0 0 0 57 158 216 216 158 57 0 0 43 115 216 216 216 216 216 216 216 216 216 144 43 0 115 202 216 216 216 216 216 216 216 216 216 215 157 197 197 197 0 255 255 255 255 
255 255 255 255 255 110 0 28 216 216 216 216 216 187 0 0 52 197 181 203 203 203 203 203 203 203 81 0 0 13 203 203 207 127 14 0 55 216 216 216 173 43 0 0 0 129 216 216 216 158 57 0 0 28 158 216 216 216 216 216 216 216 216 216 115 0 43 202 216 216 216 216 216 216 216 216 216 93 183 197 197 52 255 255 255 255 
255 255 255 255 255 141 0 57 216 216 216 216 216 216 43 0 82 195 203 203 203 203 203 203 203 190 13 0 0 95 203 203 203 203 163 14 10 41 189 216 216 173 0 86 43 0 43 202 216 216 216 158 57 0 0 43 173 216 216 216 216 216 216 216 216 187 14 43 187 216 216 216 216 216 216 216 216 158 39 197 197 52 221 255 255 255 
255 255 255 255 255 190 0 0 202 216 216 216 216 216 29 95 203 203 203 203 203 203 203 203 203 95 0 0 13 190 203 203 203 203 203 122 0 37 47 216 216 216 101 28 216 101 0 0 158 216 216 216 216 158 101 0 28 173 216 216 216 216 216 216 216 216 173 14 14 173 216 216 216 216 216 216 216 216 28 105 186 78 221 255 255 255 
255 255 255 255 255 244 28 0 144 216 216 216 216 129 27 190 203 203 203 203 203 203 203 203 203 27 0 0 95 203 203 203 203 203 203 203 81 0 29 216 216 216 187 0 187 216 173 0 28 202 216 216 216 216 216 129 0 0 173 216 216 216 216 216 216 216 216 216 86 14 101 216 216 216 216 216 216 216 129 0 184 129 255 255 255 255 
255 255 255 255 255 252 101 0 101 216 216 216 217 27 122 203 203 203 203 203 203 203 203 203 122 0 0 27 203 203 203 203 203 203 203 203 203 40 12 202 216 216 216 0 129 216 216 115 0 101 216 216 216 216 216 216 129 14 43 216 216 216 216 216 216 216 216 216 216 101 0 129 216 216 216 216 216 216 202 14 98 255 255 255 255 255 
255 255 255 255 255 255 183 0 57 216 216 216 126 68 203 203 203 203 203 203 203 203 203 203 40 0 0 95 203 203 203 203 203 203 203 203 203 149 0 129 216 216 216 57 101 216 216 216 57 14 216 216 216 216 216 216 216 173 0 115 216 216 216 216 216 216 216 216 216 216 101 0 173 216 216 216 216 216 216 101 0 238 255 255 255 255 
255 255 255 255 255 255 247 28 14 187 216 215 41 122 203 203 203 203 203 203 203 203 203 163 0 0 40 190 203 203 203 203 203 203 203 203 203 177 0 101 216 216 216 101 57 216 216 216 158 0 187 216 216 216 216 216 216 216 129 14 187 216 216 216 216 216 216 216 216 216 202 28 14 202 216 216 216 216 216 187 0 136 255 255 255 255 
255 255 255 255 255 255 255 108 0 57 216 98 27 203 203 203 203 203 203 203 203 203 190 40 0 13 203 203 203 203 203 203 203 203 203 203 203 203 0 101 216 216 216 57 57 216 216 216 216 0 129 216 216 216 216 216 216 216 216 86 57 216 216 216 216 216 216 216 216 216 216 144 0 43 202 216 216 216 216 216 62 85 255 255 255 255 
255 255 255 255 255 255 255 219 0 0 115 68 122 203 203 203 203 203 203 203 203 190 40 0 40 163 203 203 203 203 203 203 203 203 203 203 203 149 0 101 216 216 216 57 101 216 216 216 216 43 86 216 216 216 216 216 216 216 216 216 43 101 216 216 216 216 216 216 216 216 216 216 86 0 86 216 216 216 216 216 166 34 255 255 255 255 
255 255 255 255 255 255 255 255 130 0 29 68 203 203 203 203 203 203 203 203 203 95 0 81 203 203 203 203 203 203 203 203 203 203 203 203 203 163 0 129 216 216 173 14 129 216 216 216 216 101 28 216 216 216 216 216 216 216 216 216 187 0 187 216 216 216 216 216 216 216 216 216 216 43 0 115 216 216 216 216 175 0 255 255 255 255 
255 255 255 255 255 255 255 255 255 98 122 136 203 203 203 203 203 203 203 163 95 54 38 190 203 203 203 203 203 203 203 203 203 203 203 203 203 95 14 216 216 173 14 0 173 216 216 216 216 129 0 187 216 216 216 216 216 216 216 216 216 57 129 216 216 216 216 216 216 216 216 216 216 202 43 0 144 216 216 216 216 0 187 255 255 255 
255 255 255 255 255 255 255 255 255 251 149 203 203 203 203 203 163 95 27 0 0 0 13 136 190 203 203 203 203 203 203 203 203 203 203 203 163 14 86 216 158 14 0 0 129 216 216 216 216 173 0 129 216 216 216 216 216 216 216 216 216 129 72 216 216 216 216 216 216 216 216 216 216 216 202 28 14 173 216 216 216 15 153 255 255 255 
255 255 255 255 255 255 255 255 255 145 81 203 203 177 109 27 0 0 0 0 0 0 0 0 81 203 203 203 203 203 203 203 203 203 203 203 96 0 173 129 0 13 138 0 101 216 216 216 216 187 0 86 216 216 216 216 216 216 216 216 216 202 28 216 216 216 216 216 216 216 216 216 216 216 216 173 14 43 202 216 216 57 81 255 255 255 
255 255 255 255 255 255 255 255 255 64 149 109 27 0 0 0 0 0 0 0 0 0 0 0 0 122 203 203 203 203 203 203 203 203 203 177 14 115 128 0 40 190 203 14 43 216 216 216 187 14 57 28 216 216 216 216 216 216 216 216 216 216 57 173 216 216 216 216 216 216 216 216 216 216 216 216 173 14 57 216 216 101 0 238 255 255 
255 255 255 255 255 255 255 255 204 0 203 54 0 0 0 0 0 0 0 0 0 0 0 0 0 13 163 203 203 203 203 203 203 203 203 95 14 96 0 81 203 203 203 55 0 216 216 216 115 43 101 0 202 216 216 216 216 216 216 216 216 216 101 101 216 216 216 216 216 216 216 216 216 216 216 216 216 144 0 101 216 216 0 170 255 255 
255 255 255 255 255 255 255 255 187 0 163 54 0 0 0 0 0 13 81 122 163 109 68 0 0 0 95 203 203 203 203 203 203 203 122 0 0 0 122 203 203 203 203 81 0 216 216 216 43 115 72 101 216 216 216 216 216 216 216 216 216 216 144 28 216 216 216 216 216 216 216 216 216 216 216 216 216 216 129 0 86 158 62 68 255 255 
255 255 255 255 255 255 255 255 187 0 110 0 0 0 13 95 163 203 203 203 203 203 203 54 0 0 13 190 203 203 203 203 203 122 0 0 95 203 203 203 203 203 203 54 0 216 216 202 0 173 43 101 216 216 216 216 216 216 216 216 216 216 187 0 173 216 216 216 216 216 216 216 216 216 216 216 216 216 216 115 0 0 0 68 255 255 
255 255 255 255 255 255 255 255 238 0 100 13 81 122 203 203 203 203 203 203 203 203 203 136 0 0 0 95 203 203 203 203 109 0 13 136 203 203 203 203 203 203 203 54 0 216 216 129 0 216 57 101 216 216 216 216 216 216 216 216 216 216 216 14 101 216 216 216 216 216 216 216 216 216 216 216 216 216 216 216 86 0 0 0 255 255 
255 255 255 255 255 255 255 255 255 63 136 203 203 203 203 203 203 203 203 203 203 203 203 203 81 0 0 13 203 203 203 203 149 40 163 203 203 203 203 203 203 203 203 54 43 216 202 43 57 216 101 101 216 216 216 216 216 216 216 216 216 216 216 57 101 216 216 216 216 216 216 216 216 216 216 216 216 216 216 216 202 0 136 85 255 255 
255 255 255 255 255 255 255 255 255 99 95 203 203 177 190 203 203 203 203 203 203 203 203 203 203 40 0 0 122 203 203 203 203 203 203 203 203 203 203 203 203 203 203 0 101 216 115 28 173 216 115 101 216 216 216 216 216 216 216 216 216 216 216 101 72 216 216 216 216 216 216 216 216 216 216 216 216 216 216 216 216 14 114 255 255 255 
255 255 255 255 255 255 255 255 255 136 100 203 203 40 40 177 203 203 203 203 203 203 203 203 203 177 13 0 27 203 203 203 203 203 203 203 203 203 203 203 203 203 149 0 144 202 0 101 216 216 158 101 216 216 216 216 216 216 216 216 216 216 216 115 43 216 216 216 216 216 216 216 216 216 216 216 216 216 216 216 216 57 62 255 255 255 
255 255 255 255 255 255 255 255 255 119 101 203 203 190 54 13 95 203 203 203 203 203 203 203 203 203 109 0 0 122 203 203 203 203 203 203 203 203 203 203 203 203 81 0 202 28 28 216 216 216 101 101 216 216 216 216 216 216 216 216 216 216 216 115 0 216 216 216 216 216 216 216 216 216 216 216 216 216 216 216 216 101 15 255 255 255 
255 255 255 255 255 255 255 255 255 119 58 203 203 203 149 0 0 13 190 203 203 203 203 203 203 203 203 81 0 27 203 203 203 203 203 203 203 203 203 203 203 177 0 84 115 0 129 216 216 216 101 101 216 216 216 216 216 216 216 216 216 216 216 129 0 173 216 216 216 216 216 216 216 216 216 216 216 216 216 216 216 115 0 204 255 255 
255 255 255 255 255 255 255 255 255 68 72 203 203 203 81 95 190 40 0 122 203 203 203 203 203 203 203 203 81 0 149 203 203 203 203 203 203 203 203 203 203 109 0 115 14 72 216 216 216 216 14 101 216 216 216 216 216 216 216 216 216 216 216 101 0 158 216 216 216 216 216 216 216 216 216 216 216 216 216 216 216 187 0 153 255 255 
255 255 255 255 255 255 255 255 255 34 95 203 203 177 0 190 203 190 95 0 122 203 203 203 203 203 203 203 203 109 163 203 203 203 203 203 203 203 203 203 163 13 14 0 72 202 216 216 216 216 72 101 216 216 216 216 216 216 216 216 216 216 216 101 0 101 216 216 216 216 86 86 216 216 216 216 216 216 216 216 216 216 45 102 255 255 
255 255 255 255 255 255 255 255 204 0 136 203 203 95 40 190 203 203 203 95 0 163 203 203 203 203 203 203 203 203 203 203 203 203 203 203 203 203 203 203 81 0 0 86 216 216 202 216 216 216 28 101 216 216 216 216 216 216 216 216 216 216 216 101 0 173 202 101 216 187 0 57 216 216 216 216 216 216 216 216 216 216 124 51 255 255 
255 255 255 255 255 255 255 255 119 63 203 203 163 13 0 13 109 149 109 163 81 77 203 203 203 203 203 203 203 203 203 203 203 203 203 203 203 203 190 81 0 0 14 216 216 173 72 216 216 187 0 173 216 216 216 216 216 216 216 216 216 216 216 101 0 216 101 0 216 144 0 57 216 216 216 216 216 216 216 216 216 216 166 0 238 255 
255 255 255 255 255 255 255 255 49 152 203 203 177 13 0 0 0 0 0 13 190 122 163 203 203 203 203 203 203 203 203 203 203 203 203 203 203 177 40 0 0 0 86 216 216 28 57 216 216 86 14 216 216 216 216 216 216 216 216 216 216 216 216 101 43 216 101 0 158 14 0 0 216 216 216 216 216 216 216 216 216 216 219 0 187 255 
255 255 255 255 255 255 255 119 43 203 203 203 203 95 0 40 54 122 95 54 109 203 203 203 203 203 203 203 203 203 203 203 203 203 203 203 149 13 0 13 95 0 86 216 144 0 129 216 216 14 43 86 144 216 216 216 216 216 216 216 216 216 216 57 57 216 28 0 14 14 173 0 216 216 216 216 216 216 216 216 216 216 216 16 119 255 
255 255 255 255 255 255 255 0 163 203 203 203 203 190 27 122 203 203 203 203 203 203 203 203 203 203 203 203 203 203 203 203 203 203 203 109 0 0 54 190 109 0 173 216 14 14 216 216 158 0 0 0 101 216 216 216 216 216 216 216 216 216 216 0 57 144 0 0 0 115 216 0 216 216 216 216 216 216 216 216 216 216 216 59 68 255 
255 255 255 255 255 255 147 55 203 203 203 203 177 95 13 149 203 203 203 203 203 203 203 203 203 203 203 203 203 203 203 203 203 163 13 0 0 109 203 203 68 55 216 101 0 101 216 216 101 0 0 0 129 216 216 216 216 216 216 216 216 216 173 0 101 57 28 0 43 202 173 0 202 216 216 216 216 216 216 216 216 216 216 86 16 255 
255 255 255 255 255 244 124 177 203 203 203 203 203 203 203 203 203 203 203 203 203 203 203 203 203 203 203 203 203 203 203 203 190 13 0 27 163 203 203 149 0 127 173 0 0 187 216 216 28 0 0 0 158 216 216 216 216 216 216 216 216 216 158 0 72 0 129 0 72 216 202 72 202 216 216 216 216 216 216 216 216 216 216 129 0 204 
255 255 255 255 244 111 177 203 203 203 203 203 203 203 109 177 203 203 203 203 203 203 203 203 203 203 203 203 203 203 203 203 203 149 109 190 203 203 203 54 13 187 14 0 72 216 216 173 0 0 43 0 158 216 216 216 216 216 216 216 216 216 129 0 57 14 202 173 216 216 216 216 216 216 216 216 216 216 216 216 216 158 0 115 0 136 
255 255 255 212 207 190 203 203 203 203 203 203 203 190 190 203 203 203 203 203 203 203 203 203 203 203 203 203 203 203 203 203 203 203 203 203 203 203 149 0 96 72 0 0 144 216 216 115 0 43 173 0 158 216 216 216 216 216 216 216 216 216 57 43 0 101 216 216 216 216 216 216 216 216 216 216 216 216 216 202 144 144 0 86 0 187 
255 255 204 14 203 203 203 203 203 203 203 203 203 203 203 203 203 203 203 203 203 203 203 203 203 203 203 203 203 203 203 203 203 203 203 203 203 203 27 0 70 0 0 0 216 216 216 28 43 202 158 0 173 216 216 216 216 216 216 216 216 158 0 28 0 202 216 216 216 216 216 216 216 216 216 216 216 216 202 43 14 115 0 0 0 255 
255 221 16 68 203 203 203 203 203 203 203 203 203 203 203 203 203 203 203 203 203 203 203 203 203 203 203 203 203 203 203 203 203 203 203 203 203 136 0 13 0 0 0 57 216 216 216 129 202 216 144 14 216 216 216 216 216 216 216 216 216 86 14 14 86 216 216 216 216 216 216 216 216 216 216 216 216 216 216 72 0 28 0 0 0 255 
255 98 86 203 203 203 203 203 203 203 203 203 203 203 203 203 203 203 203 203 203 203 203 203 203 203 203 203 203 203 203 203 203 203 203 203 190 13 0 0 0 14 0 57 216 216 216 216 216 216 86 72 216 216 216 216 216 216 216 216 187 0 0 0 158 216 216 216 216 216 216 216 216 216 216 216 216 216 187 14 0 0 101 102 85 255 
153 14 203 203 203 203 203 203 203 203 203 203 203 203 203 203 203 203 203 203 203 203 203 203 203 203 203 203 203 203 203 203 203 203 203 203 81 0 0 0 54 168 0 101 216 216 216 216 216 216 0 129 216 216 216 216 216 216 216 216 129 0 0 86 216 216 216 216 216 216 216 216 216 216 216 216 216 216 101 0 0 0 187 255 255 255 
64 54 203 203 203 203 203 203 203 203 203 203 203 203 203 203 203 203 203 203 203 203 203 203 203 203 203 203 203 203 203 203 203 203 190 40 0 0 0 95 203 140 0 101 216 216 216 216 216 101 57 144 216 216 216 216 216 216 216 216 14 0 101 216 216 216 216 216 216 216 216 216 216 216 216 216 216 216 101 0 0 51 255 255 255 255 
113 54 203 203 203 203 203 203 203 203 203 163 95 190 203 203 203 203 203 203 203 203 203 203 203 203 203 203 203 203 203 203 203 190 40 0 0 13 149 203 203 98 0 144 216 216 216 216 187 14 14 0 173 216 216 216 216 216 216 115 0 43 202 216 216 216 216 216 216 216 216 216 216 216 216 216 216 216 14 0 17 221 255 255 255 255 
161 40 203 203 122 68 163 203 203 203 203 163 0 149 203 203 203 203 203 203 203 203 203 203 203 203 203 203 203 203 203 203 163 27 0 0 54 190 203 203 203 57 28 216 216 216 216 216 57 0 0 0 202 216 216 216 216 216 187 14 28 202 216 216 216 216 216 216 216 216 216 216 216 216 216 158 202 216 57 0 68 255 255 255 255 255 
193 0 109 190 27 0 0 81 203 203 203 136 0 163 203 203 203 203 203 203 203 203 203 203 203 203 203 203 203 203 203 109 13 0 27 95 203 203 203 203 163 0 115 216 216 173 202 115 0 57 72 28 216 216 216 216 216 216 187 72 158 216 216 216 216 216 216 216 216 216 216 216 216 216 115 0 115 202 0 0 119 255 255 255 255 255 
251 41 0 40 153 109 109 13 54 122 81 0 122 203 203 203 203 203 203 203 203 203 203 203 203 203 203 203 177 122 54 0 0 95 190 203 203 203 203 203 83 0 187 216 173 14 86 158 115 187 86 57 216 216 216 216 216 216 216 216 216 216 216 216 173 216 216 216 216 216 216 216 216 202 43 0 187 158 0 0 136 255 255 255 255 255 
255 248 172 58 0 68 190 122 54 54 0 122 203 203 203 203 203 203 203 203 203 203 203 203 203 203 203 109 0 0 0 81 149 203 203 203 203 203 203 190 14 57 216 144 14 72 216 216 216 216 14 101 216 216 216 216 216 216 216 216 216 216 216 144 0 115 216 216 158 187 216 216 216 72 0 86 216 101 0 0 187 255 255 255 255 255 
255 255 255 255 125 0 95 203 203 203 203 203 203 203 203 203 203 203 203 203 203 203 203 203 203 203 203 149 0 54 177 203 203 203 203 203 203 203 203 122 0 129 216 57 0 158 216 216 216 173 0 144 216 216 216 216 216 216 216 216 216 216 202 28 43 202 216 216 57 0 101 216 216 57 0 187 216 57 0 170 255 255 255 255 255 255 
255 255 255 255 255 92 13 190 203 203 203 203 203 203 203 203 203 203 203 203 203 203 203 203 203 203 203 203 149 203 203 203 203 203 203 203 203 203 203 55 14 202 158 0 101 216 216 216 216 101 0 173 216 216 216 216 216 216 216 216 216 216 86 0 173 216 216 202 14 72 216 216 129 0 57 187 57 15 185 255 255 255 255 255 255 255 
255 255 255 255 255 238 0 95 203 203 203 203 203 203 203 203 203 203 203 203 203 203 203 203 203 203 203 203 203 203 203 203 203 203 203 203 203 203 122 0 144 173 43 0 173 216 216 216 216 101 101 216 216 216 216 216 216 216 216 216 216 173 14 72 216 216 216 43 0 202 216 101 0 0 86 14 15 168 255 255 255 255 255 255 255 255 
255 255 255 255 255 255 47 190 203 203 203 203 203 203 203 203 203 203 203 203 203 203 203 203 203 203 203 203 203 203 203 203 203 203 203 203 203 190 0 43 129 14 0 115 216 216 216 216 216 202 216 216 216 216 216 216 216 216 216 216 216 43 14 202 216 216 86 0 72 216 86 0 0 0 0 50 204 255 255 255 255 255 255 255 255 255 
255 255 255 255 255 119 0 68 190 203 203 203 203 203 203 203 203 203 203 203 203 203 203 203 203 203 203 203 203 203 203 203 203 203 203 203 203 40 0 42 0 0 0 187 216 216 216 216 216 216 216 216 216 216 216 216 216 216 216 216 129 0 129 216 216 158 0 43 187 73 0 0 0 0 85 238 255 255 255 255 255 255 255 255 255 255 
255 255 255 255 255 90 46 20 38 203 203 203 203 203 203 203 203 203 203 203 203 203 203 203 203 203 203 203 203 203 203 203 203 203 203 203 95 0 0 0 68 14 43 216 216 216 216 216 216 216 216 187 86 72 173 216 216 216 216 202 0 14 216 216 144 14 0 115 47 50 102 0 0 119 255 255 255 255 255 255 255 255 255 255 255 255 
255 255 255 255 255 65 87 69 6 118 203 203 203 203 203 203 203 203 203 203 203 203 203 203 203 203 203 203 203 203 203 203 203 203 190 54 0 0 0 95 109 0 173 216 216 216 216 216 216 216 202 57 0 57 216 216 216 216 202 43 0 173 216 129 0 0 0 0 85 238 204 119 238 255 255 255 255 255 255 255 255 255 255 255 255 255 
255 255 255 255 255 58 87 87 87 101 177 203 203 203 203 203 203 203 203 203 203 203 203 203 203 203 203 203 203 203 203 203 203 149 13 0 0 40 163 203 40 56 216 216 216 216 216 216 216 202 43 0 0 101 216 216 216 187 43 0 86 216 129 0 0 0 0 136 255 255 255 255 255 255 255 255 255 255 255 255 255 255 255 255 255 255 
255 255 255 255 255 62 87 87 87 64 121 203 203 203 203 203 203 203 203 203 203 203 203 203 203 203 203 203 203 203 203 203 163 0 0 0 40 190 203 81 0 42 202 216 216 216 216 216 173 43 41 95 0 144 216 216 214 14 0 28 216 86 0 0 0 0 119 255 255 255 255 255 255 255 255 255 255 255 255 255 255 255 255 255 255 255 
255 255 255 255 238 0 27 64 87 87 89 131 203 203 203 203 203 203 203 203 203 203 203 203 203 203 203 203 203 203 203 203 163 0 40 122 203 203 163 0 0 0 173 216 216 216 216 173 14 41 190 40 14 187 216 208 82 0 43 140 69 13 122 122 54 0 153 255 255 255 255 255 255 255 255 255 255 255 255 255 255 255 255 255 255 255 
255 255 255 255 255 149 0 5 40 87 75 9 136 203 203 203 203 203 203 203 203 203 203 203 203 203 203 203 203 203 203 203 203 203 203 203 203 203 13 0 0 72 216 216 216 216 173 14 68 190 163 0 101 215 195 81 0 0 13 13 109 203 203 203 163 0 221 255 255 255 255 255 255 255 255 255 255 255 255 255 255 255 255 255 255 255 
255 255 255 255 221 77 0 204 102 29 58 46 12 203 203 203 203 203 203 203 203 203 203 203 203 203 203 203 203 203 203 203 203 203 203 203 190 54 13 13 0 202 216 216 216 216 56 13 177 203 81 14 201 206 95 0 0 0 54 177 203 203 203 203 81 32 255 255 255 255 255 255 255 255 255 255 255 255 255 255 255 255 255 255 255 255 
255 255 255 130 0 23 17 17 170 34 0 11 0 105 203 203 203 203 203 203 203 203 203 203 203 203 203 203 203 203 203 203 203 203 203 203 122 13 122 0 86 216 216 216 158 211 136 163 203 203 14 100 192 54 0 0 13 109 203 203 203 203 203 203 13 97 255 255 255 255 255 255 255 255 255 255 255 255 255 255 255 255 255 255 255 255 
255 255 202 8 40 87 81 40 52 64 64 17 0 13 203 203 203 203 203 203 203 203 203 203 203 203 203 203 203 203 203 203 203 203 203 203 203 149 14 0 202 216 216 86 0 149 203 203 203 123 14 151 13 0 13 54 177 203 203 203 203 203 203 203 0 145 255 255 255 255 255 255 255 255 255 255 255 255 255 255 255 255 255 255 255 255 
255 255 94 23 87 87 87 87 87 81 75 5 15 136 203 203 203 203 203 203 203 203 203 203 203 203 203 203 203 203 203 203 203 203 203 203 205 72 14 144 216 202 43 14 136 203 163 149 136 0 41 13 13 136 177 203 203 203 203 203 203 203 203 163 0 212 255 255 255 255 255 255 255 255 255 255 255 255 255 255 255 255 255 255 255 255 
255 255 114 45 87 87 87 87 81 19 70 108 190 203 203 203 203 203 203 203 203 203 203 203 203 203 203 203 203 203 203 203 203 203 203 190 42 0 101 216 158 14 41 163 203 81 0 54 40 0 0 40 177 203 203 203 203 203 203 203 203 203 203 95 27 248 255 255 255 255 255 255 255 255 255 255 255 255 255 255 255 255 255 255 255 255 
255 255 119 62 87 75 52 31 28 118 203 203 203 203 203 203 203 203 203 203 203 203 203 203 203 203 203 203 203 203 203 203 203 203 203 41 0 86 173 86 0 54 190 203 203 54 0 0 0 0 81 190 203 203 203 203 203 203 203 203 203 203 203 54 84 255 255 255 255 255 255 255 255 255 255 255 255 255 255 255 255 255 255 255 255 255 
255 255 204 0 11 0 36 144 203 203 203 203 203 203 203 203 203 203 203 203 203 203 203 203 203 203 203 203 203 203 203 203 203 190 95 0 115 115 14 0 95 203 203 203 203 27 0 0 13 122 203 203 203 203 203 203 203 203 203 203 203 203 190 40 55 255 255 255 255 255 255 255 255 255 255 255 255 255 255 255 255 255 255 255 255 255 
255 255 255 135 0 69 203 203 203 203 203 203 203 203 203 203 203 203 203 203 203 203 203 203 203 203 203 203 203 203 203 203 203 27 0 42 69 0 13 122 203 203 203 203 149 0 0 27 163 203 203 203 203 203 203 203 203 203 203 203 203 203 177 0 95 248 255 255 255 255 255 255 255 255 255 255 255 255 255 255 255 255 255 255 255 255 
255 255 255 184 0 95 203 203 203 203 203 203 203 203 203 203 203 203 203 203 203 203 203 203 203 203 203 203 203 203 203 163 54 0 0 0 27 122 203 203 203 203 203 203 81 54 95 190 203 203 203 203 203 203 203 203 203 203 203 203 203 203 203 40 0 222 255 255 255 255 255 255 255 255 255 255 255 255 255 255 255 255 255 255 255 255 
255 255 255 187 0 122 203 203 203 203 203 203 203 203 203 203 203 203 203 203 203 203 203 203 203 203 203 203 203 203 95 0 0 0 54 136 203 203 203 203 203 203 203 190 0 122 203 203 203 203 203 203 203 203 203 203 203 203 203 203 203 203 203 109 0 105 255 255 255 255 255 255 255 255 255 255 255 255 255 255 255 255 255 255 255 255 
255 255 255 141 0 136 203 203 203 203 203 203 203 203 203 203 203 203 203 203 203 203 203 203 203 203 203 203 203 203 109 0 13 136 203 203 203 203 203 203 203 203 203 109 27 203 203 203 203 203 203 203 203 203 203 203 203 203 203 203 203 203 203 203 40 0 184 255 255 255 255 255 255 255 255 255 255 255 255 255 255 255 255 255 255 255 
255 255 255 57 13 203 203 203 203 203 203 203 203 203 203 203 203 203 203 203 203 203 203 203 203 203 203 203 203 203 190 95 190 203 203 203 203 203 203 203 203 203 122 0 95 203 203 203 203 203 203 203 203 203 203 203 203 203 203 203 203 203 203 203 163 0 30 238 255 255 255 255 255 255 255 255 255 255 255 255 255 255 255 255 255 255 
255 255 215 0 81 203 203 203 203 203 203 203 203 203 203 203 203 203 203 203 203 203 203 203 203 203 203 203 203 203 203 203 203 203 203 203 203 203 203 203 203 177 13 95 203 203 203 203 203 203 203 203 203 203 203 203 203 203 203 203 203 203 203 203 203 95 0 149 255 255 255 255 255 255 255 255 255 255 255 255 255 255 255 255 255 255 
255 255 108 0 163 203 203 203 203 203 203 203 203 203 203 203 203 203 203 203 203 203 203 203 203 203 203 203 203 203 203 203 203 203 203 203 203 203 203 203 163 13 27 190 203 203 203 203 203 203 203 203 203 203 203 203 203 203 203 203 203 203 203 203 203 190 27 14 204 255 255 255 255 255 255 255 255 255 255 255 255 255 255 255 255 255 
255 255 29 68 203 203 203 203 203 203 203 203 203 203 203 203 203 203 203 203 203 203 203 203 203 203 203 203 203 203 203 203 203 203 203 203 203 203 203 177 13 0 95 203 203 203 203 203 203 203 203 203 203 203 203 203 203 203 203 203 203 203 203 203 203 203 149 0 47 238 255 255 255 255 255 255 255 255 255 255 255 255 255 255 255 255 
255 117 0 109 203 203 203 203 203 203 203 203 203 203 203 203 203 203 203 203 203 203 203 203 203 203 203 203 203 203 203 203 203 203 203 203 203 203 203 203 136 95 203 203 203 203 203 203 203 203 203 203 203 203 203 203 203 203 203 203 203 203 203 203 203 203 203 95 0 100 255 255 255 255 255 255 255 255 255 255 255 255 255 255 255 255 
255 153 0 95 203 203 203 203 203 203 203 203 203 203 203 203 203 203 203 203 203 203 203 203 203 203 203 203 203 203 203 203 203 203 203 136 203 203 203 203 203 203 203 203 203 203 203 203 203 203 203 203 203 203 203 203 203 203 203 203 203 203 203 203 203 203 203 190 13 0 83 238 255 255 255 255 255 255 255 255 255 255 255 255 255 255 
255 255 17 0 177 203 203 203 203 203 203 203 203 203 203 203 203 203 203 203 203 203 203 203 203 203 203 203 203 203 203 203 163 95 13 40 203 203 203 203 203 203 203 203 203 203 203 203 203 203 203 203 203 203 203 203 203 203 203 203 203 203 203 203 203 203 203 203 136 0 0 68 255 255 255 255 255 255 255 255 255 255 255 255 255 255 
255 255 119 0 69 190 203 203 203 203 203 203 203 203 203 203 203 203 203 203 203 203 203 203 203 203 203 203 203 177 109 27 13 81 163 203 203 203 203 203 203 203 203 203 203 203 203 203 203 203 203 203 203 203 203 203 203 203 203 203 203 203 203 203 203 203 203 203 203 68 0 153 255 255 255 255 255 255 255 255 255 255 255 255 255 255 
255 255 238 51 0 41 190 203 203 203 203 203 203 203 203 203 203 203 203 203 203 203 203 203 203 203 203 122 54 0 40 122 190 203 203 203 203 203 203 203 203 203 203 203 203 203 203 203 203 203 203 203 203 203 203 203 203 203 203 203 203 203 203 203 203 203 203 203 203 27 31 255 255 255 255 255 255 255 255 255 255 255 255 255 255 255 
255 255 255 238 51 0 0 54 54 54 95 95 95 177 190 203 203 203 177 149 149 149 109 95 54 40 0 13 81 163 203 203 203 203 203 203 203 203 203 203 203 203 203 203 203 203 203 203 203 203 203 203 203 203 203 203 203 203 203 203 203 203 203 203 203 203 203 203 149 0 119 255 255 255 255 255 255 255 255 255 255 255 255 255 255 255 
255 255 255 255 221 102 0 0 0 0 0 0 0 0 0 0 0 0 0 0 0 0 0 0 0 40 122 190 203 203 203 203 203 203 203 203 203 203 203 203 203 203 203 203 203 203 203 203 203 203 203 203 203 203 203 203 203 203 203 203 203 203 203 203 203 203 203 203 68 0 238 255 255 255 255 255 255 255 255 255 255 255 255 255 255 255 
255 255 255 255 255 255 255 255 255 255 238 136 119 119 170 34 85 119 136 85 153 170 50 0 0 109 203 203 203 203 203 203 203 203 203 203 203 203 203 203 203 203 203 203 203 203 203 203 203 203 203 203 203 203 203 203 203 203 203 203 203 203 203 203 203 203 203 109 0 102 255 255 255 255 255 255 255 255 255 255 255 255 255 255 255 255 
255 255 255 255 255 255 255 255 255 255 255 255 255 255 255 255 255 255 255 255 255 255 255 187 32 14 177 203 203 203 203 203 203 203 203 203 203 203 203 203 203 203 203 203 203 203 203 203 203 203 203 203 203 203 203 203 203 203 203 203 203 203 203 203 203 203 177 0 117 238 255 255 255 255 255 255 255 255 255 255 255 255 255 255 255 255 
255 255 255 255 255 255 255 255 255 255 255 255 255 255 255 255 255 255 255 255 255 255 255 255 170 0 57 203 203 203 203 203 203 203 203 203 203 203 203 203 203 203 203 203 203 203 203 203 203 203 203 203 203 203 203 203 203 203 203 203 203 203 203 203 203 203 97 49 238 255 255 255 255 255 255 255 255 255 255 255 255 255 255 255 255 255 
255 255 255 255 255 255 255 255 255 255 255 255 255 255 255 255 255 255 255 255 255 255 255 255 255 85 0 114 203 203 203 203 203 203 203 203 203 203 203 203 203 203 203 203 203 203 203 203 203 203 203 203 203 203 203 203 203 203 203 203 203 203 203 203 203 136 0 238 255 255 255 255 255 255 255 255 255 255 255 255 255 255 255 255 255 255 
255 255 255 255 255 255 255 255 255 255 255 255 255 255 255 255 255 255 255 255 255 255 255 255 255 238 17 16 177 203 203 203 203 203 203 203 203 203 203 203 203 203 203 203 203 203 203 203 203 203 203 203 203 203 203 203 203 203 203 203 203 203 203 203 163 15 119 255 255 255 255 255 255 255 255 255 255 255 255 255 255 255 255 255 255 255 
255 255 255 255 255 255 255 255 255 255 255 255 255 255 255 255 255 255 255 255 255 255 255 255 255 255 136 0 61 203 203 203 203 203 203 203 203 203 203 203 203 203 203 203 203 203 203 203 203 203 203 203 203 203 203 203 203 203 203 203 203 203 203 203 131 221 255 255 255 255 255 255 255 255 255 255 255 255 255 255 255 255 255 255 255 255 
255 255 255 255 255 255 255 255 255 255 255 255 255 255 255 255 255 255 255 255 255 255 255 255 255 255 255 68 0 109 203 203 203 203 203 203 203 203 203 203 203 203 203 203 203 203 203 203 203 203 203 203 203 203 203 203 203 203 203 203 203 203 203 207 248 255 255 255 255 255 255 255 255 255 255 255 255 255 255 255 255 255 255 255 255 255 
255 255 255 255 255 255 255 255 255 255 255 255 255 255 255 255 255 255 255 255 255 255 255 255 255 255 255 221 17 14 177 203 203 203 203 203 203 203 203 203 203 203 203 203 203 203 203 203 203 203 203 203 203 203 203 203 203 203 203 203 203 203 177 109 238 255 255 255 255 255 255 255 255 255 255 255 255 255 255 255 255 255 255 255 255 255 
255 255 255 255 255 255 255 255 255 255 255 255 255 255 255 255 255 255 255 255 255 255 255 255 255 255 255 255 119 0 54 203 203 203 203 203 203 203 203 203 203 203 203 203 203 203 203 203 203 203 203 203 203 203 203 203 203 203 203 203 203 122 182 255 255 255 255 255 255 255 255 255 255 255 255 255 255 255 255 255 255 255 255 255 255 255 
255 255 255 255 255 255 255 255 255 255 255 255 255 255 255 255 255 255 255 255 255 255 255 255 255 255 255 255 255 49 0 136 203 203 203 203 203 203 203 203 203 203 203 203 203 203 203 203 203 203 203 203 203 203 203 203 203 203 203 203 95 0 153 255 255 255 255 255 255 255 255 255 255 255 255 255 255 255 255 255 255 255 255 255 255 255 
255 255 255 255 255 255 255 255 255 255 255 255 255 255 255 255 255 255 255 255 255 255 255 255 255 255 255 255 255 201 0 68 203 203 203 203 203 203 203 203 203 203 203 203 203 203 203 203 203 203 203 203 203 203 203 203 203 203 203 81 0 153 255 255 255 255 255 255 255 255 255 255 255 255 255 255 255 255 255 255 255 255 255 255 255 255 
255 255 255 255 255 255 255 255 255 255 255 255 255 255 255 255 255 255 255 255 255 255 255 255 255 255 255 255 255 255 70 13 203 203 203 203 203 203 203 203 203 203 203 203 203 203 203 203 203 203 203 203 203 203 203 203 203 190 81 0 85 255 255 255 255 255 255 255 255 255 255 255 255 255 255 255 255 255 255 255 255 255 255 255 255 255 
255 255 255 255 255 255 255 255 255 255 255 255 255 255 255 255 255 255 255 255 255 255 255 255 255 255 255 255 255 255 106 0 203 203 203 203 203 203 203 203 203 203 203 203 203 203 203 203 203 203 203 203 203 203 203 203 190 41 15 170 255 255 255 255 255 255 255 255 255 255 255 255 255 255 255 255 255 255 255 255 255 255 255 255 255 255 
255 255 255 255 255 255 255 255 255 255 255 255 255 255 255 255 255 255 255 255 255 255 255 255 255 255 255 255 255 255 81 13 203 203 203 203 203 203 203 203 203 203 203 203 203 203 203 203 203 203 203 203 203 203 203 190 40 0 136 255 255 255 255 255 255 255 255 255 255 255 255 255 255 255 255 255 255 255 255 255 255 255 255 255 255 255 
255 255 255 255 255 255 255 255 255 255 255 255 255 255 255 255 255 255 255 255 255 255 255 255 255 255 255 255 255 255 102 98 203 203 203 203 203 203 203 203 203 203 203 203 203 203 203 203 203 203 203 203 203 203 203 13 0 134 255 255 255 255 255 255 255 255 255 255 255 255 255 255 255 255 255 255 255 255 255 255 255 255 255 255 255 255 
255 255 255 255 255 255 255 255 255 255 255 255 255 255 255 255 255 255 255 255 255 255 255 255 255 255 255 255 255 238 0 42 190 203 203 203 203 203 203 203 203 203 203 203 203 203 203 203 203 203 203 203 203 177 54 0 137 255 255 255 255 255 255 255 255 255 255 255 255 255 255 255 255 255 255 255 255 255 255 255 255 255 255 255 255 255 
255 255 255 255 255 255 255 255 255 255 255 255 255 255 255 255 255 255 255 255 255 255 255 255 255 255 255 255 255 153 0 0 0 54 95 149 95 95 95 95 95 95 136 149 177 122 190 203 203 203 190 160 134 15 0 136 255 255 255 255 255 255 255 255 255 255 255 255 255 255 255 255 255 255 255 255 255 255 255 255 255 255 255 255 255 255 
255 255 255 255 255 255 255 255 255 255 255 255 255 255 255 255 255 255 255 255 255 255 255 255 255 255 255 255 255 221 119 68 48 0 0 0 0 0 61 61 61 0 0 0 0 0 0 64 64 17 0 0 0 17 204 238 255 255 255 255 255 255 255 255 255 255 255 255 255 255 255 255 255 255 255 255 255 255 255 255 255 255 255 255 255 255 
255 255 255 255 255 255 255 255 255 255 255 255 255 255 255 255 255 255 255 255 255 255 255 255 255 255 255 255 255 255 255 255 255 221 255 255 255 255 255 255 255 255 204 187 153 119 119 68 102 136 136 85 153 221 255 255 255 255 255 255 255 255 255 255 255 255 255 255 255 255 255 255 255 255 255 255 255 255 255 255 255 255 255 255 255 255 
