P2
88 125
255
255 255 255 255 255 255 255 255 255 255 255 255 255 255 255 255 255 255 255 255 255 255 255 255 255 255 255 255 255 255 255 255 255 255 255 255 255 255 255 255 255 255 255 255 255 255 255 255 255 255 255 255 255 255 255 255 255 255 255 255 255 255 255 255 255 255 255 255 255 255 255 255 255 255 255 255 255 255 255 255 255 255 255 255 255 255 255 255 
255 255 255 255 255 255 255 255 255 255 255 255 255 255 255 255 255 255 255 255 255 255 255 255 255 255 255 255 255 255 255 255 255 255 255 255 255 255 255 255 255 255 255 255 255 255 255 255 255 255 255 255 255 255 255 255 255 255 255 255 255 255 255 255 255 255 255 255 255 255 255 255 255 255 255 255 255 255 255 255 255 255 255 255 255 255 255 255 
255 255 255 255 255 255 255 255 255 255 255 255 255 255 255 255 255 255 255 255 255 255 255 255 255 255 255 255 255 255 255 255 255 255 255 255 255 255 255 255 255 255 255 255 255 255 255 255 255 255 255 255 255 255 255 255 255 255 255 255 255 255 255 255 255 255 255 255 255 255 255 255 255 255 255 255 255 255 255 255 255 255 255 255 255 255 255 255 
255 255 255 255 255 255 255 255 255 255 255 255 255 255 255 255 255 255 255 255 255 255 255 255 255 255 255 255 255 255 255 255 255 255 255 255 255 255 255 255 255 255 255 255 255 255 255 255 255 255 255 255 255 255 255 255 255 255 255 255 255 255 255 255 255 255 255 255 255 255 255 255 255 255 255 255 255 255 255 255 255 255 255 255 255 255 255 255 
255 255 255 255 255 255 255 255 255 255 255 255 255 255 255 255 255 255 255 255 255 255 255 255 255 255 255 255 255 255 255 255 255 255 255 255 255 255 255 255 187 187 187 170 119 119 170 187 187 204 255 255 255 255 255 255 255 255 255 255 255 255 255 255 255 255 255 255 255 255 255 255 255 255 255 255 255 255 255 255 255 255 255 255 255 255 255 255 
255 255 255 255 255 255 255 255 255 255 255 255 255 255 255 255 255 255 255 255 255 255 255 255 255 255 255 255 221 187 187 119 119 75 50 50 10 0 0 0 0 0 19 14 0 0 0 0 0 0 0 0 0 19 68 153 255 255 255 255 255 255 255 255 255 255 255 255 255 255 255 255 255 255 255 255 255 255 255 255 255 255 255 255 255 255 255 255 
255 255 255 255 255 255 255 255 255 255 255 255 255 255 255 255 255 255 255 255 255 255 255 255 238 170 88 19 0 5 10 0 0 0 0 0 0 0 0 0 0 0 0 0 0 0 0 0 0 0 0 0 0 0 0 2 7 88 221 255 255 255 255 255 255 255 255 255 255 255 255 255 255 255 255 255 255 255 255 255 255 255 255 255 255 255 255 255 
255 255 255 255 255 255 255 255 255 255 255 255 255 255 255 255 255 255 255 255 255 221 127 37 0 0 0 0 0 0 0 0 0 0 0 0 0 0 0 0 0 0 0 0 0 0 0 0 0 0 0 0 0 0 0 0 0 0 0 51 159 255 255 255 255 255 255 255 255 255 255 255 255 255 255 255 255 255 255 255 255 255 255 255 255 255 255 255 
255 255 255 255 255 255 255 255 255 255 255 255 255 255 255 255 255 255 255 255 159 7 0 0 0 0 0 0 0 0 0 0 0 0 0 0 0 0 0 0 0 0 0 0 0 0 0 0 0 0 0 0 0 0 0 0 0 0 0 0 3 21 119 255 255 255 255 255 255 255 255 255 255 255 255 255 255 255 255 255 255 255 255 255 255 255 255 255 
255 255 255 255 255 255 255 255 255 255 255 255 255 255 255 255 255 255 255 64 2 0 0 0 0 0 0 0 0 0 0 0 0 0 0 0 0 0 0 0 0 0 0 0 0 0 0 0 0 0 0 0 0 0 0 0 0 0 0 0 0 0 3 50 238 255 255 255 255 255 255 255 255 255 255 255 255 255 255 255 255 255 255 255 255 255 255 255 
255 255 255 255 255 255 255 255 255 255 255 255 255 255 255 255 255 221 21 0 0 0 0 0 0 0 0 0 0 0 0 0 0 0 0 0 0 0 0 0 0 0 0 0 0 0 0 0 0 0 0 0 0 0 0 0 0 0 0 0 0 0 0 0 7 159 255 255 255 255 255 255 255 255 255 255 255 255 255 255 255 255 255 255 255 255 255 255 
255 255 255 255 255 255 255 255 255 255 255 255 255 255 255 255 187 7 0 0 0 0 0 0 0 0 0 0 0 0 0 0 0 0 0 0 0 0 0 0 0 0 0 0 0 0 0 0 0 0 0 0 0 0 0 0 0 0 0 0 0 0 0 0 0 0 96 238 255 255 255 255 255 255 255 255 255 255 255 255 255 255 255 255 255 255 255 255 
255 255 255 255 255 255 255 255 255 255 255 255 255 255 255 204 0 0 0 0 0 0 0 0 0 0 0 0 0 0 0 0 0 0 0 0 0 0 0 0 0 0 0 0 0 0 0 0 0 0 0 0 0 0 0 0 0 0 0 0 0 0 0 0 0 0 0 31 204 255 255 255 255 255 255 255 255 255 255 255 255 255 255 255 255 255 255 255 
255 255 255 255 255 255 255 255 255 255 255 255 255 255 238 11 0 0 0 0 0 0 0 0 0 0 0 0 0 0 0 0 0 0 0 0 0 0 0 0 0 0 0 0 0 0 0 0 0 0 0 0 0 0 0 0 0 0 0 0 0 0 0 0 0 0 0 0 0 153 255 255 255 255 255 255 255 255 255 255 255 255 255 255 255 255 255 255 
255 255 255 255 255 255 255 255 255 255 255 255 255 255 55 0 0 0 0 0 0 0 0 0 0 0 0 0 0 0 0 0 0 0 0 0 0 0 0 0 0 0 0 0 0 0 0 0 0 0 0 0 0 0 0 0 0 0 0 0 0 0 0 0 0 0 0 0 0 6 143 255 255 255 255 255 255 255 255 255 255 255 255 255 255 255 255 255 
255 255 255 255 255 255 255 255 255 255 255 255 255 112 3 0 0 0 0 0 0 0 0 0 0 0 0 0 0 0 0 0 0 0 0 0 0 0 0 0 0 0 0 0 0 0 0 0 0 0 0 0 0 0 0 0 0 0 0 0 0 0 0 0 0 0 0 0 0 0 4 127 255 255 255 255 255 255 255 255 255 255 255 255 255 255 255 255 
255 255 255 255 255 255 255 255 255 255 255 255 170 0 0 0 0 0 0 0 0 0 0 0 0 0 0 0 0 0 0 0 0 0 0 0 0 0 0 0 0 0 0 0 0 0 0 0 0 0 0 0 0 0 0 0 0 0 0 0 0 0 0 0 0 0 0 0 0 0 0 4 96 255 255 255 255 255 255 255 255 255 255 255 255 255 255 255 
255 255 255 255 255 255 255 255 255 255 255 204 10 0 0 0 0 0 0 0 0 0 0 0 0 0 0 0 0 0 0 0 0 0 0 0 0 0 0 0 0 0 24 19 7 0 0 0 0 0 12 19 19 0 0 0 0 0 0 0 0 0 0 0 0 0 0 0 0 0 0 0 4 96 255 255 255 255 255 255 255 255 255 255 255 255 255 255 
255 255 255 255 255 255 255 255 255 255 255 41 0 0 0 0 0 0 0 0 0 0 0 0 0 0 0 0 0 0 0 0 0 0 0 0 0 0 14 0 0 68 89 73 88 119 119 96 100 138 138 175 170 119 74 23 0 17 8 0 0 0 0 0 0 0 0 0 0 0 0 0 0 4 96 255 255 255 255 255 255 255 255 255 255 255 255 255 
255 255 255 255 255 255 255 255 255 255 112 5 0 0 0 0 0 0 0 0 0 0 0 0 0 0 0 0 0 0 0 0 0 0 0 0 7 25 153 191 127 28 0 0 0 0 0 0 10 14 0 0 0 0 50 50 83 92 82 28 0 7 0 0 0 0 0 0 0 0 0 0 0 0 4 96 255 255 255 255 255 255 255 255 255 255 255 255 
255 255 255 255 255 255 255 255 255 187 0 0 0 0 0 0 0 0 0 0 0 0 0 0 0 0 0 0 0 0 0 0 0 0 0 0 119 255 170 8 4 0 0 0 0 0 0 0 0 0 0 0 0 0 0 0 0 5 0 10 111 68 10 10 0 0 0 0 0 0 0 0 0 0 0 4 127 255 255 255 255 255 255 255 255 255 255 255 
255 255 255 255 255 255 255 255 238 23 0 0 0 0 0 0 0 0 0 0 0 0 0 0 0 0 0 0 0 0 0 0 0 0 6 136 238 89 4 0 0 0 0 0 0 0 0 0 0 0 0 0 0 0 0 0 0 0 0 0 3 34 113 16 11 0 0 0 0 0 0 0 0 0 0 0 6 204 255 255 255 255 255 255 255 255 255 255 
255 255 255 255 255 255 255 255 80 4 0 0 0 0 0 0 0 0 0 0 0 0 0 0 0 0 0 0 0 0 0 0 0 0 74 255 82 4 0 0 0 0 0 0 0 0 0 0 0 0 0 0 0 0 0 0 0 0 0 0 0 0 0 143 96 4 0 0 0 0 0 0 0 0 0 0 0 28 238 255 255 255 255 255 255 255 255 255 
255 255 255 255 255 255 255 170 5 0 0 0 0 0 0 0 0 0 0 0 0 0 0 0 0 0 0 0 0 0 0 0 0 11 153 112 4 0 0 0 0 0 0 0 0 0 0 0 0 0 0 0 0 0 0 0 0 0 0 0 0 0 0 4 96 96 4 0 0 0 0 0 0 0 0 0 0 4 104 255 255 255 255 255 255 255 255 255 
255 255 255 255 255 255 238 10 0 0 0 0 0 0 0 0 0 0 0 0 0 0 0 0 0 0 0 0 0 0 0 0 0 0 138 12 0 0 0 0 0 0 0 0 0 0 0 0 0 0 0 0 0 0 0 0 0 0 0 0 0 0 0 0 4 96 112 4 0 0 0 0 0 0 0 0 0 0 0 221 255 255 255 255 255 255 255 255 
255 255 255 255 255 255 74 5 0 0 0 0 0 0 0 0 0 0 0 0 0 0 0 0 0 0 0 0 0 0 0 0 0 0 25 0 0 0 0 0 0 0 0 0 0 0 0 0 0 0 0 0 0 0 0 0 0 0 0 0 0 0 0 0 0 4 41 143 0 0 0 0 0 0 0 0 0 0 0 112 255 255 255 255 255 255 255 255 
255 255 255 255 255 170 5 0 0 0 0 0 0 0 0 0 0 0 0 0 0 0 0 0 0 0 0 0 0 0 0 0 0 0 175 0 0 0 0 0 0 0 0 0 0 0 0 0 0 0 0 0 0 0 0 0 0 0 0 0 0 0 0 0 0 0 4 38 143 8 0 0 0 0 0 0 0 0 0 19 255 255 255 255 255 255 255 255 
255 255 255 255 238 10 0 0 0 0 0 0 0 0 0 0 0 0 0 0 0 0 0 0 0 0 0 0 0 0 0 0 0 10 136 34 0 0 0 0 0 0 0 0 0 0 0 0 0 0 0 0 0 0 0 0 0 0 0 0 0 0 0 0 0 0 0 0 11 164 11 0 0 0 0 0 0 0 0 4 170 255 255 255 255 255 255 255 
255 255 255 255 74 5 0 0 0 0 0 0 0 0 0 0 0 0 0 0 0 0 0 0 0 0 0 0 0 0 0 0 0 0 74 119 5 0 0 0 0 0 0 0 0 0 0 0 0 0 0 0 0 0 0 0 0 0 0 0 0 0 0 0 0 0 0 0 0 10 163 41 5 0 0 0 0 0 0 0 74 255 255 255 255 255 255 255 
255 255 255 170 5 0 0 0 0 0 0 0 0 0 0 0 0 0 0 0 0 0 0 0 0 0 0 0 0 0 0 0 0 0 0 207 0 0 0 0 0 0 0 0 0 0 0 0 0 0 0 0 0 0 0 0 0 0 0 0 0 0 0 0 0 0 0 0 0 0 0 143 28 7 0 0 0 0 0 0 31 255 255 255 255 255 255 255 
255 255 255 55 0 0 0 0 0 0 0 0 0 0 0 0 0 0 0 0 0 0 0 0 0 0 0 0 0 0 0 0 0 0 7 119 89 0 0 0 0 0 0 0 0 0 0 0 0 0 0 0 0 0 0 0 0 0 0 0 0 0 0 0 0 0 0 0 0 0 0 0 102 14 0 0 0 0 0 0 0 255 255 255 255 255 255 255 
255 255 255 119 0 0 0 0 0 0 0 0 0 0 0 0 0 0 0 0 0 0 0 0 0 0 0 0 0 0 0 0 0 0 0 11 207 12 5 0 0 0 0 0 0 0 0 0 0 0 0 0 0 0 0 0 0 0 0 0 0 0 0 0 0 0 0 0 0 0 0 0 0 177 0 0 0 0 0 0 5 187 255 255 255 255 255 255 
255 255 255 170 11 0 0 0 0 0 0 0 0 0 0 0 0 0 0 0 0 0 0 0 0 0 0 5 14 0 0 0 21 50 68 119 204 255 187 136 68 19 0 7 0 0 0 0 0 0 0 0 0 0 0 0 0 0 0 0 0 0 0 0 0 0 0 0 0 0 0 0 0 89 153 5 0 0 0 0 5 136 255 255 255 255 255 255 
255 255 255 221 0 0 0 0 0 0 0 0 0 0 0 0 0 0 10 10 0 0 0 34 50 89 119 136 187 187 238 255 255 255 255 255 255 255 255 255 255 255 221 153 89 21 0 0 0 0 0 0 0 0 0 0 0 0 0 0 0 0 0 0 0 0 0 0 0 0 0 0 0 0 221 30 0 0 0 0 0 119 255 255 255 255 255 255 
255 255 255 255 10 0 0 0 0 10 5 0 0 0 50 50 112 119 153 187 187 255 255 255 255 255 255 255 255 255 255 255 255 255 255 255 255 255 255 255 255 255 255 255 255 255 187 96 0 0 0 0 0 0 0 0 0 0 0 0 0 0 0 0 0 0 0 0 0 0 0 0 0 0 59 119 21 0 0 0 0 96 255 255 255 255 255 255 
255 255 255 255 59 11 4 72 119 170 187 221 255 255 255 255 255 255 255 255 255 255 255 255 255 255 255 255 255 255 255 255 255 255 255 255 255 255 255 255 255 255 255 255 255 255 255 255 102 5 0 0 0 0 0 0 0 0 0 0 0 0 0 0 0 0 0 0 0 0 0 0 0 0 0 125 8 0 0 0 0 88 255 255 255 255 255 255 
255 255 255 238 0 119 238 255 255 255 255 255 255 255 255 255 255 255 255 255 255 255 255 255 255 255 255 255 255 255 255 255 255 255 255 255 255 255 255 255 255 255 255 255 255 255 255 255 204 0 0 0 0 0 0 0 0 0 0 0 0 0 0 0 0 0 0 0 0 0 0 0 0 0 0 119 13 0 0 0 0 50 255 255 255 255 255 255 
255 255 255 187 0 255 255 255 255 255 255 255 255 255 255 255 255 255 255 255 255 255 255 255 255 255 255 255 255 255 255 255 255 255 255 255 255 255 255 255 255 255 255 255 255 255 255 255 255 0 0 0 0 0 0 0 0 0 0 0 0 0 0 0 0 0 0 0 0 0 0 0 0 0 0 119 50 0 0 0 0 50 255 255 255 255 255 255 
255 255 255 187 0 255 255 255 255 255 255 255 255 255 255 255 255 255 255 255 255 255 255 255 255 255 255 255 255 255 255 255 255 255 255 255 255 255 255 255 255 255 255 255 255 255 255 255 255 38 0 0 0 0 0 0 0 0 0 0 0 0 0 0 0 0 0 0 0 0 0 0 0 0 0 119 50 0 0 0 0 63 255 255 255 255 255 255 
255 255 255 187 17 255 255 255 255 255 255 255 255 255 255 255 255 255 255 255 255 255 255 255 255 255 255 255 255 255 255 255 255 255 255 255 255 255 255 255 255 255 255 255 255 255 255 255 255 50 0 0 0 0 0 0 0 0 0 0 0 0 0 0 0 0 0 0 0 0 0 0 0 0 0 119 50 0 0 0 0 96 255 255 255 255 255 255 
255 255 255 187 68 255 255 255 255 255 255 255 255 255 255 255 255 255 255 255 255 255 255 255 255 255 255 255 255 255 255 255 255 255 255 255 255 255 255 255 255 255 255 255 255 255 255 255 255 50 0 0 0 0 0 0 0 0 0 0 0 0 0 0 0 0 0 0 0 0 0 0 0 0 0 119 0 0 0 0 0 112 255 255 255 255 255 255 
255 255 255 187 68 255 255 255 255 255 255 255 255 255 255 255 255 255 255 255 255 255 255 255 255 255 255 255 255 255 255 255 255 255 255 255 255 255 255 255 255 255 255 255 255 255 255 255 255 119 0 0 0 0 0 0 0 0 0 0 0 0 0 0 0 0 0 0 0 0 0 0 0 0 0 119 0 0 0 0 0 11 204 255 255 255 255 255 
255 255 255 187 51 255 255 255 255 255 255 255 255 255 255 255 255 255 255 255 255 255 255 255 255 255 255 255 255 255 255 255 255 255 255 255 255 255 255 255 255 255 255 255 255 255 255 255 255 119 5 0 0 0 0 0 0 0 0 0 0 0 0 0 0 0 0 0 0 0 0 0 0 0 19 170 0 0 0 0 0 0 11 221 255 255 255 255 
255 255 255 187 0 255 255 255 255 255 255 255 255 255 255 255 255 255 255 255 255 255 255 255 255 255 255 255 255 255 255 255 255 255 255 255 255 255 255 255 255 255 255 255 255 255 255 255 255 255 153 25 5 0 0 0 0 0 0 0 0 0 0 0 0 0 0 0 0 0 0 0 0 0 19 187 0 0 0 0 0 0 4 55 255 255 255 255 
255 255 255 187 0 255 255 255 255 255 255 255 255 255 255 255 255 255 255 255 255 255 255 255 255 255 255 255 255 255 255 255 255 255 255 255 255 255 255 255 255 255 255 255 255 255 255 255 255 255 255 255 153 21 5 0 0 0 0 0 0 0 0 0 0 0 0 0 0 0 0 0 0 0 19 138 0 0 0 0 0 0 0 5 153 255 255 255 
255 255 255 238 0 238 255 255 255 255 255 255 255 255 255 255 255 255 255 255 255 255 255 255 255 255 255 255 255 255 255 255 255 255 255 255 255 255 255 255 255 255 255 255 255 255 255 255 255 255 255 255 255 255 136 0 0 0 0 0 0 0 0 0 0 0 0 0 0 0 0 0 0 0 5 138 10 0 0 0 0 0 0 0 89 255 255 255 
255 255 255 255 17 187 255 255 255 255 255 255 255 255 255 255 255 255 255 255 255 255 255 255 255 255 255 255 255 255 255 255 255 255 255 255 255 255 255 255 255 255 255 255 255 255 255 255 255 255 255 255 255 255 255 153 0 0 0 0 0 0 0 0 0 0 0 0 0 0 0 0 0 0 0 125 5 0 0 0 0 0 0 0 11 255 255 255 
255 255 255 255 85 136 255 255 255 255 255 255 255 255 255 255 255 255 255 255 255 255 255 255 255 255 255 255 255 255 255 255 255 255 255 255 255 255 255 255 255 255 255 255 255 255 255 255 255 255 255 255 255 255 255 255 153 0 0 0 0 0 0 0 0 0 0 0 0 0 0 0 0 0 0 88 0 0 0 0 0 0 0 0 0 255 255 255 
255 255 255 255 153 51 255 255 255 255 255 255 255 255 255 255 255 255 255 255 255 255 255 255 255 255 255 255 255 255 255 255 255 255 255 255 255 255 255 255 255 255 255 255 255 255 255 255 255 255 255 255 255 255 255 255 255 153 6 0 0 0 0 0 0 0 0 0 0 0 0 0 0 0 0 96 0 0 0 0 0 0 0 0 0 255 255 255 
255 255 255 255 238 0 221 255 255 255 255 255 255 255 255 255 255 255 255 255 255 255 255 255 255 255 255 255 255 255 255 255 255 255 255 255 255 255 255 255 255 255 255 255 255 255 255 255 255 255 255 255 255 255 255 255 255 255 127 7 0 0 0 0 0 0 0 0 0 0 0 0 0 0 0 63 0 0 0 0 0 0 0 0 38 255 255 255 
255 255 255 255 255 68 136 255 255 255 255 255 255 255 255 255 255 255 255 255 255 255 255 255 255 255 255 255 255 255 255 255 255 255 255 255 255 255 255 255 255 255 255 255 255 255 255 255 255 255 255 255 255 255 255 255 255 255 255 41 0 0 0 0 0 0 0 0 0 0 0 0 0 0 0 50 0 1 0 0 0 0 0 0 50 255 255 255 
255 255 255 255 255 136 48 238 255 255 255 255 255 255 255 255 255 255 255 255 255 255 255 255 255 255 255 255 255 255 255 255 255 255 255 255 255 255 255 255 255 255 255 255 255 255 255 255 255 255 255 255 255 255 255 255 255 255 255 80 0 0 0 0 0 0 0 0 0 0 0 0 0 0 21 10 0 0 0 0 0 0 0 0 119 255 255 255 
255 255 255 255 255 221 0 9 112 221 255 255 255 255 255 255 255 255 255 255 255 255 255 255 255 255 255 255 255 255 255 255 255 255 255 255 255 255 255 255 255 255 255 255 255 255 255 255 255 255 255 255 255 255 255 255 255 255 153 0 0 0 0 0 0 0 0 0 0 0 0 0 0 0 50 0 0 0 0 0 0 0 0 0 119 255 255 255 
255 255 255 255 255 255 32 25 0 0 74 187 255 255 255 255 255 255 255 255 255 255 255 255 255 204 187 187 238 255 255 255 255 255 255 255 255 255 255 255 255 255 255 255 255 255 255 255 255 255 255 255 255 255 255 255 255 187 7 0 0 0 0 0 0 0 0 0 0 0 0 0 0 0 97 0 0 0 0 0 0 0 0 5 170 255 255 255 
255 255 255 255 255 255 119 96 41 2 0 6 38 153 255 255 255 255 255 255 255 255 255 204 50 5 19 5 0 34 112 170 255 255 255 255 255 255 255 255 255 255 255 255 255 255 255 255 255 255 255 255 255 255 255 255 153 0 0 0 0 0 0 0 0 0 0 0 0 0 0 0 0 0 77 0 0 0 0 0 0 0 0 0 187 255 255 255 
255 255 255 255 255 255 170 51 238 41 4 0 0 7 74 255 255 255 255 255 255 255 204 11 0 0 0 0 0 0 0 4 0 68 153 238 255 255 255 255 255 255 255 255 255 255 255 255 255 255 255 255 255 255 255 112 4 0 0 0 0 0 0 0 0 0 0 0 0 0 0 0 0 0 67 0 0 0 0 0 0 0 0 0 255 255 255 255 
255 255 255 255 255 255 204 0 255 238 41 4 0 0 89 255 255 255 255 255 255 238 11 0 0 0 0 0 0 0 0 0 0 0 7 0 41 136 221 255 255 255 255 255 255 255 255 238 255 255 255 255 255 255 255 55 0 0 0 0 0 0 0 0 0 0 0 0 0 0 0 0 4 109 6 1 0 0 0 0 0 0 0 23 255 255 255 255 
255 255 255 255 255 255 255 0 20 153 238 41 4 0 119 255 255 255 255 255 255 55 0 0 0 0 0 0 0 0 0 0 0 0 0 0 0 7 0 41 153 238 255 255 255 238 96 59 255 255 255 255 255 255 255 119 0 0 0 0 0 0 0 0 0 0 0 0 0 0 0 4 90 25 0 0 0 0 0 0 0 0 0 55 255 255 255 255 
255 255 255 255 255 255 255 16 0 3 19 143 41 0 170 255 255 255 255 255 187 0 0 0 0 0 0 0 0 19 10 0 0 0 0 0 0 0 0 0 7 0 68 153 204 45 25 204 255 255 255 255 255 255 255 119 0 0 0 0 0 0 0 0 0 0 0 0 0 0 0 39 39 4 0 0 0 0 0 0 0 0 0 119 255 255 255 255 
255 255 255 255 255 255 255 32 8 0 0 4 20 29 187 255 255 255 255 255 255 255 255 255 255 255 221 187 187 187 153 119 119 119 50 50 50 21 0 0 0 0 0 0 0 41 238 255 255 255 255 255 255 255 255 119 0 0 0 0 0 0 0 0 7 14 6 0 0 0 11 36 4 0 0 0 0 0 0 0 0 0 7 136 255 255 255 255 
255 255 255 255 255 255 255 56 0 7 16 0 10 27 100 255 255 255 255 255 255 255 255 255 255 255 255 30 96 153 221 255 255 255 255 255 255 255 255 255 255 238 187 187 187 255 255 255 255 255 255 255 255 255 255 136 10 0 0 0 0 0 0 55 153 187 112 10 1 0 59 3 0 0 0 0 0 0 0 0 0 0 0 187 255 255 255 255 
255 255 255 255 255 255 255 96 20 119 187 221 255 17 187 255 255 255 255 255 255 255 255 255 255 255 255 0 0 11 0 23 89 153 221 255 255 255 255 255 255 255 255 255 255 255 255 255 255 255 255 255 255 255 255 187 19 0 0 4 8 96 221 255 255 255 255 238 55 0 10 0 0 0 0 0 0 0 0 0 0 0 0 238 255 255 255 255 
255 255 255 255 255 255 255 85 119 255 255 255 204 0 255 255 255 255 255 255 255 255 255 255 255 255 255 0 0 24 10 0 0 7 0 21 89 153 255 255 255 255 255 255 255 255 255 255 255 255 255 255 255 255 255 187 5 5 11 119 238 255 255 255 255 255 255 255 255 102 41 11 0 0 0 0 0 1 0 0 0 0 11 255 255 255 255 255 
255 255 255 255 255 255 238 0 204 255 255 255 136 68 255 255 255 255 255 255 255 255 255 255 255 255 255 0 10 0 0 0 0 0 0 0 0 12 255 255 255 255 255 255 255 255 255 255 255 255 255 255 255 255 255 187 28 153 255 255 255 255 255 255 255 255 255 255 255 238 34 96 11 0 0 0 0 0 0 0 0 0 55 255 255 255 255 255 
255 255 255 255 255 255 153 34 255 255 255 255 85 119 255 255 255 255 255 255 255 255 255 255 255 255 255 0 0 24 10 7 0 11 68 136 204 255 255 255 255 255 255 255 255 255 255 255 255 255 255 255 255 255 255 255 255 255 255 255 255 255 255 255 255 255 255 255 255 255 187 0 133 0 0 0 0 0 0 0 0 0 119 255 255 255 255 255 
255 255 255 255 255 255 85 119 255 255 255 255 17 187 255 255 255 255 255 255 255 255 255 255 255 255 255 0 0 21 89 153 221 255 255 255 255 255 255 255 255 255 255 255 255 255 255 255 255 255 255 255 255 255 255 255 255 255 255 255 255 255 255 255 255 255 221 221 255 255 255 85 102 13 0 0 0 0 0 0 0 11 136 255 255 255 255 255 
255 255 255 255 255 238 0 221 255 255 255 221 0 238 255 255 255 255 255 255 255 255 255 255 255 255 255 153 221 255 255 255 255 255 255 255 255 255 255 255 255 255 255 255 255 255 255 255 255 255 255 255 255 255 255 255 255 255 255 255 255 255 255 187 85 17 0 119 255 255 255 187 15 0 0 0 0 0 0 0 0 0 187 255 255 255 255 255 
255 255 255 255 255 153 51 255 255 255 255 153 51 255 255 255 255 255 255 255 255 255 255 255 255 255 255 255 255 255 255 255 255 255 255 255 255 255 255 255 255 255 255 255 255 255 255 255 255 255 255 255 255 255 255 255 255 255 255 255 255 221 68 0 102 187 119 119 255 255 255 204 0 7 0 0 0 0 0 0 0 0 238 255 255 255 255 255 
255 255 255 255 255 119 85 255 255 255 255 102 119 255 255 255 255 255 255 255 255 255 255 255 255 255 255 255 255 255 255 255 255 255 255 255 255 255 255 255 255 255 255 255 255 255 255 255 255 255 255 255 255 255 255 255 255 255 255 255 255 255 17 153 255 255 119 68 255 255 255 170 2 0 0 0 0 0 0 0 0 23 255 255 255 255 255 255 
255 255 255 255 255 187 17 255 255 255 255 34 170 255 255 255 255 255 255 255 255 255 255 255 255 255 255 255 255 255 255 255 255 255 255 255 255 255 255 255 255 255 255 255 255 255 255 255 255 255 255 255 255 255 255 255 255 255 255 255 255 255 119 85 255 255 170 68 255 255 255 55 0 0 0 0 0 0 0 0 0 55 255 255 255 255 255 255 
255 255 255 255 255 255 0 204 255 255 221 0 238 255 255 255 255 255 255 255 255 255 255 255 255 255 255 255 255 255 255 255 255 255 255 255 255 255 255 255 255 255 255 255 255 255 255 255 255 255 255 255 255 255 255 255 255 255 255 255 255 255 221 0 255 255 170 68 255 255 187 8 3 0 0 0 0 0 0 0 0 112 255 255 255 255 255 255 
255 255 255 255 255 255 85 119 255 255 153 51 255 255 255 255 255 255 255 255 255 255 255 255 255 255 255 255 255 255 255 255 255 255 255 255 255 255 255 255 255 255 255 255 255 255 255 255 255 255 255 255 255 255 255 255 255 255 255 255 255 255 255 0 187 255 119 68 255 255 68 11 0 0 0 0 0 0 0 0 3 102 255 255 255 255 255 255 
255 255 255 255 255 255 136 68 255 255 102 119 255 255 255 255 255 255 255 255 255 255 255 255 255 255 255 255 255 255 255 255 255 255 255 255 255 255 255 255 255 255 255 255 255 255 255 255 255 255 255 255 255 255 255 255 255 255 255 255 255 255 255 17 221 255 102 119 255 187 0 0 0 0 0 0 0 0 0 0 0 112 255 255 255 255 255 255 
255 255 255 255 255 255 204 0 255 255 51 153 255 255 255 255 255 255 255 255 255 255 255 255 255 255 255 255 255 255 255 255 255 255 255 255 255 255 255 255 255 255 255 255 255 255 255 255 255 255 255 255 255 255 255 255 255 255 255 255 255 255 255 255 255 238 17 187 255 102 24 0 0 0 0 0 0 0 0 0 0 119 255 255 255 255 255 255 
255 255 255 255 255 255 255 17 170 238 0 221 255 255 255 255 255 255 255 255 255 255 255 255 255 255 255 255 255 255 255 255 255 255 255 255 255 255 255 255 255 255 255 255 255 255 255 255 255 255 255 255 255 255 255 255 255 255 255 255 255 255 255 255 255 119 68 255 221 0 0 0 0 0 0 0 0 0 0 0 0 112 255 255 255 255 255 255 
255 255 255 255 255 255 255 102 119 170 34 255 255 255 255 255 255 255 255 255 255 255 255 255 255 255 255 255 255 255 255 255 255 255 255 255 255 255 255 255 255 255 255 255 255 255 255 255 255 255 255 255 255 255 255 255 255 255 255 255 255 238 170 255 187 0 170 255 119 30 4 0 0 0 0 0 0 0 0 0 0 88 255 255 255 255 255 255 
255 255 255 255 255 255 255 153 51 119 102 255 255 255 255 255 255 255 255 255 255 255 255 255 255 255 255 255 255 255 255 255 255 255 255 255 255 255 255 255 255 255 255 255 255 255 255 255 255 255 255 255 255 255 255 255 255 255 255 255 255 187 17 85 17 136 255 255 15 7 0 0 0 0 0 0 0 0 0 0 0 88 255 255 255 255 255 255 
255 255 255 255 255 255 255 221 0 34 153 255 255 255 255 255 255 255 255 255 255 255 255 255 170 255 255 255 255 255 255 255 255 255 255 255 255 255 255 255 255 255 255 255 255 255 255 255 255 255 255 255 255 255 255 255 255 255 255 255 255 255 204 51 102 255 255 170 8 4 0 0 0 0 0 0 0 0 0 0 0 96 255 255 255 255 255 255 
255 255 255 255 255 255 255 255 0 0 255 255 255 255 255 255 255 255 255 255 255 255 255 238 17 136 255 255 255 255 255 255 255 255 255 255 255 255 255 255 255 255 255 255 255 255 255 255 255 255 255 255 255 255 255 255 255 255 255 255 255 255 255 255 255 255 255 102 9 0 0 0 0 0 0 0 0 0 0 0 0 119 255 255 255 255 255 255 
255 255 255 255 255 255 255 255 37 41 255 255 255 255 255 255 255 255 255 255 255 255 255 255 170 17 221 255 255 255 255 255 255 187 51 204 255 255 255 255 255 255 255 255 255 255 255 255 255 255 255 255 255 255 255 255 255 255 255 255 255 255 255 255 255 255 221 0 0 0 0 0 0 0 0 0 0 0 0 0 0 119 255 255 255 255 255 255 
255 255 255 255 255 255 255 255 75 24 255 255 255 255 255 255 255 255 255 255 255 255 255 255 255 68 102 255 255 255 255 255 255 255 119 0 136 255 255 255 255 255 255 255 255 255 255 255 255 255 255 255 255 255 255 255 255 255 255 255 255 255 255 255 255 255 85 36 0 0 0 0 0 0 0 0 0 0 0 0 0 119 255 255 255 255 255 255 
255 255 255 255 255 255 255 255 104 5 85 187 187 187 187 187 187 187 204 255 255 255 255 255 255 170 68 255 255 255 255 255 255 255 255 170 17 85 221 255 255 255 255 255 255 255 255 255 255 255 255 255 255 255 255 255 255 255 255 255 255 255 255 187 153 68 51 77 0 0 0 0 0 0 0 0 0 0 0 0 0 119 255 255 255 255 255 255 
255 255 255 255 255 255 255 255 187 30 85 34 0 0 0 0 0 68 0 17 85 153 187 136 102 17 102 255 255 255 255 255 255 255 255 255 221 85 17 119 255 255 255 255 255 255 255 255 255 255 255 255 255 255 255 255 255 255 255 255 255 0 0 0 68 119 238 88 0 0 0 0 0 0 0 0 0 0 0 0 4 170 255 255 255 255 255 255 
255 255 255 255 255 255 255 255 221 0 255 255 255 255 255 255 255 238 255 187 119 68 68 68 102 187 255 255 255 255 255 255 255 255 255 255 255 255 187 34 34 119 221 255 255 255 255 255 255 255 255 255 255 255 255 255 255 255 255 255 255 0 221 255 255 255 255 88 0 0 0 0 0 0 0 0 0 0 0 0 0 221 255 255 255 255 255 255 
255 255 255 255 255 255 255 255 255 0 187 255 255 255 255 255 0 119 255 255 255 255 255 255 255 255 255 255 255 255 255 255 255 255 255 255 255 255 255 255 153 85 0 51 119 119 153 187 221 255 255 255 255 255 255 255 255 255 255 255 255 0 255 255 255 255 255 88 0 0 0 0 0 0 0 0 0 0 0 0 8 255 255 255 255 255 255 255 
255 255 255 255 255 255 255 255 255 68 153 255 255 255 255 255 0 21 255 255 255 255 255 255 255 255 255 255 255 255 255 255 255 255 255 255 255 255 255 255 255 255 238 136 119 68 68 34 119 255 255 255 255 255 255 255 255 255 255 255 187 0 255 255 255 255 255 88 0 0 0 0 0 0 0 0 0 0 0 0 46 255 255 255 255 255 255 255 
255 255 255 255 255 255 255 255 255 102 119 255 255 255 255 221 0 6 187 255 255 255 255 255 255 255 255 255 255 255 255 255 255 255 255 255 255 255 255 255 255 255 255 255 255 255 255 255 255 255 255 255 255 255 255 255 255 255 255 255 187 0 255 255 255 255 255 88 0 0 0 0 0 0 0 0 0 0 0 0 112 255 255 255 255 255 255 255 
255 255 255 255 255 255 255 255 255 119 68 255 255 255 255 187 0 0 89 255 255 255 255 255 255 255 255 255 255 255 255 255 255 255 255 255 255 255 255 255 255 255 255 255 255 255 255 255 255 255 255 255 255 255 255 255 255 255 255 255 187 68 255 255 255 255 255 88 0 0 0 0 0 0 0 0 0 0 0 4 170 255 255 255 255 255 255 255 
255 255 255 255 255 255 255 255 255 204 0 238 255 255 255 170 0 23 119 255 255 255 255 255 255 255 255 255 255 255 255 255 255 255 255 255 255 255 255 255 255 255 255 255 255 255 255 255 255 255 255 255 255 255 255 255 255 255 255 255 136 68 255 255 255 255 255 88 0 0 0 0 0 0 0 0 0 0 0 0 221 255 255 255 255 255 255 255 
255 255 255 255 255 255 255 255 255 255 34 153 255 255 255 187 204 255 255 255 255 255 255 255 255 255 255 255 255 255 255 255 255 255 255 255 255 255 255 255 255 255 255 255 255 255 255 255 255 255 255 255 255 255 255 255 255 255 255 255 68 102 255 255 255 255 255 88 0 0 0 0 0 0 0 0 0 0 0 23 255 255 255 255 255 255 255 255 
255 255 255 255 255 255 255 255 255 255 119 85 238 187 136 112 88 88 88 88 88 88 88 104 153 221 255 255 255 255 255 255 255 255 255 255 255 255 255 255 255 255 255 255 255 255 255 255 255 255 255 255 255 255 255 255 255 255 255 136 17 238 255 255 255 255 255 88 0 0 0 0 0 0 0 0 0 0 5 136 255 255 255 255 255 255 255 255 
255 255 255 255 255 255 255 255 255 255 204 0 56 0 0 0 0 0 0 0 0 0 0 0 7 0 21 89 136 204 255 255 255 255 255 255 255 255 255 255 255 255 255 255 255 255 255 255 255 255 255 255 255 255 255 255 255 255 221 17 170 255 255 255 255 255 255 88 0 0 0 0 0 0 0 0 0 0 0 238 255 255 255 255 255 255 255 255 
255 255 255 255 255 255 255 255 255 255 255 34 70 88 118 119 55 34 0 0 10 5 0 0 0 0 0 0 0 16 119 238 255 255 255 255 255 255 255 255 255 255 255 255 255 255 255 255 255 255 255 255 255 255 255 255 255 255 68 85 255 255 255 255 255 255 255 88 0 0 0 0 0 0 0 0 0 0 74 255 255 255 255 255 255 255 255 255 
255 255 255 255 255 255 255 255 255 255 255 119 96 12 0 89 187 221 153 77 19 64 105 50 10 0 21 112 187 255 255 255 255 255 255 255 255 255 255 255 255 255 255 255 255 255 255 255 255 255 255 255 255 255 255 255 255 119 17 238 255 255 255 255 255 255 255 88 0 0 0 0 0 0 0 0 0 0 170 255 255 255 255 255 255 255 255 255 
255 255 255 255 255 255 255 255 255 255 255 204 17 170 0 0 0 0 0 0 0 0 23 153 255 255 255 255 255 255 255 255 255 255 255 255 255 255 255 255 255 255 255 255 255 255 255 255 255 255 255 255 255 255 255 255 221 17 170 255 255 255 255 255 255 255 255 88 0 0 0 0 0 0 0 0 0 50 255 255 255 255 255 255 255 255 255 255 
255 255 255 255 255 255 255 255 255 255 255 255 34 170 74 3 14 0 0 21 50 119 119 187 238 255 255 255 255 255 255 255 255 255 255 255 255 255 255 255 255 255 255 255 255 255 255 255 255 255 255 255 255 255 255 255 68 85 255 255 255 255 255 255 255 255 255 88 0 0 0 0 0 0 4 0 59 204 255 255 255 255 255 255 255 255 255 255 
255 255 255 255 255 255 255 255 255 255 255 255 119 102 221 119 187 204 255 255 255 255 255 255 255 255 255 255 255 255 255 255 255 255 255 255 255 255 255 255 255 255 255 255 255 255 255 255 255 255 255 255 255 255 255 136 17 238 255 255 255 255 255 255 255 255 255 88 0 0 0 0 5 11 119 221 255 255 255 255 255 255 255 255 255 255 255 255 
255 255 255 255 255 255 255 255 255 255 255 255 204 17 255 255 255 255 255 255 255 255 255 255 255 255 255 255 255 255 255 255 255 255 255 255 255 255 255 255 255 255 255 255 255 255 255 255 255 255 255 255 255 255 221 17 170 255 255 255 255 255 255 255 255 255 255 113 0 4 0 59 153 255 255 255 255 255 255 255 255 255 255 255 255 255 255 255 
255 255 255 255 255 255 255 255 255 255 255 255 255 34 170 255 255 255 255 255 255 255 255 255 255 255 255 255 255 255 255 255 255 255 255 255 255 255 255 255 255 255 255 255 255 255 255 255 255 255 255 255 255 255 85 85 255 255 255 255 255 255 255 255 255 255 255 138 3 112 221 255 255 255 255 255 255 255 255 255 255 255 255 255 255 255 255 255 
255 255 255 255 255 255 255 255 255 255 255 255 255 119 102 255 255 255 255 255 255 255 255 255 255 255 255 255 255 255 255 255 255 255 255 255 255 255 255 255 255 255 255 255 255 255 255 255 255 255 255 255 255 170 17 221 255 255 255 255 255 255 255 255 255 255 255 175 68 255 255 255 255 255 255 255 255 255 255 255 255 255 255 255 255 255 255 255 
255 255 255 255 255 255 255 255 255 255 255 255 255 187 17 255 255 255 255 255 255 255 255 255 255 255 255 255 255 255 255 255 255 255 255 255 255 255 255 255 255 255 255 255 255 255 255 255 255 255 255 255 204 17 119 255 255 255 255 255 255 255 255 255 255 255 255 187 51 255 255 255 255 255 255 255 255 255 255 255 255 255 255 255 255 255 255 255 
255 255 255 255 255 255 255 255 255 255 255 255 255 255 0 221 255 255 255 255 255 255 255 255 255 255 255 255 255 255 255 255 255 255 255 255 255 255 255 255 255 255 255 255 255 255 255 255 255 255 255 204 17 102 255 255 255 255 255 255 255 255 255 255 255 255 255 187 0 255 255 255 255 255 255 255 255 255 255 255 255 255 255 255 255 255 255 255 
255 255 255 255 255 255 255 255 255 255 255 255 255 255 34 187 255 255 255 255 255 255 255 255 255 255 255 255 255 255 255 255 255 255 255 255 255 255 255 255 255 255 255 255 255 255 255 255 255 255 187 17 102 255 255 255 255 255 255 255 255 255 255 255 255 255 255 221 0 255 255 255 255 255 255 255 255 255 255 255 255 255 255 255 255 255 255 255 
255 255 255 255 255 255 255 255 255 255 255 255 255 255 68 119 255 255 255 255 255 255 255 255 255 255 255 255 255 255 255 255 255 255 255 255 255 255 255 255 255 255 255 255 255 255 255 255 221 85 0 119 255 255 255 255 255 255 255 255 255 255 255 255 255 255 255 255 0 221 255 255 255 255 255 255 255 255 255 255 255 255 255 255 255 255 255 255 
255 255 255 255 255 255 255 255 255 255 255 255 255 255 119 119 255 255 255 255 255 255 255 255 255 255 255 255 255 255 255 255 255 255 255 255 255 255 255 255 255 255 255 255 255 255 255 119 17 68 221 255 255 255 255 255 255 255 255 255 255 255 255 255 255 255 255 255 0 187 255 255 255 255 255 255 255 255 255 255 255 255 255 255 255 255 255 255 
255 255 255 255 255 255 255 255 255 255 255 255 255 255 136 34 238 255 255 255 255 255 255 255 255 255 255 255 255 255 255 255 255 255 255 255 255 255 255 255 255 255 255 255 238 119 34 34 170 255 255 255 255 255 255 255 255 255 255 255 255 255 255 255 255 255 255 255 68 187 255 255 255 255 255 255 255 255 255 255 255 255 255 255 255 255 255 255 
255 255 255 255 255 255 255 255 255 255 255 255 255 255 238 51 51 221 255 255 255 255 255 255 255 255 255 255 255 255 255 255 255 255 255 255 255 255 255 255 255 255 238 119 17 34 153 255 255 255 255 255 255 255 255 255 255 255 255 255 255 255 255 255 255 255 255 255 68 119 255 255 255 255 255 255 255 255 255 255 255 255 255 255 255 255 255 255 
255 255 255 255 255 255 255 255 255 255 255 255 255 255 255 238 102 17 187 255 255 255 255 255 255 255 255 255 255 255 255 255 255 255 255 255 255 255 221 170 119 68 0 51 153 255 255 255 255 255 255 255 255 255 255 255 255 255 255 255 255 255 255 255 255 255 255 153 34 119 255 255 255 255 255 255 255 255 255 255 255 255 255 255 255 255 255 255 
255 255 255 255 255 255 255 255 255 255 255 255 255 255 255 255 255 119 0 102 238 255 255 255 255 255 255 255 255 255 255 255 255 187 153 119 68 17 0 51 102 136 204 255 255 255 255 255 255 255 255 255 255 255 255 255 255 255 255 255 255 255 255 255 204 102 17 34 119 221 255 255 255 255 255 255 255 255 255 255 255 255 255 255 255 255 255 255 
255 255 255 255 255 255 255 255 255 255 255 255 255 255 255 255 255 255 204 68 17 119 204 255 255 255 238 187 170 119 85 51 0 0 68 102 136 187 255 255 255 255 255 255 255 255 255 255 255 255 255 255 255 255 255 255 255 255 255 255 255 238 136 51 0 102 170 255 255 255 255 255 255 255 255 255 255 255 255 255 255 255 255 255 255 255 255 255 
255 255 255 255 255 255 255 255 255 255 255 255 255 255 255 255 255 255 255 255 153 85 0 17 34 0 0 0 22 51 119 170 204 255 255 255 255 255 255 255 255 255 255 255 255 255 255 255 255 255 255 255 255 255 255 255 255 255 255 170 85 0 51 136 238 255 255 255 255 255 255 255 255 255 255 255 255 255 255 255 255 255 255 255 255 255 255 255 
255 255 255 255 255 255 255 255 255 255 255 255 255 255 255 255 255 255 255 255 255 255 255 187 187 187 238 255 187 0 187 255 255 255 255 255 255 255 255 255 255 255 255 255 255 255 255 255 255 255 255 255 255 255 255 255 221 119 34 17 102 204 255 255 255 255 255 255 255 255 255 255 255 255 255 255 255 255 255 255 255 255 255 255 255 255 255 255 
255 255 255 255 255 255 255 255 255 255 255 255 255 255 255 255 255 255 255 255 255 255 255 255 255 255 255 255 255 119 34 255 255 255 255 255 255 255 255 255 255 255 255 255 255 255 255 255 255 255 255 255 255 238 153 68 0 85 153 255 255 255 255 255 255 255 255 255 255 255 255 255 255 255 255 255 255 255 255 255 255 255 255 255 255 255 255 255 
255 255 255 255 255 255 255 255 255 255 255 255 255 255 255 255 255 255 255 255 255 255 255 255 255 255 255 255 255 255 17 170 255 255 255 255 255 255 255 255 255 255 255 255 255 255 255 255 255 255 255 187 102 17 34 119 221 255 255 255 255 255 255 255 255 255 255 255 255 255 255 255 255 255 255 255 255 255 255 255 255 255 255 255 255 255 255 255 
255 255 255 255 255 255 255 255 255 255 255 255 255 255 255 255 255 255 255 255 255 255 255 255 255 255 255 255 255 255 102 102 255 255 255 255 255 255 255 255 255 255 255 255 255 255 255 255 221 136 34 0 102 187 255 255 255 255 255 255 255 255 255 255 255 255 255 255 255 255 255 255 255 255 255 255 255 255 255 255 255 255 255 255 255 255 255 255 
255 255 255 255 255 255 255 255 255 255 255 255 255 255 255 255 255 255 255 255 255 255 255 255 255 255 255 255 255 255 204 0 238 255 255 255 255 255 255 255 255 255 255 255 255 255 170 85 0 51 153 238 255 255 255 255 255 255 255 255 255 255 255 255 255 255 255 255 255 255 255 255 255 255 255 255 255 255 255 255 255 255 255 255 255 255 255 255 
255 255 255 255 255 255 255 255 255 255 255 255 255 255 255 255 255 255 255 255 255 255 255 255 255 255 255 255 255 255 255 34 170 255 255 255 255 255 255 255 255 255 255 204 119 17 17 119 221 255 255 255 255 255 255 255 255 255 255 255 255 255 255 255 255 255 255 255 255 255 255 255 255 255 255 255 255 255 255 255 255 255 255 255 255 255 255 255 
255 255 255 255 255 255 255 255 255 255 255 255 255 255 255 255 255 255 255 255 255 255 255 255 255 255 255 255 255 255 255 102 102 255 255 255 255 255 255 255 238 153 51 0 85 170 255 255 255 255 255 255 255 255 255 255 255 255 255 255 255 255 255 255 255 255 255 255 255 255 255 255 255 255 255 255 255 255 255 255 255 255 255 255 255 255 255 255 
255 255 255 255 255 255 255 255 255 255 255 255 255 255 255 255 255 255 255 255 255 255 255 255 255 255 255 255 255 255 255 170 34 255 255 255 255 255 187 102 0 34 136 221 255 255 255 255 255 255 255 255 255 255 255 255 255 255 255 255 255 255 255 255 255 255 255 255 255 255 255 255 255 255 255 255 255 255 255 255 255 255 255 255 255 255 255 255 
255 255 255 255 255 255 255 255 255 255 255 255 255 255 255 255 255 255 255 255 255 255 255 255 255 255 255 255 255 255 255 238 0 204 255 221 119 34 17 102 204 255 255 255 255 255 255 255 255 255 255 255 255 255 255 255 255 255 255 255 255 255 255 255 255 255 255 255 255 255 255 255 255 255 255 255 255 255 255 255 255 255 255 255 255 255 255 255 
255 255 255 255 255 255 255 255 255 255 255 255 255 255 255 255 255 255 255 255 255 255 255 255 255 255 255 255 255 255 255 255 85 68 68 0 68 153 238 255 255 255 255 255 255 255 255 255 255 255 255 255 255 255 255 255 255 255 255 255 255 255 255 255 255 255 255 255 255 255 255 255 255 255 255 255 255 255 255 255 255 255 255 255 255 255 255 255 
255 255 255 255 255 255 255 255 255 255 255 255 255 255 255 255 255 255 255 255 255 255 255 255 255 255 255 255 255 255 255 255 153 34 119 221 255 255 255 255 255 255 255 255 255 255 255 255 255 255 255 255 255 255 255 255 255 255 255 255 255 255 255 255 255 255 255 255 255 255 255 255 255 255 255 255 255 255 255 255 255 255 255 255 255 255 255 255 
255 255 255 255 255 255 255 255 255 255 255 255 255 255 255 255 255 255 255 255 255 255 255 255 255 255 255 255 255 255 255 255 255 255 255 255 255 255 255 255 255 255 255 255 255 255 255 255 255 255 255 255 255 255 255 255 255 255 255 255 255 255 255 255 255 255 255 255 255 255 255 255 255 255 255 255 255 255 255 255 255 255 255 255 255 255 255 255 
255 255 255 255 255 255 255 255 255 255 255 255 255 255 255 255 255 255 255 255 255 255 255 255 255 255 255 255 255 255 255 255 255 255 255 255 255 255 255 255 255 255 255 255 255 255 255 255 255 255 255 255 255 255 255 255 255 255 255 255 255 255 255 255 255 255 255 255 255 255 255 255 255 255 255 255 255 255 255 255 255 255 255 255 255 255 255 255 
255 255 255 255 255 255 255 255 255 255 255 255 255 255 255 255 255 255 255 255 255 255 255 255 255 255 255 255 255 255 255 255 255 255 255 255 255 255 255 255 255 255 255 255 255 255 255 255 255 255 255 255 255 255 255 255 255 255 255 255 255 255 255 255 255 255 255 255 255 255 255 255 255 255 255 255 255 255 255 255 255 255 255 255 255 255 255 255 
