P2
91 113
255
255 255 255 255 255 255 255 255 255 255 255 255 255 255 255 255 255 255 255 255 255 255 255 255 255 255 255 255 255 255 255 255 255 255 255 255 255 255 255 255 255 255 255 255 255 255 255 255 255 255 255 255 255 255 255 255 255 255 255 255 255 255 255 255 255 255 255 255 255 255 255 255 255 255 255 255 255 255 255 255 255 255 255 255 255 255 255 255 255 255 255 
255 255 255 255 255 255 255 255 255 255 255 255 255 255 255 255 255 255 255 255 255 255 255 255 255 255 255 255 255 255 255 255 255 255 255 255 255 255 255 255 255 255 255 255 255 255 255 255 255 255 255 255 255 255 255 255 255 255 255 255 255 255 255 255 255 255 255 255 255 255 255 255 255 255 255 255 255 255 255 255 255 255 255 255 255 255 255 255 255 255 255 
255 255 255 255 255 255 255 255 255 255 255 255 255 255 255 255 255 255 255 255 255 255 255 255 255 255 255 255 255 255 255 255 255 255 255 255 255 255 255 255 255 255 204 187 136 119 136 187 204 255 255 255 255 255 255 255 255 255 255 255 255 255 255 255 255 255 255 255 255 255 255 255 255 255 255 255 255 255 255 255 255 255 255 255 255 255 255 255 255 255 255 
255 255 255 255 255 255 255 255 255 255 255 255 255 255 255 255 255 255 255 255 255 255 255 255 255 255 255 255 255 255 255 255 255 255 255 255 170 119 102 68 17 0 0 34 68 68 68 34 0 0 17 68 102 119 170 255 255 255 255 255 255 255 255 255 255 255 255 255 255 255 255 255 255 255 255 255 255 255 255 255 255 255 255 255 255 255 255 255 255 255 255 
255 255 255 255 255 255 255 255 255 255 255 255 255 255 255 255 255 255 255 255 255 255 255 255 255 255 255 255 255 255 255 255 255 221 119 34 17 85 119 153 187 221 255 255 255 255 255 255 255 221 187 153 119 85 17 34 119 221 255 255 255 255 255 255 255 255 255 255 255 255 255 255 255 255 255 255 255 255 255 255 255 255 255 255 255 255 255 255 255 255 255 
255 255 255 255 255 255 255 255 255 255 255 255 255 255 255 255 255 255 255 255 255 255 255 255 255 255 255 255 255 255 255 170 85 0 68 153 255 255 255 255 255 255 255 255 255 255 255 255 255 255 255 255 255 255 255 153 68 0 85 170 255 255 255 255 255 255 255 255 255 255 255 255 255 255 255 255 255 255 255 255 255 255 255 255 255 255 255 255 255 255 255 
255 255 255 255 255 255 255 255 255 255 255 255 255 255 255 255 255 255 255 255 255 255 255 255 255 255 255 255 221 119 34 17 119 221 255 255 255 255 255 255 255 255 255 255 255 255 255 255 255 255 255 255 255 255 255 255 255 221 119 17 34 119 238 255 255 255 255 255 255 255 255 255 255 255 255 255 255 255 255 255 255 255 255 255 255 255 255 255 255 255 255 
255 255 255 255 255 255 255 255 255 255 255 255 255 255 255 255 255 255 255 255 255 255 255 255 255 255 255 170 17 68 170 255 255 255 255 255 255 255 255 255 255 255 255 255 255 255 255 255 255 255 255 255 255 255 255 255 255 255 255 255 153 68 17 170 255 255 255 255 255 255 255 255 255 255 255 255 255 255 255 255 255 255 255 255 255 255 255 255 255 255 255 
255 255 255 255 255 255 255 255 255 255 255 255 255 255 255 255 255 255 255 255 255 255 255 255 255 238 85 17 136 255 255 255 255 255 255 255 255 255 255 255 255 255 255 255 255 255 255 255 255 255 255 255 255 255 255 255 255 255 255 255 255 255 136 17 85 238 255 255 255 255 255 255 255 255 255 255 255 255 255 255 255 255 255 255 255 255 255 255 255 255 255 
255 255 255 255 255 255 255 255 255 255 255 255 255 255 255 255 255 255 255 255 255 255 255 255 187 17 68 221 255 255 255 255 255 255 255 255 255 255 255 255 255 255 255 255 255 255 255 255 255 255 255 255 255 255 255 255 255 255 255 255 255 255 255 221 68 17 187 255 255 255 255 255 255 255 255 255 255 255 255 255 255 255 255 255 255 255 255 255 255 255 255 
255 255 255 255 255 255 255 255 255 255 255 255 255 255 255 255 255 255 255 255 255 255 238 119 0 136 255 255 255 255 255 255 255 255 255 255 255 255 255 255 255 255 255 255 255 255 255 255 255 255 255 255 255 255 255 255 255 255 255 255 255 255 255 255 255 136 0 119 238 255 255 255 255 255 255 255 255 255 255 255 255 255 255 255 255 255 255 255 255 255 255 
255 255 255 255 255 255 255 255 255 255 255 255 255 255 255 255 255 255 255 255 255 204 34 51 204 255 255 255 255 255 255 255 255 255 255 255 255 255 255 255 255 255 255 255 255 255 255 255 255 255 255 255 255 255 255 255 255 255 255 255 255 255 255 255 255 255 204 51 34 204 255 255 255 255 255 255 255 255 255 255 255 255 255 255 255 255 255 255 255 255 255 
255 255 255 255 255 255 255 255 255 255 255 255 255 255 255 255 255 255 255 255 204 17 119 255 255 255 255 255 255 255 255 255 255 255 255 255 255 255 255 255 255 255 255 255 255 255 255 255 255 255 255 255 255 255 255 255 255 255 255 255 255 255 255 255 255 255 255 255 119 17 204 255 255 255 255 255 255 255 255 255 255 255 255 255 255 255 255 255 255 255 255 
255 255 255 255 255 255 255 255 255 255 255 255 255 255 255 255 255 255 255 204 17 102 255 255 255 255 255 255 255 255 255 255 255 255 255 255 255 255 255 255 255 255 255 255 255 255 255 255 255 255 255 255 255 255 255 255 255 255 255 255 255 255 255 255 255 255 255 255 255 102 17 204 255 255 255 255 255 255 255 255 255 255 255 255 255 255 255 255 255 255 255 
255 255 255 255 255 255 255 255 255 255 255 255 255 255 255 255 255 255 204 17 102 255 255 255 255 255 255 255 255 255 255 255 255 255 255 255 255 255 255 255 255 255 255 255 255 255 255 255 255 255 255 255 255 255 255 255 255 255 255 255 255 255 255 255 255 255 255 255 255 255 102 17 204 255 255 255 255 255 255 255 255 255 255 255 255 255 255 255 255 255 255 
255 255 255 255 255 255 255 255 255 255 255 255 255 255 255 255 255 221 17 102 255 255 255 255 255 255 255 255 255 255 255 255 255 255 255 255 255 255 255 255 255 255 255 255 255 255 255 255 255 255 255 255 255 255 255 255 255 255 255 255 255 255 255 255 255 255 255 255 255 255 255 102 17 221 255 255 255 255 255 255 255 255 255 255 255 255 255 255 255 255 255 
255 255 255 255 255 255 255 255 255 255 255 255 255 255 255 255 238 51 102 255 255 255 255 255 255 255 255 255 255 255 255 255 255 255 255 255 255 255 255 255 255 255 255 255 255 255 255 255 255 255 255 255 255 255 255 255 255 255 255 255 255 255 255 255 255 255 255 255 255 255 255 255 102 51 238 255 255 255 255 255 255 255 255 255 255 255 255 255 255 255 255 
255 255 255 255 255 255 255 255 255 255 255 255 255 255 255 238 51 102 255 255 255 255 255 255 255 255 255 255 255 255 255 255 255 255 255 255 255 255 255 255 255 255 255 255 255 255 255 255 255 255 255 255 255 255 255 255 255 255 255 255 255 255 255 255 255 255 255 255 255 255 255 255 255 102 51 238 255 255 255 255 255 255 255 255 255 255 255 255 255 255 255 
255 255 255 255 255 255 255 255 255 255 255 255 255 255 255 51 68 255 255 255 255 255 255 255 255 255 255 255 255 255 255 255 255 255 255 255 255 255 255 255 255 255 255 255 255 255 255 255 255 255 255 255 255 255 255 255 255 255 255 255 255 255 255 255 255 255 255 255 255 255 255 255 255 255 68 51 255 255 255 255 255 255 255 255 255 255 255 255 255 255 255 
255 255 255 255 255 255 255 255 255 255 255 255 255 255 119 34 238 255 255 255 255 255 255 255 255 255 255 255 255 255 255 255 255 255 255 255 255 255 255 255 255 255 255 255 255 255 255 255 255 255 255 255 255 255 255 255 255 255 255 255 255 255 255 255 255 255 255 255 255 255 255 255 255 255 238 34 119 255 255 255 255 255 255 255 255 255 255 255 255 255 255 
255 255 255 255 255 255 255 255 255 255 255 255 255 221 17 187 255 255 255 255 255 255 255 255 255 255 255 255 255 255 255 255 255 255 255 255 255 255 255 255 255 255 255 255 255 255 255 255 255 255 255 255 255 255 255 255 255 255 255 255 255 255 255 255 255 255 255 255 255 255 255 255 255 255 255 187 17 221 255 255 255 255 255 255 255 255 255 255 255 255 255 
255 255 255 255 255 255 255 255 255 255 255 255 255 68 102 255 255 255 255 255 255 255 255 255 255 255 255 255 255 255 255 255 255 255 255 255 255 255 255 255 255 255 255 255 255 255 255 255 255 255 255 255 255 255 255 255 255 255 255 255 255 255 255 255 255 255 255 255 255 255 255 255 255 255 255 255 85 68 255 255 255 255 255 255 255 255 255 255 255 255 255 
255 255 255 255 255 255 255 255 255 255 255 255 136 17 238 255 255 255 255 255 255 255 255 255 255 255 255 255 255 255 255 255 255 255 255 255 255 255 255 255 255 255 255 255 255 255 255 255 255 255 255 255 255 255 255 255 255 255 255 255 255 255 255 255 255 255 255 255 255 255 255 255 255 255 255 255 238 17 136 255 255 255 255 255 255 255 255 255 255 255 255 
255 255 255 255 255 255 255 255 255 255 255 221 17 170 255 255 255 255 255 255 255 255 255 255 255 255 255 255 255 255 255 255 255 255 255 255 255 255 255 255 255 255 255 255 255 255 255 255 255 255 255 255 255 255 255 255 255 255 255 255 255 255 255 255 255 255 255 255 255 255 255 255 255 255 255 255 255 170 17 221 255 255 255 255 255 255 255 255 255 255 255 
255 255 255 255 255 255 255 255 255 255 255 68 85 255 255 255 255 255 255 255 255 255 255 255 255 255 255 255 255 255 255 255 255 255 255 255 255 255 255 255 255 255 255 255 255 255 255 255 255 255 255 255 255 255 255 255 255 255 255 255 255 255 255 255 255 255 255 255 255 255 255 255 255 255 255 255 255 255 85 68 255 255 255 255 255 255 255 255 255 255 255 
255 255 255 255 255 255 255 255 255 255 170 17 238 255 255 255 255 255 255 255 255 255 255 255 255 255 255 255 255 255 255 255 255 255 255 255 255 255 255 255 255 255 255 255 255 255 255 255 255 255 255 255 255 255 255 255 255 255 255 255 255 255 221 187 204 255 255 255 255 255 255 255 255 255 255 255 255 255 238 17 170 255 255 255 255 255 255 255 255 255 255 
255 255 255 255 255 255 255 255 255 238 17 136 255 255 255 255 255 255 255 255 255 255 255 255 255 255 255 255 255 255 255 255 255 255 255 255 255 255 255 255 255 255 255 255 255 255 255 255 255 255 255 255 255 255 255 255 255 255 255 255 238 119 0 34 0 0 34 153 255 255 255 255 255 255 255 255 255 255 255 136 17 238 255 255 255 255 255 255 255 255 255 
255 255 255 255 255 255 255 255 255 153 34 255 255 255 255 255 255 255 255 255 255 255 255 255 255 255 255 136 51 0 0 68 119 204 255 255 255 255 255 255 255 255 255 255 255 255 255 255 255 255 255 255 255 255 255 255 255 255 238 119 17 68 187 255 255 221 187 187 255 255 255 255 255 255 255 255 255 255 255 255 34 153 255 255 255 255 255 255 255 255 255 
255 255 255 255 255 255 255 255 255 34 136 255 255 255 255 255 255 255 255 255 255 255 255 255 255 255 153 17 170 221 187 153 85 0 119 238 255 255 255 255 255 255 255 255 255 255 255 255 255 255 255 255 255 255 255 255 255 153 34 34 170 255 255 255 255 255 255 255 255 255 255 255 255 255 255 255 255 255 255 255 136 34 255 255 255 255 255 255 255 255 255 
255 255 255 255 255 255 255 255 187 17 238 255 255 255 255 255 255 255 255 255 255 255 255 255 255 255 119 204 255 255 255 255 255 204 51 51 204 255 255 255 255 255 255 255 255 255 255 255 255 255 255 255 255 255 255 187 51 17 153 255 255 255 255 255 255 255 255 255 255 255 255 255 255 255 255 255 255 255 255 255 238 17 187 255 255 255 255 255 255 255 255 
255 255 255 255 255 255 255 255 85 102 255 255 255 255 255 255 255 255 255 255 255 255 255 255 255 255 255 255 255 255 255 255 255 255 255 119 0 119 255 255 255 255 255 255 255 255 255 255 255 255 255 255 255 221 85 17 119 238 255 255 255 255 255 255 255 255 255 255 255 255 255 255 255 255 255 255 255 255 255 255 255 102 85 255 255 255 255 255 255 255 255 
255 255 255 255 255 255 255 221 0 221 255 255 255 255 255 255 255 255 255 255 255 255 255 255 255 255 255 255 255 255 255 255 255 255 255 255 187 34 51 221 255 255 255 255 255 255 255 255 255 255 255 238 119 0 85 221 255 255 255 255 255 255 255 187 102 68 68 68 68 68 68 204 255 255 255 255 255 255 255 255 255 221 0 221 255 255 255 255 255 255 255 
255 255 255 255 255 255 255 119 68 255 255 255 255 255 255 255 255 255 255 255 255 255 255 255 255 221 119 34 0 0 0 34 102 221 255 255 255 238 102 17 136 255 255 255 255 255 255 255 255 255 153 17 51 187 255 255 255 255 255 255 221 136 34 17 102 170 187 187 170 119 119 221 255 255 255 255 255 255 255 255 255 255 68 119 255 255 255 255 255 255 255 
255 255 255 255 255 255 255 17 170 255 255 255 255 255 255 255 255 255 255 255 255 255 255 255 136 0 85 153 238 221 187 187 85 17 119 255 255 255 255 170 17 85 187 221 255 255 255 204 170 68 17 153 255 255 255 255 255 255 221 85 0 51 153 238 255 255 255 255 255 255 255 255 255 255 255 255 255 255 255 255 255 255 170 17 255 255 255 255 255 255 255 
255 255 255 255 255 255 153 34 255 255 255 255 255 255 255 255 255 255 255 255 255 255 255 255 238 221 255 255 255 255 255 255 255 170 34 51 238 255 255 255 238 85 34 0 0 51 0 0 68 119 238 255 255 255 255 255 221 102 0 102 221 255 255 255 255 255 255 255 255 255 255 255 255 255 255 255 255 255 255 255 255 255 255 34 153 255 255 255 255 255 255 
255 255 255 255 255 255 51 136 255 255 255 255 255 255 255 255 255 255 255 255 255 255 255 255 255 255 255 255 255 255 255 255 255 255 238 51 51 238 255 255 255 255 255 255 187 187 204 255 255 255 255 255 255 255 221 102 0 102 221 255 255 255 255 255 255 255 255 255 255 255 255 255 255 255 255 255 255 255 255 255 255 255 255 136 51 255 255 255 255 255 255 
255 255 255 255 255 238 0 221 255 255 255 255 255 255 255 255 255 255 255 255 255 255 255 255 255 255 255 255 255 255 255 255 255 255 255 238 51 51 238 255 255 255 255 255 255 255 255 255 255 255 255 255 170 102 17 68 187 255 255 255 255 255 255 255 255 255 255 255 255 255 255 255 255 255 255 255 255 255 255 255 255 255 255 221 0 238 255 255 255 255 255 
255 255 255 255 255 170 34 255 255 255 255 255 255 255 255 255 255 255 255 255 255 255 143 21 0 41 112 238 255 255 255 255 255 255 255 255 238 68 17 187 255 255 255 255 255 255 255 255 255 204 119 34 17 102 204 255 255 255 255 255 255 255 187 89 16 0 75 187 255 255 255 255 255 255 255 255 255 255 255 255 255 255 255 255 34 170 255 255 255 255 255 
255 255 255 255 255 119 102 255 255 255 255 255 255 255 255 255 255 255 255 255 255 112 4 0 0 0 5 10 136 238 255 255 255 255 255 255 255 255 119 0 119 136 187 221 255 255 255 255 119 0 85 170 255 255 255 255 255 255 255 255 221 89 0 0 0 0 0 7 204 255 255 255 255 255 255 255 255 255 255 255 255 255 255 255 102 119 255 255 255 255 255 
255 255 255 255 255 51 153 255 255 255 255 255 255 255 255 255 255 255 255 255 187 0 0 10 10 23 16 0 3 10 112 221 255 255 255 255 255 255 255 187 102 68 34 119 255 255 255 255 221 238 255 255 255 255 255 255 255 255 170 55 0 0 0 32 19 0 8 0 38 255 255 255 255 255 255 255 255 255 255 255 255 255 255 255 153 51 255 255 255 255 255 
255 255 255 255 238 0 221 255 255 255 255 255 255 255 255 255 255 255 255 255 25 7 0 119 170 119 68 14 0 0 2 0 34 119 187 255 255 255 255 255 255 255 255 255 255 255 255 255 255 255 255 255 255 255 221 153 89 21 5 0 0 0 48 102 136 170 51 12 0 119 255 255 255 255 255 255 255 255 255 255 255 255 255 255 221 0 255 255 255 255 255 
255 255 255 255 187 17 255 255 255 255 255 255 255 255 255 255 255 255 255 96 0 68 204 255 255 255 255 255 221 112 0 5 0 0 5 0 55 136 204 255 255 255 255 255 255 255 255 255 255 255 238 170 112 23 0 7 0 0 10 25 153 255 255 255 255 255 255 153 16 0 153 255 255 255 255 255 255 255 255 255 255 255 255 255 255 17 187 255 255 255 255 
255 255 255 255 119 85 255 255 255 255 255 255 255 255 255 255 255 255 221 41 153 255 255 255 255 255 255 255 255 255 221 80 0 0 0 0 0 6 0 23 153 238 255 255 255 255 255 255 221 96 10 7 0 0 0 0 5 11 119 255 255 255 255 255 255 255 255 255 238 119 59 255 255 255 255 255 255 255 255 255 255 255 255 255 255 85 119 255 255 255 255 
255 255 255 255 68 136 255 255 255 255 255 255 255 255 255 255 255 255 255 255 255 255 255 255 255 255 255 221 187 119 119 68 50 24 3 0 0 0 0 0 5 11 112 238 255 255 204 74 0 6 0 0 0 0 0 0 45 64 85 119 153 187 238 255 255 255 255 255 255 255 255 255 255 255 255 255 255 255 255 255 255 255 255 255 255 136 68 255 255 255 255 
255 255 255 255 0 204 255 255 255 255 255 255 255 255 255 255 255 255 255 255 255 255 255 255 204 68 0 0 34 68 119 136 136 102 31 0 0 0 0 0 0 0 4 112 255 255 11 0 0 0 0 0 0 0 6 59 119 153 119 102 68 0 0 17 119 238 255 255 255 255 255 255 255 255 255 255 255 255 255 255 255 255 255 255 255 204 0 255 255 255 255 
255 255 255 187 17 255 255 255 255 255 255 255 255 255 255 255 255 255 255 255 255 255 255 119 0 119 204 255 255 255 255 255 255 255 255 255 105 11 2 0 0 0 0 89 255 255 0 0 0 0 0 0 34 192 255 255 255 255 255 255 255 255 238 170 51 34 187 255 255 255 255 255 255 255 255 255 255 255 255 255 255 255 255 255 255 255 17 187 255 255 255 
255 255 255 170 68 255 255 255 255 255 255 255 255 255 255 255 255 255 255 255 255 204 51 34 187 255 255 255 255 255 255 255 255 255 255 255 255 255 136 19 0 0 33 221 255 255 153 7 0 3 55 187 255 255 255 255 255 255 255 255 255 255 255 255 255 119 0 119 238 255 255 255 255 255 255 255 255 255 255 255 255 255 255 255 255 255 68 170 255 255 255 
255 255 255 119 68 255 255 255 255 255 255 255 255 255 255 255 255 255 255 191 60 0 17 119 119 119 119 119 119 119 119 119 88 88 88 88 88 88 112 119 119 0 14 8 204 163 49 0 34 119 119 104 88 88 88 88 88 104 119 119 119 119 119 119 119 119 85 0 24 100 255 255 255 255 255 255 255 255 255 255 255 255 255 255 255 255 68 119 255 255 255 
255 255 255 119 102 255 255 255 255 255 255 255 255 255 255 255 255 255 255 136 25 19 32 32 32 32 32 22 19 19 19 19 13 8 0 0 0 12 20 20 20 19 20 11 77 38 19 19 19 20 20 18 6 0 0 0 7 18 19 19 19 19 27 32 32 32 32 25 19 51 221 255 255 255 255 255 255 255 255 255 255 255 255 255 255 255 102 119 255 255 255 
255 255 255 119 119 255 255 255 255 255 255 255 255 255 255 255 255 255 255 255 238 17 119 255 255 255 255 238 23 0 0 0 0 0 23 37 14 0 0 0 0 13 14 11 255 255 59 43 0 0 0 0 0 19 37 12 0 0 0 0 7 112 255 255 255 255 238 51 102 255 255 255 255 255 255 255 255 255 255 255 255 255 255 255 255 255 119 119 255 255 255 
255 255 255 68 119 255 255 255 255 255 255 255 255 255 255 255 255 255 255 255 255 204 0 187 255 255 255 255 187 0 0 0 0 0 0 0 0 0 0 0 0 23 8 0 255 255 64 12 45 4 0 0 0 0 0 0 0 0 0 4 41 255 255 255 255 255 85 51 255 255 255 255 255 255 255 255 255 255 255 255 255 255 255 255 255 255 119 68 255 255 255 
255 255 255 68 136 255 255 255 255 255 255 255 255 255 255 255 255 255 255 255 255 255 136 17 153 255 255 255 255 204 38 7 0 0 0 0 0 0 3 20 43 14 75 17 255 255 238 14 0 67 7 0 0 0 0 0 0 0 0 112 238 255 255 255 238 85 17 221 255 255 255 255 255 255 255 255 255 255 255 255 255 255 255 255 255 255 136 68 255 255 255 
255 255 255 68 187 255 255 255 255 255 255 255 255 255 255 255 255 255 255 255 255 255 255 153 17 68 187 255 255 255 255 153 68 21 0 0 10 47 72 17 17 48 119 68 255 255 255 204 0 12 48 67 34 0 0 0 34 96 204 255 255 255 255 136 17 68 204 255 255 255 255 255 255 255 255 255 255 255 255 255 255 255 255 255 255 255 187 68 255 255 255 
255 255 255 17 187 255 255 255 255 255 255 255 255 255 255 255 255 255 255 255 255 187 187 255 238 119 0 102 136 187 255 255 255 255 221 187 102 0 68 88 17 238 102 119 255 255 255 255 153 16 96 17 34 153 187 255 255 255 255 221 170 119 34 34 170 255 238 136 238 255 255 255 255 255 255 255 255 255 255 255 255 255 255 255 255 255 187 17 255 255 255 
255 255 255 0 187 255 255 255 255 255 255 255 255 255 255 255 255 255 255 255 255 136 17 34 136 238 221 119 68 17 0 34 0 0 0 0 80 113 68 0 204 255 255 255 255 255 255 255 255 102 17 102 113 34 0 0 0 34 17 0 51 85 136 238 204 102 17 51 221 255 255 255 255 255 255 255 255 255 255 255 255 255 255 255 255 255 187 0 255 255 255 
255 255 255 0 255 255 255 255 255 255 255 255 255 255 255 255 255 255 255 255 255 255 238 153 51 17 102 187 187 187 207 187 187 221 153 85 0 34 136 221 255 255 255 255 255 255 255 255 255 255 170 102 17 34 119 204 187 187 187 204 187 187 153 68 0 102 187 255 255 255 255 255 255 255 255 255 255 255 255 255 255 255 255 255 255 255 255 0 255 255 255 
255 255 221 0 255 255 255 255 255 255 255 255 255 255 255 255 255 255 255 255 255 255 255 255 255 187 102 17 0 0 0 0 0 0 34 119 204 255 255 255 255 255 255 255 255 255 255 255 255 255 255 255 255 170 85 0 0 0 0 0 0 0 34 119 238 255 255 255 255 255 255 255 255 255 255 255 255 255 255 255 255 255 255 255 255 255 255 0 221 255 255 
255 255 255 0 255 255 255 255 255 255 255 255 255 255 255 255 255 255 255 255 255 255 255 255 255 255 255 255 255 255 255 255 255 255 255 255 255 255 255 255 255 255 255 255 255 255 255 255 255 255 255 255 255 255 255 255 255 255 255 255 255 255 255 255 255 255 255 255 255 255 255 255 255 255 255 255 255 255 255 255 255 255 255 255 255 255 255 0 255 255 255 
255 255 255 0 187 255 255 255 255 255 255 255 255 255 255 255 255 255 255 255 255 255 255 255 255 255 255 255 255 255 255 255 255 255 255 255 255 255 255 255 255 221 119 255 255 255 255 255 255 255 255 255 255 255 255 255 255 255 255 255 255 255 255 255 255 255 255 255 255 255 255 255 255 255 255 255 255 255 255 255 255 255 255 255 255 255 187 0 255 255 255 
255 255 255 17 187 255 255 255 255 255 255 255 255 255 255 255 255 255 255 255 255 255 255 255 255 255 255 255 255 255 255 255 255 255 255 255 255 255 255 255 255 136 68 255 255 255 255 255 255 255 255 255 255 255 255 255 255 255 255 255 255 255 255 255 255 255 255 255 255 255 255 255 255 255 255 255 255 255 255 255 255 255 255 255 255 255 187 17 255 255 255 
255 255 255 68 187 255 255 255 255 255 255 255 255 255 255 255 255 255 255 255 255 255 255 255 255 255 255 255 255 255 255 255 255 255 255 255 255 255 255 255 255 68 136 255 255 255 255 255 255 255 255 255 255 255 255 255 255 255 255 255 255 255 255 255 255 255 255 255 255 255 255 255 255 255 255 255 255 255 255 255 255 255 255 255 255 255 187 68 255 255 255 
255 255 255 68 136 255 255 255 255 255 255 255 255 255 255 255 255 255 255 255 255 255 255 255 255 255 255 255 255 255 255 255 255 255 255 255 255 255 255 255 238 0 204 255 255 255 255 255 255 255 255 255 255 255 255 255 255 255 255 255 255 255 255 255 255 255 255 255 255 255 255 255 255 255 255 255 255 255 255 255 255 255 255 255 255 255 136 68 255 255 255 
255 255 255 68 119 255 255 255 255 255 255 255 255 255 255 255 255 255 255 255 255 255 255 255 255 255 255 255 255 255 255 255 255 255 255 255 255 255 255 255 78 48 102 51 68 119 187 255 255 255 255 255 255 255 255 255 255 255 255 255 255 255 255 255 255 255 255 255 255 255 255 255 255 255 255 255 255 255 255 255 255 255 255 255 255 255 119 68 255 255 255 
255 255 255 119 119 255 255 255 255 255 255 255 255 255 255 255 255 255 255 255 255 255 255 255 255 255 255 255 255 255 255 255 255 255 255 221 187 119 170 85 17 48 119 187 136 85 17 0 238 255 255 255 255 153 136 204 255 255 255 255 255 255 255 255 255 255 255 255 255 255 255 255 255 255 255 255 255 255 255 255 255 255 255 255 255 255 119 119 255 255 255 
255 255 255 119 102 255 255 255 255 255 255 255 255 255 255 255 255 255 255 255 255 255 255 255 255 255 255 255 255 255 255 255 255 238 112 0 34 68 48 50 221 255 255 255 255 255 255 204 255 255 255 255 255 119 68 0 68 204 255 255 255 255 255 255 255 255 255 255 255 255 255 255 255 255 255 255 255 255 255 255 255 255 255 255 255 255 102 119 255 255 255 
255 255 255 119 68 255 255 255 255 255 255 255 255 255 255 255 255 255 255 255 255 255 255 255 255 255 255 255 255 255 255 255 255 85 46 187 255 102 17 221 255 255 255 255 255 255 255 255 255 255 255 255 255 255 255 238 102 17 204 255 255 255 255 255 255 255 255 255 255 255 255 255 255 255 255 255 255 255 255 255 255 255 255 255 255 255 68 119 255 255 255 
255 255 255 170 68 255 255 255 255 255 255 255 255 255 255 255 255 255 255 255 255 255 255 255 255 255 255 255 255 255 255 255 187 14 221 255 204 0 204 255 255 255 255 255 255 255 255 255 255 255 255 255 255 255 255 255 255 102 52 255 255 255 255 255 255 255 255 255 255 255 255 255 255 255 255 255 255 255 255 255 255 255 255 255 255 255 68 170 255 255 255 
255 255 255 187 17 255 255 255 255 255 255 255 255 255 255 255 255 255 255 255 255 255 255 255 255 255 255 255 255 255 255 255 63 119 255 255 119 85 255 255 255 255 255 255 255 255 255 255 255 255 255 255 255 255 255 255 255 163 5 192 255 255 255 255 255 255 255 255 255 255 255 255 255 255 255 255 255 255 255 255 255 255 255 255 255 255 17 187 255 255 255 
255 255 255 255 0 204 255 255 255 255 255 255 255 255 255 255 255 255 255 255 255 255 255 255 255 255 255 255 255 255 255 221 22 119 255 255 17 170 255 255 255 255 255 255 255 255 255 255 255 255 255 255 255 255 255 255 255 255 26 66 255 255 255 255 255 255 255 255 255 255 255 255 255 255 255 255 255 255 255 255 255 255 255 255 255 204 0 255 255 255 255 
255 255 255 255 68 136 255 255 255 255 255 255 255 255 255 255 255 255 255 255 255 255 255 255 255 255 255 255 255 255 255 68 43 102 255 187 17 255 255 255 255 255 255 255 255 255 255 255 255 255 255 255 255 255 255 255 255 255 0 15 187 255 255 255 255 255 255 255 255 255 255 255 255 255 255 255 255 255 255 255 255 255 255 255 255 136 68 255 255 255 255 
255 255 255 255 119 85 255 255 255 255 255 255 255 255 255 255 255 255 255 255 255 255 255 255 255 255 255 255 255 255 153 17 191 0 170 187 68 255 255 255 255 255 255 255 255 255 255 255 255 255 255 255 255 255 255 255 255 119 34 119 34 255 255 255 255 255 255 255 255 255 255 255 255 255 255 255 255 255 255 255 255 255 255 255 255 85 119 255 255 255 255 
255 255 255 255 187 17 255 255 255 255 255 255 255 255 255 255 255 255 255 255 255 255 255 255 255 255 255 255 255 238 17 153 255 136 17 32 68 255 255 255 255 255 255 255 255 255 255 255 255 255 255 255 170 85 119 170 102 0 204 255 34 153 255 255 255 255 255 255 255 255 255 255 255 255 255 255 255 255 255 255 255 255 255 255 255 17 187 255 255 255 255 
255 255 255 255 238 0 221 255 255 255 255 255 255 255 255 255 255 255 255 255 255 255 255 255 255 255 255 255 255 119 68 255 255 255 221 80 16 255 255 255 255 255 255 255 255 255 255 255 255 255 255 255 34 102 85 68 102 204 255 255 119 34 255 255 255 255 255 255 255 255 255 255 255 255 255 255 255 255 255 255 255 255 255 255 221 0 255 255 255 255 255 
255 255 255 255 255 51 153 255 255 255 255 255 255 255 255 255 255 255 255 255 255 255 255 255 255 255 255 255 204 0 204 255 255 255 255 255 17 170 255 255 255 255 255 255 255 255 255 255 255 255 255 153 34 255 255 255 255 255 255 255 238 17 187 255 255 255 255 255 255 255 255 255 255 255 255 255 255 255 255 255 255 255 255 255 153 51 255 255 255 255 255 
255 255 255 255 255 119 102 255 255 255 255 255 255 255 255 255 255 255 255 255 255 255 255 255 255 255 255 255 119 119 255 255 255 255 255 255 119 51 238 255 255 255 255 255 255 255 255 255 255 255 238 34 153 255 255 255 255 255 255 255 255 119 85 255 255 255 255 255 255 255 255 255 255 255 255 255 255 255 255 255 255 255 255 255 102 119 255 255 255 255 255 
255 255 255 255 255 170 34 255 255 255 255 255 255 255 255 255 255 255 255 255 255 255 255 255 255 255 255 255 255 255 255 255 255 255 255 255 238 51 51 238 255 255 255 255 255 255 255 255 255 136 17 68 255 255 255 255 255 255 255 255 255 238 238 255 255 255 255 255 255 255 255 255 255 255 255 255 255 255 255 255 255 255 255 255 34 170 255 255 255 255 255 
255 255 255 255 255 238 0 221 255 255 255 255 255 255 255 255 255 255 255 255 255 255 255 255 255 255 255 255 255 255 255 255 255 255 255 255 255 238 51 17 119 187 221 255 255 238 187 119 68 17 153 255 255 255 255 255 255 255 255 255 255 255 255 255 255 255 255 255 255 255 255 255 255 255 255 255 255 255 255 255 255 255 255 221 0 238 255 255 255 255 255 
255 255 255 255 255 255 51 136 255 255 255 255 255 255 255 255 255 255 255 255 255 255 255 255 255 255 255 255 255 255 255 255 255 255 255 255 255 255 255 187 85 0 0 0 0 0 34 85 119 238 255 255 255 255 255 255 255 255 255 255 255 255 255 255 255 255 255 255 255 255 255 255 255 255 255 255 255 255 255 255 255 255 255 136 51 255 255 255 255 255 255 
255 255 255 255 255 255 153 34 255 255 255 255 255 255 255 255 255 255 255 255 255 255 255 255 255 255 255 255 255 255 255 255 255 255 255 255 255 255 255 255 255 255 255 255 238 255 255 255 255 255 255 255 255 255 255 255 255 255 255 255 255 255 255 255 255 255 255 255 255 255 255 255 255 255 255 255 255 255 255 255 255 255 255 34 153 255 255 255 255 255 255 
255 255 255 255 255 255 255 17 170 255 255 255 255 255 255 255 255 255 255 255 255 255 255 255 255 255 255 255 255 255 255 255 255 255 255 255 255 255 255 255 255 255 255 255 255 255 255 255 255 255 255 255 255 255 255 255 255 255 255 255 255 255 255 255 255 255 255 255 255 255 255 255 255 255 255 255 255 255 255 255 255 255 170 17 255 255 255 255 255 255 255 
255 255 255 255 255 255 255 119 68 255 255 255 255 255 255 255 255 255 255 255 255 255 255 255 255 255 255 255 255 255 255 255 255 255 255 255 255 255 255 255 255 255 255 255 221 170 119 68 68 34 0 0 17 85 136 221 255 255 255 255 255 255 255 221 153 255 255 255 255 255 255 255 255 255 255 255 255 255 255 255 255 255 68 119 255 255 255 255 255 255 255 
255 255 255 255 255 255 255 221 0 221 255 255 255 255 255 255 255 255 255 255 255 255 255 255 255 119 255 255 255 255 255 255 255 255 255 255 255 255 255 255 255 187 119 34 0 25 75 100 138 175 187 187 187 119 68 0 34 170 255 255 255 255 255 187 0 255 255 255 255 255 255 255 255 255 255 255 255 255 255 255 255 221 0 221 255 255 255 255 255 255 255 
255 255 255 255 255 255 255 255 85 102 255 255 255 255 255 255 255 255 255 255 255 255 255 255 187 0 255 255 255 255 255 255 255 255 255 255 255 255 170 102 5 3 0 0 0 0 0 0 0 0 0 68 85 153 238 238 136 17 85 238 255 255 255 255 0 238 255 255 255 255 255 255 255 255 255 255 255 255 255 255 255 102 85 255 255 255 255 255 255 255 255 
255 255 255 255 255 255 255 255 187 17 238 255 255 255 255 255 255 255 255 255 255 255 255 255 153 68 255 255 255 255 255 255 255 255 255 204 119 17 0 0 28 88 55 68 68 68 68 68 136 204 187 170 119 34 17 102 204 221 68 17 170 255 255 255 0 187 255 255 255 255 255 255 255 255 255 255 255 255 255 255 238 17 187 255 255 255 255 255 255 255 255 
255 255 255 255 255 255 255 255 255 34 136 255 255 255 255 255 255 255 255 255 255 255 255 255 119 102 255 255 255 255 255 255 187 119 34 0 0 0 17 68 85 119 119 187 153 119 119 119 68 0 17 102 204 255 204 102 17 136 255 136 0 221 255 255 0 221 255 255 255 255 255 255 255 255 255 255 255 255 255 255 136 34 255 255 255 255 255 255 255 255 255 
255 255 255 255 255 255 255 255 255 153 34 255 255 255 255 255 255 255 255 255 255 255 255 255 68 136 255 255 187 136 102 17 0 34 85 119 187 221 255 255 255 255 255 255 255 255 255 255 255 255 170 102 17 136 255 255 170 17 102 255 102 102 255 187 0 255 255 255 255 255 255 255 255 255 255 255 255 255 255 255 34 153 255 255 255 255 255 255 255 255 255 
255 255 255 255 255 255 255 255 255 238 17 136 255 255 255 255 255 255 255 255 255 255 255 255 45 50 34 0 0 51 119 170 221 255 255 255 255 255 255 255 255 255 255 255 255 255 255 255 255 255 255 255 170 17 68 238 255 221 17 153 119 102 255 136 68 255 255 255 255 255 255 255 255 255 255 255 255 255 255 136 17 238 255 255 255 255 255 255 255 255 255 
255 255 255 255 255 255 255 255 255 255 170 17 238 255 255 255 255 255 255 255 255 255 255 255 59 64 153 204 255 255 255 255 255 255 255 204 255 255 255 255 255 255 255 255 255 255 255 255 204 255 255 255 255 238 85 51 255 255 136 34 48 136 238 17 170 255 255 255 255 255 255 255 255 255 255 255 255 255 238 17 170 255 255 255 255 255 255 255 255 255 255 
255 255 255 255 255 255 255 255 255 255 255 68 85 255 255 255 255 255 255 255 255 255 255 255 119 85 255 255 255 255 255 255 255 255 238 0 51 153 255 255 255 255 255 238 187 153 85 17 17 255 255 255 255 255 238 34 119 255 255 21 11 238 85 68 255 255 255 255 255 255 255 255 255 255 255 255 255 255 85 68 255 255 255 255 255 255 255 255 255 255 255 
255 255 255 255 255 255 255 255 255 255 255 221 17 170 255 255 255 255 255 255 255 255 255 255 187 17 255 255 255 255 255 255 255 255 255 238 119 34 0 0 0 68 0 0 17 68 119 187 255 255 255 255 255 255 255 187 0 204 204 16 153 153 17 221 255 255 255 255 255 255 255 255 255 255 255 255 255 170 17 221 255 255 255 255 255 255 255 255 255 255 255 
255 255 255 255 255 255 255 255 255 255 255 255 136 17 238 255 255 255 255 255 255 255 255 255 255 0 204 255 255 255 255 255 255 255 255 255 255 255 255 187 187 187 187 255 255 255 255 255 255 255 255 255 255 255 255 255 119 51 17 102 136 0 153 255 255 255 255 255 255 255 255 255 255 255 255 255 238 17 136 255 255 255 255 255 255 255 255 255 255 255 255 
255 255 255 255 255 255 255 255 255 255 255 255 255 68 102 255 255 255 255 255 255 255 255 255 255 153 238 255 255 255 255 255 255 255 255 255 255 255 255 255 255 255 255 255 255 255 255 255 255 255 255 255 255 255 255 255 238 34 136 102 17 187 255 255 255 255 255 255 255 255 255 255 255 255 255 255 85 68 255 255 255 255 255 255 255 255 255 255 255 255 255 
255 255 255 255 255 255 255 255 255 255 255 255 255 221 17 187 255 255 255 255 255 255 255 255 255 255 255 255 255 255 255 255 255 255 255 255 255 255 255 255 255 255 255 255 255 255 255 255 255 255 255 255 255 255 255 255 255 223 68 34 204 255 255 255 255 255 255 255 255 255 255 255 255 255 255 187 17 221 255 255 255 255 255 255 255 255 255 255 255 255 255 
255 255 255 255 255 255 255 255 255 255 255 255 255 255 119 34 238 255 255 255 255 255 255 255 255 255 255 255 255 255 255 255 255 255 255 255 255 255 255 255 255 255 255 255 255 255 255 255 255 255 255 255 255 255 255 255 255 255 119 238 255 255 255 255 255 255 255 255 255 255 255 255 255 255 238 34 119 255 255 255 255 255 255 255 255 255 255 255 255 255 255 
255 255 255 255 255 255 255 255 255 255 255 255 255 255 255 51 68 255 255 255 255 255 255 255 255 255 255 255 255 255 255 255 255 255 255 255 255 255 255 255 255 255 255 255 255 255 255 255 255 255 255 255 255 255 255 255 255 255 255 255 255 255 255 255 255 255 255 255 255 255 255 255 255 255 68 51 255 255 255 255 255 255 255 255 255 255 255 255 255 255 255 
255 255 255 255 255 255 255 255 255 255 255 255 255 255 255 238 51 102 255 255 255 255 255 255 255 255 255 255 255 255 255 255 255 255 255 255 255 255 255 255 255 255 255 255 255 255 255 255 255 255 255 255 255 255 255 255 255 255 255 255 255 255 255 255 255 255 255 255 255 255 255 255 255 102 51 238 255 255 255 255 255 255 255 255 255 255 255 255 255 255 255 
255 255 255 255 255 255 255 255 255 255 255 255 255 255 255 255 238 51 102 255 255 255 255 255 255 255 255 255 255 255 255 255 255 255 255 255 255 255 255 255 255 255 255 255 255 255 255 255 255 255 255 255 255 255 255 255 255 255 255 255 255 255 255 255 255 255 255 255 255 255 255 255 102 51 238 255 255 255 255 255 255 255 255 255 255 255 255 255 255 255 255 
255 255 255 255 255 255 255 255 255 255 255 255 255 255 255 255 255 221 17 102 255 255 255 255 255 255 255 255 255 255 255 255 255 255 255 255 255 255 255 255 255 255 255 255 255 255 255 255 255 255 255 255 255 255 255 255 255 255 255 255 255 255 255 255 255 255 255 255 255 255 255 102 17 221 255 255 255 255 255 255 255 255 255 255 255 255 255 255 255 255 255 
255 255 255 255 255 255 255 255 255 255 255 255 255 255 255 255 255 255 204 17 102 255 255 255 255 255 255 255 255 255 255 255 255 255 255 255 255 255 255 255 255 255 255 255 255 255 255 255 255 255 255 255 255 255 255 255 255 255 255 255 255 255 255 255 255 255 255 255 255 255 102 17 204 255 255 255 255 255 255 255 255 255 255 255 255 255 255 255 255 255 255 
255 255 255 255 255 255 255 255 255 255 255 255 255 255 255 255 255 255 255 204 17 102 255 255 255 255 255 255 255 255 255 255 255 255 255 255 255 255 255 255 255 255 255 255 255 255 255 255 255 255 255 255 255 255 255 255 255 255 255 255 255 255 255 255 255 255 255 255 255 102 17 204 255 255 255 255 255 255 255 255 255 255 255 255 255 255 255 255 255 255 255 
255 255 255 255 255 255 255 255 255 255 255 255 255 255 255 255 255 255 255 255 204 17 119 255 255 255 255 255 255 255 255 255 255 255 255 255 255 255 255 255 255 255 255 255 255 255 255 255 255 255 255 255 255 255 255 255 255 255 255 255 255 255 255 255 255 255 255 255 119 17 204 255 255 255 255 255 255 255 255 255 255 255 255 255 255 255 255 255 255 255 255 
255 255 255 255 255 255 255 255 255 255 255 255 255 255 255 255 255 255 255 255 255 204 34 51 204 255 255 255 255 255 255 255 255 255 255 255 255 255 255 255 255 255 255 255 255 255 255 255 255 255 255 255 255 255 255 255 255 255 255 255 255 255 255 255 255 255 204 51 34 204 255 255 255 255 255 255 255 255 255 255 255 255 255 255 255 255 255 255 255 255 255 
255 255 255 255 255 255 255 255 255 255 255 255 255 255 255 255 255 255 255 255 255 255 238 119 0 136 255 255 255 255 255 255 255 255 255 255 255 255 255 255 255 255 255 255 255 255 255 255 255 255 255 255 255 255 255 255 255 255 255 255 255 255 255 255 255 136 0 119 238 255 255 255 255 255 255 255 255 255 255 255 255 255 255 255 255 255 255 255 255 255 255 
255 255 255 255 255 255 255 255 255 255 255 255 255 255 255 255 255 255 255 255 255 255 255 255 187 17 68 221 255 255 255 255 255 255 255 255 255 255 255 255 255 255 255 255 255 255 255 255 255 255 255 255 255 255 255 255 255 255 255 255 255 255 255 221 68 17 187 255 255 255 255 255 255 255 255 255 255 255 255 255 255 255 255 255 255 255 255 255 255 255 255 
255 255 255 255 255 255 255 255 255 255 255 255 255 255 255 255 255 255 255 255 255 255 255 255 255 238 85 17 136 255 255 255 255 255 255 255 255 255 255 255 255 255 255 255 255 255 255 255 255 255 255 255 255 255 255 255 255 255 255 255 255 255 136 17 85 238 255 255 255 255 255 255 255 255 255 255 255 255 255 255 255 255 255 255 255 255 255 255 255 255 255 
255 255 255 255 255 255 255 255 255 255 255 255 255 255 255 255 255 255 255 255 255 255 255 255 255 255 255 170 17 68 170 255 255 255 255 255 255 255 255 255 255 255 255 255 255 255 255 255 255 255 255 255 255 255 255 255 255 255 255 255 170 68 17 170 255 255 255 255 255 255 255 255 255 255 255 255 255 255 255 255 255 255 255 255 255 255 255 255 255 255 255 
255 255 255 255 255 255 255 255 255 255 255 255 255 255 255 255 255 255 255 255 255 255 255 255 255 255 255 255 221 119 34 17 119 221 255 255 255 255 255 255 255 255 255 255 255 255 255 255 255 255 255 255 255 255 255 255 255 221 119 17 34 119 221 255 255 255 255 255 255 255 255 255 255 255 255 255 255 255 255 255 255 255 255 255 255 255 255 255 255 255 255 
255 255 255 255 255 255 255 255 255 255 255 255 255 255 255 255 255 255 255 255 255 255 255 255 255 255 255 255 255 255 255 170 85 0 68 153 255 255 255 255 255 255 255 255 255 255 255 255 255 255 255 255 255 255 255 153 68 0 85 170 255 255 255 255 255 255 255 255 255 255 255 255 255 255 255 255 255 255 255 255 255 255 255 255 255 255 255 255 255 255 255 
255 255 255 255 255 255 255 255 255 255 255 255 255 255 255 255 255 255 255 255 255 255 255 255 255 255 255 255 255 255 255 255 255 221 119 34 17 85 119 153 187 221 255 255 255 255 255 255 255 221 187 153 119 85 17 34 119 221 255 255 255 255 255 255 255 255 255 255 255 255 255 255 255 255 255 255 255 255 255 255 255 255 255 255 255 255 255 255 255 255 255 
255 255 255 255 255 255 255 255 255 255 255 255 255 255 255 255 255 255 255 255 255 255 255 255 255 255 255 255 255 255 255 255 255 255 255 255 170 119 102 68 17 0 0 34 68 68 68 34 0 0 17 68 102 119 170 255 255 255 255 255 255 255 255 255 255 255 255 255 255 255 255 255 255 255 255 255 255 255 255 255 255 255 255 255 255 255 255 255 255 255 255 
255 255 255 255 255 255 255 255 255 255 255 255 255 255 255 255 255 255 255 255 255 255 255 255 255 255 255 255 255 255 255 255 255 255 255 255 255 255 255 255 255 255 204 187 136 119 136 187 204 255 255 255 255 255 255 255 255 255 255 255 255 255 255 255 255 255 255 255 255 255 255 255 255 255 255 255 255 255 255 255 255 255 255 255 255 255 255 255 255 255 255 
255 255 255 255 255 255 255 255 255 255 255 255 255 255 255 255 255 255 255 255 255 255 255 255 255 255 255 255 255 255 255 255 255 255 255 255 255 255 255 255 255 255 255 255 255 255 255 255 255 255 255 255 255 255 255 255 255 255 255 255 255 255 255 255 255 255 255 255 255 255 255 255 255 255 255 255 255 255 255 255 255 255 255 255 255 255 255 255 255 255 255 
255 255 255 255 255 255 255 255 255 255 255 255 255 255 255 255 255 255 255 255 255 255 255 255 255 255 255 255 255 255 255 255 255 255 255 255 255 255 255 255 255 255 255 255 255 255 255 255 255 255 255 255 255 255 255 255 255 255 255 255 255 255 255 255 255 255 255 255 255 255 255 255 255 255 255 255 255 255 255 255 255 255 255 255 255 255 255 255 255 255 255 
