P2
91 113
255
255 255 255 255 255 255 255 255 255 255 255 255 255 255 255 255 255 255 255 255 255 255 255 255 255 255 255 255 255 255 255 255 255 255 255 255 255 255 255 255 255 255 255 255 255 255 255 255 255 255 255 255 255 255 255 255 255 255 255 255 255 255 255 255 255 255 255 255 255 255 255 255 255 255 255 255 255 255 255 255 255 255 255 255 255 255 255 255 255 255 255 
255 255 255 255 255 255 255 255 255 255 255 255 255 255 255 255 255 255 255 255 255 255 255 255 255 255 255 255 255 255 255 255 255 255 255 255 255 255 255 255 255 255 255 255 255 255 255 255 255 255 255 255 255 255 255 255 255 255 255 255 255 255 255 255 255 255 255 255 255 255 255 255 255 255 255 255 255 255 255 255 255 255 255 255 255 255 255 255 255 255 255 
255 255 255 255 255 255 255 255 255 255 255 255 255 255 255 255 255 255 255 255 255 255 255 255 255 255 255 255 255 255 255 255 255 255 255 255 255 255 255 255 255 255 204 187 136 119 136 187 204 255 255 255 255 255 255 255 255 255 255 255 255 255 255 255 255 255 255 255 255 255 255 255 255 255 255 255 255 255 255 255 255 255 255 255 255 255 255 255 255 255 255 
255 255 255 255 255 255 255 255 255 255 255 255 255 255 255 255 255 255 255 255 255 255 255 255 255 255 255 255 255 255 255 255 255 255 255 255 170 119 102 68 17 0 0 34 68 68 68 34 0 0 17 68 102 119 170 255 255 255 255 255 255 255 255 255 255 255 255 255 255 255 255 255 255 255 255 255 255 255 255 255 255 255 255 255 255 255 255 255 255 255 255 
255 255 255 255 255 255 255 255 255 255 255 255 255 255 255 255 255 255 255 255 255 255 255 255 255 255 255 255 255 255 255 255 255 221 119 34 17 85 119 153 187 221 255 255 255 255 255 255 255 221 187 153 119 85 17 34 119 221 255 255 255 255 255 255 255 255 255 255 255 255 255 255 255 255 255 255 255 255 255 255 255 255 255 255 255 255 255 255 255 255 255 
255 255 255 255 255 255 255 255 255 255 255 255 255 255 255 255 255 255 255 255 255 255 255 255 255 255 255 255 255 255 255 170 85 0 68 153 255 255 255 255 255 255 255 255 255 255 255 255 255 255 255 255 255 255 255 153 68 0 85 170 255 255 255 255 255 255 255 255 255 255 255 255 255 255 255 255 255 255 255 255 255 255 255 255 255 255 255 255 255 255 255 
255 255 255 255 255 255 255 255 255 255 255 255 255 255 255 255 255 255 255 255 255 255 255 255 255 255 255 255 221 119 34 17 119 221 255 255 255 255 255 255 255 255 255 255 255 255 255 255 255 255 255 255 255 255 255 255 255 221 119 17 34 119 238 255 255 255 255 255 255 255 255 255 255 255 255 255 255 255 255 255 255 255 255 255 255 255 255 255 255 255 255 
255 255 255 255 255 255 255 255 255 255 255 255 255 255 255 255 255 255 255 255 255 255 255 255 255 255 255 170 17 68 170 255 255 255 255 255 255 255 255 255 255 255 255 255 255 255 255 255 255 255 255 255 255 255 255 255 255 255 255 255 153 68 17 170 255 255 255 255 255 255 255 255 255 255 255 255 255 255 255 255 255 255 255 255 255 255 255 255 255 255 255 
255 255 255 255 255 255 255 255 255 255 255 255 255 255 255 255 255 255 255 255 255 255 255 255 255 238 85 17 136 255 255 255 255 255 255 255 255 255 255 255 255 255 255 255 255 255 255 255 255 255 255 255 255 255 255 255 255 255 255 255 255 255 136 17 85 238 255 255 255 255 255 255 255 255 255 255 255 255 255 255 255 255 255 255 255 255 255 255 255 255 255 
255 255 255 255 255 255 255 255 255 255 255 255 255 255 255 255 255 255 255 255 255 255 255 255 187 17 68 221 255 255 255 255 255 255 255 255 255 255 255 255 255 255 255 255 255 255 255 255 255 255 255 255 255 255 255 255 255 255 255 255 255 255 255 221 68 17 187 255 255 255 255 255 255 255 255 255 255 255 255 255 255 255 255 255 255 255 255 255 255 255 255 
255 255 255 255 255 255 255 255 255 255 255 255 255 255 255 255 255 255 255 255 255 255 238 119 0 136 255 255 255 255 255 255 255 255 255 255 255 255 255 255 255 255 255 255 255 255 255 255 255 255 255 255 255 255 255 255 255 255 255 255 255 255 255 255 255 136 0 119 238 255 255 255 255 255 255 255 255 255 255 255 255 255 255 255 255 255 255 255 255 255 255 
255 255 255 255 255 255 255 255 255 255 255 255 255 255 255 255 255 255 255 255 255 204 34 51 204 255 255 255 255 255 255 255 255 255 255 255 255 255 255 255 255 255 255 255 255 255 255 255 255 255 255 255 255 255 255 255 255 255 255 255 255 255 255 255 255 255 204 51 34 204 255 255 255 255 255 255 255 255 255 255 255 255 255 255 255 255 255 255 255 255 255 
255 255 255 255 255 255 255 255 255 255 255 255 255 255 255 255 255 255 255 255 204 17 119 255 255 255 255 255 255 255 255 255 255 255 255 255 255 255 255 255 255 255 255 255 255 255 255 255 255 255 255 255 255 255 255 255 255 255 255 255 255 255 255 255 255 255 255 255 119 17 204 255 255 255 255 255 255 255 255 255 255 255 255 255 255 255 255 255 255 255 255 
255 255 255 255 255 255 255 255 255 255 255 255 255 255 255 255 255 255 255 204 17 102 255 255 255 255 255 255 255 255 255 255 255 255 255 255 255 255 255 255 255 255 255 255 255 255 255 255 255 255 255 255 255 255 255 255 255 255 255 255 255 255 255 255 255 255 255 255 255 102 17 204 255 255 255 255 255 255 255 255 255 255 255 255 255 255 255 255 255 255 255 
255 255 255 255 255 255 255 255 255 255 255 255 255 255 255 255 255 255 204 17 102 255 255 255 255 255 255 255 255 255 255 255 255 255 255 255 255 255 255 255 255 255 255 255 255 255 255 255 255 255 255 255 255 255 255 255 255 255 255 255 255 255 255 255 255 255 255 255 255 255 102 17 204 255 255 255 255 255 255 255 255 255 255 255 255 255 255 255 255 255 255 
255 255 255 255 255 255 255 255 255 255 255 255 255 255 255 255 255 221 17 102 255 255 255 255 255 255 255 255 255 255 255 255 255 255 255 255 255 255 255 255 255 255 255 255 255 255 255 255 255 255 255 255 255 255 255 255 255 255 255 255 255 255 255 255 255 255 255 255 255 255 255 102 17 221 255 255 255 255 255 255 255 255 255 255 255 255 255 255 255 255 255 
255 255 255 255 255 255 255 255 255 255 255 255 255 255 255 255 238 51 102 255 255 255 255 255 255 255 255 255 255 255 255 255 255 255 255 255 255 255 255 255 255 255 255 255 255 255 255 255 255 255 255 255 255 255 255 255 255 255 255 255 255 255 255 255 255 255 255 255 255 255 255 255 102 51 238 255 255 255 255 255 255 255 255 255 255 255 255 255 255 255 255 
255 255 255 255 255 255 255 255 255 255 255 255 255 255 255 238 51 102 255 255 255 255 255 255 255 255 255 255 255 255 255 255 255 255 255 255 255 255 255 255 255 255 255 255 255 255 255 255 255 255 255 255 255 255 255 255 255 255 255 255 255 255 255 255 255 255 255 255 255 255 255 255 255 102 51 238 255 255 255 255 255 255 255 255 255 255 255 255 255 255 255 
255 255 255 255 255 255 255 255 255 255 255 255 255 255 255 51 68 255 255 255 255 255 255 255 255 255 255 255 255 255 255 255 255 255 255 255 255 255 255 255 255 255 255 255 255 255 255 255 255 255 255 255 255 255 255 255 255 255 204 204 255 255 255 255 255 255 255 255 255 255 255 255 255 255 68 51 255 255 255 255 255 255 255 255 255 255 255 255 255 255 255 
255 255 255 255 255 255 255 255 255 255 255 255 255 255 119 34 238 255 255 255 255 255 255 255 255 255 255 255 255 221 136 68 68 68 68 119 187 255 255 255 255 255 255 255 255 255 255 255 255 255 255 255 255 255 255 119 68 0 0 0 0 0 34 119 238 255 255 255 255 255 255 255 255 255 238 34 119 255 255 255 255 255 255 255 255 255 255 255 255 255 255 
255 255 255 255 255 255 255 255 255 255 255 255 255 221 17 187 255 255 255 255 255 255 255 255 255 255 255 136 51 0 85 119 119 119 119 102 17 17 204 255 255 255 255 255 255 255 255 255 255 255 255 255 255 255 255 119 136 204 255 255 255 187 153 51 0 102 238 255 255 255 255 255 255 255 255 187 17 221 255 255 255 255 255 255 255 255 255 255 255 255 255 
255 255 255 255 255 255 255 255 255 255 255 255 255 68 102 255 255 255 255 255 255 255 255 255 255 238 85 34 136 221 255 255 255 255 255 255 255 187 255 255 255 255 255 255 255 255 255 255 255 255 255 255 255 255 255 255 255 255 255 255 255 255 255 255 204 85 34 204 255 255 255 255 255 255 255 255 85 68 255 255 255 255 255 255 255 255 255 255 255 255 255 
255 255 255 255 255 255 255 255 255 255 255 255 136 17 238 255 255 255 255 255 255 255 255 255 221 51 51 238 255 255 255 255 255 255 255 255 255 255 255 255 255 255 255 255 255 255 255 255 255 255 255 255 255 255 255 255 255 255 255 255 255 255 255 255 255 255 102 17 204 255 255 255 255 255 255 255 238 17 136 255 255 255 255 255 255 255 255 255 255 255 255 
255 255 255 255 255 255 255 255 255 255 255 221 17 170 255 255 255 255 255 255 255 255 255 255 187 119 255 255 255 255 255 255 204 187 187 187 221 255 255 255 255 255 255 255 255 255 255 255 255 255 255 255 255 255 238 153 85 68 85 119 119 119 221 255 255 255 255 119 153 255 255 255 255 255 255 255 255 170 17 221 255 255 255 255 255 255 255 255 255 255 255 
255 255 255 255 255 255 255 255 255 255 255 68 85 255 255 255 255 255 255 255 255 255 255 255 255 255 255 255 255 153 34 0 0 0 0 0 0 51 136 238 255 255 255 255 255 255 255 255 255 255 255 255 136 68 0 51 119 119 119 119 85 68 0 102 221 255 255 255 255 255 255 255 255 255 255 255 255 255 85 68 255 255 255 255 255 255 255 255 255 255 255 
255 255 255 255 255 255 255 255 255 255 170 17 238 255 255 255 255 255 255 255 255 255 255 255 255 255 221 119 17 34 136 238 255 255 255 255 221 136 51 0 85 255 255 255 255 255 255 255 255 255 255 255 85 136 221 255 255 255 255 255 255 255 221 102 0 102 221 255 255 255 255 255 255 255 255 255 255 255 238 17 170 255 255 255 255 255 255 255 255 255 255 
255 255 255 255 255 255 255 255 255 238 17 136 255 255 255 255 255 255 255 255 255 255 255 255 255 204 17 68 153 255 255 255 255 255 255 255 255 255 255 204 136 255 255 255 255 255 255 255 255 255 255 255 255 255 255 255 255 255 255 255 238 255 255 255 221 102 17 204 255 255 255 255 255 255 255 255 255 255 255 136 17 238 255 255 255 255 255 255 255 255 255 
255 255 255 255 255 255 255 255 255 153 34 255 255 255 255 255 255 255 255 255 255 255 255 255 204 17 136 255 255 255 204 118 50 63 104 170 204 255 255 255 255 255 255 255 255 255 255 255 255 255 255 255 255 255 153 68 46 16 0 0 0 28 109 221 255 255 119 17 221 255 255 255 255 255 255 255 255 255 255 255 34 153 255 255 255 255 255 255 255 255 255 
255 255 255 255 255 255 255 255 255 34 136 255 255 255 255 255 255 255 255 255 255 255 255 204 17 102 255 204 82 7 0 0 0 0 0 0 0 0 89 221 255 255 255 255 255 255 255 255 255 255 255 255 153 21 3 0 0 0 0 0 0 0 0 0 38 204 255 102 51 238 255 255 255 255 255 255 255 255 255 255 136 34 255 255 255 255 255 255 255 255 255 
255 255 255 255 255 255 255 255 187 17 238 255 255 255 255 255 255 255 255 255 255 255 204 17 102 255 153 0 0 0 0 0 0 0 0 0 0 0 0 0 143 255 255 255 255 255 255 255 255 255 255 127 0 0 0 0 0 0 0 0 0 0 0 0 0 8 187 255 51 51 255 255 255 255 255 255 255 255 255 255 238 17 187 255 255 255 255 255 255 255 255 
255 255 255 255 255 255 255 255 85 102 255 255 255 255 255 255 255 255 255 255 255 255 153 102 255 112 6 0 0 0 17 0 12 11 16 16 0 0 0 0 4 143 255 255 255 255 255 255 255 255 170 5 0 0 0 0 12 0 51 119 102 28 0 6 0 0 0 153 238 51 187 255 255 255 255 255 255 255 255 255 255 102 85 255 255 255 255 255 255 255 255 
255 255 255 255 255 255 255 221 0 221 255 255 255 255 255 255 255 255 255 255 255 255 255 255 170 5 0 0 7 80 153 221 255 255 170 102 11 4 0 0 0 0 221 255 255 255 255 255 255 255 41 0 0 0 5 38 170 238 255 255 255 255 204 96 6 0 0 10 238 255 255 255 255 255 255 255 255 255 255 255 255 221 0 221 255 255 255 255 255 255 255 
255 255 255 255 255 255 255 119 68 255 255 255 255 255 255 255 255 255 255 255 255 255 255 238 23 0 0 11 153 255 255 255 255 255 255 255 238 41 11 0 0 0 104 255 255 255 255 255 255 204 0 0 0 11 48 238 255 255 255 255 255 255 255 255 119 0 0 5 112 255 255 255 255 255 255 255 255 255 255 255 255 255 68 119 255 255 255 255 255 255 255 
255 255 255 255 255 255 255 17 170 255 255 255 255 255 255 255 255 255 255 255 255 255 255 112 7 0 11 204 255 255 255 255 255 255 255 255 255 238 48 7 0 0 50 255 255 255 255 255 255 255 0 0 7 80 238 255 255 255 255 255 255 255 255 255 255 153 6 0 0 221 255 255 255 255 255 255 255 255 255 255 255 255 170 17 255 255 255 255 255 255 255 
255 255 255 255 255 255 153 34 255 255 255 255 255 255 255 255 255 255 255 255 255 255 255 34 0 0 187 255 255 255 255 255 255 255 255 255 255 255 238 41 4 0 75 255 255 255 255 255 255 255 0 0 96 255 255 255 255 255 255 255 255 255 255 255 255 255 80 10 11 153 255 255 255 255 255 255 255 255 255 255 255 255 255 34 153 255 255 255 255 255 255 
255 255 255 255 255 255 51 136 255 255 255 255 255 255 255 255 255 255 255 255 255 255 221 0 5 119 255 255 255 255 255 255 255 255 255 255 255 255 255 238 55 0 119 255 255 255 255 255 255 255 204 204 255 255 255 255 255 255 255 255 255 255 255 255 255 255 221 11 0 96 255 255 255 255 255 255 255 255 255 255 255 255 255 136 51 255 255 255 255 255 255 
255 255 255 255 255 238 0 221 255 255 255 255 255 255 255 255 255 255 255 255 255 255 136 0 23 238 255 255 255 255 255 255 255 255 255 255 255 255 255 255 255 204 255 255 255 255 255 255 255 255 255 255 255 255 255 255 255 255 255 255 255 255 255 255 255 255 255 136 0 34 255 255 255 255 255 255 255 255 255 255 255 255 255 221 0 238 255 255 255 255 255 
255 255 255 255 255 170 34 255 255 255 255 255 255 255 255 255 255 255 255 255 255 255 119 0 136 255 255 255 255 255 255 255 255 255 255 255 255 255 255 255 255 255 255 255 255 255 255 255 255 255 255 255 255 255 255 255 255 255 255 255 255 255 255 255 255 255 255 238 0 0 255 255 255 255 255 255 255 255 255 255 255 255 255 255 34 170 255 255 255 255 255 
255 255 255 255 255 119 102 255 255 255 255 255 255 255 255 255 255 255 255 255 255 255 112 0 238 255 255 255 255 255 255 255 255 255 187 221 255 255 255 255 255 255 255 255 255 255 255 255 255 255 255 255 255 255 221 170 119 68 119 153 204 255 255 255 255 255 255 255 74 0 255 255 255 255 255 255 255 255 255 255 255 255 255 255 102 119 255 255 255 255 255 
255 255 255 255 255 51 153 255 255 255 255 255 255 255 255 255 255 255 255 255 255 255 50 89 255 255 255 255 255 204 85 68 0 0 0 0 34 119 170 255 255 255 255 255 255 255 255 255 255 255 255 255 119 34 0 51 102 119 102 68 0 0 119 238 255 255 255 255 153 0 255 255 255 255 255 255 255 255 255 255 255 255 255 255 153 51 255 255 255 255 255 
255 255 255 255 238 0 221 255 255 255 255 255 255 255 255 255 255 255 255 255 255 255 255 221 255 255 255 238 102 0 102 170 187 238 255 238 153 102 34 17 187 255 255 255 255 255 255 255 255 255 204 51 51 170 238 255 255 255 255 255 255 187 68 17 170 255 255 255 238 204 255 255 255 255 255 255 255 255 255 255 255 255 255 255 221 0 255 255 255 255 255 
255 255 255 255 187 17 255 255 255 255 255 255 255 255 255 255 255 255 255 255 255 255 255 255 255 255 153 17 68 204 255 255 255 255 255 255 255 255 255 136 0 119 255 255 255 255 255 255 255 136 0 119 238 255 255 255 255 255 255 255 255 255 255 136 17 85 255 255 255 255 255 255 255 255 255 255 255 255 255 255 255 255 255 255 255 17 187 255 255 255 255 
255 255 255 255 119 85 255 255 255 255 255 255 255 255 255 255 255 255 255 255 255 255 255 255 255 170 0 170 255 255 255 255 255 255 255 255 255 255 255 255 187 17 85 238 255 255 255 255 170 17 187 255 255 255 255 255 255 255 255 255 255 255 255 255 221 34 119 255 255 255 255 255 255 255 255 255 255 255 255 255 255 255 255 255 255 85 119 255 255 255 255 
255 255 255 255 68 136 255 255 255 255 255 255 255 255 255 255 255 255 255 255 255 255 255 255 204 17 153 255 255 255 255 255 255 255 255 255 255 255 255 255 255 238 51 119 255 255 255 238 17 136 255 255 255 255 255 255 255 255 255 255 255 255 255 255 255 187 0 204 255 255 255 255 255 255 255 255 255 255 255 255 255 255 255 255 255 136 68 255 255 255 255 
255 255 255 255 0 204 255 255 255 255 255 255 255 255 255 255 255 255 255 255 255 255 255 238 51 102 255 255 255 255 255 255 255 255 255 255 255 255 255 255 255 255 187 0 221 255 255 85 68 255 255 255 255 255 255 255 255 255 255 255 255 255 255 255 255 255 119 34 238 255 255 255 255 255 255 255 255 255 255 255 255 255 255 255 255 204 0 255 255 255 255 
255 255 255 187 17 255 255 255 255 255 255 255 255 255 255 255 255 255 255 255 255 255 255 136 51 238 255 255 255 255 255 255 255 255 255 255 255 255 255 255 255 255 255 85 85 255 187 17 221 255 255 255 255 255 255 255 255 255 255 255 255 255 255 255 255 255 255 51 136 255 255 255 255 255 255 255 255 255 255 255 255 255 255 255 255 255 17 187 255 255 255 
255 255 255 170 68 255 255 255 255 255 255 255 255 255 255 255 255 255 255 255 255 255 255 68 136 255 255 255 255 255 255 255 255 255 255 255 255 255 255 255 255 255 255 221 17 187 119 102 255 255 255 255 255 255 255 255 255 255 255 255 255 255 255 255 255 255 255 119 85 255 255 255 255 255 255 255 255 255 255 255 255 255 255 255 255 255 68 170 255 255 255 
255 255 255 119 68 255 255 255 255 255 255 255 255 255 255 255 255 255 255 255 255 255 238 0 204 255 255 255 255 255 255 255 255 255 255 255 255 255 255 255 255 255 255 255 85 119 68 136 255 255 255 255 255 238 136 187 255 255 255 255 255 255 255 255 255 255 255 187 17 255 255 255 255 255 255 255 255 255 255 255 255 255 255 255 255 255 68 119 255 255 255 
255 255 255 119 102 255 255 255 255 255 255 255 255 255 255 255 255 255 255 255 255 255 170 34 255 255 255 255 255 255 255 255 255 255 255 238 50 38 204 255 255 255 255 255 119 119 17 187 255 255 255 255 255 68 3 0 204 255 255 255 255 255 255 255 255 255 255 255 0 221 255 255 255 255 255 255 255 255 255 255 255 255 255 255 255 255 102 119 255 255 255 
255 255 255 119 119 255 255 255 255 255 255 255 255 255 255 255 255 255 255 255 255 255 119 102 255 255 255 255 255 255 255 255 255 255 255 104 0 0 82 255 255 255 255 255 136 66 0 238 255 255 255 255 255 0 0 0 119 255 255 255 255 255 255 255 255 255 255 255 51 153 255 255 255 255 255 255 255 255 255 255 255 255 255 255 255 255 119 119 255 255 255 
255 255 255 68 119 255 255 255 255 255 255 255 255 255 255 255 255 255 255 255 255 255 119 119 255 255 255 255 255 255 255 255 255 255 255 50 0 0 50 255 255 255 255 255 187 31 0 255 255 255 255 255 255 19 0 4 136 255 255 255 255 255 255 255 255 255 255 255 51 170 255 255 255 255 255 255 255 255 255 255 255 255 255 255 255 255 119 68 255 255 255 
255 255 255 68 136 255 255 255 255 255 255 255 255 255 255 255 255 255 255 255 255 255 136 68 255 255 255 255 255 255 255 255 255 255 255 104 4 4 112 255 255 255 255 255 187 17 0 204 255 255 255 255 255 143 10 46 238 255 255 255 255 255 255 255 255 255 255 255 0 221 255 255 255 255 255 255 255 255 255 255 255 255 255 255 255 255 136 68 255 255 255 
255 255 255 68 187 255 255 255 255 255 255 255 255 255 255 255 255 255 255 255 255 255 187 34 255 255 255 255 255 255 255 255 255 255 255 238 104 112 238 255 255 255 255 255 119 85 68 136 255 255 255 255 255 255 255 255 255 255 255 255 255 255 255 255 255 255 255 187 0 255 255 255 255 255 255 255 255 255 255 255 255 255 255 255 255 255 187 68 255 255 255 
255 255 255 17 187 255 255 255 255 255 255 255 255 255 255 255 255 255 255 255 255 255 204 0 255 255 255 255 255 255 255 255 255 255 255 255 255 255 255 255 255 255 255 255 51 136 119 102 255 255 255 255 255 255 255 255 255 255 255 255 255 255 255 255 255 255 255 153 68 255 255 255 255 255 255 255 255 255 255 255 255 255 255 255 255 255 187 17 255 255 255 
255 255 255 0 187 255 255 255 255 255 255 255 255 255 255 255 255 255 255 255 255 255 255 17 153 255 255 255 255 255 255 255 255 255 255 255 255 255 255 255 255 255 255 238 0 221 170 34 238 255 255 255 255 255 255 255 255 255 255 255 255 255 255 255 255 255 255 51 119 255 255 255 255 255 255 255 255 255 255 255 255 255 255 255 255 255 187 0 255 255 255 
255 255 255 0 255 255 255 255 255 255 255 255 255 255 255 255 255 255 255 255 255 255 255 136 34 238 255 255 255 255 255 255 255 255 255 255 255 255 255 255 255 255 255 136 34 255 255 51 119 255 255 255 255 255 255 255 255 255 255 255 255 255 255 255 255 255 136 34 238 255 255 255 255 255 255 255 255 255 255 255 255 255 255 255 255 255 255 0 255 255 255 
255 255 221 0 255 255 255 255 255 255 255 255 255 255 255 255 255 255 255 255 255 255 255 255 51 119 255 255 255 255 255 255 255 255 255 255 255 255 255 255 255 255 204 0 170 255 255 204 17 170 255 255 255 255 255 255 255 255 255 255 255 255 255 255 255 221 17 170 255 255 255 255 255 255 255 255 255 255 255 255 255 255 255 255 255 255 255 0 221 255 255 
255 255 255 0 255 255 255 255 255 255 255 255 255 255 255 255 255 255 255 255 255 255 255 255 187 17 204 255 255 255 255 255 255 255 255 255 255 255 255 255 255 238 34 119 255 255 255 255 136 17 238 255 255 255 255 255 255 255 255 255 255 255 255 255 238 51 85 255 255 255 255 255 255 255 255 255 255 255 255 255 255 255 255 255 255 255 255 0 255 255 255 
255 255 255 0 187 255 255 255 255 255 255 255 255 255 255 255 255 255 255 255 255 255 255 255 255 119 17 153 255 255 255 255 255 255 255 255 255 255 255 255 238 68 68 255 255 255 255 255 255 102 17 136 255 255 255 255 255 255 255 255 255 255 255 187 17 68 238 255 255 255 255 255 255 255 255 255 255 255 255 255 255 255 255 255 255 255 187 0 255 255 255 
255 255 255 17 187 255 255 255 255 255 255 255 255 255 255 255 255 255 255 255 255 255 255 255 255 255 153 17 102 255 255 255 255 255 255 255 255 255 255 136 17 68 238 255 255 255 255 255 255 255 170 17 68 221 255 255 255 255 255 255 255 238 119 0 136 255 255 255 255 255 255 255 255 255 255 255 255 255 255 255 255 255 255 255 255 255 187 17 255 255 255 
255 255 255 68 187 255 255 255 255 255 255 255 255 255 255 255 255 255 255 255 255 255 255 255 255 255 255 204 51 34 102 170 238 255 255 255 187 170 34 34 153 255 255 255 255 255 255 255 255 255 255 238 85 0 51 85 119 187 153 102 51 0 51 204 255 255 255 255 255 255 255 255 255 255 255 255 255 255 255 255 255 255 255 255 255 255 187 68 255 255 255 
255 255 255 68 136 255 255 255 255 255 255 255 255 255 255 255 255 255 255 255 255 255 255 255 255 255 255 255 238 170 102 34 0 68 0 0 0 51 119 238 255 255 255 221 255 255 255 255 255 255 255 255 255 221 170 119 85 51 68 119 170 221 255 255 255 255 255 255 255 255 255 255 255 255 255 255 255 255 255 255 255 255 255 255 255 255 136 68 255 255 255 
255 255 255 68 119 255 255 255 255 255 255 255 255 255 255 255 255 255 255 255 255 255 255 255 255 255 255 255 255 255 255 255 221 187 187 238 255 255 255 255 255 255 255 17 204 255 255 255 255 255 255 255 255 255 255 255 255 255 255 255 255 255 255 255 255 255 255 255 255 255 255 255 255 255 255 255 255 255 255 255 255 255 255 255 255 255 119 68 255 255 255 
255 255 255 119 119 255 255 255 255 255 255 255 255 255 255 255 255 255 255 255 255 255 255 255 255 255 255 255 255 255 255 255 255 255 255 255 255 255 255 255 255 255 170 17 255 255 255 255 255 255 255 255 255 255 255 255 255 255 255 255 255 255 255 255 255 255 255 255 255 255 255 255 255 255 255 255 255 255 255 255 255 255 255 255 255 255 119 119 255 255 255 
255 255 255 119 102 255 255 255 255 255 255 255 255 255 255 255 255 255 255 255 255 255 255 255 255 255 255 255 255 255 255 255 255 255 255 255 255 255 255 255 255 255 102 102 255 255 255 255 255 255 255 255 255 255 255 255 255 255 255 255 255 255 255 255 255 255 255 255 255 255 255 255 255 255 255 255 255 255 255 255 255 255 255 255 255 255 102 119 255 255 255 
255 255 255 119 68 255 255 255 255 255 255 255 255 255 255 255 255 255 255 255 255 255 255 255 255 255 255 255 255 255 255 255 255 255 255 255 255 255 255 255 255 204 0 150 136 153 238 255 255 255 255 255 255 255 255 255 255 255 255 255 255 255 255 255 255 255 255 255 255 255 255 255 255 255 255 255 255 255 255 255 255 255 255 255 255 255 68 119 255 255 255 
255 255 255 170 68 255 255 255 255 255 255 255 255 255 255 255 255 255 255 255 255 255 255 255 255 255 255 255 255 255 255 255 255 255 255 255 255 255 187 221 204 35 30 0 68 34 0 51 119 221 255 255 255 255 255 255 255 255 255 255 255 255 255 255 255 255 255 255 255 255 255 255 255 255 255 255 255 255 255 255 255 255 255 255 255 255 68 170 255 255 255 
255 255 255 187 17 255 255 255 255 255 255 255 255 255 255 255 255 255 255 255 255 255 255 255 255 255 255 255 255 255 255 255 255 255 255 170 31 0 0 14 14 112 187 255 255 255 221 136 85 204 255 255 255 255 153 119 153 255 255 255 255 255 255 255 255 255 255 255 255 255 255 255 255 255 255 255 255 255 255 255 255 255 255 255 255 255 17 187 255 255 255 
255 255 255 255 0 204 255 255 255 255 255 255 255 255 255 255 255 255 255 255 255 255 255 255 255 255 255 255 255 255 255 255 255 255 119 15 119 238 204 17 153 255 255 255 255 255 255 255 255 255 255 255 255 255 153 119 34 34 170 255 255 255 255 255 255 255 255 255 255 255 255 255 255 255 255 255 255 255 255 255 255 255 255 255 255 204 0 255 255 255 255 
255 255 255 255 68 136 255 255 255 255 255 255 255 255 255 255 255 255 255 255 255 255 255 255 255 255 255 255 255 255 255 255 255 204 0 187 255 238 17 153 255 255 255 255 255 255 255 255 255 255 255 255 255 255 255 255 255 136 0 187 255 255 255 255 255 255 255 255 255 255 255 255 255 255 255 255 255 255 255 255 255 255 255 255 255 136 68 255 255 255 255 
255 255 255 255 119 85 255 255 255 255 255 255 255 255 255 255 255 255 255 255 255 255 255 255 255 255 255 255 255 255 255 255 255 98 102 255 255 153 34 255 255 255 255 255 255 255 255 255 255 255 255 255 255 255 255 255 255 255 136 39 255 255 255 255 255 255 255 255 255 255 255 255 255 255 255 255 255 255 255 255 255 255 255 255 255 85 119 255 255 255 255 
255 255 255 255 187 17 255 255 255 255 255 255 255 255 255 255 255 255 255 255 255 255 255 255 255 255 255 255 255 255 255 255 238 25 119 255 255 34 153 255 255 255 255 255 255 255 255 255 255 255 255 255 255 255 255 255 255 255 191 0 192 255 255 255 255 255 255 255 255 255 255 255 255 255 255 255 255 255 255 255 255 255 255 255 255 17 187 255 255 255 255 
255 255 255 255 238 0 221 255 255 255 255 255 255 255 255 255 255 255 255 255 255 255 255 255 255 255 255 255 255 255 255 255 68 37 102 255 187 17 238 255 255 255 255 255 255 255 255 255 255 255 255 255 255 255 255 255 255 255 255 35 75 255 255 255 255 255 255 255 255 255 255 255 255 255 255 255 255 255 255 255 255 255 255 255 221 0 255 255 255 255 255 
255 255 255 255 255 51 153 255 255 255 255 255 255 255 255 255 255 255 255 255 255 255 255 255 255 255 255 255 255 255 255 136 17 175 17 204 153 68 255 255 255 255 255 255 255 255 255 255 255 255 255 255 255 255 255 255 255 255 255 0 0 221 255 255 255 255 255 255 255 255 255 255 255 255 255 255 255 255 255 255 255 255 255 255 153 51 255 255 255 255 255 
255 255 255 255 255 119 102 255 255 255 255 255 255 255 255 255 255 255 255 255 255 255 255 255 255 255 255 255 255 255 204 0 187 255 119 17 56 85 255 255 255 255 255 255 255 255 255 255 255 255 255 255 255 255 255 255 255 255 102 51 102 68 255 255 255 255 255 255 255 255 255 255 255 255 255 255 255 255 255 255 255 255 255 255 102 119 255 255 255 255 255 
255 255 255 255 255 170 34 255 255 255 255 255 255 255 255 255 255 255 255 255 255 255 255 255 255 255 255 255 255 255 51 119 255 255 255 170 64 85 255 255 255 255 255 255 255 255 255 255 255 255 255 255 255 102 34 102 136 68 17 204 221 0 204 255 255 255 255 255 255 255 255 255 255 255 255 255 255 255 255 255 255 255 255 255 34 170 255 255 255 255 255 
255 255 255 255 255 238 0 221 255 255 255 255 255 255 255 255 255 255 255 255 255 255 255 255 255 255 255 255 255 119 34 238 255 255 255 255 204 0 238 255 255 255 255 255 255 255 255 255 255 255 255 255 204 0 153 119 68 136 221 255 255 102 102 255 255 255 255 255 255 255 255 255 255 255 255 255 255 255 255 255 255 255 255 221 0 238 255 255 255 255 255 
255 255 255 255 255 255 51 136 255 255 255 255 255 255 255 255 255 255 255 255 255 255 255 255 255 255 255 255 204 0 187 255 255 255 255 255 255 34 136 255 255 255 255 255 255 255 255 255 255 255 255 255 68 102 255 255 255 255 255 255 255 187 0 238 255 255 255 255 255 255 255 255 255 255 255 255 255 255 255 255 255 255 255 136 51 255 255 255 255 255 255 
255 255 255 255 255 255 153 34 255 255 255 255 255 255 255 255 255 255 255 255 255 255 255 255 255 255 255 255 238 153 255 255 255 255 255 255 255 204 0 170 255 255 255 255 255 255 255 255 255 255 255 136 17 221 255 255 255 255 255 255 255 255 51 136 255 255 255 255 255 255 255 255 255 255 255 255 255 255 255 255 255 255 255 34 153 255 255 255 255 255 255 
255 255 255 255 255 255 255 17 170 255 255 255 255 255 255 255 255 255 255 255 255 255 255 255 255 255 255 255 255 255 255 255 255 255 255 255 255 255 153 17 102 221 255 255 255 255 255 255 255 187 34 34 170 255 255 255 255 255 255 255 255 255 153 34 255 255 255 255 255 255 255 255 255 255 255 255 255 255 255 255 255 255 170 17 255 255 255 255 255 255 255 
255 255 255 255 255 255 255 119 68 255 255 255 255 255 255 255 255 255 255 255 255 255 255 255 255 255 255 255 255 255 255 255 255 255 255 255 255 255 255 187 68 0 68 68 119 119 102 68 17 17 119 238 255 255 255 255 255 255 255 255 255 255 255 136 238 255 255 255 255 255 255 255 255 255 255 255 255 255 255 255 255 255 68 119 255 255 255 255 255 255 255 
255 255 255 255 255 255 255 221 0 221 255 255 255 255 255 255 255 255 255 255 255 255 255 255 255 255 255 255 255 255 255 255 255 255 255 255 255 255 255 255 255 204 170 119 119 119 119 153 187 238 255 255 255 255 255 255 255 255 255 255 255 255 255 255 255 255 255 255 255 255 255 255 255 255 255 255 255 255 255 255 255 221 0 221 255 255 255 255 255 255 255 
255 255 255 255 255 255 255 255 85 102 255 255 255 255 255 255 255 255 255 255 255 255 255 255 255 255 255 255 255 255 255 255 255 255 255 255 255 255 255 255 255 255 255 255 255 255 255 255 255 255 255 255 255 255 255 255 255 255 255 255 255 255 255 255 255 255 255 255 255 255 255 255 255 255 255 255 255 255 255 255 255 102 85 255 255 255 255 255 255 255 255 
255 255 255 255 255 255 255 255 187 17 238 255 255 255 255 255 255 255 255 255 255 255 255 255 255 255 255 255 255 255 255 255 255 255 255 255 255 255 255 255 255 255 255 255 255 255 255 255 255 255 255 255 255 255 255 255 255 255 255 255 255 255 255 255 255 255 255 255 255 255 255 255 255 255 255 255 255 255 255 255 238 17 187 255 255 255 255 255 255 255 255 
255 255 255 255 255 255 255 255 255 34 136 255 255 255 255 255 255 255 255 255 255 255 255 255 255 255 255 255 255 255 255 255 255 255 255 255 255 255 255 255 255 255 255 255 255 255 255 255 255 255 255 255 255 255 255 255 255 255 255 255 255 255 255 255 255 255 255 255 255 255 255 255 255 255 255 255 255 255 255 255 136 34 255 255 255 255 255 255 255 255 255 
255 255 255 255 255 255 255 255 255 153 34 255 255 255 255 255 255 255 255 255 255 255 255 255 255 255 255 255 255 255 255 255 255 255 255 255 255 255 255 255 255 255 255 255 187 221 255 255 255 255 255 255 255 255 255 255 255 255 255 255 255 255 255 255 255 255 255 255 255 255 255 255 255 255 255 255 255 255 255 255 34 153 255 255 255 255 255 255 255 255 255 
255 255 255 255 255 255 255 255 255 238 17 136 255 255 255 255 255 255 255 255 255 255 255 255 255 255 255 255 255 255 255 255 255 255 255 255 255 255 255 255 255 221 104 16 0 0 24 127 238 255 255 255 255 255 255 255 255 255 255 255 255 255 255 255 255 255 255 255 255 255 255 255 255 255 255 255 255 255 255 136 17 238 255 255 255 255 255 255 255 255 255 
255 255 255 255 255 255 255 255 255 255 170 17 238 255 255 255 255 255 255 255 255 255 255 255 255 255 255 255 255 255 255 255 255 255 255 255 255 255 255 255 255 34 0 0 0 0 0 4 104 255 255 255 255 255 255 255 255 255 255 255 255 255 255 255 255 255 255 255 255 255 255 255 255 255 255 255 255 255 238 17 170 255 255 255 255 255 255 255 255 255 255 
255 255 255 255 255 255 255 255 255 255 255 68 85 255 255 255 255 255 255 255 255 255 255 255 255 255 255 255 255 255 255 255 255 255 255 255 255 255 255 255 187 2 0 0 0 0 0 0 6 238 255 255 255 255 255 255 255 255 255 255 255 255 255 255 255 255 255 255 255 255 255 255 255 255 255 255 255 255 85 68 255 255 255 255 255 255 255 255 255 255 255 
255 255 255 255 255 255 255 255 255 255 255 221 17 170 255 255 255 255 255 255 255 255 255 255 255 255 255 255 255 255 255 255 255 255 255 255 255 255 255 255 63 0 0 0 0 0 0 0 0 136 255 255 255 255 255 255 255 255 255 255 255 255 255 255 255 255 255 255 255 255 255 255 255 255 255 255 255 170 17 221 255 255 255 255 255 255 255 255 255 255 255 
255 255 255 255 255 255 255 255 255 255 255 255 136 17 238 255 255 255 255 255 255 255 255 255 255 255 255 255 255 255 255 255 255 255 255 255 255 255 255 255 104 0 0 0 0 0 0 0 0 221 255 255 255 255 255 255 255 255 255 255 255 255 255 255 255 255 255 255 255 255 255 255 255 255 255 255 238 17 136 255 255 255 255 255 255 255 255 255 255 255 255 
255 255 255 255 255 255 255 255 255 255 255 255 255 68 102 255 255 255 255 255 255 255 255 255 255 255 255 255 255 255 255 255 255 255 255 255 255 255 255 255 238 6 0 0 0 0 0 0 41 255 255 255 255 255 255 255 255 255 255 255 255 255 255 255 255 255 255 255 255 255 255 255 255 255 255 255 85 68 255 255 255 255 255 255 255 255 255 255 255 255 255 
255 255 255 255 255 255 255 255 255 255 255 255 255 221 17 187 255 255 255 255 255 255 255 255 255 255 255 255 255 255 255 255 255 255 255 255 255 255 255 255 255 143 8 0 0 0 0 31 204 255 255 255 255 255 255 255 255 255 255 255 255 255 255 255 255 255 255 255 255 255 255 255 255 255 255 187 17 221 255 255 255 255 255 255 255 255 255 255 255 255 255 
255 255 255 255 255 255 255 255 255 255 255 255 255 255 119 34 238 255 255 255 255 255 255 255 255 255 255 255 255 255 255 255 255 255 255 255 255 255 255 255 255 255 255 170 82 104 204 255 255 255 255 255 255 255 255 255 255 255 255 255 255 255 255 255 255 255 255 255 255 255 255 255 255 255 238 34 119 255 255 255 255 255 255 255 255 255 255 255 255 255 255 
255 255 255 255 255 255 255 255 255 255 255 255 255 255 255 51 68 255 255 255 255 255 255 255 255 255 255 255 255 255 255 255 255 255 255 255 255 255 238 170 255 255 255 255 255 255 255 255 255 255 221 85 238 255 255 255 255 255 255 255 255 255 255 255 255 255 255 255 255 255 255 255 255 255 68 51 255 255 255 255 255 255 255 255 255 255 255 255 255 255 255 
255 255 255 255 255 255 255 255 255 255 255 255 255 255 255 238 51 102 255 255 255 255 255 255 255 255 255 255 255 255 255 255 255 255 255 255 255 255 187 0 204 255 255 255 255 255 255 255 255 255 68 85 255 255 255 255 255 255 255 255 255 255 255 255 255 255 255 255 255 255 255 255 255 102 51 238 255 255 255 255 255 255 255 255 255 255 255 255 255 255 255 
255 255 255 255 255 255 255 255 255 255 255 255 255 255 255 255 238 51 102 255 255 255 255 255 255 255 255 255 255 255 255 255 255 255 255 255 255 255 255 119 34 238 255 255 255 255 255 255 255 136 17 238 255 255 255 255 255 255 255 255 255 255 255 255 255 255 255 255 255 255 255 255 102 51 238 255 255 255 255 255 255 255 255 255 255 255 255 255 255 255 255 
255 255 255 255 255 255 255 255 255 255 255 255 255 255 255 255 255 221 17 102 255 255 255 255 255 255 255 255 255 255 255 255 255 255 255 255 255 255 255 255 51 34 102 153 221 255 204 136 85 17 170 255 255 255 255 255 255 255 255 255 255 255 255 255 255 255 255 255 255 255 255 102 17 221 255 255 255 255 255 255 255 255 255 255 255 255 255 255 255 255 255 
255 255 255 255 255 255 255 255 255 255 255 255 255 255 255 255 255 255 204 17 102 255 255 255 255 255 255 255 255 255 255 255 255 255 255 255 255 255 255 255 238 170 119 51 0 0 0 68 119 187 255 255 255 255 255 255 255 255 255 255 255 255 255 255 255 255 255 255 255 255 102 17 204 255 255 255 255 255 255 255 255 255 255 255 255 255 255 255 255 255 255 
255 255 255 255 255 255 255 255 255 255 255 255 255 255 255 255 255 255 255 204 17 102 255 255 255 255 255 255 255 255 255 255 255 255 255 255 255 255 255 255 255 255 255 255 238 187 255 255 255 255 255 255 255 255 255 255 255 255 255 255 255 255 255 255 255 255 255 255 255 102 17 204 255 255 255 255 255 255 255 255 255 255 255 255 255 255 255 255 255 255 255 
255 255 255 255 255 255 255 255 255 255 255 255 255 255 255 255 255 255 255 255 204 17 119 255 255 255 255 255 255 255 255 255 255 255 255 255 255 255 255 255 255 255 255 255 255 255 255 255 255 255 255 255 255 255 255 255 255 255 255 255 255 255 255 255 255 255 255 255 119 17 204 255 255 255 255 255 255 255 255 255 255 255 255 255 255 255 255 255 255 255 255 
255 255 255 255 255 255 255 255 255 255 255 255 255 255 255 255 255 255 255 255 255 204 34 51 204 255 255 255 255 255 255 255 255 255 255 255 255 255 255 255 255 255 255 255 255 255 255 255 255 255 255 255 255 255 255 255 255 255 255 255 255 255 255 255 255 255 204 51 34 204 255 255 255 255 255 255 255 255 255 255 255 255 255 255 255 255 255 255 255 255 255 
255 255 255 255 255 255 255 255 255 255 255 255 255 255 255 255 255 255 255 255 255 255 238 119 0 136 255 255 255 255 255 255 255 255 255 255 255 255 255 255 255 255 255 255 255 255 255 255 255 255 255 255 255 255 255 255 255 255 255 255 255 255 255 255 255 136 0 119 238 255 255 255 255 255 255 255 255 255 255 255 255 255 255 255 255 255 255 255 255 255 255 
255 255 255 255 255 255 255 255 255 255 255 255 255 255 255 255 255 255 255 255 255 255 255 255 187 17 68 221 255 255 255 255 255 255 255 255 255 255 255 255 255 255 255 255 255 255 255 255 255 255 255 255 255 255 255 255 255 255 255 255 255 255 255 221 68 17 187 255 255 255 255 255 255 255 255 255 255 255 255 255 255 255 255 255 255 255 255 255 255 255 255 
255 255 255 255 255 255 255 255 255 255 255 255 255 255 255 255 255 255 255 255 255 255 255 255 255 238 85 17 136 255 255 255 255 255 255 255 255 255 255 255 255 255 255 255 255 255 255 255 255 255 255 255 255 255 255 255 255 255 255 255 255 255 136 17 85 238 255 255 255 255 255 255 255 255 255 255 255 255 255 255 255 255 255 255 255 255 255 255 255 255 255 
255 255 255 255 255 255 255 255 255 255 255 255 255 255 255 255 255 255 255 255 255 255 255 255 255 255 255 170 17 68 170 255 255 255 255 255 255 255 255 255 255 255 255 255 255 255 255 255 255 255 255 255 255 255 255 255 255 255 255 255 170 68 17 170 255 255 255 255 255 255 255 255 255 255 255 255 255 255 255 255 255 255 255 255 255 255 255 255 255 255 255 
255 255 255 255 255 255 255 255 255 255 255 255 255 255 255 255 255 255 255 255 255 255 255 255 255 255 255 255 221 119 34 17 119 221 255 255 255 255 255 255 255 255 255 255 255 255 255 255 255 255 255 255 255 255 255 255 255 221 119 17 34 119 221 255 255 255 255 255 255 255 255 255 255 255 255 255 255 255 255 255 255 255 255 255 255 255 255 255 255 255 255 
255 255 255 255 255 255 255 255 255 255 255 255 255 255 255 255 255 255 255 255 255 255 255 255 255 255 255 255 255 255 255 170 85 0 68 153 255 255 255 255 255 255 255 255 255 255 255 255 255 255 255 255 255 255 255 153 68 0 85 170 255 255 255 255 255 255 255 255 255 255 255 255 255 255 255 255 255 255 255 255 255 255 255 255 255 255 255 255 255 255 255 
255 255 255 255 255 255 255 255 255 255 255 255 255 255 255 255 255 255 255 255 255 255 255 255 255 255 255 255 255 255 255 255 255 221 119 34 17 85 119 153 187 221 255 255 255 255 255 255 255 221 187 153 119 85 17 34 119 221 255 255 255 255 255 255 255 255 255 255 255 255 255 255 255 255 255 255 255 255 255 255 255 255 255 255 255 255 255 255 255 255 255 
255 255 255 255 255 255 255 255 255 255 255 255 255 255 255 255 255 255 255 255 255 255 255 255 255 255 255 255 255 255 255 255 255 255 255 255 170 119 102 68 17 0 0 34 68 68 68 34 0 0 17 68 102 119 170 255 255 255 255 255 255 255 255 255 255 255 255 255 255 255 255 255 255 255 255 255 255 255 255 255 255 255 255 255 255 255 255 255 255 255 255 
255 255 255 255 255 255 255 255 255 255 255 255 255 255 255 255 255 255 255 255 255 255 255 255 255 255 255 255 255 255 255 255 255 255 255 255 255 255 255 255 255 255 204 187 136 119 136 187 204 255 255 255 255 255 255 255 255 255 255 255 255 255 255 255 255 255 255 255 255 255 255 255 255 255 255 255 255 255 255 255 255 255 255 255 255 255 255 255 255 255 255 
255 255 255 255 255 255 255 255 255 255 255 255 255 255 255 255 255 255 255 255 255 255 255 255 255 255 255 255 255 255 255 255 255 255 255 255 255 255 255 255 255 255 255 255 255 255 255 255 255 255 255 255 255 255 255 255 255 255 255 255 255 255 255 255 255 255 255 255 255 255 255 255 255 255 255 255 255 255 255 255 255 255 255 255 255 255 255 255 255 255 255 
255 255 255 255 255 255 255 255 255 255 255 255 255 255 255 255 255 255 255 255 255 255 255 255 255 255 255 255 255 255 255 255 255 255 255 255 255 255 255 255 255 255 255 255 255 255 255 255 255 255 255 255 255 255 255 255 255 255 255 255 255 255 255 255 255 255 255 255 255 255 255 255 255 255 255 255 255 255 255 255 255 255 255 255 255 255 255 255 255 255 255 
