P2
50 50
255
255 255 255 255 255 255 255 255 255 255 255 255 255 255 255 255 255 255 255 255 255 255 255 255 255 255 255 255 255 255 255 255 255 255 255 255 255 255 255 255 255 255 255 255 255 255 255 255 255 255 
255 255 255 255 255 255 255 255 255 255 255 255 255 255 255 255 255 255 255 255 255 255 255 255 187 119 187 255 255 255 255 255 255 255 255 255 255 255 255 255 255 255 255 255 255 255 255 255 255 255 
255 255 255 255 255 255 255 255 255 255 255 255 255 255 255 255 255 255 255 119 17 119 187 221 255 255 255 221 187 119 17 119 255 255 255 255 255 255 255 255 255 255 255 255 255 255 255 255 255 255 
255 255 255 255 255 255 255 255 255 255 255 255 255 255 255 255 119 34 119 255 255 255 255 255 255 255 255 255 255 255 255 255 119 34 119 255 255 255 255 255 255 255 255 255 255 255 255 255 255 255 
255 255 255 255 255 255 255 255 255 255 255 255 255 255 17 221 255 255 255 255 255 255 255 255 255 255 255 255 255 255 255 255 255 255 255 221 17 255 255 255 255 255 255 255 255 255 255 255 255 255 
255 255 255 255 255 255 255 255 255 255 255 255 204 51 255 255 255 255 255 255 255 255 255 255 255 255 255 255 255 255 255 255 255 255 255 255 255 51 204 255 255 255 255 255 255 255 255 255 255 255 
255 255 255 255 255 255 255 255 255 255 255 17 102 255 255 255 255 255 255 255 0 255 255 255 255 255 255 255 255 255 238 187 255 255 255 255 255 255 102 17 255 255 255 255 255 255 255 255 255 255 
255 255 255 255 255 255 255 255 255 255 17 255 255 255 255 255 255 255 255 102 238 187 221 255 255 255 255 255 255 17 255 51 255 255 255 255 255 255 255 255 17 255 255 255 255 255 255 255 255 255 
255 255 255 255 255 255 255 255 255 68 255 255 255 255 255 255 204 85 119 255 136 170 255 255 255 255 255 255 255 255 17 255 238 17 68 255 255 255 255 255 255 68 255 255 255 255 255 255 255 255 
255 255 255 255 255 255 255 255 17 255 255 255 255 255 238 0 221 255 238 0 238 255 255 255 255 255 255 255 255 255 255 119 102 255 255 102 85 255 255 255 255 255 17 255 255 255 255 255 255 255 
255 255 255 255 255 255 255 136 238 255 255 255 255 221 119 255 119 17 187 255 255 255 255 255 255 255 255 255 255 255 255 255 255 68 0 238 255 0 255 255 255 255 238 136 255 255 255 255 255 255 
255 255 255 255 255 255 255 85 255 255 255 255 255 34 255 17 255 255 255 255 255 255 255 255 255 255 255 255 255 255 255 255 255 255 255 102 204 238 204 255 255 255 255 85 255 255 255 255 255 255 
255 255 255 255 255 153 34 255 255 255 255 255 255 255 255 255 34 5 0 0 19 19 0 170 255 255 255 255 170 19 19 14 0 0 5 204 255 255 255 255 255 255 255 255 34 153 255 255 255 255 
255 255 255 255 255 17 238 255 255 255 255 255 255 255 255 0 0 96 255 255 255 255 255 255 255 255 255 255 255 255 255 255 255 204 96 0 153 255 255 255 255 255 255 255 238 17 255 255 255 255 
255 255 255 255 221 221 255 255 255 255 255 255 255 255 23 96 255 255 255 255 255 255 255 255 255 255 255 255 255 255 255 255 255 255 255 255 0 238 255 255 255 255 255 255 255 221 221 255 255 255 
255 255 255 255 17 255 255 255 255 255 255 255 255 221 41 255 255 255 255 255 255 255 255 255 255 255 255 255 255 255 255 255 255 255 255 255 255 0 255 255 255 255 255 255 255 255 17 255 255 255 
255 255 255 238 221 255 255 255 255 255 255 255 255 0 255 255 255 255 255 255 255 255 255 255 255 255 255 255 255 255 255 255 255 255 255 255 255 170 204 255 255 255 255 255 255 255 221 238 255 255 
255 255 255 119 255 255 255 255 255 255 255 255 255 41 255 255 255 238 119 119 238 255 255 255 255 255 255 255 255 255 255 187 119 187 238 255 255 255 119 255 255 255 255 255 255 255 255 119 255 255 
255 255 255 0 255 255 255 255 255 255 255 255 255 255 255 34 170 238 255 255 238 34 187 255 255 255 255 255 255 51 170 255 255 255 238 34 187 255 255 255 255 255 255 255 255 255 255 0 255 255 
255 255 255 85 255 255 255 255 255 255 255 255 255 255 17 255 255 255 255 255 255 255 204 17 255 255 255 170 17 255 255 255 255 255 255 255 204 153 255 255 255 255 255 255 255 255 255 85 255 255 
255 255 187 255 255 255 255 255 255 255 255 0 238 0 255 255 255 255 255 255 255 255 255 255 0 255 221 238 255 255 255 255 255 255 255 255 255 255 204 255 204 255 255 255 255 255 255 255 187 255 
255 255 119 255 255 255 255 255 255 255 255 119 255 102 255 255 255 255 255 170 133 113 136 255 119 255 119 255 255 17 88 17 255 255 255 255 255 255 102 255 102 255 255 255 255 255 255 255 119 255 
255 255 119 255 255 255 255 255 255 255 255 119 255 119 255 255 255 255 255 68 10 0 17 255 119 255 102 255 255 148 0 148 255 255 255 255 255 255 68 255 68 255 255 255 255 255 255 255 119 255 
255 255 68 255 255 255 255 255 255 255 255 34 255 17 255 255 255 255 255 255 0 0 238 255 17 255 204 255 255 85 0 85 255 255 255 255 255 255 187 255 170 255 255 255 255 255 255 255 68 255 
255 255 0 255 255 255 255 255 255 255 255 204 0 255 51 255 255 255 255 255 255 255 255 68 255 255 255 102 51 255 255 255 255 255 255 255 255 85 204 0 255 255 255 255 255 255 255 255 0 255 
255 255 0 255 255 255 255 255 255 255 255 255 255 102 221 17 255 255 255 255 255 119 85 221 255 255 255 255 221 17 255 255 255 255 255 136 68 255 34 238 255 255 255 255 255 255 255 255 0 255 
255 255 0 255 255 255 255 255 255 255 255 255 255 238 17 255 170 119 34 34 119 238 255 221 255 255 255 255 255 255 170 68 0 68 119 238 170 85 255 255 255 255 255 255 255 255 255 255 0 255 
255 255 68 255 255 255 255 255 255 255 255 255 255 255 255 255 238 153 255 255 255 255 238 0 255 255 255 255 255 255 255 255 255 187 153 255 255 255 255 255 255 255 255 255 255 255 255 255 68 255 
255 255 119 255 255 255 255 255 255 255 255 255 255 255 255 255 255 255 255 255 187 170 17 48 187 85 0 255 255 255 136 255 255 255 255 255 255 255 255 255 255 255 255 255 255 255 255 255 119 255 
255 255 119 255 255 255 255 255 255 255 255 255 255 255 255 255 255 255 255 46 255 17 255 255 255 255 255 255 255 255 255 102 204 255 255 255 255 255 255 255 255 255 255 255 255 255 255 255 119 255 
255 255 187 255 255 255 255 255 255 255 255 255 255 255 255 255 255 255 67 255 119 255 255 255 255 255 255 255 255 255 255 255 6 255 255 255 255 255 255 255 255 255 255 255 255 255 255 255 187 255 
255 255 255 85 255 255 255 255 255 255 255 255 255 255 255 255 255 153 191 170 68 255 255 255 255 255 255 255 255 255 255 255 34 51 255 255 255 255 255 255 255 255 255 255 255 255 255 85 255 255 
255 255 255 0 255 255 255 255 255 255 255 255 255 255 255 255 102 68 255 221 16 255 255 255 255 255 255 255 255 34 85 102 255 119 34 255 255 255 255 255 255 255 255 255 255 255 255 0 255 255 
255 255 255 119 255 255 255 255 255 255 255 255 255 255 255 255 119 255 255 255 119 238 255 255 255 255 255 255 238 153 255 255 255 255 119 255 255 255 255 255 255 255 255 255 255 255 255 119 255 255 
255 255 255 238 221 255 255 255 255 255 255 255 255 255 255 255 255 255 255 255 255 51 119 187 255 238 119 17 153 255 255 255 255 255 255 238 255 255 255 255 255 255 255 255 255 255 221 238 255 255 
255 255 255 255 17 255 255 255 255 255 255 255 255 255 255 255 255 170 255 255 255 255 255 255 255 255 255 255 255 255 255 255 255 187 238 255 255 255 255 255 255 255 255 255 255 255 17 255 255 255 
255 255 255 255 221 221 255 255 255 255 255 255 255 255 255 255 17 119 255 221 255 255 255 255 255 255 255 255 255 255 255 255 255 136 51 255 255 255 255 255 255 255 255 255 255 221 221 255 255 255 
255 255 255 255 255 17 238 255 255 255 255 255 255 255 255 187 238 153 5 0 0 4 170 255 221 55 0 187 255 255 255 187 255 255 51 255 255 255 255 255 255 255 255 255 238 17 255 255 255 255 
255 255 255 255 255 153 34 255 255 255 255 255 255 255 255 0 4 0 0 0 0 0 0 0 0 0 0 0 4 136 4 0 0 55 191 238 255 255 255 255 255 255 255 255 34 153 255 255 255 255 
255 255 255 255 255 255 255 85 255 255 255 255 255 255 255 136 0 0 0 0 41 64 0 0 0 0 0 0 0 0 0 0 0 0 0 34 255 255 255 255 255 255 255 85 255 255 255 255 255 255 
255 255 255 255 255 255 255 136 238 255 255 255 255 255 255 187 191 19 118 255 255 255 238 112 63 204 255 204 46 0 119 55 0 0 0 68 255 255 255 255 255 255 238 136 255 255 255 255 255 255 
255 255 255 255 255 255 255 255 17 255 255 255 255 255 255 85 255 255 255 255 255 255 255 221 187 255 255 255 255 119 255 255 204 82 187 119 255 255 255 255 255 255 17 255 255 255 255 255 255 255 
255 255 255 255 255 255 255 255 255 68 255 255 255 255 255 34 255 255 255 255 255 153 102 221 255 119 0 0 17 255 255 255 255 255 255 153 255 255 255 255 255 68 255 255 255 255 255 255 255 255 
255 255 255 255 255 255 255 255 255 255 17 255 255 255 255 255 255 255 255 255 255 255 255 255 255 255 255 255 255 255 255 255 255 255 255 238 255 255 255 255 17 255 255 255 255 255 255 255 255 255 
255 255 255 255 255 255 255 255 255 255 255 17 102 255 255 255 255 255 255 255 255 255 255 255 255 255 255 255 255 255 255 255 255 255 255 255 255 255 102 17 255 255 255 255 255 255 255 255 255 255 
255 255 255 255 255 255 255 255 255 255 255 255 204 51 255 255 255 255 255 255 255 255 255 255 255 255 255 255 255 255 255 255 255 255 255 255 255 51 204 255 255 255 255 255 255 255 255 255 255 255 
255 255 255 255 255 255 255 255 255 255 255 255 255 255 17 221 255 255 255 255 255 255 255 255 255 255 255 255 255 255 255 255 255 255 255 221 17 255 255 255 255 255 255 255 255 255 255 255 255 255 
255 255 255 255 255 255 255 255 255 255 255 255 255 255 255 255 119 34 119 255 255 255 255 255 255 255 255 255 255 255 255 255 119 34 119 255 255 255 255 255 255 255 255 255 255 255 255 255 255 255 
255 255 255 255 255 255 255 255 255 255 255 255 255 255 255 255 255 255 255 119 17 119 187 221 255 255 255 221 187 119 17 119 255 255 255 255 255 255 255 255 255 255 255 255 255 255 255 255 255 255 
255 255 255 255 255 255 255 255 255 255 255 255 255 255 255 255 255 255 255 255 255 255 255 255 187 119 187 255 255 255 255 255 255 255 255 255 255 255 255 255 255 255 255 255 255 255 255 255 255 255 
