P2
115 116
255
255 255 255 255 255 255 255 255 255 255 255 255 255 255 255 255 255 255 255 255 255 255 255 255 255 255 255 255 255 255 255 255 255 255 255 255 255 255 255 255 255 255 255 255 255 255 255 255 255 255 255 255 255 255 255 255 255 255 255 255 255 255 255 255 255 255 255 255 255 255 255 255 255 255 255 255 255 255 255 255 255 255 255 255 255 255 255 255 255 255 255 255 255 255 255 255 255 255 255 255 255 255 255 255 255 255 255 255 255 255 255 255 255 255 255 
255 255 255 255 255 255 255 255 255 255 255 255 255 255 255 255 255 255 255 255 255 255 255 255 255 255 255 255 255 255 255 255 255 255 255 255 255 255 255 255 255 255 255 255 255 255 255 255 255 255 255 255 255 255 255 255 255 255 255 255 255 255 255 255 255 255 255 255 255 255 255 255 255 255 255 255 255 255 255 255 255 255 255 255 255 255 255 255 255 255 255 255 255 255 255 255 255 255 255 255 255 255 255 255 255 255 255 255 255 255 255 255 255 255 255 
255 255 255 255 255 255 255 255 255 255 255 255 255 255 255 255 255 255 255 255 255 255 255 255 255 255 255 255 255 255 255 255 255 255 255 255 255 255 255 255 255 255 255 255 255 255 255 255 223 138 138 138 138 138 207 255 255 255 255 255 255 255 238 187 187 187 187 187 187 187 138 138 138 138 138 138 138 120 102 102 102 120 138 102 102 102 102 102 102 102 102 129 138 138 138 138 138 138 150 187 187 187 204 255 255 255 255 255 255 255 255 255 255 255 255 
255 255 255 255 255 255 255 255 255 255 255 255 255 255 255 255 255 255 255 255 255 255 255 255 255 255 255 255 255 255 255 255 255 255 255 255 255 255 255 255 255 255 255 255 255 255 255 255 255 82 0 12 19 14 24 24 30 88 88 92 21 0 0 0 0 0 0 0 0 0 40 64 28 21 10 75 88 88 88 88 88 88 64 119 187 153 119 119 119 119 119 119 80 53 74 102 21 0 0 28 37 37 32 37 37 46 78 79 255 255 255 255 255 255 255 
255 255 255 255 255 255 255 255 255 255 255 255 255 255 255 255 255 255 255 255 255 255 255 255 255 255 255 255 255 255 255 255 255 255 255 255 255 255 255 255 255 255 255 255 255 255 255 255 255 255 150 13 14 96 187 187 187 187 187 187 187 143 73 82 187 82 67 187 187 133 88 113 138 92 64 73 82 58 113 138 57 63 91 38 82 64 64 64 138 138 138 138 138 82 48 88 88 112 119 96 80 67 136 136 88 91 54 45 89 255 255 255 255 255 255 
255 255 255 255 255 255 255 255 255 255 255 255 255 255 255 255 255 255 255 255 255 255 255 255 255 255 255 255 255 255 255 255 255 255 255 255 255 255 255 255 255 255 255 255 255 255 255 255 255 255 255 123 16 28 159 255 255 255 255 255 255 255 238 75 136 255 85 109 255 255 255 255 255 255 238 66 191 73 123 255 175 73 204 80 123 255 255 255 255 255 255 255 255 255 159 112 255 255 255 255 255 74 159 255 255 255 255 109 59 105 255 255 255 255 255 
255 255 255 255 255 255 255 255 255 255 255 255 255 255 255 255 255 255 255 255 255 255 255 255 255 255 255 255 255 255 255 255 255 255 255 255 255 255 255 255 255 255 255 255 255 255 255 255 255 255 21 64 56 0 37 255 255 255 255 255 255 255 255 238 81 148 238 78 159 255 255 255 255 255 255 221 56 207 67 207 255 109 83 238 68 204 255 255 255 255 255 255 255 255 255 104 223 255 255 255 255 187 76 238 255 255 255 238 87 60 255 255 255 255 255 
255 255 255 255 255 255 255 255 255 255 255 255 255 255 255 255 255 255 255 255 255 255 255 255 255 255 255 255 255 255 255 255 255 255 255 255 255 255 255 255 255 255 255 255 255 255 255 255 255 255 58 28 73 0 0 123 255 255 255 255 255 255 255 255 204 93 204 221 82 221 255 255 255 255 255 255 191 66 204 58 255 255 79 187 187 68 255 255 255 255 255 255 255 255 255 238 72 255 255 255 255 255 94 109 255 255 255 255 159 35 150 255 255 255 255 
255 255 255 255 255 255 255 255 255 255 255 255 255 255 255 255 255 255 255 255 255 255 255 255 255 255 255 255 255 255 255 255 255 255 255 255 255 255 255 255 255 255 255 255 255 255 255 255 255 255 68 41 8 0 0 68 64 221 255 255 255 255 255 255 255 204 84 255 175 83 255 255 255 255 255 255 255 149 76 139 105 255 159 74 255 96 109 255 255 255 255 255 255 255 255 255 148 126 255 255 255 255 221 78 221 255 255 255 221 94 81 255 255 255 255 
255 255 255 255 255 255 255 255 255 255 255 255 255 255 255 255 255 255 255 255 255 255 255 255 255 255 255 255 255 255 255 255 255 255 255 255 255 255 255 255 255 255 255 221 255 255 255 255 255 255 72 0 16 0 0 34 0 41 175 255 255 255 255 255 255 255 149 117 255 115 102 255 255 255 255 255 255 255 95 164 81 191 255 67 143 238 51 204 255 255 255 255 255 255 255 255 255 87 255 255 255 255 255 118 82 255 255 255 255 85 84 255 255 255 255 
255 255 255 255 255 255 255 255 255 255 255 255 255 255 255 255 255 255 255 255 255 255 255 255 255 255 255 255 255 255 255 255 255 255 255 255 255 255 255 255 207 192 40 73 163 192 238 177 207 238 64 0 25 14 0 56 0 0 25 136 255 255 255 255 255 255 255 96 159 255 75 175 255 255 255 255 255 255 255 76 204 69 238 221 75 255 159 55 255 255 255 255 255 255 255 255 255 187 98 255 255 255 255 255 72 221 255 255 255 119 66 255 255 255 255 
255 255 255 255 255 255 255 255 255 255 255 255 255 255 255 255 255 255 255 255 255 255 255 255 255 255 255 255 255 255 255 255 255 255 255 255 255 255 255 191 64 16 8 55 40 16 82 11 48 12 23 0 40 0 0 37 0 0 0 41 255 255 255 255 255 255 255 238 80 238 221 89 255 255 255 255 255 255 255 143 85 118 113 255 102 143 255 55 159 255 255 255 255 255 255 255 255 255 87 221 255 255 255 255 133 100 255 255 255 110 49 255 255 255 255 
255 255 255 255 255 255 255 255 255 255 255 255 255 255 255 255 255 255 255 255 255 255 255 255 255 255 255 255 255 255 255 255 255 255 255 255 255 255 72 40 28 0 24 32 17 21 41 29 13 0 0 0 46 0 0 28 0 0 0 0 255 255 255 255 255 255 255 255 143 99 255 89 175 255 255 255 255 255 255 255 54 204 76 238 238 77 255 143 91 255 255 255 255 255 255 255 255 255 153 91 255 255 255 255 238 75 255 255 255 100 49 255 255 255 255 
255 255 255 255 255 255 255 255 255 255 255 255 255 255 255 255 255 255 255 255 255 255 255 255 255 255 255 255 255 255 255 255 255 255 255 255 255 238 7 4 14 0 11 12 0 11 0 0 0 0 0 40 15 0 0 0 0 0 0 0 170 255 255 255 255 255 255 255 255 83 221 221 91 255 255 255 255 255 255 255 159 85 139 100 255 134 134 255 46 221 255 255 255 255 255 255 255 255 255 70 238 255 255 255 255 103 159 255 255 70 63 255 255 255 255 
255 255 255 255 255 255 255 255 255 255 255 255 255 255 255 255 255 255 255 255 255 255 255 255 255 255 255 255 255 255 255 255 255 255 255 255 255 64 11 0 0 0 0 0 0 0 0 0 0 0 0 25 0 0 0 0 0 0 0 0 0 51 221 255 255 255 255 255 255 187 104 255 86 175 255 255 255 255 255 255 255 70 238 52 238 255 75 255 127 109 255 255 255 255 255 255 255 255 255 159 123 255 255 255 255 187 102 255 255 75 77 255 255 255 255 
255 255 255 255 255 255 255 255 255 255 255 255 255 255 255 255 255 255 255 255 255 255 255 255 255 255 255 255 255 255 255 255 255 255 255 255 55 0 0 0 0 0 0 0 0 0 0 0 0 0 0 0 0 0 0 0 0 0 0 0 0 0 72 255 255 255 255 255 255 255 88 221 221 93 255 255 255 255 255 255 255 164 85 134 117 255 119 143 238 41 255 255 255 255 255 255 255 255 255 255 84 255 255 255 255 255 62 221 255 75 47 255 255 255 255 
255 255 255 255 255 255 255 255 255 255 255 255 255 255 255 255 255 255 255 255 255 255 255 255 255 255 255 255 255 255 255 255 255 255 223 92 0 0 0 0 0 0 0 0 0 0 0 0 0 0 0 0 0 0 0 0 0 0 0 0 0 0 0 133 255 255 255 255 255 255 238 102 255 86 159 255 255 255 255 255 255 255 69 255 77 255 238 84 255 88 187 255 255 255 255 255 255 255 255 255 93 255 255 255 255 255 133 123 255 70 50 255 255 255 255 
255 255 255 255 255 255 255 255 255 255 255 255 255 255 255 255 255 255 255 255 255 255 255 255 255 255 255 255 255 255 255 255 255 64 56 23 0 0 0 0 0 0 0 0 0 0 0 0 0 0 0 0 0 0 0 0 0 0 0 0 0 0 0 72 255 255 255 255 255 255 255 83 221 221 80 255 255 255 255 255 255 255 102 148 111 133 255 111 159 187 80 255 255 255 255 255 255 255 255 255 170 125 255 255 255 255 238 75 255 64 50 255 255 255 255 
255 255 255 255 255 255 255 255 255 255 255 255 255 255 255 255 255 255 255 255 255 255 255 255 255 255 255 255 255 255 255 255 191 0 10 0 0 0 0 0 0 0 0 0 0 0 0 0 0 0 0 0 0 0 0 0 0 0 0 0 0 0 41 31 175 255 255 255 255 255 255 170 99 255 70 221 255 255 255 255 255 255 204 80 204 66 255 204 84 255 31 255 255 255 255 255 255 255 255 255 238 87 255 255 255 255 255 86 255 64 50 255 255 255 255 
255 255 255 255 255 255 255 255 255 255 255 255 255 255 255 255 255 255 255 255 255 255 255 255 255 255 255 255 255 255 255 255 82 0 0 0 0 0 0 0 0 0 0 0 0 0 0 0 0 0 0 0 0 0 0 0 0 0 0 0 0 15 25 0 14 123 255 255 255 255 255 255 66 238 133 109 255 255 255 255 255 255 255 68 238 70 238 255 83 238 80 187 255 255 255 255 255 255 255 255 255 90 255 255 255 255 255 74 187 64 50 255 255 255 255 
255 255 255 255 255 255 255 255 255 255 255 255 255 255 255 255 255 255 255 255 255 255 255 255 255 255 255 255 255 255 255 255 41 0 0 0 0 0 23 48 31 25 13 23 0 0 0 0 0 0 0 0 0 0 0 0 0 0 0 0 0 0 0 0 0 46 255 255 255 255 255 255 103 148 238 78 255 255 255 255 255 255 255 79 170 125 148 255 109 133 133 113 255 255 255 255 255 255 255 255 255 133 204 255 255 255 255 124 138 82 50 255 255 255 255 
255 255 255 255 255 255 255 255 255 255 255 255 255 255 255 255 255 255 255 255 255 255 255 255 255 255 255 255 255 255 255 255 24 0 0 0 62 100 175 238 255 204 204 191 148 143 72 34 0 13 0 0 0 0 0 0 0 0 0 0 0 0 0 0 0 50 204 255 255 255 255 255 204 83 255 91 204 255 255 255 255 255 255 159 102 136 85 255 187 91 221 46 255 255 255 255 255 255 255 255 255 187 98 255 255 255 255 170 90 138 50 255 255 255 255 
255 255 255 255 255 255 255 255 255 255 255 255 255 255 255 255 255 255 255 255 255 255 255 255 255 255 255 255 255 255 255 255 41 0 0 0 187 255 255 255 255 255 255 255 255 255 255 238 170 159 80 51 73 57 0 0 0 0 0 0 0 0 0 0 0 34 136 255 255 255 255 255 255 59 255 143 91 255 255 255 255 255 255 238 84 221 74 255 255 72 238 46 238 255 255 255 255 255 255 255 255 255 69 255 255 255 255 221 78 138 50 255 255 255 255 
255 255 255 255 255 255 255 255 255 255 255 255 255 255 255 255 255 255 255 255 255 255 255 255 255 255 255 255 255 255 255 255 55 0 0 0 187 255 255 255 255 255 255 255 255 255 255 255 255 255 255 255 255 159 41 0 0 0 0 0 0 0 0 0 0 0 118 255 255 255 255 255 255 80 207 255 80 255 255 255 255 255 255 255 73 221 50 255 255 73 175 88 159 255 255 255 255 255 255 255 255 255 72 255 255 255 255 255 72 138 50 255 255 255 255 
255 255 255 255 255 255 255 255 255 255 255 255 255 255 255 255 255 255 255 255 255 255 255 255 255 255 255 255 255 255 255 255 91 0 0 0 187 255 255 255 255 255 255 255 255 255 255 255 255 255 255 255 255 255 127 48 0 0 0 0 0 0 0 0 0 0 82 255 255 255 255 255 255 163 95 255 81 170 255 255 255 255 255 255 94 143 80 163 255 113 88 187 102 255 255 255 255 255 255 255 255 255 117 255 255 255 255 255 60 138 50 255 255 255 255 
255 255 255 255 255 255 255 255 255 255 255 255 255 255 255 255 255 255 255 255 255 255 255 255 255 255 255 255 177 55 164 255 113 0 0 0 143 255 255 255 255 255 255 255 255 255 255 255 255 255 255 255 255 255 255 127 64 0 0 0 0 0 0 0 0 0 28 221 255 255 255 255 255 255 73 255 159 85 255 255 255 255 255 255 133 91 153 100 255 170 94 187 46 255 255 255 255 255 255 255 255 255 105 255 255 255 255 255 99 138 50 255 255 255 255 
255 255 255 255 255 255 255 255 255 255 255 255 255 255 255 255 255 255 255 255 255 255 255 255 255 255 255 255 125 16 0 92 187 0 0 0 88 255 255 255 255 255 255 255 255 255 255 255 255 255 255 255 255 255 255 255 119 68 0 0 0 0 0 0 0 0 23 96 255 255 255 255 255 255 62 255 255 78 255 255 255 255 255 255 187 73 221 92 255 187 34 187 37 255 255 255 255 255 255 255 255 255 100 255 255 255 255 255 63 88 41 255 255 255 255 
255 255 255 255 255 255 255 255 255 255 255 255 255 255 255 255 255 255 255 255 255 255 255 255 255 255 255 255 113 32 0 92 187 34 0 0 113 255 255 255 255 255 255 255 255 255 255 255 255 255 255 255 255 255 255 255 238 118 17 0 0 0 0 0 0 0 15 69 221 255 255 255 255 255 67 238 255 66 255 255 255 255 255 255 187 88 255 96 255 187 75 221 46 255 255 255 255 255 255 255 255 255 138 255 255 255 255 255 76 88 32 255 255 255 255 
255 255 255 255 255 255 255 255 255 255 255 255 255 255 255 255 255 255 255 255 255 255 255 255 255 255 255 255 150 0 0 37 104 28 0 0 138 255 255 255 255 255 255 255 255 255 255 255 255 255 255 255 255 255 255 255 255 238 73 0 0 0 0 0 0 0 0 41 96 255 255 255 255 255 111 136 255 65 221 255 255 255 255 255 238 63 221 75 255 238 70 255 88 255 255 255 255 255 255 255 255 255 88 255 255 255 255 255 73 88 32 255 255 255 255 
255 255 255 255 255 255 255 255 255 255 255 255 255 255 255 255 255 255 255 255 255 255 255 255 255 255 255 255 255 28 0 0 19 55 0 0 113 255 255 255 255 255 255 255 255 255 255 255 255 255 255 255 255 255 255 255 255 255 204 50 0 0 0 0 0 0 0 46 54 221 255 255 255 255 170 92 255 138 138 255 255 255 255 255 255 46 187 65 255 255 77 255 88 255 255 255 255 255 255 255 255 255 88 221 255 255 255 255 80 88 21 255 255 255 255 
255 255 255 255 255 255 255 255 255 255 255 255 255 255 255 255 255 255 255 255 255 255 255 255 255 255 255 255 255 82 0 0 0 46 0 0 88 255 255 255 255 255 255 255 255 255 255 255 255 255 255 255 255 255 255 255 255 255 255 113 0 0 0 0 0 0 0 0 41 175 255 255 255 255 221 102 255 119 102 255 255 255 255 255 255 61 187 66 255 255 67 255 37 187 255 255 255 255 255 255 255 255 138 187 255 255 255 204 96 133 0 255 255 255 255 
255 255 255 255 255 255 255 255 255 255 255 255 255 255 255 255 255 255 255 255 255 255 255 255 255 255 255 255 255 175 0 0 0 0 0 0 109 255 255 255 255 255 255 255 255 255 255 255 255 255 255 255 255 255 255 255 255 255 255 153 34 0 0 0 0 0 31 0 32 138 255 255 255 255 255 116 255 187 82 255 255 255 255 255 255 104 187 105 255 255 72 255 37 187 255 255 255 255 255 255 255 255 100 187 255 255 255 187 89 187 0 255 255 255 255 
255 255 255 255 255 255 255 255 255 255 255 255 255 255 255 255 255 255 255 255 255 255 255 255 255 255 255 255 255 48 0 0 0 0 0 11 221 255 255 255 255 255 255 255 255 255 255 255 255 255 255 255 255 255 255 255 255 255 255 221 100 0 0 0 0 0 56 0 23 138 255 255 255 255 255 117 255 204 82 255 255 255 255 255 255 99 187 141 255 255 73 255 73 187 255 255 255 255 255 255 255 255 100 221 255 255 255 125 150 187 10 238 255 255 255 
255 255 255 255 255 255 255 255 255 255 255 255 255 255 255 255 255 255 255 255 255 255 255 255 255 255 255 255 255 64 0 0 0 0 0 82 255 255 255 255 255 255 255 255 255 255 255 255 255 255 255 255 255 255 255 255 255 255 255 255 133 0 0 0 0 0 32 0 32 175 255 255 255 255 255 117 255 238 96 255 255 255 255 255 255 49 136 123 255 187 111 255 73 187 255 255 255 255 255 255 255 255 113 255 255 255 255 55 221 187 50 187 255 255 255 
255 255 255 255 255 255 255 255 255 255 255 255 255 255 255 255 255 255 255 255 221 255 255 255 255 223 164 255 255 55 0 0 0 0 0 80 138 125 113 207 255 255 255 255 255 255 255 255 255 255 255 255 255 255 255 255 255 255 255 255 153 17 0 0 0 0 38 0 19 221 255 255 255 255 255 117 255 187 102 255 255 255 255 255 255 51 119 129 255 153 118 255 64 238 255 255 255 255 255 255 255 255 67 255 255 255 255 57 255 187 46 187 255 255 255 
255 255 255 255 255 255 255 255 255 255 255 255 255 255 255 255 255 255 255 82 21 238 255 255 175 72 15 221 221 23 0 0 0 0 0 0 0 0 0 13 55 82 133 238 255 255 255 255 255 255 255 255 255 255 255 255 255 255 255 255 153 68 0 0 0 0 0 0 64 255 255 255 255 255 255 117 255 187 73 255 255 255 255 255 255 70 153 100 255 159 187 255 23 255 255 255 255 255 255 255 255 255 86 255 255 255 204 90 255 187 32 187 255 255 255 
255 255 255 255 255 255 255 255 255 255 255 255 255 255 255 255 255 255 177 11 21 163 255 255 56 21 41 187 125 0 0 0 16 72 82 118 187 187 153 123 88 64 0 62 102 143 133 118 255 255 255 255 255 255 255 255 255 255 255 255 221 63 0 0 0 0 0 21 207 255 255 255 255 255 255 117 255 187 82 255 255 255 255 255 204 69 129 159 255 95 221 238 55 255 255 255 255 255 255 255 255 204 98 255 255 255 102 136 255 187 23 138 255 255 255 
255 255 255 255 255 255 255 255 255 255 255 255 255 255 255 255 255 255 82 0 48 37 207 238 23 0 13 104 14 0 0 0 88 255 255 255 255 255 255 255 255 255 133 68 0 0 0 0 100 255 255 255 255 255 255 255 255 255 255 255 255 82 0 0 0 0 0 56 255 255 255 255 255 255 255 117 255 119 91 255 255 255 255 255 187 91 78 238 255 77 255 187 55 255 255 255 255 255 255 255 255 123 207 255 255 255 66 221 255 187 19 138 255 255 255 
255 255 255 255 255 255 255 255 255 255 255 255 255 255 255 255 255 255 72 16 0 10 255 113 0 0 14 0 0 0 0 73 255 255 255 255 255 255 255 255 255 255 255 221 102 32 25 0 46 255 255 255 255 255 255 255 255 255 255 255 255 73 0 0 0 0 0 40 221 255 255 255 255 255 255 84 255 95 138 255 255 255 255 255 187 113 79 255 238 78 255 136 91 255 255 255 255 255 255 255 255 87 255 255 255 221 91 255 255 187 19 138 255 255 255 
255 255 255 255 255 255 255 255 255 255 255 255 255 255 255 255 255 255 64 41 0 31 100 14 0 0 0 0 0 0 64 255 255 255 255 255 255 255 255 255 255 255 255 255 255 255 221 100 46 255 255 255 255 255 255 255 255 255 255 255 255 125 0 0 0 0 0 19 187 255 255 255 255 255 221 110 255 102 221 255 255 255 255 255 96 153 95 255 143 125 255 127 100 255 255 255 255 255 255 255 238 62 255 255 255 111 143 255 255 187 23 88 255 255 255 
255 255 255 255 255 255 255 255 255 255 255 255 255 255 255 255 255 207 25 0 0 0 0 0 0 0 0 0 13 82 255 255 255 255 255 82 91 88 55 72 148 255 255 255 255 255 255 255 255 255 255 255 255 255 255 255 255 255 255 255 255 118 0 0 0 0 0 28 187 255 255 255 255 255 187 100 255 66 255 255 255 255 255 255 68 133 143 255 87 204 255 91 175 255 255 255 255 255 255 255 143 85 255 255 255 78 255 255 255 187 37 88 255 255 255 
255 255 255 255 255 255 255 255 255 255 255 255 255 255 255 255 238 59 16 0 0 0 0 0 0 0 0 48 191 255 255 255 255 191 72 0 0 21 0 0 12 27 107 255 255 255 255 255 255 255 255 255 255 255 255 255 255 255 255 255 255 187 0 0 0 0 25 54 221 255 255 255 255 255 96 133 255 80 255 255 255 255 255 238 91 83 221 255 81 255 255 51 221 255 255 255 255 255 255 255 85 187 255 255 175 134 255 255 255 187 37 88 255 255 255 
255 255 255 255 255 255 255 255 255 255 255 255 255 255 255 255 68 28 0 0 0 0 0 0 46 125 238 255 255 255 255 221 123 21 23 72 143 223 118 72 13 56 21 114 255 255 255 255 255 255 255 255 255 255 255 255 207 51 109 238 255 204 38 0 0 0 56 91 255 255 255 255 255 255 80 187 204 86 255 255 255 255 255 143 133 84 255 204 90 255 187 72 255 255 255 255 255 255 255 255 72 255 255 255 95 238 255 255 255 187 88 91 255 255 255 
255 255 255 255 255 255 255 255 255 255 255 255 255 255 255 82 14 0 0 0 0 0 0 73 238 255 255 255 255 255 255 64 0 55 175 223 28 12 68 153 109 17 223 41 207 255 255 255 255 255 255 255 255 255 255 238 41 0 0 51 82 204 41 0 0 0 65 238 255 255 255 255 255 255 83 204 118 123 255 255 255 255 255 83 187 100 255 123 159 255 143 123 255 255 255 255 255 255 255 204 105 255 255 221 119 255 255 255 255 187 88 77 255 255 255 
255 255 255 255 255 255 255 255 255 255 255 255 238 118 19 0 0 0 0 0 41 31 113 238 255 255 255 255 255 255 255 136 37 100 255 80 0 0 23 62 255 164 255 138 82 255 255 255 255 255 255 255 255 255 255 221 125 138 82 55 15 34 40 0 0 0 113 255 255 255 255 255 255 255 75 255 84 204 255 255 255 255 255 81 159 118 255 83 238 255 88 238 255 255 255 255 255 255 255 112 221 255 255 95 221 255 255 255 255 187 88 65 255 255 255 
255 255 255 255 255 255 255 255 255 255 255 148 19 17 0 0 0 0 25 123 255 255 255 255 255 255 255 255 255 255 255 255 221 60 223 88 0 38 0 37 255 80 100 138 55 238 255 255 255 255 255 255 255 255 255 255 255 255 255 255 170 68 15 0 0 0 72 238 255 255 255 255 255 204 87 255 75 255 255 255 255 255 204 93 88 204 255 77 255 255 96 255 255 255 255 255 255 255 255 79 255 255 255 94 255 255 255 255 255 187 88 65 255 255 255 
255 255 255 255 255 255 255 255 255 255 255 255 125 34 0 0 16 82 175 255 255 255 255 255 255 255 255 255 255 255 255 255 123 191 40 45 0 30 0 102 255 88 88 56 0 100 255 255 255 255 255 255 255 207 255 255 255 255 255 255 255 175 25 16 0 0 0 123 255 255 255 255 255 170 133 221 87 255 255 255 255 255 102 143 78 255 170 107 255 159 148 255 255 255 255 255 255 255 204 120 255 255 130 170 255 255 255 255 255 187 88 65 255 255 255 
255 255 255 255 255 255 255 255 255 255 255 255 238 41 0 100 143 255 255 255 255 255 255 255 255 255 255 255 255 255 255 255 221 238 177 238 92 80 125 164 159 48 64 48 0 82 163 163 255 255 255 255 221 64 177 255 238 238 255 255 255 255 92 37 82 0 0 138 255 255 255 255 255 80 221 143 118 255 255 255 255 255 78 238 83 255 96 204 255 96 255 255 255 255 255 255 255 255 101 255 255 255 91 255 255 255 255 255 255 187 88 65 255 255 255 
255 255 255 255 255 255 255 255 255 255 255 255 72 0 92 204 255 255 255 255 255 255 255 255 255 255 255 255 255 255 255 255 255 255 255 255 255 255 255 255 191 8 11 150 40 14 12 32 255 255 255 255 175 24 73 64 15 40 68 255 255 255 73 46 113 0 0 163 255 255 255 255 255 84 255 83 204 255 255 255 255 238 83 187 123 255 82 255 238 96 255 255 255 255 255 255 255 238 91 255 255 204 112 255 255 255 255 255 255 187 88 77 255 255 255 
255 255 255 255 255 255 255 255 255 255 221 136 0 73 238 255 255 255 255 255 255 255 255 255 255 255 255 255 255 255 255 255 255 255 255 255 255 255 255 255 255 221 221 255 255 92 0 82 255 255 255 255 191 34 28 28 28 38 30 125 255 255 55 0 55 0 41 221 255 255 255 255 238 109 255 87 255 255 255 255 255 187 113 88 204 221 78 255 153 204 255 255 255 255 255 255 255 135 191 255 255 81 170 255 255 255 255 255 255 187 88 88 255 255 255 
255 255 255 255 255 255 255 255 255 192 40 25 17 143 255 255 255 255 255 255 255 255 255 255 255 255 255 255 255 255 255 255 255 255 255 255 255 255 255 255 255 255 255 255 255 72 102 255 255 255 255 255 255 40 221 138 221 104 15 28 125 238 34 0 0 0 102 255 255 255 255 255 138 159 238 100 255 255 255 255 255 114 170 80 255 133 143 255 68 255 255 255 255 255 255 255 255 102 255 255 255 80 255 255 255 255 255 255 255 187 88 88 255 255 255 
255 255 255 255 255 255 255 255 255 82 10 0 72 238 255 255 255 255 255 255 255 255 255 255 255 255 255 255 255 255 255 255 255 255 255 255 255 255 255 255 255 255 255 255 255 255 255 255 255 255 255 255 255 192 21 0 12 56 92 0 41 133 0 0 0 46 238 255 255 255 255 255 81 238 170 133 255 255 255 255 255 89 221 84 255 89 238 221 102 255 255 255 255 255 255 255 221 86 255 255 207 82 255 255 255 255 255 255 255 187 88 80 255 255 255 
255 255 255 255 255 255 255 255 255 28 0 0 113 255 255 255 255 255 255 255 255 255 255 255 255 255 255 255 255 255 255 255 255 255 255 255 255 255 255 255 255 255 255 255 255 255 255 255 255 255 255 255 255 255 113 0 0 0 88 0 72 82 0 72 30 82 255 255 255 255 255 255 88 255 88 221 255 255 255 255 255 95 204 114 255 80 255 112 170 255 255 255 255 255 255 255 104 170 255 255 125 96 255 255 255 255 255 255 255 159 88 88 255 255 255 
255 255 255 255 255 255 255 255 238 0 0 0 143 255 255 255 255 255 255 255 255 255 255 255 255 255 255 255 255 255 255 255 255 255 255 255 255 255 255 255 255 255 255 255 255 255 255 255 175 255 255 255 255 255 255 64 0 24 88 0 53 31 0 55 28 102 255 255 255 255 255 221 126 255 91 255 255 255 255 255 204 114 109 143 204 81 255 74 255 255 255 255 255 255 255 255 84 238 255 255 82 136 255 255 255 255 255 255 255 88 88 88 255 255 255 
255 255 255 255 255 255 255 255 238 0 40 0 82 255 255 255 255 255 255 255 255 255 255 255 255 255 255 255 255 255 255 255 255 255 255 255 255 255 255 255 255 255 255 255 255 255 255 102 0 17 221 255 255 255 255 191 28 164 56 21 101 0 0 0 0 96 255 255 255 255 255 107 187 255 93 255 255 255 255 255 109 127 98 187 109 109 255 88 255 255 255 255 255 255 255 204 69 255 255 255 82 187 255 255 255 255 255 255 255 88 51 88 255 255 255 
255 255 255 255 255 255 255 255 255 64 82 46 32 136 255 255 255 255 255 255 255 255 255 255 255 255 255 255 255 255 255 255 255 255 255 255 255 255 255 255 255 255 255 255 255 238 56 0 0 0 221 255 255 255 255 255 23 56 14 175 82 0 0 0 55 204 255 255 255 255 255 91 238 187 82 255 255 255 255 255 61 187 77 255 102 187 255 88 255 255 255 255 255 255 255 163 102 255 255 255 121 187 255 255 255 255 255 255 255 187 37 88 255 255 255 
255 255 255 255 255 255 255 255 255 102 68 112 34 73 238 255 255 255 255 255 255 255 255 255 255 255 255 255 255 255 255 255 255 255 255 255 255 255 255 255 255 255 255 255 223 21 72 133 55 32 221 255 255 255 255 255 100 255 238 238 31 0 0 0 82 255 255 255 255 255 255 61 255 187 125 255 255 255 255 255 94 187 84 255 64 187 255 88 255 255 255 255 255 255 255 100 119 255 255 255 82 187 255 255 255 255 255 255 255 187 37 88 255 255 255 
255 255 255 255 255 255 255 255 255 255 24 76 159 15 123 255 255 255 255 255 255 255 255 255 255 255 255 255 255 255 255 255 255 255 255 255 255 255 255 255 255 255 255 223 24 82 255 255 207 100 113 238 255 255 255 255 255 255 255 133 0 0 0 0 82 255 255 255 255 255 255 65 255 187 88 255 255 255 255 255 88 153 105 255 100 187 255 80 255 255 255 255 255 255 255 82 170 255 255 255 125 175 255 255 255 255 255 255 255 187 0 88 255 255 255 
255 255 255 255 255 255 255 255 255 255 72 43 123 91 34 221 255 255 255 255 255 255 255 255 255 255 255 255 255 255 255 255 255 255 255 255 255 255 255 255 255 255 255 138 37 255 255 91 0 13 46 55 255 255 204 56 255 255 255 127 0 0 0 0 125 255 255 255 255 255 255 96 255 187 113 255 255 255 255 255 114 136 92 255 64 187 255 64 255 255 255 255 255 255 255 73 187 255 255 255 204 138 255 255 255 255 255 255 255 187 0 88 255 255 255 
255 255 255 255 255 255 255 255 255 177 207 28 32 74 48 73 255 255 255 255 255 255 255 255 255 255 255 255 255 255 255 255 255 255 255 255 255 255 255 255 255 255 255 150 32 255 207 0 0 64 238 191 255 177 46 64 255 255 255 187 64 0 0 0 88 255 255 255 255 255 255 76 255 170 100 255 255 255 255 255 76 170 104 221 91 187 255 64 255 255 255 255 255 255 255 113 119 255 255 255 255 95 255 255 255 255 255 255 255 187 37 88 255 255 255 
255 255 255 255 255 255 255 255 255 175 40 55 0 38 55 25 204 255 255 255 255 255 255 255 255 255 255 255 255 255 255 255 255 255 255 255 255 255 255 255 255 255 255 255 207 255 255 191 125 255 255 255 64 8 40 72 255 255 255 187 100 0 0 0 163 255 255 255 255 255 255 78 255 238 114 255 255 255 255 255 91 96 126 187 109 100 255 55 255 255 255 255 255 255 255 136 102 255 255 255 255 77 187 255 255 255 255 255 255 187 55 88 255 255 255 
255 255 255 255 255 255 255 255 255 255 46 23 55 0 0 0 109 255 255 255 255 255 255 255 255 255 255 255 255 255 255 255 255 255 255 255 255 255 255 255 255 255 255 255 255 255 255 255 255 255 255 150 82 56 38 113 255 255 255 255 138 0 0 0 153 255 255 255 255 255 255 107 170 255 71 255 255 255 255 255 204 106 204 91 221 67 255 73 187 255 255 255 255 255 255 238 82 255 255 255 255 204 85 255 255 255 255 255 255 187 48 88 255 255 255 
255 255 255 255 255 255 255 255 255 255 143 11 32 0 0 0 82 255 255 255 255 255 255 255 255 255 255 255 255 255 255 255 255 255 255 255 255 255 255 255 255 255 255 255 255 255 255 255 255 255 255 255 255 19 138 255 255 255 255 255 64 0 0 0 159 255 255 255 255 255 255 175 133 255 81 143 255 255 255 255 255 81 238 93 238 92 143 82 127 255 255 255 255 255 255 255 87 255 255 255 255 255 66 221 255 255 255 255 255 187 32 138 255 255 255 
255 255 255 255 255 255 255 255 255 255 175 8 8 30 0 0 62 255 255 255 255 255 255 255 255 255 255 255 255 255 255 255 255 255 255 255 255 255 255 255 255 255 255 255 255 255 255 255 255 255 255 255 255 125 255 255 255 255 255 255 91 0 0 0 72 255 255 255 255 255 255 255 84 238 221 78 238 255 255 255 255 139 102 106 148 143 80 187 75 255 255 255 255 255 255 255 94 175 255 255 255 255 133 91 255 255 255 255 255 187 32 138 255 255 255 
255 255 255 255 255 255 255 255 255 255 80 82 0 21 0 0 32 255 255 255 255 255 255 255 255 255 255 255 255 255 255 255 255 255 255 255 255 255 255 255 255 255 255 223 73 40 50 64 113 221 255 255 255 138 255 255 255 255 255 255 82 0 0 0 38 187 255 255 255 255 255 255 164 114 255 94 109 255 255 255 255 255 66 204 76 255 66 221 55 238 255 255 255 255 255 255 221 77 255 255 255 255 255 65 221 255 255 255 255 187 41 138 255 255 255 
255 255 255 255 255 255 255 255 255 255 64 163 0 0 0 0 32 255 255 255 255 255 255 255 255 255 255 255 255 255 255 255 255 255 255 255 255 255 255 255 255 238 73 44 73 138 113 73 30 44 48 82 163 164 255 255 255 255 255 221 63 0 0 0 0 64 238 255 255 255 255 255 255 99 175 238 70 238 255 255 255 255 175 89 77 148 100 109 175 112 255 255 255 255 255 255 255 96 175 255 255 255 255 118 100 255 255 255 255 187 0 175 255 255 255 
255 255 255 255 255 255 255 255 255 255 63 238 12 0 0 0 41 255 255 255 255 255 255 255 255 255 255 255 255 255 255 255 255 255 255 255 255 255 255 255 238 55 38 96 82 73 91 187 112 42 16 46 40 80 255 255 255 255 255 112 0 0 0 0 0 0 82 238 255 255 255 255 255 238 88 238 133 100 255 255 255 255 255 68 175 71 221 66 255 64 238 255 255 255 255 255 255 187 72 255 255 255 255 238 73 238 255 255 255 187 0 187 255 255 255 
255 255 255 255 255 255 255 255 255 204 46 255 41 0 0 0 88 255 255 255 255 255 255 255 255 255 255 255 255 255 255 255 255 255 255 255 255 255 255 223 64 59 77 100 100 125 91 62 14 0 0 31 170 48 255 255 255 255 238 102 0 0 0 0 38 64 0 82 255 255 255 255 255 255 134 115 255 66 204 255 255 255 255 221 102 72 159 76 175 153 96 255 255 255 255 255 255 255 77 187 255 255 255 255 94 133 255 255 255 187 0 187 255 255 255 
255 255 255 255 255 255 255 255 255 187 48 255 37 0 0 0 82 255 255 255 255 255 255 255 255 255 255 255 255 255 255 255 255 255 255 255 255 255 191 39 48 102 187 238 255 255 255 255 204 91 55 0 91 41 238 255 255 255 136 64 0 0 0 0 0 74 91 0 113 255 255 255 255 255 255 59 221 159 77 255 255 255 255 255 81 127 86 133 69 255 38 221 255 255 255 255 255 255 175 73 255 255 255 255 221 68 255 255 255 187 0 221 255 255 255 
255 255 255 255 255 255 255 255 255 175 82 109 50 0 0 0 148 255 255 255 255 255 255 255 255 255 255 255 255 255 255 255 255 255 255 255 255 177 34 0 0 72 34 64 64 91 170 127 238 255 204 38 64 48 221 255 255 255 92 0 0 0 0 0 0 91 187 57 23 221 255 255 255 255 255 170 85 255 65 255 255 255 255 255 221 122 65 221 70 255 143 72 255 255 255 255 255 255 255 89 204 255 255 255 255 62 221 255 255 187 0 255 255 255 255 
255 255 255 255 255 255 255 255 255 72 80 14 0 0 0 41 255 255 255 255 255 255 255 255 255 255 255 255 255 255 255 255 255 255 255 255 164 12 0 0 0 0 0 0 0 0 0 16 91 159 221 38 82 48 255 255 255 143 15 0 0 0 0 0 0 16 118 118 0 72 255 255 255 255 255 238 64 238 71 163 255 255 255 255 255 76 85 187 91 143 255 46 255 255 255 255 255 255 255 143 89 255 255 255 255 159 113 255 255 187 0 238 255 255 255 
255 255 255 255 255 255 255 255 255 32 62 0 0 0 0 100 255 255 255 255 255 255 255 255 255 255 255 255 255 255 255 255 255 255 255 136 12 0 0 0 0 0 0 0 0 0 0 0 0 0 48 0 100 40 255 255 238 62 0 0 0 0 0 0 0 0 41 170 74 46 255 255 255 255 255 255 83 163 170 86 255 255 255 255 255 74 159 150 170 94 255 133 150 255 255 255 255 255 255 255 74 255 255 255 255 153 85 255 255 187 0 187 255 255 255 
255 255 255 255 255 255 255 255 133 64 0 0 0 0 51 238 255 255 255 255 255 255 255 255 255 255 255 255 255 255 255 255 255 255 114 14 0 0 0 0 0 0 0 0 0 0 0 0 0 0 0 31 88 113 255 255 91 0 0 0 0 0 0 0 0 0 0 72 91 14 204 255 255 255 255 255 118 125 136 101 255 255 255 255 255 80 118 138 187 97 255 187 64 255 255 255 255 255 255 255 104 187 255 255 255 204 91 255 255 187 0 187 255 255 255 
255 255 255 255 255 255 255 255 32 48 0 0 0 15 143 255 255 255 255 255 255 255 255 255 255 255 255 255 255 255 255 255 255 177 0 0 0 0 0 0 0 0 0 0 0 0 0 0 0 0 0 163 24 255 255 133 15 0 0 0 0 0 0 0 0 0 0 13 56 0 133 255 255 255 255 255 170 88 136 70 255 255 255 255 255 91 125 138 255 84 255 221 46 255 255 255 255 255 255 255 187 112 255 255 255 255 79 255 255 187 30 187 255 255 255 
255 255 255 255 255 255 255 191 57 23 0 0 0 82 255 255 255 255 255 255 255 255 255 255 255 255 255 255 255 255 255 255 255 138 0 0 0 0 0 0 0 0 0 0 0 0 0 0 0 0 56 91 136 255 204 50 0 0 0 0 0 0 0 0 0 0 0 0 12 0 123 255 255 255 255 255 127 125 187 71 255 255 255 255 255 113 55 113 255 69 255 255 62 221 255 255 255 255 255 255 204 111 255 255 255 255 83 187 255 187 50 187 255 255 255 
255 255 255 255 255 255 255 68 80 0 0 0 64 96 255 255 255 255 255 255 255 255 255 255 255 255 255 255 255 255 255 255 255 100 0 0 0 0 0 0 0 0 0 0 0 0 0 0 0 28 125 64 255 255 73 0 0 0 0 0 0 0 0 0 0 0 0 0 0 11 238 255 255 255 255 255 106 133 187 92 255 255 255 255 255 143 35 170 255 78 255 255 88 109 255 255 255 255 255 255 255 92 255 255 255 255 113 187 255 187 37 138 255 255 255 
255 255 255 255 255 255 255 57 37 0 0 34 106 156 238 255 255 255 255 255 255 255 255 255 255 255 255 255 255 255 255 255 255 88 0 0 0 0 0 0 0 0 0 0 0 0 0 0 31 163 28 238 255 100 0 0 0 0 0 0 0 0 0 0 0 0 0 0 0 46 255 255 255 255 255 255 62 238 143 113 255 255 255 255 255 100 46 238 238 73 255 255 82 187 255 255 255 255 255 255 255 106 255 255 255 255 118 187 255 187 32 138 255 255 255 
255 255 255 255 255 255 136 88 0 0 0 28 70 121 194 255 255 255 255 255 255 255 255 255 255 255 255 255 255 255 255 255 255 138 0 0 0 0 0 0 0 0 0 0 0 0 0 34 175 28 223 255 175 28 0 0 0 0 0 0 0 0 0 0 0 0 0 0 0 125 255 255 255 255 255 238 73 255 62 207 255 255 255 255 255 73 55 255 187 117 255 255 55 255 255 255 255 255 255 255 255 75 255 255 255 255 91 187 255 187 40 138 255 255 255 
255 255 255 255 255 255 88 55 0 0 32 57 28 177 138 223 255 255 255 255 255 255 255 255 255 255 255 255 255 255 255 255 255 221 0 0 0 0 0 0 0 0 0 0 0 0 14 175 40 164 255 238 46 0 0 0 0 0 0 0 0 0 0 0 0 0 0 0 37 255 255 255 255 255 255 118 113 221 75 255 255 255 255 255 204 55 91 255 127 123 255 255 57 255 255 255 255 255 255 255 255 96 255 255 255 255 83 187 255 187 64 138 255 255 255 
255 255 255 255 255 238 57 12 0 0 48 49 59 127 192 138 255 255 255 255 255 255 255 255 255 255 255 255 255 255 255 255 255 223 21 0 0 0 0 0 0 0 0 0 0 0 100 72 150 255 255 82 0 0 0 0 0 0 0 0 0 0 0 0 0 0 0 0 100 255 255 255 255 255 255 77 238 127 105 255 255 255 255 255 133 15 159 255 85 187 255 187 80 255 255 255 255 255 255 255 238 101 255 255 255 255 69 255 255 187 64 100 255 255 255 
255 255 255 255 255 123 32 0 0 42 61 39 33 38 255 149 255 255 255 255 255 255 255 255 255 255 255 255 255 255 255 255 255 138 70 45 0 0 0 0 0 0 0 0 0 37 125 55 255 255 133 16 0 0 0 0 0 0 0 0 0 0 0 0 0 0 0 41 221 255 255 255 255 255 134 102 255 65 221 255 255 255 255 255 73 64 255 238 76 255 255 104 148 255 255 255 255 255 255 255 187 95 255 255 255 204 83 255 255 187 37 77 255 255 255 
255 255 255 255 255 46 19 0 0 70 95 64 41 48 153 45 164 255 255 255 255 255 255 255 255 255 255 255 255 255 255 255 255 180 86 68 25 0 0 0 0 0 0 0 15 159 72 187 255 204 34 0 0 0 0 0 0 0 0 0 0 0 0 0 0 0 15 163 255 255 255 255 255 238 95 255 143 90 255 255 255 255 255 143 14 133 255 118 125 255 255 50 221 255 255 255 255 255 255 255 118 148 255 255 255 153 96 255 255 187 37 65 255 255 255 
255 255 255 255 238 6 0 0 50 63 103 54 47 0 37 0 138 123 255 255 255 255 255 255 255 255 255 255 255 255 255 255 255 169 207 82 73 0 0 0 0 0 0 0 62 255 38 255 238 82 0 0 0 0 0 0 0 0 0 0 0 0 0 0 0 0 64 255 255 255 255 255 255 96 175 255 86 238 255 255 255 255 255 66 64 255 255 75 238 255 153 82 255 255 255 255 255 255 255 255 99 255 255 255 255 116 136 255 255 187 37 65 255 255 255 
255 255 255 255 138 23 0 0 60 84 83 54 55 14 0 37 100 88 255 255 255 255 255 255 255 255 255 255 255 255 255 255 255 100 123 63 96 32 0 0 0 0 0 0 91 221 123 255 100 0 0 0 0 0 0 0 0 0 0 0 0 0 0 0 0 46 238 255 255 255 255 255 204 116 255 149 102 255 255 255 255 255 159 44 133 255 143 98 255 255 63 238 255 255 255 255 255 255 255 221 80 255 255 255 255 66 255 255 255 187 64 99 255 255 255 
255 255 255 255 72 17 0 0 45 57 66 83 56 35 0 41 124 48 187 255 255 255 255 255 255 255 255 255 255 255 255 255 255 163 48 125 64 55 0 0 0 0 0 0 163 255 255 221 21 0 0 0 0 0 0 0 0 0 0 0 0 0 0 0 14 175 255 255 255 255 255 255 95 238 255 87 238 255 255 255 255 255 80 63 238 255 93 238 255 187 96 255 255 255 255 255 255 255 255 110 204 255 255 255 204 87 255 255 255 187 64 97 255 255 255 
255 255 255 255 56 24 0 28 51 78 94 59 28 51 0 0 56 167 169 255 255 255 255 255 255 255 255 255 255 255 255 255 255 255 12 221 64 96 72 0 0 0 0 11 255 221 255 72 0 0 0 0 0 0 0 0 0 0 0 0 0 0 0 0 113 255 255 255 255 255 255 103 159 255 145 148 255 255 255 255 255 119 63 106 255 187 84 255 255 63 238 255 255 255 255 255 255 255 221 80 255 255 255 255 76 221 255 255 255 187 64 88 255 255 255 
255 255 255 255 56 0 0 25 89 119 104 80 46 12 0 0 28 46 64 221 255 255 255 255 255 255 255 255 255 255 255 255 255 255 62 82 238 51 143 109 62 50 50 48 255 255 207 21 0 0 0 0 0 0 0 0 0 0 0 0 0 0 0 55 187 255 255 255 255 255 221 93 255 238 97 255 255 255 255 255 238 83 74 238 255 99 204 255 159 104 255 255 255 255 255 255 255 255 91 221 255 255 255 152 124 255 255 255 255 187 64 71 255 255 255 
255 255 255 255 32 0 0 38 25 59 48 79 41 15 34 21 0 38 75 85 255 255 255 255 255 255 255 255 255 255 255 255 255 255 163 17 255 255 79 37 82 64 44 191 255 255 64 0 0 0 0 0 0 0 0 0 0 0 0 0 0 0 0 73 255 255 255 255 255 255 66 187 255 111 159 255 255 255 255 255 84 127 86 255 221 66 255 255 45 238 255 255 255 255 255 255 255 221 104 255 255 255 238 79 255 255 255 255 255 187 64 93 255 255 255 
255 255 255 255 40 24 0 41 41 64 89 84 36 55 70 56 28 14 44 41 163 255 255 255 255 255 255 255 255 255 255 255 255 255 255 48 123 255 255 191 138 113 207 255 221 221 21 0 0 0 0 0 0 0 0 0 0 0 0 0 0 0 0 125 255 255 255 255 255 238 100 255 238 77 238 255 255 255 255 204 103 88 221 255 113 143 255 143 104 255 255 255 255 255 255 255 255 80 238 255 255 255 79 221 255 255 255 255 255 187 64 80 255 255 255 
255 255 255 255 51 32 0 38 64 80 68 74 71 34 41 48 32 53 24 15 23 118 255 255 255 255 255 255 255 255 255 255 255 255 255 82 46 255 255 255 255 255 255 255 88 72 0 0 0 0 0 0 0 0 0 0 0 0 0 0 0 0 0 92 255 255 255 255 255 148 153 255 90 118 255 255 255 255 255 85 136 83 255 238 81 255 255 45 238 255 255 255 255 255 255 255 159 111 255 255 255 175 120 255 255 255 255 255 255 187 64 80 255 255 255 
255 255 255 255 56 28 0 16 48 83 50 96 63 78 51 48 71 45 43 0 32 14 133 255 255 255 255 255 187 255 255 255 255 255 255 238 28 56 125 223 255 255 207 40 141 21 0 0 0 0 0 0 0 0 0 0 0 0 0 0 0 0 0 55 255 255 255 255 255 105 204 255 93 221 255 255 255 255 255 86 125 138 255 133 106 255 175 143 255 255 255 255 255 255 255 238 77 238 255 255 255 102 238 255 255 255 255 255 255 187 64 80 255 255 255 
255 255 255 255 92 46 0 0 64 83 57 119 70 64 71 68 79 51 44 43 0 15 64 104 255 255 255 255 38 255 255 255 255 255 255 255 238 64 19 0 34 41 6 102 88 0 0 0 0 0 0 0 0 0 0 0 0 0 0 0 0 0 0 14 187 255 255 255 255 86 238 255 84 187 255 255 255 255 255 92 100 138 255 80 187 255 104 255 255 255 255 255 255 255 255 91 127 255 255 255 131 127 255 255 255 255 255 255 255 187 73 80 255 255 255 
255 255 255 255 150 72 0 0 41 56 72 52 42 103 119 96 88 59 61 42 42 0 21 72 204 255 255 255 17 255 255 255 255 255 255 255 255 255 255 150 138 125 191 204 50 0 0 0 0 0 0 0 0 0 0 0 0 0 0 0 0 0 0 0 82 255 255 255 255 85 187 255 89 187 255 255 255 255 255 105 100 138 255 78 187 238 112 255 255 255 255 255 255 255 255 65 238 255 255 255 101 187 255 255 255 255 255 255 255 187 82 61 255 255 255 
255 255 255 255 238 37 10 0 15 46 39 73 64 119 119 131 138 50 49 16 28 16 0 31 72 255 255 255 37 187 255 255 255 255 255 255 255 255 255 255 255 255 255 100 0 0 0 0 0 0 0 0 0 0 0 0 0 0 0 0 0 0 0 0 34 221 255 255 255 150 118 255 88 170 255 255 255 255 255 75 163 129 255 66 187 136 153 255 255 255 255 255 255 255 221 65 255 255 255 255 84 255 255 255 255 255 255 255 255 187 64 65 255 255 255 
255 255 255 255 255 37 56 0 0 58 56 25 80 118 113 109 85 40 48 39 46 29 0 0 15 123 255 255 28 133 255 255 255 255 255 255 255 255 255 255 255 255 153 59 0 0 0 0 0 0 0 0 0 0 0 0 0 0 0 0 0 0 0 0 0 113 255 255 255 221 93 255 175 85 255 255 255 255 255 72 187 75 255 78 187 100 187 255 255 255 255 255 255 255 159 119 255 255 255 255 113 255 255 255 255 255 255 255 255 238 65 65 255 255 255 
255 255 255 255 255 102 55 0 0 46 50 55 96 90 108 84 84 41 86 63 35 23 37 0 0 38 143 255 82 72 255 255 255 255 255 255 255 255 255 255 255 238 113 0 0 0 0 0 0 0 0 0 0 0 0 0 0 0 0 0 0 0 0 0 0 55 255 255 255 255 114 159 255 83 221 255 255 255 255 139 109 93 221 123 187 113 187 255 255 255 255 255 255 255 187 142 255 255 255 255 75 255 255 255 255 255 255 255 255 255 49 65 255 255 255 
255 255 255 255 255 255 28 64 0 15 46 41 55 97 102 90 117 71 72 68 68 22 37 41 38 0 40 133 82 37 191 255 255 255 255 255 255 255 255 255 255 143 32 0 0 0 0 0 0 0 0 0 0 0 0 0 0 0 0 0 0 0 0 0 0 23 221 255 255 255 238 84 238 163 88 255 255 255 255 238 64 133 72 100 187 123 187 255 255 255 255 255 255 255 238 83 255 255 255 255 78 187 255 255 255 255 255 255 255 255 49 88 255 255 255 
255 255 255 255 255 255 72 109 11 0 28 59 55 97 68 84 103 70 70 93 65 15 50 14 13 0 0 28 64 0 100 255 255 255 255 255 255 255 255 255 221 68 0 0 0 0 0 0 0 0 0 0 0 0 0 0 0 0 0 0 0 0 0 0 0 0 204 255 255 255 255 134 102 255 64 221 255 255 255 255 100 113 55 109 88 109 133 255 255 255 255 255 255 255 255 54 221 255 255 255 113 100 255 255 255 255 255 255 255 255 55 88 255 255 255 
255 255 255 255 255 255 238 40 164 13 0 39 46 75 64 70 84 74 109 79 67 45 14 0 16 16 0 0 0 0 32 238 255 255 255 255 255 255 255 255 80 0 0 0 0 0 0 0 0 0 0 0 0 0 0 0 0 0 0 0 0 0 0 0 0 41 255 255 255 255 255 255 66 221 143 75 255 255 255 255 238 61 143 87 68 204 51 238 255 255 255 255 255 255 255 175 81 255 255 255 255 58 204 255 255 255 255 255 255 255 50 88 255 255 255 
255 255 255 255 255 255 255 164 64 114 13 0 25 58 64 77 71 85 80 67 40 55 48 0 0 0 0 0 0 30 28 31 170 255 255 255 255 255 255 91 15 0 0 0 0 0 0 0 0 0 0 0 0 0 0 0 0 0 0 0 0 0 0 0 0 82 255 255 255 255 255 255 159 85 255 74 175 255 255 255 255 88 100 88 88 113 118 104 255 255 255 255 255 255 255 255 110 149 255 255 255 175 76 255 255 255 255 255 255 255 50 92 255 255 255 
255 255 255 255 255 255 255 255 102 72 113 16 0 15 56 39 80 34 68 60 50 0 0 0 0 0 0 0 0 0 30 0 56 64 123 187 153 91 64 0 0 0 0 0 0 0 0 0 0 0 0 0 0 0 0 0 0 0 0 0 0 0 0 0 31 221 255 255 255 255 255 255 255 70 255 159 77 255 255 255 255 221 71 148 83 68 238 68 204 255 255 255 255 255 255 255 238 91 204 255 255 255 95 133 255 255 255 255 255 255 67 100 255 255 255 
255 255 255 255 255 255 255 255 255 82 16 77 64 11 0 0 37 38 41 48 14 0 0 0 0 0 0 0 0 0 0 0 0 0 0 0 0 0 0 0 0 0 0 0 0 0 0 0 0 0 0 0 0 0 0 0 0 0 0 0 0 0 0 0 64 78 163 255 255 255 255 255 255 55 221 238 57 238 255 255 255 255 89 159 81 113 113 175 51 255 255 255 255 255 255 255 255 204 78 255 255 255 221 73 221 255 255 255 255 255 55 138 255 255 255 
255 255 255 255 255 255 255 255 255 255 113 30 47 73 82 51 0 0 0 0 0 0 0 0 0 0 0 0 0 0 0 0 0 0 0 0 0 0 0 0 0 0 0 0 0 0 0 0 0 0 0 0 0 0 48 0 0 0 0 0 0 0 50 72 50 31 68 91 255 255 255 255 255 91 187 255 94 148 255 255 255 255 153 106 84 238 68 238 80 123 255 255 255 255 255 255 255 255 113 163 255 255 255 133 115 255 255 255 255 255 55 125 255 255 255 
255 255 255 255 255 255 255 255 255 255 255 238 68 64 62 55 44 34 16 0 0 0 0 0 0 0 0 0 0 0 0 0 0 0 0 0 0 0 0 0 0 0 0 0 0 0 0 0 0 0 0 0 0 80 48 0 0 0 0 0 0 68 204 255 136 30 41 72 148 255 255 255 255 150 140 255 153 138 255 255 255 255 255 76 159 177 100 113 238 37 238 255 255 255 255 255 255 255 153 113 255 255 255 238 69 255 255 255 255 255 49 88 255 255 255 
255 255 255 255 255 255 255 255 255 255 255 255 136 164 83 93 104 56 0 0 0 0 0 0 0 0 0 0 0 0 0 0 0 0 0 0 0 0 0 0 0 0 0 0 0 0 0 0 0 0 0 0 16 74 0 0 0 0 0 0 46 204 255 255 187 50 0 28 88 255 255 255 255 187 100 255 187 138 255 255 255 255 255 77 153 100 221 53 255 118 88 255 255 255 255 255 255 255 221 98 255 255 255 255 120 148 255 255 255 255 35 77 255 255 255 
255 255 255 255 255 255 255 255 255 255 255 255 207 48 51 32 7 0 0 0 0 0 0 0 0 0 0 0 0 0 0 0 0 0 0 0 0 0 0 0 0 0 0 0 0 0 0 0 0 0 0 0 73 72 0 0 0 0 0 0 91 255 255 255 170 28 0 32 50 255 255 255 255 118 175 255 111 150 255 255 255 255 255 69 187 66 255 102 238 255 68 255 255 255 255 255 255 255 255 82 255 255 255 255 187 125 255 255 255 255 40 65 255 255 255 
255 255 255 255 255 255 255 255 255 255 255 177 91 21 16 56 34 0 0 0 0 0 0 0 0 0 0 0 0 0 0 0 0 0 0 0 0 0 0 0 0 0 0 0 0 0 0 0 0 0 0 0 123 56 0 0 0 0 0 0 143 255 255 238 82 0 0 0 88 255 255 255 255 71 255 255 59 187 255 255 255 255 255 85 187 60 255 72 187 187 37 255 255 255 255 255 255 255 255 125 187 255 255 255 187 100 255 255 255 255 81 47 255 255 255 
255 255 255 255 255 255 255 255 255 255 255 164 72 23 6 0 0 0 0 0 0 0 0 0 0 0 0 0 0 0 0 0 0 0 0 0 0 0 0 0 0 0 0 0 0 0 0 0 0 0 0 0 119 32 0 0 0 0 0 0 34 73 125 73 0 0 0 41 75 255 255 255 255 82 255 255 87 255 255 255 255 255 204 84 136 114 255 138 187 187 46 255 255 255 255 255 255 255 255 69 204 255 255 255 138 138 255 255 255 113 104 125 255 255 255 
255 255 255 255 255 255 255 255 255 255 255 255 125 62 12 0 0 0 0 0 0 0 0 0 0 0 0 0 0 0 0 0 0 0 0 0 0 0 0 0 0 0 0 0 0 0 0 0 0 0 0 68 170 64 0 0 0 0 0 0 0 0 0 0 0 0 55 71 238 255 255 255 119 177 255 143 102 255 255 255 255 255 175 96 136 138 255 125 187 187 80 255 255 255 255 255 255 255 255 84 255 255 255 255 67 223 255 255 255 86 153 175 255 255 255 
255 255 255 255 255 255 255 255 255 255 255 255 255 133 55 56 0 0 0 0 0 0 0 0 0 0 0 0 0 0 0 0 0 0 0 0 0 0 0 0 0 0 0 0 0 0 0 0 0 0 0 32 187 148 46 0 0 0 0 0 0 0 0 0 0 57 77 134 255 255 255 204 64 255 255 65 221 255 255 255 255 255 74 221 125 138 255 83 255 187 102 255 255 255 255 255 255 255 159 64 255 255 255 221 71 187 187 170 74 152 93 255 255 255 255 
255 255 255 255 255 255 255 255 255 255 255 255 255 255 109 41 51 41 0 0 0 15 23 0 0 0 0 0 0 0 0 0 0 0 0 0 0 0 0 0 0 0 0 0 0 0 0 0 0 0 0 0 75 113 51 0 0 0 0 0 0 0 0 0 0 25 63 88 88 88 88 91 64 138 64 72 138 125 88 88 88 64 58 100 57 50 74 43 74 67 77 104 104 104 104 104 104 76 51 41 43 43 43 54 55 64 138 88 170 143 86 255 255 255 255 
255 255 255 255 255 255 255 255 255 255 255 255 255 255 255 255 56 0 0 0 15 56 34 32 41 41 41 50 41 32 32 42 36 48 64 64 56 64 64 64 64 37 37 37 37 68 88 88 88 75 50 50 50 68 119 119 119 119 119 119 119 119 119 119 34 0 0 0 37 37 37 19 19 24 43 43 48 47 44 50 44 49 49 49 49 49 49 49 49 49 49 63 117 117 117 117 117 117 117 117 117 117 63 49 49 70 77 80 61 98 207 255 255 255 255 
255 255 255 255 255 255 255 255 255 255 255 255 255 255 255 255 223 62 41 64 102 138 175 187 187 187 204 255 255 255 255 255 255 255 255 255 255 238 187 187 187 187 187 150 138 138 138 138 125 88 88 88 88 88 82 88 88 88 88 88 68 71 88 100 138 138 138 187 187 187 238 255 255 255 255 255 255 255 255 255 255 255 255 255 255 255 255 255 255 255 255 255 255 255 255 255 255 255 255 255 255 255 255 255 255 255 255 255 255 255 255 255 255 255 255 
255 255 255 255 255 255 255 255 255 255 255 255 255 255 255 255 255 255 255 255 255 255 255 255 255 255 255 255 255 255 255 255 255 255 255 255 255 255 255 255 255 255 255 255 255 255 255 255 255 255 255 255 255 255 255 255 255 255 255 255 255 255 255 255 255 255 255 255 255 255 255 255 255 255 255 255 255 255 255 255 255 255 255 255 255 255 255 255 255 255 255 255 255 255 255 255 255 255 255 255 255 255 255 255 255 255 255 255 255 255 255 255 255 255 255 
255 255 255 255 255 255 255 255 255 255 255 255 255 255 255 255 255 255 255 255 255 255 255 255 255 255 255 255 255 255 255 255 255 255 255 255 255 255 255 255 255 255 255 255 255 255 255 255 255 255 255 255 255 255 255 255 255 255 255 255 255 255 255 255 255 255 255 255 255 255 255 255 255 255 255 255 255 255 255 255 255 255 255 255 255 255 255 255 255 255 255 255 255 255 255 255 255 255 255 255 255 255 255 255 255 255 255 255 255 255 255 255 255 255 255 
255 255 255 255 255 255 255 255 255 255 255 255 255 255 255 255 255 255 255 255 255 255 255 255 255 255 255 255 255 255 255 255 255 255 255 255 255 255 255 255 255 255 255 255 255 255 255 255 255 255 255 255 255 255 255 255 255 255 255 255 255 255 255 255 255 255 255 255 255 255 255 255 255 255 255 255 255 255 255 255 255 255 255 255 255 255 255 255 255 255 255 255 255 255 255 255 255 255 255 255 255 255 255 255 255 255 255 255 255 255 255 255 255 255 255 
