P2
76 101
255
255 255 255 255 255 255 255 255 255 255 255 255 255 255 255 255 255 255 255 255 255 255 255 255 255 255 255 255 255 255 255 255 255 255 255 255 255 255 255 255 255 255 255 255 255 255 255 255 255 255 255 255 255 255 255 255 255 255 255 255 255 255 255 255 255 255 255 255 255 255 255 255 255 255 255 255 
255 255 255 255 255 255 255 255 255 255 255 255 255 255 255 255 255 255 255 255 255 255 255 255 255 255 255 255 255 255 255 255 255 255 255 255 255 255 255 255 255 255 255 255 255 255 255 255 255 255 255 255 255 255 255 255 255 255 255 255 255 255 255 255 255 255 255 255 255 255 255 255 255 255 255 255 
255 255 255 255 255 255 255 255 255 255 255 255 255 255 255 255 255 255 255 255 255 255 255 255 255 255 255 255 255 255 255 255 255 255 255 255 255 255 255 255 255 255 255 255 255 255 255 255 255 255 255 255 255 255 255 255 255 255 255 255 255 255 255 255 255 255 255 255 255 255 255 255 255 255 255 255 
255 255 255 255 255 255 255 255 255 255 255 255 255 255 255 255 255 255 255 255 255 255 255 255 255 255 255 255 238 187 119 102 68 0 0 0 0 0 0 51 68 102 136 187 255 255 255 255 255 255 255 255 255 255 255 255 255 255 255 255 255 255 255 255 255 255 255 255 255 255 255 255 255 255 255 255 
255 255 255 255 255 255 255 255 255 255 255 255 255 255 255 255 255 255 255 255 255 255 255 255 255 221 136 68 0 0 0 0 0 0 0 0 0 0 0 0 0 0 0 0 0 85 153 238 255 255 255 255 255 255 255 255 255 255 255 255 255 255 255 255 255 255 255 255 255 255 255 255 255 255 255 255 
255 255 255 255 255 255 255 255 255 255 255 255 255 255 255 255 255 255 255 255 255 255 255 187 68 0 0 0 0 0 0 0 0 0 0 0 0 0 0 0 0 0 0 0 0 0 0 0 85 187 255 255 255 255 255 255 255 255 255 255 255 255 255 255 255 255 255 255 255 255 255 255 255 255 255 255 
255 255 255 255 255 255 255 255 255 255 255 255 255 255 255 255 255 255 255 255 255 153 34 0 0 0 0 0 0 0 0 51 68 136 136 136 136 136 136 68 0 0 0 0 0 0 0 0 0 0 34 153 255 255 255 255 255 255 255 255 255 255 255 255 255 255 255 255 255 255 255 255 255 255 255 255 
255 255 255 255 255 255 255 255 255 255 255 255 255 255 255 255 255 255 255 153 34 0 0 0 0 0 0 17 102 153 238 255 255 255 255 255 255 255 255 255 221 187 136 68 0 0 0 0 0 0 0 0 34 153 255 255 255 255 255 255 255 255 255 255 255 255 255 255 255 255 255 255 255 255 255 255 
255 255 255 255 255 255 255 255 255 255 255 255 255 255 255 255 255 221 68 0 0 0 0 0 0 17 153 238 255 255 255 255 255 255 255 255 255 255 255 255 255 255 255 255 238 153 68 0 0 0 0 0 0 0 34 170 255 255 255 255 255 255 255 255 255 255 255 255 255 255 255 255 255 255 255 255 
255 255 255 255 255 255 255 255 255 255 255 255 255 255 255 255 204 17 0 0 0 0 0 0 51 238 238 136 238 255 255 255 255 255 255 255 255 255 255 255 255 255 255 255 255 255 255 221 102 17 0 0 0 0 0 0 119 255 255 255 255 255 255 255 255 255 255 255 255 255 255 255 255 255 255 255 
255 255 255 255 255 255 255 255 255 255 255 255 255 255 255 153 17 0 0 0 0 0 0 102 255 204 34 0 85 153 85 204 255 255 255 255 255 255 153 0 102 255 221 68 68 102 153 255 255 238 136 17 0 0 0 0 0 51 238 255 255 255 255 255 255 255 255 255 255 255 255 255 255 255 255 255 
255 255 255 255 255 255 255 255 255 255 255 255 255 255 187 0 0 0 0 0 0 17 187 255 136 0 0 0 0 0 0 51 255 255 204 238 255 255 17 0 0 102 255 34 0 0 0 34 170 255 255 204 17 0 0 0 0 0 51 238 255 255 255 255 255 255 255 255 255 255 255 255 255 255 255 255 
255 255 255 255 255 255 255 255 255 255 255 255 255 204 17 0 0 0 0 0 51 221 255 102 0 0 0 0 0 0 0 0 136 102 0 51 238 238 0 0 0 0 136 187 0 0 0 0 0 85 238 255 238 51 0 0 0 0 0 51 238 255 255 255 255 255 255 255 255 255 255 255 255 255 255 255 
255 255 255 255 255 255 255 255 255 255 255 255 238 34 0 0 0 0 0 51 238 255 102 0 0 0 0 0 0 0 0 0 17 0 0 0 136 187 0 0 0 0 0 153 153 0 0 0 0 0 51 204 255 238 51 0 0 0 0 0 51 238 255 255 255 255 255 255 255 255 255 255 255 255 255 255 
255 255 255 255 255 255 255 255 255 255 255 255 68 0 0 0 0 0 17 204 255 119 0 0 0 0 0 0 0 0 0 0 0 0 0 0 34 187 0 0 0 0 0 0 204 102 0 0 0 0 0 17 187 255 238 85 0 0 0 0 0 102 255 255 255 255 255 255 255 255 255 255 255 255 255 255 
255 255 255 255 255 255 255 255 255 255 255 119 0 0 0 0 0 0 187 255 170 0 0 0 0 0 0 0 0 0 0 0 0 0 0 0 0 68 0 0 0 0 0 0 34 238 51 0 0 0 0 0 0 153 255 255 68 0 0 0 0 0 153 255 255 255 255 255 255 255 255 255 255 255 255 255 
255 255 255 255 255 255 255 255 255 255 204 0 0 0 0 0 0 136 255 221 17 0 0 0 0 0 0 0 0 0 0 0 0 0 0 0 0 0 0 0 0 0 0 0 0 102 221 0 0 0 0 0 0 0 102 255 238 51 0 0 0 0 17 221 255 255 255 255 255 255 255 255 255 255 255 255 
255 255 255 255 255 255 255 255 255 255 51 0 0 0 0 0 51 255 255 68 0 0 0 0 0 0 0 0 0 0 0 0 0 0 0 0 0 0 0 0 0 0 0 0 0 0 187 51 0 0 0 0 0 0 0 136 255 238 51 0 0 0 0 68 255 255 255 255 255 255 255 255 255 255 255 255 
255 255 255 255 255 255 255 255 255 119 0 0 0 0 0 0 187 255 153 0 0 0 0 0 0 0 0 0 0 0 0 0 0 0 0 0 0 0 0 0 0 0 0 0 0 0 51 68 0 0 0 0 0 0 0 0 153 255 221 17 0 0 0 0 170 255 255 255 255 255 255 255 255 255 255 255 
255 255 255 255 255 255 255 255 221 17 0 0 0 0 0 68 255 238 17 0 0 0 0 0 0 0 0 0 0 0 0 0 0 0 0 0 0 0 0 0 0 0 0 0 0 0 0 0 0 0 0 0 0 0 0 0 0 153 255 187 0 0 0 0 34 238 255 255 255 255 255 255 255 255 255 255 
255 255 255 255 255 255 255 255 85 0 0 0 0 0 0 204 255 136 0 0 0 0 0 0 0 0 0 0 0 0 0 0 0 0 0 0 0 0 0 0 0 0 0 0 0 0 0 0 0 0 0 0 0 0 0 0 0 0 204 255 136 0 0 0 0 119 255 255 255 255 255 255 255 255 255 255 
255 255 255 255 255 255 255 119 0 0 0 0 0 0 68 255 238 17 0 0 0 0 0 0 0 0 0 0 0 0 0 0 0 0 0 0 0 0 0 0 0 0 0 0 0 0 0 0 0 0 0 0 0 0 0 0 0 0 34 238 255 51 0 0 0 17 238 255 255 255 255 255 255 255 255 255 
255 255 255 255 255 255 255 102 0 0 0 0 0 0 153 255 136 0 0 0 0 0 0 0 0 0 0 0 0 0 0 0 0 0 0 0 0 0 0 0 0 0 0 0 0 0 0 0 0 0 0 0 0 0 0 0 0 0 0 85 255 204 0 0 0 0 119 255 255 255 255 255 255 255 255 255 
255 255 255 255 255 255 221 0 0 0 0 0 0 17 255 255 34 0 0 0 0 0 0 0 0 0 0 0 0 0 0 0 0 0 0 0 0 0 0 0 0 0 0 0 0 0 0 0 0 0 0 0 0 0 0 0 0 0 0 0 136 255 102 0 0 0 17 238 255 255 255 255 255 255 255 255 
255 255 255 255 255 255 68 0 0 0 0 0 0 102 255 170 0 0 0 0 0 0 0 0 0 0 0 0 0 0 0 0 0 0 0 0 0 0 0 0 0 0 0 0 0 0 0 0 0 0 0 0 0 0 0 0 0 0 0 0 17 238 221 0 0 0 0 136 255 255 255 255 255 255 255 255 
255 255 255 255 255 170 0 0 0 0 0 0 0 170 255 85 0 0 0 0 0 0 0 0 0 0 0 0 0 0 0 0 0 0 0 0 0 0 0 0 0 0 0 0 0 0 0 0 0 0 0 0 0 0 0 0 0 0 0 0 0 102 255 102 0 0 0 34 255 255 255 255 255 255 255 255 
255 255 255 255 255 85 0 0 0 0 0 0 0 238 238 0 0 0 0 0 0 0 0 0 0 0 0 0 0 0 0 0 0 0 0 0 0 0 0 0 0 0 0 0 0 0 0 0 0 0 0 0 0 0 0 0 0 0 0 0 0 0 187 170 0 0 0 0 153 255 255 255 255 255 255 255 
255 255 255 255 255 17 0 0 0 0 0 0 51 255 153 0 0 0 0 0 0 0 0 0 0 0 0 0 0 0 0 0 0 0 0 0 0 0 0 0 0 0 0 0 0 0 0 0 0 0 0 0 0 0 0 0 0 0 0 0 0 0 68 255 17 0 0 0 51 255 255 255 255 255 255 255 
255 255 255 255 153 0 0 0 0 0 0 0 85 255 85 0 0 0 0 0 0 0 0 0 0 0 0 0 0 0 0 0 0 0 0 0 0 0 0 0 0 0 0 0 0 0 0 0 0 0 0 0 0 0 0 0 0 0 0 0 0 0 0 187 102 0 0 0 0 187 255 255 255 255 255 255 
255 255 255 255 68 0 0 0 0 0 0 0 136 255 17 0 0 0 0 0 0 0 0 0 0 0 0 0 0 0 0 0 0 0 0 0 0 0 0 0 0 0 0 0 0 0 0 0 0 0 0 0 0 0 0 0 0 0 0 0 0 0 0 68 136 0 0 0 0 102 255 255 255 255 255 255 
255 255 255 255 0 0 0 0 0 0 0 0 153 204 0 0 0 0 0 0 0 0 0 0 0 0 0 0 0 0 0 0 0 0 0 0 0 0 0 0 0 0 0 0 0 0 0 0 0 0 0 0 0 0 0 0 0 0 0 0 0 0 0 0 136 0 0 0 0 17 255 255 255 255 255 255 
255 255 255 238 0 0 0 0 0 0 0 0 187 136 0 0 0 0 0 0 0 0 0 0 0 0 0 0 0 0 0 0 0 0 0 0 0 0 0 0 0 0 0 0 0 0 0 0 0 0 0 0 0 0 0 0 0 0 0 0 0 0 0 0 51 0 0 0 0 0 170 255 255 255 255 255 
255 255 255 187 0 0 0 0 0 0 0 0 187 85 0 0 0 0 0 0 0 0 0 0 0 0 0 0 0 0 0 0 0 0 0 0 0 0 0 0 0 0 0 0 0 0 0 0 0 0 0 0 0 0 0 0 0 0 0 0 0 0 0 0 0 0 0 0 0 0 102 255 255 255 255 255 
255 255 255 119 0 0 0 0 0 0 0 0 187 34 0 0 0 0 0 0 0 0 0 0 0 0 0 0 0 0 0 0 0 0 0 0 0 0 0 0 0 0 0 0 0 0 0 0 0 0 0 0 0 0 0 0 0 0 0 0 0 0 0 0 0 0 0 0 0 0 17 255 255 255 255 255 
255 255 238 17 0 0 0 0 0 0 0 0 34 0 0 0 0 0 0 0 0 0 0 0 0 0 0 0 0 0 0 0 0 0 0 0 0 0 0 0 0 0 0 0 0 0 0 0 0 0 0 0 0 0 0 0 0 0 0 0 0 0 0 0 0 0 0 0 0 0 0 187 255 255 255 255 
255 255 170 0 0 0 0 0 0 0 0 0 0 0 0 0 0 0 0 0 0 0 0 0 0 0 0 0 0 0 0 0 0 0 0 0 0 0 0 0 0 0 0 0 0 0 0 0 0 0 0 0 0 0 0 0 0 0 0 0 0 0 0 0 0 0 0 0 0 0 0 136 255 255 255 255 
255 255 153 0 0 0 0 0 0 0 0 0 0 0 0 0 0 0 0 0 0 0 0 0 0 0 0 0 0 0 0 0 0 0 0 0 0 0 0 0 0 0 0 0 0 0 0 0 0 0 0 0 0 0 0 0 0 0 0 0 0 0 0 0 0 0 0 0 0 0 0 85 255 255 255 255 
255 255 102 0 0 0 0 0 0 0 0 0 0 0 0 0 0 0 0 0 0 0 0 17 0 0 0 0 0 0 0 0 0 0 0 0 0 0 0 0 0 0 0 0 0 0 0 0 0 0 0 0 0 0 0 0 0 0 0 0 0 0 0 0 0 0 0 0 0 0 0 34 255 255 255 255 
255 255 51 0 0 0 0 0 0 0 0 0 0 0 0 0 0 0 0 0 0 0 0 102 0 0 0 0 0 0 0 0 0 0 0 0 0 17 0 0 0 0 0 0 0 0 0 0 0 0 0 0 0 0 0 0 0 0 0 0 0 0 0 0 0 0 0 0 0 0 0 0 221 255 255 255 
255 255 0 0 0 0 0 0 0 0 0 0 0 0 0 0 0 0 0 0 0 0 0 17 0 0 0 0 0 0 0 0 0 0 0 0 0 119 0 0 0 0 0 0 0 0 0 0 0 0 0 0 0 0 0 0 0 0 0 0 0 0 0 0 0 0 0 0 0 0 0 0 187 255 255 255 
255 221 0 0 0 0 0 0 0 0 0 0 0 0 0 0 0 0 0 0 0 0 0 0 0 0 0 0 0 0 0 0 0 0 0 0 0 153 0 0 0 0 0 0 0 0 0 0 0 0 0 0 0 0 0 0 0 0 0 0 0 0 0 0 0 0 0 0 0 0 0 0 119 255 255 255 
255 187 0 0 0 0 0 0 0 0 0 0 0 0 0 0 0 0 0 0 0 0 0 170 204 187 187 136 170 187 187 187 153 136 136 136 136 255 204 119 68 68 68 136 136 136 102 68 0 0 0 0 0 0 0 0 0 0 0 0 0 0 0 0 0 0 0 0 0 0 0 0 119 255 255 255 
255 119 0 0 0 0 0 0 0 0 0 0 0 0 0 0 0 0 0 0 17 153 255 255 255 255 255 255 255 255 255 255 255 255 255 255 255 255 255 255 255 255 255 255 255 255 255 255 255 238 187 187 187 136 34 0 0 0 0 0 0 0 0 0 0 0 0 0 0 0 0 0 85 255 255 255 
255 119 0 0 0 0 0 0 0 0 0 0 0 0 0 0 0 0 0 0 136 255 221 221 187 255 255 255 255 255 255 255 255 255 255 255 255 255 255 255 255 255 255 255 255 255 255 255 255 255 255 255 255 255 255 187 136 0 0 0 0 0 0 0 0 0 0 0 0 0 0 0 68 255 255 255 
255 119 0 0 0 0 0 0 0 0 0 0 0 0 0 0 0 0 0 102 238 136 17 64 102 119 68 119 238 255 255 255 255 255 255 255 255 255 255 255 255 255 255 255 255 255 255 255 255 255 238 238 255 255 255 255 255 68 0 0 0 0 0 0 0 0 0 0 0 0 0 0 17 255 255 255 
255 119 0 0 0 0 0 0 0 0 0 0 0 0 0 0 0 0 68 221 17 17 153 0 34 51 34 221 187 255 255 255 255 255 255 255 255 255 255 255 255 255 255 255 255 255 255 204 153 136 68 34 136 119 255 204 255 187 0 0 0 0 0 0 0 0 0 0 0 0 0 0 0 255 255 255 
255 119 0 0 0 0 0 0 0 0 0 0 0 0 0 0 0 0 204 85 221 0 0 0 0 0 0 85 238 255 255 255 255 255 255 255 255 255 255 255 255 255 255 255 255 255 255 204 0 119 136 102 85 51 48 68 238 255 187 0 0 0 0 0 0 0 0 0 0 0 0 0 0 255 255 255 
255 102 0 0 0 0 0 0 0 0 0 0 0 0 0 0 0 0 175 17 0 0 0 0 0 0 0 0 17 102 238 255 255 255 255 255 255 255 255 255 255 255 255 255 255 255 255 255 68 51 34 34 0 85 48 153 51 204 221 0 0 0 0 0 0 0 0 0 0 0 0 0 0 255 255 255 
255 136 0 0 0 0 0 0 0 0 0 0 0 0 0 0 0 0 223 119 119 187 85 0 102 17 34 187 187 68 17 255 255 255 255 255 255 255 255 255 255 255 255 255 255 255 255 136 0 0 0 0 0 0 17 51 68 170 51 0 0 0 0 0 0 0 0 0 0 0 0 0 0 255 255 255 
255 170 0 0 0 0 0 0 0 0 0 0 0 0 0 0 0 0 136 238 102 204 207 102 255 34 170 255 187 238 102 255 255 255 255 255 255 255 255 255 255 255 255 255 255 204 51 136 255 68 0 102 0 17 102 0 0 136 204 0 0 0 0 0 0 0 0 0 0 0 0 0 0 255 255 255 
255 119 0 0 0 0 0 0 0 0 0 0 0 0 0 0 0 0 187 238 255 238 187 119 255 221 153 191 85 255 255 255 255 255 255 255 255 255 255 255 255 255 255 255 238 17 102 255 255 153 0 136 0 170 255 34 68 221 255 0 0 0 0 0 0 0 0 0 0 0 0 0 0 255 255 255 
255 187 0 0 0 0 0 0 0 0 0 0 0 0 0 0 0 0 187 255 255 255 255 102 255 170 170 238 204 255 255 255 255 255 255 255 255 255 255 255 255 255 255 255 255 187 255 255 170 221 238 163 148 170 150 51 255 255 255 0 0 0 0 0 0 0 0 0 0 0 0 0 0 255 255 255 
255 187 0 0 0 0 0 0 0 0 0 0 0 0 0 0 0 0 255 255 255 255 255 170 255 255 255 255 255 255 255 255 255 255 255 255 255 255 255 255 255 255 255 255 255 255 255 255 204 119 221 102 238 119 136 221 255 255 255 0 0 0 0 0 0 0 0 0 0 0 0 0 0 255 255 255 
255 187 0 0 0 0 0 0 0 0 0 0 0 0 0 0 0 0 255 255 255 255 255 255 255 255 255 255 255 255 255 255 255 255 255 255 255 255 255 255 255 255 255 255 255 255 255 255 255 255 255 255 255 255 255 255 255 255 238 0 0 0 0 0 0 0 0 0 0 0 0 0 51 255 255 255 
255 187 0 0 0 0 0 0 0 0 0 0 0 0 0 0 0 0 255 255 255 255 255 255 255 255 255 255 255 255 255 255 255 255 255 255 255 255 255 255 255 255 255 255 255 255 255 255 255 255 255 255 255 255 255 255 255 255 187 0 0 0 0 0 0 0 0 0 0 0 0 0 68 255 255 255 
255 204 0 0 0 0 0 0 0 0 0 0 0 0 0 0 0 17 255 255 255 255 255 255 255 255 255 255 255 255 255 255 255 255 255 255 255 255 255 255 255 255 255 255 255 255 255 255 255 255 255 255 255 255 255 255 255 255 187 0 0 0 0 0 0 0 0 0 0 0 0 0 68 255 255 255 
255 255 0 0 0 0 0 0 0 0 0 0 0 0 0 0 0 68 255 255 255 255 255 255 255 255 255 255 255 255 255 255 255 255 255 255 255 255 255 255 255 255 255 255 255 255 255 255 255 255 255 255 255 255 255 255 255 255 255 0 0 0 0 0 0 0 0 0 0 0 0 0 119 255 255 255 
255 255 68 0 0 0 0 0 0 0 0 0 0 0 0 0 0 119 255 255 255 255 255 255 255 255 255 255 255 255 255 255 255 255 255 255 255 255 255 255 255 255 255 255 255 255 255 255 255 255 255 255 255 255 255 255 255 255 255 0 0 0 0 0 0 0 0 0 0 0 0 0 119 255 255 255 
255 255 119 0 0 0 0 0 0 0 0 0 0 0 0 0 0 136 255 255 255 255 255 255 255 255 255 255 255 255 255 255 255 255 255 255 255 255 255 255 255 255 255 255 255 255 255 255 255 255 255 255 255 255 255 255 255 255 255 0 0 0 0 0 0 0 0 0 0 0 0 0 187 255 255 255 
255 255 136 0 0 0 0 0 0 0 0 0 0 0 0 0 0 136 255 255 255 255 255 255 255 255 255 255 255 255 255 255 255 255 255 255 255 255 255 255 255 255 255 255 255 255 255 255 255 255 255 255 255 255 255 255 255 255 187 0 0 0 0 0 0 0 0 0 0 0 0 0 204 255 255 255 
255 255 153 0 0 0 0 0 0 0 0 0 0 0 0 0 0 136 255 255 255 255 255 255 255 255 255 255 255 255 255 255 255 255 255 255 255 255 255 255 255 255 255 255 255 255 255 255 255 255 255 255 255 255 255 255 255 255 187 0 0 0 0 0 0 0 0 0 0 0 0 0 255 255 255 255 
255 255 255 34 0 0 0 0 0 0 0 0 0 0 0 0 0 85 255 255 255 255 255 255 255 255 255 255 255 255 255 255 255 255 255 255 255 255 255 255 255 255 255 255 255 255 255 255 255 255 255 255 255 255 255 255 255 255 187 0 0 0 0 0 0 0 0 0 0 0 0 51 255 255 255 255 
255 255 255 85 0 0 0 0 0 0 0 0 0 0 0 0 0 68 255 255 255 255 255 255 255 255 255 255 255 255 255 255 255 255 255 255 255 255 255 255 255 255 255 255 255 255 255 255 255 255 255 255 255 255 255 255 255 255 136 0 0 0 0 0 0 0 0 0 0 0 0 119 255 255 255 255 
255 255 255 187 0 0 0 0 0 0 0 0 0 0 0 0 0 68 255 255 255 255 255 255 255 255 255 255 255 255 255 255 255 255 255 255 255 255 255 255 255 255 255 255 255 255 255 255 255 255 255 255 255 255 255 255 255 255 102 0 0 0 0 0 0 0 0 0 0 0 0 170 255 255 255 255 
255 255 255 238 0 0 0 0 0 0 0 0 0 0 0 0 0 68 255 255 255 255 255 255 255 255 255 255 255 255 255 255 204 255 255 170 238 255 255 204 204 255 221 255 255 255 255 255 255 255 255 255 255 255 255 255 255 255 51 0 0 0 0 0 0 0 0 0 0 0 0 238 255 255 255 255 
255 255 255 255 153 0 0 0 0 0 0 0 0 0 0 0 0 17 255 255 255 255 255 255 255 255 255 255 255 255 255 255 170 102 255 238 68 119 85 170 255 119 238 255 255 255 255 255 255 255 255 255 255 255 255 255 255 255 0 0 0 0 0 0 0 0 0 0 0 0 51 255 255 255 255 255 
255 255 255 255 204 0 0 0 0 0 0 0 0 0 0 0 0 0 221 255 255 255 255 255 255 255 255 255 255 255 255 255 255 255 255 255 238 187 221 255 221 204 255 255 255 255 255 255 255 255 255 255 255 255 255 255 255 204 0 0 0 0 0 0 0 0 0 0 0 0 119 255 255 255 255 255 
255 255 255 255 255 153 0 0 0 0 0 0 0 0 0 0 0 0 153 255 255 255 255 255 255 255 255 255 255 255 255 255 255 255 255 255 255 255 255 255 255 255 255 255 255 255 255 255 255 255 255 255 255 255 255 255 255 153 0 0 0 0 0 0 0 0 0 0 0 0 221 255 255 255 255 255 
255 255 255 255 255 255 85 0 0 0 0 0 0 0 0 0 0 0 102 255 255 255 255 255 255 255 255 255 255 255 255 255 255 255 255 255 255 255 255 255 255 255 255 255 255 255 255 255 255 255 255 255 255 255 255 255 255 119 0 0 0 0 0 0 0 0 0 0 0 51 255 255 255 255 255 255 
255 255 255 255 255 255 170 0 0 0 0 0 0 0 0 0 0 0 34 255 255 255 255 255 255 255 255 255 255 255 255 255 255 255 170 187 255 255 255 255 255 255 255 255 255 255 255 255 255 255 255 255 255 255 255 255 255 51 0 0 0 0 0 0 0 0 0 0 0 136 255 255 255 255 255 255 
255 255 255 255 255 255 204 102 0 0 0 0 0 0 0 0 0 0 0 221 255 255 255 255 255 255 255 255 255 255 255 255 170 17 0 0 17 102 102 17 0 51 119 238 255 255 255 255 255 255 255 255 255 255 255 255 255 0 0 0 0 0 0 0 0 0 0 0 0 221 255 255 255 255 255 255 
255 255 255 255 255 255 255 238 17 0 0 0 0 0 0 0 0 0 0 170 255 255 255 255 255 255 255 255 255 238 170 85 0 0 0 0 0 0 0 0 0 0 0 34 170 255 255 255 255 255 255 255 255 255 255 255 187 0 0 0 0 0 0 0 0 0 0 0 85 255 255 255 255 255 255 255 
255 255 255 255 255 255 255 255 119 0 0 0 0 0 0 0 0 0 0 102 255 255 255 255 255 255 255 255 170 0 0 17 68 119 136 136 136 136 119 68 51 0 0 0 0 68 204 255 255 255 255 255 255 255 255 255 136 0 0 0 0 0 0 0 0 0 0 0 187 255 255 255 255 255 255 255 
255 255 255 255 255 255 255 255 204 0 0 0 0 0 0 0 0 0 0 0 238 255 255 255 255 255 255 255 255 102 0 204 255 255 255 255 255 255 255 255 255 255 255 187 136 0 0 221 255 255 255 255 255 255 255 255 102 0 0 0 0 0 0 0 0 0 0 51 255 255 255 255 255 255 255 255 
255 255 255 255 255 255 255 255 255 119 0 0 0 0 0 0 0 0 0 0 136 255 255 255 255 255 255 255 255 238 17 17 170 255 255 255 255 255 255 255 255 255 255 255 102 0 153 255 255 255 255 255 255 255 255 255 68 0 0 0 0 0 0 0 0 0 0 153 255 255 255 255 255 255 255 255 
255 255 255 255 255 255 255 255 255 255 102 0 0 0 0 0 0 0 0 0 34 255 255 255 255 255 255 255 255 255 119 0 0 51 119 136 136 136 136 85 68 68 85 68 0 102 255 255 255 255 255 255 255 255 255 255 0 0 0 0 0 0 0 0 0 0 68 255 255 255 255 255 255 255 255 255 
255 255 255 255 255 255 255 255 255 255 238 51 0 0 0 0 0 0 0 0 0 170 255 255 255 255 255 255 255 255 238 34 0 0 0 17 51 0 0 0 0 0 0 0 85 255 255 255 255 255 255 255 255 255 255 187 0 0 0 0 0 0 0 0 0 0 187 255 255 255 255 255 255 255 255 255 
255 255 255 255 255 255 255 255 255 255 255 238 51 0 0 0 0 0 0 0 0 68 255 255 255 255 255 255 255 255 255 204 17 0 0 204 187 0 0 0 0 0 0 51 238 255 255 255 255 255 255 255 255 255 255 102 0 0 0 0 0 0 0 0 0 85 255 255 255 255 255 255 255 255 255 255 
255 255 255 255 255 255 255 255 255 255 255 255 238 51 0 0 0 0 0 0 0 0 204 255 255 255 255 255 255 255 255 255 204 34 0 68 85 0 0 0 0 34 119 238 255 255 255 255 255 255 255 255 255 255 238 17 0 0 0 0 0 0 0 0 17 238 255 255 255 255 255 255 255 255 255 255 
255 255 255 255 255 255 255 255 255 255 255 255 255 204 17 0 0 0 0 0 0 0 68 255 255 255 255 255 255 255 255 255 255 255 170 119 68 68 85 136 204 255 255 255 255 255 255 255 255 255 255 255 255 255 102 0 0 0 0 0 0 0 0 0 170 255 255 255 255 255 255 255 255 255 255 255 
255 255 255 255 255 255 255 255 255 255 255 255 255 255 204 17 0 0 0 0 0 0 0 153 255 255 255 255 255 255 255 255 255 255 255 255 255 255 255 255 255 255 255 255 255 255 255 255 255 255 255 255 255 187 0 0 0 0 0 0 0 0 0 119 255 255 255 255 255 255 255 255 255 255 255 255 
255 255 255 255 255 255 255 255 255 255 255 255 255 255 255 187 0 0 0 0 0 0 0 34 238 255 255 255 255 255 255 255 255 255 255 255 255 255 255 255 255 255 255 255 255 255 255 255 255 255 255 255 204 17 0 0 0 0 0 0 0 0 85 255 255 255 255 255 255 255 255 255 255 255 255 255 
255 255 255 255 255 255 255 255 255 255 255 255 255 255 255 255 153 0 0 0 0 0 0 0 136 255 255 255 255 255 255 255 255 255 255 255 255 255 255 255 255 255 255 255 255 255 255 255 255 255 255 204 51 0 0 0 0 0 0 0 0 51 238 255 255 255 255 255 255 255 255 255 255 255 255 255 
255 255 255 255 255 255 255 255 255 255 255 255 255 255 255 255 255 153 0 0 0 0 0 0 0 221 255 255 255 255 255 255 255 255 255 255 255 255 255 255 255 255 255 255 255 255 255 255 255 255 204 17 0 0 0 0 0 0 0 0 102 255 255 255 255 255 255 255 255 255 255 255 255 255 255 255 
255 255 255 255 255 255 255 255 255 255 255 255 255 255 255 255 255 255 170 17 0 0 0 0 0 51 204 255 255 255 255 255 255 255 255 255 255 255 255 255 255 255 255 255 255 255 255 255 255 136 0 0 0 0 0 0 0 0 0 119 255 255 255 255 255 255 255 255 255 255 255 255 255 255 255 255 
255 255 255 255 255 255 255 255 255 255 255 255 255 255 255 255 255 255 255 221 51 0 0 0 0 34 0 136 255 255 255 255 255 255 255 255 255 255 255 255 255 255 255 255 255 255 255 187 92 170 51 0 0 0 0 0 0 51 204 255 255 255 255 255 255 255 255 255 255 255 255 255 255 255 255 255 
255 255 255 255 255 255 255 255 255 255 255 255 255 255 255 255 255 255 255 255 238 136 68 0 0 119 238 102 51 170 255 255 255 255 255 255 255 255 255 255 255 255 255 255 255 187 130 170 255 255 0 0 0 0 0 85 170 255 255 255 255 255 255 255 255 255 255 255 255 255 255 255 255 255 255 255 
255 255 255 255 255 255 255 255 255 255 255 255 255 255 255 255 255 255 255 255 255 255 255 221 34 170 255 255 221 102 48 102 187 255 255 255 255 255 255 255 255 255 204 136 78 187 255 255 255 255 0 119 170 187 238 255 255 255 255 255 255 255 255 255 255 255 255 255 255 255 255 255 255 255 255 255 
255 255 255 255 255 255 255 255 255 255 255 255 255 255 255 255 255 255 255 255 255 255 255 255 68 187 255 255 255 255 255 221 119 85 105 80 102 136 119 68 92 85 136 187 255 255 255 255 255 255 0 255 255 255 255 255 255 255 255 255 255 255 255 255 255 255 255 255 255 255 255 255 255 255 255 255 
255 255 255 255 255 255 255 255 255 255 255 255 255 255 255 255 255 255 255 255 255 255 255 255 119 187 255 255 255 255 255 255 255 255 255 255 255 255 255 255 255 255 255 255 255 255 255 255 255 255 0 255 255 255 255 255 255 255 255 255 255 255 255 255 255 255 255 255 255 255 255 255 255 255 255 255 
255 255 255 255 255 255 255 255 255 255 255 255 255 255 255 255 255 255 255 255 255 255 255 255 119 187 255 255 255 255 255 255 255 255 255 255 255 255 255 255 255 255 255 255 255 255 255 255 255 255 51 255 255 255 255 255 255 255 255 255 255 255 255 255 255 255 255 255 255 255 255 255 255 255 255 255 
255 255 255 255 255 255 255 255 255 255 255 255 255 255 255 255 255 255 255 255 255 255 255 255 68 204 255 255 255 255 255 255 255 255 255 255 255 255 255 255 255 255 255 255 255 255 255 255 255 255 68 255 255 255 255 255 255 255 255 255 255 255 255 255 255 255 255 255 255 255 255 255 255 255 255 255 
255 255 255 255 255 255 255 255 255 255 255 255 255 255 255 255 255 255 255 255 255 255 255 255 68 255 255 255 255 255 255 255 255 255 255 255 255 255 255 255 255 255 255 255 255 255 255 255 255 255 0 255 255 255 255 255 255 255 255 255 255 255 255 255 255 255 255 255 255 255 255 255 255 255 255 255 
255 255 255 255 255 255 255 255 255 255 255 255 255 255 255 255 255 255 255 255 255 255 255 255 34 255 255 255 255 255 255 255 255 255 255 255 255 255 255 255 255 255 255 255 255 255 255 255 255 255 17 255 255 255 255 255 255 255 255 255 255 255 255 255 255 255 255 255 255 255 255 255 255 255 255 255 
255 255 255 255 255 255 255 255 255 255 255 255 255 255 255 255 255 255 255 255 255 255 255 221 68 255 255 255 255 255 255 255 255 255 255 255 255 255 255 255 255 255 255 255 255 255 255 255 255 255 68 255 255 255 255 255 255 255 255 255 255 255 255 255 255 255 255 255 255 255 255 255 255 255 255 255 
255 255 255 255 255 255 255 255 255 255 255 255 255 255 255 255 255 255 255 255 255 255 255 187 85 255 255 255 255 255 255 255 255 255 255 255 255 255 255 255 255 255 255 255 255 255 255 255 255 255 68 204 255 255 255 255 255 255 255 255 255 255 255 255 255 255 255 255 255 255 255 255 255 255 255 255 
255 255 255 255 255 255 255 255 255 255 255 255 255 255 255 255 255 255 255 255 255 255 255 119 170 255 255 255 255 255 255 255 255 255 255 255 255 255 255 255 255 255 255 255 255 255 255 255 255 255 119 187 255 255 255 255 255 255 255 255 255 255 255 255 255 255 255 255 255 255 255 255 255 255 255 255 
255 255 255 255 255 255 255 255 255 255 255 255 255 255 255 255 255 255 255 255 255 255 255 119 187 255 255 255 255 255 255 255 255 255 255 255 255 255 255 255 255 255 255 255 255 255 255 255 255 255 170 119 255 255 255 255 255 255 255 255 255 255 255 255 255 255 255 255 255 255 255 255 255 255 255 255 
255 255 255 255 255 255 255 255 255 255 255 255 255 255 255 255 255 255 255 255 255 255 255 221 255 255 255 255 255 255 255 255 255 255 255 255 255 255 255 255 255 255 255 255 255 255 255 255 255 255 255 102 255 255 255 255 255 255 255 255 255 255 255 255 255 255 255 255 255 255 255 255 255 255 255 255 
255 255 255 255 255 255 255 255 255 255 255 255 255 255 255 255 255 255 255 255 255 255 255 255 255 255 255 255 255 255 255 255 255 255 255 255 255 255 255 255 255 255 255 255 255 255 255 255 255 255 255 136 255 255 255 255 255 255 255 255 255 255 255 255 255 255 255 255 255 255 255 255 255 255 255 255 
255 255 255 255 255 255 255 255 255 255 255 255 255 255 255 255 255 255 255 255 255 255 255 255 255 255 255 255 255 255 255 255 255 255 255 255 255 255 255 255 255 255 255 255 255 255 255 255 255 255 255 255 255 255 255 255 255 255 255 255 255 255 255 255 255 255 255 255 255 255 255 255 255 255 255 255 
