P2
102 139
255
255 255 255 255 255 255 255 255 255 255 255 255 255 255 255 255 255 255 255 255 255 255 255 255 255 255 255 255 255 255 255 255 255 255 255 255 255 255 255 255 255 255 255 255 255 255 255 255 255 255 255 255 255 255 255 255 255 255 255 255 255 255 255 255 255 255 255 255 255 255 255 255 255 255 255 255 255 255 255 255 255 255 255 255 255 255 255 255 255 255 255 255 255 255 255 255 255 255 255 255 255 255 
255 255 255 255 255 255 255 255 255 255 255 255 255 255 255 255 255 255 255 255 255 255 255 255 255 255 255 255 255 255 255 255 255 255 255 255 255 255 255 255 255 255 255 255 255 255 255 255 255 255 238 153 102 68 102 153 238 255 255 255 255 255 255 255 255 255 255 255 255 255 255 255 255 255 255 255 255 255 255 255 255 255 255 255 255 255 255 255 255 255 255 255 255 255 255 255 255 255 255 255 255 255 
255 255 255 255 255 255 255 255 255 255 255 255 255 255 255 255 255 255 255 255 255 255 255 255 255 255 255 255 255 255 255 255 255 255 255 255 255 255 255 255 255 255 204 153 119 68 68 68 68 68 17 0 0 0 0 0 0 68 68 68 17 0 68 170 255 255 255 255 255 255 255 255 255 255 255 255 255 255 255 255 255 255 255 255 255 255 255 255 255 255 255 255 255 255 255 255 255 255 255 255 255 255 
255 255 255 255 255 255 255 255 255 255 255 255 255 255 255 255 255 255 255 255 255 255 255 255 255 255 255 255 255 255 255 255 255 255 255 255 255 255 255 170 102 17 0 0 0 0 0 0 0 0 0 0 0 0 0 0 0 0 0 0 0 0 0 0 68 187 255 255 255 255 255 255 255 255 255 255 255 255 255 255 255 255 255 255 255 255 255 255 255 255 255 255 255 255 255 255 255 255 255 255 255 255 
255 255 255 255 255 255 255 255 255 255 255 255 255 255 255 255 255 255 255 255 255 255 255 255 255 255 255 255 255 255 255 255 255 255 255 255 238 119 34 0 0 0 0 0 0 0 0 0 0 0 0 0 0 0 0 0 0 0 0 0 0 0 0 0 0 0 119 238 255 255 255 255 255 255 255 255 255 255 255 255 255 255 255 255 255 255 255 255 255 255 255 255 255 255 255 255 255 255 255 255 255 255 
255 255 255 255 255 255 255 255 255 255 255 255 255 255 255 255 255 255 255 255 255 255 255 255 255 255 255 255 255 255 255 255 255 255 238 119 17 0 0 0 0 0 0 0 0 0 0 0 0 0 0 0 0 0 0 0 0 0 0 0 0 0 0 0 0 0 0 34 187 255 255 255 255 255 255 255 255 255 255 255 255 255 255 255 255 255 255 255 255 255 255 255 255 255 255 255 255 255 255 255 255 255 
255 255 255 255 255 255 255 255 255 255 255 255 255 255 255 255 255 255 255 255 255 255 255 255 255 255 255 255 255 255 255 255 255 170 17 0 0 0 0 0 0 0 0 0 0 0 0 0 0 0 0 0 0 0 0 0 0 0 0 0 0 0 0 0 0 0 0 0 0 51 85 136 221 255 255 255 255 255 255 255 255 255 255 255 255 255 255 255 255 255 255 255 255 255 255 255 255 255 255 255 255 255 
255 255 255 255 255 255 255 255 255 255 255 255 255 255 255 255 255 255 255 255 255 255 255 255 255 255 255 255 255 255 255 238 85 0 0 0 0 0 0 0 0 0 0 0 0 0 0 0 0 0 0 0 0 0 0 0 0 0 0 0 0 0 0 0 0 0 0 0 0 0 0 0 0 85 187 255 255 255 255 255 255 255 255 255 255 255 255 255 255 255 255 255 255 255 255 255 255 255 255 255 255 255 
255 255 255 255 255 255 255 255 255 255 255 255 255 255 255 255 255 255 255 255 255 255 255 255 255 255 255 255 255 255 187 17 0 0 0 0 0 0 0 0 0 0 0 0 0 0 0 0 0 0 0 0 0 0 0 0 0 0 0 0 0 0 0 0 0 0 0 0 0 0 0 0 0 0 0 102 238 255 255 255 255 255 255 255 255 255 255 255 255 255 255 255 255 255 255 255 255 255 255 255 255 255 
255 255 255 255 255 255 255 255 255 255 255 255 255 255 255 255 255 255 255 255 255 255 255 255 255 255 255 255 255 136 0 0 0 0 0 0 0 0 0 0 0 0 0 0 0 34 68 68 68 68 68 17 0 0 0 0 0 0 0 0 0 0 0 0 0 0 0 0 0 0 0 0 0 0 0 102 34 187 255 255 255 255 255 255 255 255 255 255 255 255 255 255 255 255 255 255 255 255 255 255 255 255 
255 255 255 255 255 255 255 255 255 255 255 255 255 255 255 255 255 255 255 255 255 255 255 255 255 255 255 255 102 0 0 0 0 0 0 0 0 0 0 0 0 0 85 136 204 204 136 136 102 136 136 136 153 170 119 34 0 0 0 0 0 0 0 0 0 0 0 0 0 0 0 0 0 0 0 85 238 119 136 255 255 255 255 255 255 255 255 255 255 255 255 255 255 255 255 255 255 255 255 255 255 255 
255 255 255 255 255 255 255 255 255 255 255 255 255 255 255 255 255 255 255 255 255 255 255 255 255 255 238 51 0 0 0 0 0 0 0 0 0 0 0 0 102 221 204 102 17 0 0 0 0 0 0 0 0 0 51 119 136 102 0 0 0 0 0 0 0 0 0 0 0 0 0 0 0 0 0 0 102 255 187 119 255 255 255 255 255 255 255 255 255 255 255 255 255 255 255 255 255 255 255 255 255 255 
255 255 255 255 255 255 255 255 255 255 255 255 255 255 255 255 255 255 255 255 255 255 255 255 255 238 51 0 0 0 0 0 0 0 0 0 0 0 85 221 187 68 0 0 0 0 0 0 0 0 0 0 0 0 0 0 0 51 136 85 0 0 0 0 0 0 0 0 0 0 0 0 0 0 0 0 0 34 85 170 136 255 255 255 255 255 255 255 255 255 255 255 255 255 255 255 255 255 255 255 255 255 
255 255 255 255 255 255 255 255 255 255 255 255 255 255 255 255 255 255 255 255 255 255 255 255 204 17 0 0 0 0 0 0 0 0 0 0 17 170 238 119 0 0 0 0 0 0 0 0 0 0 0 0 0 0 0 0 0 0 0 17 85 51 0 0 0 0 0 0 0 0 0 0 0 0 0 0 0 0 0 0 51 170 255 255 255 255 255 255 255 255 255 255 255 255 255 255 255 255 255 255 255 255 
255 255 255 255 255 255 255 255 255 255 255 255 255 255 255 255 255 255 255 255 255 255 255 221 17 0 0 0 0 0 0 0 0 0 0 51 204 204 34 0 0 0 0 0 0 0 0 0 0 0 0 0 0 0 0 0 0 0 0 0 0 17 17 0 0 0 0 0 0 0 0 0 0 0 0 0 0 0 0 0 0 0 102 255 255 255 255 255 255 255 255 255 255 255 255 255 255 255 255 255 255 255 
255 255 255 255 255 255 255 255 255 255 255 255 255 255 255 255 255 255 255 255 255 255 238 51 0 0 0 0 0 0 0 0 0 0 85 238 170 17 0 0 0 0 0 0 0 0 0 0 0 0 0 0 0 0 0 0 0 0 0 0 0 0 0 0 0 0 0 0 0 0 0 0 0 0 0 0 0 0 0 0 0 0 0 153 255 255 255 255 255 255 255 255 255 255 255 255 255 255 255 255 255 255 
255 255 255 255 255 255 255 255 255 255 255 255 255 255 255 255 255 255 255 255 255 255 119 0 0 0 0 0 0 0 0 0 0 102 255 153 0 0 0 0 0 0 0 17 102 136 187 187 204 136 136 119 102 68 0 0 0 0 0 0 0 0 0 0 0 0 0 0 0 0 0 0 0 0 0 0 0 0 0 0 0 0 0 0 136 255 255 255 255 255 255 255 255 255 255 255 255 255 255 255 255 255 
255 255 255 255 255 255 255 255 255 255 255 255 255 255 255 255 255 255 255 255 255 187 0 0 0 0 0 0 0 0 0 0 102 255 153 0 0 0 0 0 0 68 170 238 170 119 51 0 0 0 0 0 0 0 68 0 0 0 0 0 0 0 0 0 0 0 0 0 0 0 0 0 0 0 0 0 0 0 0 0 0 0 0 0 0 102 255 255 255 255 255 255 255 255 255 255 255 255 255 255 255 255 
255 255 255 255 255 255 255 255 255 255 255 255 255 255 255 255 255 255 255 255 238 34 0 0 0 0 0 0 0 0 0 51 255 153 0 0 0 0 0 34 187 221 119 17 0 0 0 0 0 0 0 0 0 0 0 0 0 0 0 0 0 0 0 0 0 0 0 0 0 0 0 0 0 0 0 0 0 0 0 0 0 0 0 0 0 0 119 255 255 255 255 255 255 255 255 255 255 255 255 255 255 255 
255 255 255 255 255 255 255 255 255 255 255 255 255 255 255 255 255 255 255 238 17 0 0 0 0 0 0 0 0 0 51 238 204 17 0 0 0 0 85 238 136 0 0 0 0 0 0 0 0 0 0 0 0 0 0 0 0 0 0 0 0 0 0 0 0 0 0 0 0 0 0 0 0 0 0 0 0 0 0 0 0 0 0 0 0 0 0 102 255 255 255 255 255 255 255 255 255 255 255 255 255 255 
255 255 255 255 255 255 255 255 255 255 255 255 255 255 255 255 255 255 255 85 0 0 0 0 0 0 0 0 0 17 238 238 17 0 0 0 0 102 204 34 0 0 0 0 0 0 0 0 0 0 0 0 0 0 0 0 0 0 0 0 0 0 0 0 0 0 0 0 0 0 0 0 0 0 0 0 0 0 0 0 0 0 0 0 0 0 0 0 136 255 255 255 255 255 255 255 255 255 255 255 255 255 
255 255 255 255 255 255 255 255 255 255 255 255 255 255 255 255 255 255 187 0 0 0 0 0 0 0 0 0 0 170 255 51 0 0 0 0 102 204 17 0 0 0 0 0 0 0 0 0 0 0 0 0 0 0 0 0 0 0 0 0 0 0 0 0 0 0 0 0 0 0 0 0 0 0 0 0 0 0 0 0 0 0 0 0 0 0 0 0 0 187 255 255 255 255 255 255 255 255 255 255 255 255 
255 255 255 255 255 255 255 255 255 255 255 255 255 255 255 255 255 255 34 0 0 0 0 0 0 0 0 0 85 255 119 0 0 0 0 102 204 0 0 0 0 0 0 0 17 85 119 102 17 0 0 0 0 0 0 0 0 0 0 0 0 0 0 0 0 0 0 0 0 0 0 0 0 0 0 0 0 0 0 0 17 68 68 68 34 0 0 0 68 51 238 255 255 255 255 255 255 255 255 255 255 255 
255 255 255 255 255 255 255 255 255 255 255 255 255 255 255 255 255 136 0 0 0 0 0 0 0 0 0 17 238 170 0 0 0 0 51 221 17 0 0 0 0 0 34 153 187 34 0 0 0 0 0 0 0 0 0 0 0 0 0 0 0 0 0 0 0 0 0 0 0 0 0 0 0 0 0 0 0 0 51 136 119 68 68 68 68 119 68 0 0 119 119 255 255 255 255 255 255 255 255 255 255 255 
255 255 255 255 255 255 255 255 255 255 255 255 255 255 255 255 238 17 0 0 0 0 0 0 0 0 0 170 221 17 0 0 0 0 204 68 0 0 0 0 0 136 204 68 17 68 17 0 0 0 0 0 0 0 0 0 0 0 0 0 0 0 0 0 0 0 0 0 0 0 0 0 0 0 0 0 0 34 51 0 0 0 0 0 0 0 17 85 17 170 34 255 255 255 255 255 255 255 255 255 255 255 
255 255 255 255 255 255 255 255 255 255 255 255 255 255 255 255 85 0 0 0 0 0 0 0 0 0 85 255 51 0 0 0 0 136 153 0 0 0 0 17 204 153 0 68 68 0 0 0 0 0 0 0 0 0 0 0 0 0 0 0 0 0 0 0 0 0 0 0 0 0 0 0 0 0 0 0 0 17 0 0 0 0 0 0 0 0 0 17 153 102 119 170 255 255 255 255 255 255 255 255 255 255 
255 255 255 255 255 255 255 255 255 255 255 255 255 255 255 136 0 0 0 0 0 0 0 0 0 17 221 119 0 0 0 0 34 238 17 0 0 0 51 238 102 0 119 34 0 0 0 0 0 0 0 0 0 0 0 0 0 0 0 0 0 0 0 0 0 0 0 0 0 0 0 0 0 0 0 0 0 0 0 0 0 0 0 0 0 0 0 0 17 64 204 102 255 255 255 255 255 255 255 255 255 255 
255 255 255 255 255 255 255 255 255 255 255 255 255 255 204 17 0 0 0 0 0 0 0 0 0 136 187 0 0 0 0 0 187 136 0 0 0 17 238 102 17 170 17 0 0 0 0 0 0 0 0 0 0 0 0 0 0 0 0 0 0 0 0 0 0 0 0 0 0 17 119 0 0 0 0 0 0 0 0 0 0 0 0 0 0 0 0 0 0 0 255 34 255 255 255 255 255 255 255 255 255 255 
255 255 255 255 255 255 255 255 255 255 255 255 255 255 51 0 0 0 0 0 0 0 0 0 34 238 34 0 0 0 0 68 238 17 0 0 17 204 136 0 170 102 0 0 0 0 0 0 0 0 0 0 0 0 0 0 0 0 0 0 0 0 0 0 0 0 0 0 68 204 255 0 0 0 0 0 0 0 0 0 0 0 0 0 0 0 0 0 0 0 187 68 255 255 255 255 255 255 255 255 255 255 
255 255 255 255 255 255 255 255 255 255 255 255 255 119 0 0 0 0 0 0 0 0 0 0 187 136 0 0 0 0 0 187 153 0 0 0 170 170 0 119 221 0 0 0 0 0 0 0 0 0 0 0 0 0 0 0 0 0 0 0 0 0 0 0 0 0 0 153 255 255 255 0 0 0 0 0 0 0 0 0 0 0 0 0 0 0 0 0 0 0 153 68 204 255 255 255 255 255 255 255 255 255 
255 255 255 255 255 255 255 255 255 255 255 255 170 0 0 0 0 0 0 0 0 0 0 68 204 0 0 0 0 0 51 255 34 0 0 85 238 17 17 238 136 0 0 0 0 0 0 0 0 0 0 0 0 0 0 0 0 0 0 0 0 0 0 0 0 0 102 255 255 255 255 17 0 0 0 0 0 0 0 0 0 0 0 0 0 0 0 0 0 0 85 119 187 255 255 255 255 255 255 255 255 255 
255 255 255 255 255 255 255 255 255 255 255 255 17 0 0 0 0 0 0 0 0 0 0 204 51 0 0 0 0 0 153 170 0 0 17 238 85 0 136 255 68 0 0 0 0 0 0 0 0 0 0 0 0 0 0 0 0 0 0 0 0 0 0 0 0 17 238 255 255 255 255 68 0 34 119 153 0 0 0 0 0 0 0 0 0 0 0 0 0 0 0 68 187 255 255 255 255 255 255 255 255 255 
255 255 255 255 255 255 255 255 255 255 255 255 204 34 0 0 0 0 0 0 0 0 102 136 0 0 0 0 0 34 255 85 0 0 136 187 0 0 238 255 17 0 0 0 0 0 0 0 0 0 0 0 0 0 0 17 204 119 0 0 0 0 0 0 102 204 255 255 255 255 255 255 238 255 255 136 0 0 0 0 0 0 0 0 0 0 0 0 0 0 0 0 187 255 255 255 255 255 255 255 255 255 
255 255 255 255 255 255 255 255 255 255 255 255 170 0 0 0 0 0 0 0 0 17 187 17 0 0 0 0 0 119 221 0 0 17 238 85 0 85 238 238 0 0 0 0 0 0 0 0 0 0 0 17 34 0 17 153 255 255 119 17 0 51 136 238 255 255 255 255 255 255 255 255 255 255 238 17 0 0 0 0 0 0 0 0 0 0 0 0 0 0 0 0 221 255 255 255 255 255 255 255 255 255 
255 255 255 255 255 255 255 255 255 255 255 255 68 0 0 0 0 0 0 0 0 136 85 0 0 0 0 0 0 221 119 0 0 136 221 0 0 153 204 187 0 0 102 187 255 204 187 136 119 119 187 221 170 187 119 255 255 255 255 255 255 255 255 255 255 255 255 255 255 255 255 255 255 255 187 0 0 0 0 0 0 0 0 0 0 0 0 0 0 0 0 0 153 255 255 255 255 255 255 255 255 255 
255 255 255 255 255 255 255 255 255 255 255 255 102 0 0 0 0 0 0 0 34 170 0 0 0 0 0 0 68 255 17 0 0 221 102 0 0 204 153 136 0 136 255 255 255 255 255 255 255 255 255 255 238 255 238 255 255 255 255 255 255 255 255 255 255 255 255 255 255 255 255 255 255 255 187 0 0 0 0 0 0 0 0 0 0 0 0 0 0 0 0 0 119 255 255 255 255 255 255 255 255 255 
255 255 255 255 255 255 255 255 255 255 255 204 17 0 0 0 0 0 0 0 153 34 0 0 0 0 0 0 153 170 0 0 51 255 34 0 0 221 187 136 68 255 255 255 255 255 255 255 255 255 255 255 255 255 255 255 255 255 255 255 255 255 255 255 255 255 255 255 255 255 255 255 255 255 255 0 0 0 0 0 0 0 0 0 0 0 0 0 0 0 0 0 119 255 255 255 255 255 255 255 255 255 
255 255 255 255 255 255 255 255 255 255 255 85 0 0 0 0 0 0 0 68 136 0 0 0 0 0 0 0 238 85 0 0 136 204 0 0 68 187 187 85 170 255 255 255 255 255 255 255 255 255 255 255 255 255 255 255 255 255 255 255 255 255 255 255 255 255 255 255 255 255 255 255 255 255 255 85 0 0 0 0 0 0 0 0 0 0 0 0 0 0 0 0 119 255 255 255 255 255 255 255 255 255 
255 255 255 255 255 255 255 255 255 255 255 68 0 0 0 0 0 0 0 187 17 0 0 0 0 0 0 85 238 0 0 0 221 136 0 0 119 136 187 68 153 255 255 255 255 255 255 255 255 255 255 255 255 255 255 255 255 255 255 255 255 255 255 255 255 255 255 255 255 255 255 255 255 255 255 170 0 0 0 0 0 0 0 0 0 0 0 0 0 0 0 0 119 255 255 255 255 255 255 255 255 255 
255 255 255 255 255 255 255 255 255 255 255 17 0 0 0 0 0 0 119 102 0 0 0 0 0 0 0 153 136 0 0 0 255 68 0 0 136 136 187 17 119 255 255 255 255 255 255 255 255 255 255 255 255 255 255 255 255 255 255 255 255 255 255 255 255 255 255 255 255 255 255 255 255 255 255 255 17 0 0 0 0 0 0 0 0 0 0 0 0 0 0 0 119 255 255 255 255 255 255 255 255 255 
255 255 255 255 255 255 255 255 255 255 255 0 0 0 0 0 0 34 170 0 0 0 0 0 0 0 0 238 51 0 0 68 255 0 0 0 153 136 187 0 119 255 255 255 255 255 255 255 255 255 255 255 255 255 255 255 255 255 255 255 255 255 255 255 255 255 255 255 255 255 255 255 255 255 255 255 102 0 0 0 0 0 0 0 0 0 0 0 0 0 0 0 119 255 255 255 255 255 255 255 255 255 
255 255 255 255 255 255 255 255 255 255 187 0 0 0 0 0 0 170 34 0 0 0 0 0 0 0 85 221 0 0 0 102 204 0 0 0 187 85 136 0 187 255 255 255 255 255 255 255 255 255 255 255 255 255 255 255 255 255 255 255 255 255 255 255 255 255 255 255 255 255 255 255 255 255 255 255 170 0 0 0 0 0 0 0 0 0 0 0 0 0 0 0 119 255 255 255 255 255 255 255 255 255 
255 255 255 255 255 255 255 255 238 119 0 0 0 0 0 0 136 119 0 0 0 0 0 0 0 0 153 119 0 0 0 136 136 0 0 0 204 68 153 0 255 255 255 255 255 255 255 255 255 255 255 255 255 255 255 255 255 255 255 255 255 255 255 255 255 255 255 255 255 255 255 255 255 255 255 255 238 0 0 0 0 0 0 0 0 0 0 0 0 0 0 0 119 255 255 255 255 255 255 255 255 255 
255 255 255 255 255 255 255 170 17 0 0 0 0 0 0 68 153 0 0 0 0 0 0 0 0 0 238 34 0 0 0 153 85 0 0 0 255 34 136 51 255 255 255 255 255 255 255 255 255 255 255 255 255 255 255 255 255 255 255 255 255 255 255 255 255 255 255 255 255 255 255 255 255 255 255 255 255 51 0 0 0 0 0 0 0 0 0 0 0 0 0 0 119 255 255 255 255 255 255 255 255 255 
255 255 255 255 255 255 204 17 0 0 0 0 0 0 51 187 0 0 0 0 0 0 0 0 0 85 204 0 0 0 0 187 51 0 0 0 255 0 136 102 255 255 255 255 255 255 255 255 255 255 255 255 255 255 255 255 255 255 255 255 255 255 255 255 255 255 255 255 255 255 255 255 255 255 255 255 255 119 0 0 0 0 0 0 0 0 0 0 0 0 0 0 136 255 255 255 255 255 255 255 255 255 
255 255 255 255 255 255 34 0 0 0 0 0 0 51 187 17 0 0 0 0 0 0 0 0 0 153 102 0 0 0 0 221 0 0 0 51 187 34 85 119 255 255 255 255 255 255 255 255 255 255 255 255 255 255 255 255 255 255 255 255 255 255 255 255 255 255 255 255 255 255 255 255 255 255 255 255 255 153 0 0 0 0 0 0 0 0 0 0 0 0 0 0 187 255 255 255 255 255 255 255 255 255 
255 255 255 255 255 255 0 0 0 0 0 0 51 187 17 0 0 0 0 0 0 0 0 0 0 221 17 0 0 0 0 204 0 0 0 68 170 68 68 187 255 255 255 255 255 255 255 255 255 255 255 255 255 255 255 255 255 255 255 255 255 255 255 255 255 255 255 255 255 255 255 255 255 255 255 255 255 204 0 0 0 0 0 0 0 0 0 0 0 0 0 17 255 255 255 255 255 255 255 255 255 255 
255 255 255 255 255 255 68 0 0 0 0 51 136 0 0 0 0 0 0 0 0 0 0 0 51 170 0 0 0 0 17 170 0 0 0 136 136 85 0 238 255 255 255 255 255 255 255 255 255 255 255 255 255 255 255 255 255 255 255 255 255 255 255 255 255 255 255 255 255 255 255 255 255 255 255 255 255 255 0 0 0 0 0 0 0 0 0 0 0 0 0 85 255 255 255 255 255 255 255 255 255 255 
255 255 255 255 255 255 187 0 0 0 102 102 0 0 0 0 0 0 0 0 0 0 0 0 136 102 0 0 0 0 68 136 0 0 0 153 68 102 34 255 255 255 255 255 255 255 255 255 255 255 255 255 255 255 255 255 255 255 255 255 255 255 255 255 255 255 255 255 255 255 255 255 255 255 255 255 255 255 34 0 0 0 0 0 0 0 0 0 0 0 0 119 255 255 255 255 255 255 255 255 255 255 
255 255 255 255 255 255 255 51 17 85 17 0 0 0 0 0 0 0 0 0 0 0 0 0 204 17 0 0 0 0 68 85 0 0 0 187 34 68 119 255 255 255 255 255 255 255 255 255 255 255 255 255 255 255 255 255 255 255 255 255 255 255 255 255 255 255 255 255 255 255 255 255 255 255 255 255 255 255 68 0 0 0 0 0 0 0 0 0 0 0 0 153 255 255 255 255 255 255 255 255 255 255 
255 255 255 255 255 255 238 34 17 0 0 0 0 0 0 0 0 0 0 0 0 0 0 17 170 0 0 0 0 0 136 51 0 0 0 221 0 68 204 255 255 255 255 255 255 255 255 255 255 255 255 255 255 255 255 255 255 255 255 255 255 255 255 255 255 255 255 255 255 255 255 255 255 255 255 255 255 255 102 0 0 0 0 0 0 0 0 0 0 0 17 221 255 255 255 255 255 255 255 255 255 255 
255 255 255 255 255 255 34 0 0 0 0 0 0 0 0 0 0 0 0 0 0 0 0 102 85 0 0 0 0 0 136 0 0 0 51 170 0 68 255 255 255 255 255 255 255 255 255 255 255 255 255 255 255 255 255 255 255 255 255 255 255 255 255 255 255 255 255 255 255 255 255 255 255 255 255 255 255 255 119 0 0 0 0 0 0 0 0 0 0 0 170 255 255 255 255 255 255 255 255 255 255 255 
255 255 255 255 255 255 0 0 0 0 0 0 0 0 0 0 0 0 0 0 0 0 0 153 0 0 0 0 0 0 153 0 0 0 119 119 0 187 255 255 255 255 255 255 255 255 255 255 255 255 255 255 255 255 255 255 255 255 255 255 255 255 255 255 255 255 255 255 255 255 238 187 187 187 238 255 255 255 170 0 0 0 0 0 0 0 0 0 68 119 255 255 255 255 255 255 255 255 255 255 255 255 
255 255 255 255 255 255 51 0 0 0 0 0 0 0 0 0 0 0 0 0 0 0 17 153 0 0 0 0 0 0 136 0 0 0 170 34 34 255 255 255 255 255 255 255 255 255 255 255 255 255 255 255 255 255 255 255 255 255 255 255 255 255 255 255 255 187 51 0 34 34 0 0 0 0 0 119 255 255 187 0 0 0 0 0 0 0 0 170 255 255 255 255 255 255 255 255 255 255 255 255 255 255 
255 255 255 255 255 255 68 153 0 0 0 0 0 0 0 0 0 0 0 0 0 0 102 68 0 0 0 0 0 0 136 0 0 0 204 0 153 255 255 255 255 255 255 255 255 255 255 255 255 255 255 255 255 255 255 255 255 255 255 255 255 255 255 221 119 17 0 0 0 0 0 0 0 0 0 0 136 255 221 0 0 0 0 0 0 0 119 255 255 255 255 255 255 255 255 255 255 255 255 255 255 255 
255 255 255 255 255 255 221 238 34 0 0 0 0 0 0 0 0 0 0 0 0 0 170 0 0 0 0 0 0 51 85 0 0 102 136 17 238 255 221 170 119 68 68 68 68 68 68 102 187 255 255 255 255 255 255 255 255 255 255 255 255 238 119 0 0 51 68 102 119 187 136 119 85 51 0 0 17 255 255 0 0 0 34 85 64 221 255 255 255 255 255 255 255 255 255 255 255 255 255 255 255 255 
255 255 255 255 255 255 255 255 68 0 0 0 0 0 0 0 0 0 0 0 0 34 136 0 0 0 0 0 0 85 34 0 0 170 34 34 68 34 0 0 0 0 0 0 0 0 0 0 0 119 255 255 255 255 255 255 255 255 255 255 204 17 85 187 255 255 255 255 255 255 255 255 255 255 238 187 136 255 255 17 17 187 255 238 187 255 255 255 255 255 255 255 255 255 255 255 255 255 255 255 255 255 
255 255 255 255 255 255 255 255 85 136 0 0 0 0 0 0 0 0 0 0 0 136 34 0 0 0 0 0 0 119 0 0 34 187 0 63 0 0 0 0 0 0 0 0 0 0 0 0 0 0 255 255 255 255 255 255 255 255 255 221 34 187 255 170 102 68 51 0 0 68 68 136 238 255 255 255 255 255 255 34 119 255 255 119 238 255 255 255 255 255 255 255 255 255 255 255 255 255 255 255 255 255 
255 255 255 255 255 255 255 255 136 102 0 0 0 0 0 0 0 0 0 0 51 136 0 0 0 0 0 0 0 119 0 0 136 68 34 221 85 68 119 187 187 187 221 255 255 255 255 221 187 204 255 255 255 255 255 255 255 255 255 51 175 119 17 85 175 85 34 204 167 153 17 0 34 187 255 255 255 255 255 0 119 255 255 119 255 255 255 255 255 255 255 255 255 255 255 255 255 255 255 255 255 255 
255 255 255 255 255 255 255 238 170 102 0 0 0 0 0 0 0 0 0 17 153 17 0 0 0 0 0 0 17 85 0 17 170 0 119 255 255 255 170 51 0 0 0 0 17 92 68 68 136 255 255 255 255 255 255 255 255 255 153 104 34 78 112 255 200 238 221 187 51 0 68 119 0 0 51 170 255 255 204 0 136 255 255 119 255 255 255 255 255 255 255 255 255 255 255 255 255 255 255 255 255 255 
255 255 255 255 255 255 255 255 238 255 153 34 0 68 119 0 0 0 17 153 17 0 0 0 0 0 0 0 102 17 0 136 68 0 221 255 255 153 0 0 102 51 0 0 136 64 187 136 85 119 204 255 255 255 255 255 255 255 102 119 119 136 64 68 68 61 105 102 119 204 255 255 51 153 153 221 255 255 187 0 187 255 255 119 255 255 255 255 255 255 255 255 255 255 255 255 255 255 255 255 255 255 
255 255 255 255 255 255 255 255 255 255 255 153 187 255 119 0 0 51 102 17 0 0 0 0 0 0 0 0 102 0 51 170 0 68 255 255 204 17 0 34 0 17 136 187 68 68 136 68 112 91 119 238 255 255 255 255 255 255 119 170 187 238 204 187 255 255 255 255 255 255 255 204 85 204 255 255 255 255 238 102 238 255 255 72 170 187 187 170 119 136 136 204 255 255 255 255 255 255 255 255 255 255 
255 255 255 255 255 255 255 255 255 255 255 255 255 238 34 0 0 17 0 0 0 0 0 0 0 0 0 68 34 0 187 17 0 153 255 136 34 0 153 255 221 187 200 187 187 187 187 187 238 204 204 187 255 255 255 255 255 255 204 255 255 221 221 255 255 255 255 255 255 255 136 85 170 204 136 238 255 255 255 170 255 255 221 153 255 255 204 119 170 255 255 187 119 170 255 255 255 255 255 255 255 255 
255 255 255 255 255 255 255 255 255 255 255 255 255 136 34 0 0 0 0 0 0 0 0 0 0 0 0 85 0 136 68 0 17 238 255 204 187 102 102 255 255 255 255 255 255 255 255 255 221 255 255 255 255 255 255 255 255 255 204 255 255 102 0 51 119 119 119 68 119 102 187 255 255 255 255 238 255 255 255 119 255 255 136 238 255 255 68 0 0 0 68 221 255 204 119 187 255 255 255 255 255 255 
255 255 255 255 255 255 255 255 255 255 255 255 255 238 119 0 0 0 0 0 0 0 0 0 0 0 51 17 102 119 0 17 119 255 255 255 187 170 119 68 170 255 255 255 255 221 119 34 17 187 255 255 255 255 255 255 255 255 204 255 255 255 204 187 187 187 255 255 255 255 255 255 255 255 255 255 255 255 255 119 255 204 136 255 255 255 68 0 0 0 34 255 255 255 255 187 119 187 255 255 255 255 
255 255 255 255 255 255 255 255 255 255 255 255 255 255 255 187 153 68 0 0 0 0 0 0 0 0 17 102 136 0 0 68 148 255 255 187 204 255 238 119 85 170 153 119 68 68 119 187 255 255 255 255 255 255 255 255 255 255 170 255 255 255 255 255 255 255 255 255 255 255 255 255 255 255 255 255 255 255 255 80 136 153 255 255 255 119 17 0 0 0 204 255 255 255 255 255 255 187 136 153 255 255 
255 255 255 255 255 255 255 255 255 255 255 255 255 255 255 255 255 255 153 119 85 0 0 0 0 0 102 102 0 0 34 91 119 255 255 238 255 255 204 238 255 255 255 255 255 255 255 255 255 255 255 255 255 255 255 255 255 255 221 204 255 255 255 255 255 255 255 255 255 255 255 255 255 255 255 255 255 255 255 119 255 255 255 255 255 85 0 0 0 136 255 255 255 255 255 255 255 255 255 221 221 255 
255 255 255 255 255 255 255 255 255 255 255 255 255 255 255 255 255 255 255 255 85 0 0 0 0 119 68 0 0 0 119 59 119 255 255 255 255 255 255 255 255 255 255 255 255 255 255 255 255 255 255 255 255 255 255 255 255 255 255 187 255 255 255 255 255 255 255 255 255 255 255 255 255 255 255 255 255 255 255 109 255 255 255 255 204 153 0 0 68 255 255 255 255 255 255 255 255 255 255 255 255 255 
255 255 255 255 255 255 255 255 255 255 255 255 255 255 255 255 255 255 255 255 119 0 0 34 102 17 0 0 0 119 113 0 119 255 255 255 255 255 255 255 255 255 255 255 255 255 255 255 255 255 255 255 255 255 255 255 255 255 255 255 255 255 255 255 255 255 255 255 255 255 255 255 255 255 255 255 255 255 255 88 255 255 255 255 102 255 34 0 170 255 255 255 255 255 170 255 255 255 255 255 255 255 
255 255 255 255 255 255 255 255 255 255 255 255 255 255 255 255 255 255 255 255 255 102 0 34 0 0 0 0 51 127 48 0 204 255 255 255 255 255 255 255 255 255 255 255 255 255 255 255 255 255 255 255 255 255 255 255 255 255 255 255 255 255 255 255 255 255 255 255 255 255 255 255 255 255 255 255 255 255 238 64 255 255 255 255 102 255 68 17 255 255 255 255 255 170 102 255 255 255 255 255 255 255 
255 255 255 255 255 255 255 255 255 255 255 255 255 255 255 255 255 255 255 204 170 17 0 0 0 0 0 51 187 80 0 85 255 255 255 255 255 255 255 255 255 255 255 255 255 255 255 255 255 255 255 255 255 255 255 255 255 255 255 255 255 255 187 238 255 255 255 255 255 255 255 255 255 255 255 255 255 255 187 163 255 255 255 204 119 255 68 102 255 255 255 255 255 34 170 255 255 255 255 255 255 255 
255 255 255 255 255 255 255 255 255 255 255 255 255 255 255 255 255 204 17 0 0 0 0 0 0 34 51 148 64 0 17 238 255 255 255 255 255 255 255 255 255 255 255 255 255 255 255 255 255 255 255 255 255 255 255 255 255 255 255 255 255 102 136 187 255 255 255 255 255 255 255 255 255 255 255 255 255 255 170 187 255 255 255 187 119 255 34 170 255 255 255 255 204 17 255 255 255 255 255 255 255 255 
255 255 255 255 255 255 255 255 255 255 255 255 255 255 255 255 255 255 153 51 0 0 0 0 85 136 221 68 0 0 119 255 255 255 255 255 255 255 255 255 255 255 255 255 255 255 255 255 255 255 221 170 187 255 255 255 255 255 255 255 255 68 187 255 255 204 170 221 255 255 255 255 255 255 255 255 255 255 119 187 255 255 255 119 119 255 0 238 255 255 255 255 119 102 255 255 255 255 255 255 255 255 
255 255 255 255 255 255 255 255 255 255 255 255 255 255 255 255 255 255 255 68 0 0 85 204 238 255 255 119 0 0 187 255 255 255 255 255 255 255 255 255 255 255 255 255 255 255 255 255 255 255 255 255 204 170 255 255 255 255 255 255 255 119 238 255 255 221 255 187 153 221 255 255 255 255 255 255 255 255 85 204 255 255 255 119 170 175 50 255 255 255 255 238 17 221 255 255 255 255 255 255 255 255 
255 255 255 255 255 255 255 255 255 255 255 255 255 255 255 255 255 255 255 204 187 238 255 255 255 255 238 109 0 0 187 255 255 255 255 255 255 255 255 255 255 255 255 255 238 187 238 255 255 255 255 255 255 187 238 255 255 255 255 255 255 204 187 255 170 187 255 255 255 187 204 255 255 255 255 255 255 255 34 255 255 255 255 68 187 100 88 255 255 255 255 119 102 255 255 255 255 255 255 255 255 255 
255 255 255 255 255 255 255 255 255 255 255 255 255 255 255 255 255 255 255 255 255 255 255 255 255 136 82 191 34 0 187 255 255 255 255 255 255 255 255 255 255 255 238 136 153 255 255 255 204 255 255 255 255 255 238 255 255 255 255 255 255 255 238 255 68 187 255 255 255 255 238 170 255 255 255 255 255 221 34 255 255 255 255 51 187 64 187 255 255 255 204 34 221 255 255 255 255 255 255 255 255 255 
255 255 255 255 255 255 255 255 255 255 255 255 255 255 255 255 255 255 255 255 255 255 255 170 119 133 153 255 119 0 153 255 255 255 255 255 255 255 255 255 255 153 102 238 255 255 255 255 238 136 255 255 255 255 255 255 255 255 255 255 255 255 255 221 34 255 255 255 255 255 255 187 153 255 255 221 255 153 68 255 255 255 255 0 238 40 187 255 255 238 51 136 255 255 255 255 255 255 255 255 255 255 
255 255 255 255 255 255 255 255 255 255 255 255 255 255 255 255 255 255 255 255 255 187 119 204 170 153 255 255 177 0 119 255 255 255 255 255 255 255 255 204 68 136 255 255 255 255 255 255 255 204 85 187 255 255 255 255 255 255 255 255 255 255 204 68 187 255 255 255 255 255 255 255 170 255 255 187 255 102 119 255 255 255 221 34 255 32 187 255 221 51 68 255 255 255 255 255 255 255 255 255 255 255 
255 255 255 255 255 255 255 255 255 255 255 255 255 255 255 255 255 255 255 204 119 187 255 170 204 255 255 255 136 68 68 255 255 255 255 255 255 255 153 68 204 255 255 255 255 255 255 255 255 255 221 51 68 153 255 255 255 255 255 238 136 102 119 204 255 255 255 255 255 255 255 255 136 255 255 170 255 34 204 255 255 255 170 68 255 32 238 204 17 34 238 255 255 255 255 255 255 255 255 255 255 255 
255 255 255 255 255 255 255 255 255 255 255 255 255 255 255 255 255 221 119 170 255 255 170 204 255 255 255 238 136 153 0 221 255 255 255 255 255 187 51 238 255 255 255 255 255 255 255 255 255 255 255 255 153 102 85 238 255 255 221 17 51 204 255 255 255 255 255 255 238 170 114 153 119 255 255 170 204 34 255 255 255 255 119 119 255 143 238 17 17 204 255 255 255 255 255 255 255 255 255 255 255 255 
255 255 255 255 255 255 255 255 255 255 255 255 255 255 255 255 170 136 255 255 255 170 204 255 255 255 255 119 255 255 34 119 255 255 255 255 255 68 170 255 255 255 255 255 255 255 255 255 255 255 255 255 255 255 255 153 153 119 17 17 238 255 255 255 255 255 238 119 17 175 68 170 119 255 238 187 119 119 255 255 255 255 85 136 255 187 88 17 204 255 255 255 204 238 255 255 255 255 255 255 255 255 
255 255 255 255 255 255 255 255 255 255 255 255 255 255 255 119 204 255 255 255 119 204 255 255 255 255 187 187 255 255 153 34 255 255 187 255 255 68 187 255 170 136 221 255 255 255 255 255 255 255 255 255 255 255 255 255 170 119 136 221 255 255 255 187 136 85 17 0 68 102 204 187 153 255 170 221 17 221 255 255 255 255 68 187 255 238 46 119 255 255 255 204 136 255 255 255 255 255 255 255 255 255 
255 255 255 255 255 255 255 255 255 255 255 255 255 238 119 221 255 255 255 119 204 255 255 255 255 238 119 255 255 255 255 51 153 255 221 187 255 119 153 255 170 153 17 51 68 68 68 68 92 68 119 187 221 255 255 255 255 255 255 170 119 51 0 51 17 0 0 0 150 136 170 255 238 255 170 119 68 255 255 255 255 255 68 187 255 255 0 221 255 255 204 221 255 255 255 255 255 255 255 255 255 255 
255 255 255 255 255 255 255 255 255 255 255 255 221 119 238 255 255 255 170 204 255 255 255 255 255 119 238 255 255 255 204 100 34 238 255 119 255 204 119 255 187 255 170 0 0 34 255 255 255 204 68 170 153 17 17 85 119 119 17 0 102 187 136 238 68 0 0 112 85 255 136 255 255 255 153 17 170 255 255 255 255 255 68 187 255 255 16 255 255 170 170 255 255 255 255 255 255 255 255 255 255 255 
255 255 255 255 255 255 255 255 255 255 255 204 119 255 255 255 255 170 204 255 255 255 255 255 221 153 255 255 255 255 51 0 68 119 255 170 187 255 102 255 153 255 255 102 0 0 68 255 255 255 255 255 255 221 255 187 204 221 255 238 255 255 255 255 34 0 85 102 204 204 187 255 255 170 119 34 255 255 255 255 255 255 119 187 255 255 64 255 153 102 255 255 255 255 255 255 255 255 255 255 255 255 
255 255 255 255 255 255 255 255 255 255 204 119 255 255 255 255 170 204 255 255 255 255 255 255 119 255 255 255 255 136 0 0 48 16 170 255 119 255 119 255 170 238 255 238 51 0 0 102 221 255 255 255 255 255 255 255 255 255 255 255 255 255 136 68 0 51 159 119 255 119 255 255 255 170 17 153 255 255 255 255 255 255 153 119 255 255 153 143 51 255 255 255 255 255 255 255 255 255 255 255 255 255 
255 255 255 255 255 255 255 255 255 153 170 255 255 255 255 153 204 255 255 255 255 255 255 238 136 255 255 255 255 17 0 0 0 75 17 238 119 221 221 204 255 238 255 255 255 102 0 0 122 255 204 255 255 255 255 255 255 255 255 221 136 68 0 0 68 223 68 255 221 136 255 255 238 96 25 221 255 255 255 255 255 255 238 119 255 255 150 0 187 255 255 255 255 255 255 255 255 255 255 255 255 255 
255 255 255 255 255 255 255 204 119 170 255 255 255 255 153 153 255 255 255 255 255 255 255 153 238 255 255 255 204 0 51 170 68 0 75 68 221 119 255 238 255 255 255 255 255 255 136 17 136 173 102 159 132 191 255 187 136 136 92 143 238 102 0 119 255 68 204 255 119 238 255 255 170 0 123 170 119 204 255 255 255 255 255 119 255 255 85 28 255 255 255 255 255 255 255 255 255 255 255 255 255 255 
255 255 255 255 255 221 119 187 255 255 255 255 255 153 153 255 255 255 255 255 255 255 255 119 255 255 255 255 221 153 255 238 17 17 238 17 136 68 238 255 255 255 255 255 255 255 255 221 102 51 170 255 255 255 200 187 187 187 238 255 238 63 187 255 119 136 255 238 136 255 255 221 34 34 255 255 255 170 136 255 255 255 255 136 255 255 187 73 255 255 255 255 255 255 255 255 255 255 255 255 255 255 
255 255 255 238 136 153 255 255 255 255 255 255 221 136 255 255 255 255 255 255 255 255 187 204 255 255 255 255 255 255 255 119 0 102 255 136 0 102 119 255 255 255 255 255 255 255 255 255 255 221 128 92 136 187 170 238 136 187 96 153 196 255 255 153 102 255 255 136 238 255 255 102 0 148 85 204 255 255 204 136 238 255 255 221 204 255 255 127 238 255 255 255 255 255 255 255 255 255 255 255 255 255 
255 255 204 119 238 255 255 255 255 255 255 255 119 255 255 255 255 255 255 255 255 255 136 255 255 255 255 255 255 255 204 17 0 170 255 255 34 34 17 238 255 255 255 255 255 255 255 255 255 255 255 255 238 187 187 187 187 238 255 255 255 255 204 68 238 255 238 136 255 255 187 0 68 51 0 0 119 255 255 238 119 255 255 255 170 255 255 96 17 119 255 255 255 255 255 255 255 255 255 255 255 255 
255 255 204 255 255 255 255 255 255 255 255 187 187 255 255 255 255 255 255 255 255 221 153 255 255 255 255 255 255 204 17 0 0 255 255 255 187 0 0 102 255 255 255 255 255 255 255 255 255 255 255 255 255 255 255 255 255 255 255 255 255 136 68 238 255 255 136 238 255 255 68 0 100 0 0 0 0 102 255 255 119 255 255 255 170 255 255 50 0 119 255 255 255 255 255 255 255 255 255 255 255 255 
255 255 255 255 255 255 255 255 255 255 255 119 255 255 255 255 255 255 255 255 255 119 238 255 255 255 255 255 204 17 0 0 51 255 255 255 255 68 0 0 204 255 255 255 255 255 255 255 255 255 255 255 255 255 255 255 255 255 238 170 51 119 238 255 255 238 136 255 255 170 0 68 68 0 0 0 0 0 119 255 102 238 255 255 221 153 255 118 0 221 255 255 255 255 255 255 255 255 255 255 255 255 
255 255 255 255 255 255 255 255 255 255 170 187 255 255 255 255 255 255 255 255 221 153 255 255 255 255 255 136 17 0 0 0 102 255 255 255 255 187 0 0 51 255 255 255 255 255 255 255 255 255 255 204 119 68 68 68 68 34 0 51 187 255 255 255 255 153 255 255 255 119 0 136 102 0 0 0 0 0 0 187 255 119 153 255 255 119 255 204 40 255 255 255 255 255 255 255 255 255 255 255 255 255 
255 255 255 255 255 255 255 255 255 255 119 255 255 255 255 255 255 255 255 255 119 255 255 255 255 255 255 0 0 0 0 0 119 255 255 255 255 255 51 0 0 119 255 255 255 255 255 255 255 255 255 255 255 255 221 187 187 187 238 255 255 255 255 255 238 187 255 255 221 17 0 187 68 17 51 0 0 0 0 34 255 255 221 119 255 68 238 255 80 255 255 255 255 255 255 255 255 255 255 255 255 255 
255 255 255 255 255 255 255 255 255 153 221 255 255 255 255 255 255 255 255 221 153 255 238 238 255 255 255 68 0 0 0 0 187 255 255 255 255 255 119 0 0 0 204 255 255 255 255 255 255 255 255 255 255 255 255 255 255 255 255 255 255 255 255 255 187 255 255 255 68 0 0 187 68 136 238 68 0 0 0 0 102 255 255 238 119 73 177 255 119 255 255 255 255 255 255 255 255 255 255 255 255 255 
255 255 255 255 255 255 255 255 255 136 255 255 255 255 255 255 255 255 255 119 255 255 119 153 255 255 255 238 153 34 0 0 187 255 255 255 255 255 170 0 0 0 17 238 255 255 255 255 255 255 255 255 255 255 255 255 255 255 255 255 255 255 255 255 238 255 255 119 0 0 0 187 119 255 255 119 85 51 0 0 0 85 238 255 255 255 255 255 153 255 255 255 255 255 255 255 255 255 255 255 255 255 
255 255 255 255 255 255 255 255 255 119 255 255 255 255 255 255 255 255 238 136 255 238 17 119 255 255 255 255 255 221 0 0 255 255 255 255 255 255 238 0 0 0 0 68 255 255 255 255 255 255 255 255 255 255 255 255 255 255 255 255 255 255 255 255 255 255 204 0 0 0 0 153 238 255 255 136 34 238 34 119 187 170 51 102 170 238 255 187 127 221 255 255 255 255 255 255 255 255 255 255 255 255 
255 255 255 255 255 255 255 255 204 187 255 255 255 255 255 255 255 255 136 238 255 238 0 170 255 255 255 255 255 255 51 0 255 255 255 255 255 255 255 68 0 0 0 0 102 255 255 255 255 255 255 255 255 255 255 255 255 255 255 255 255 255 255 255 255 255 51 0 0 0 0 51 238 255 255 255 204 255 68 187 255 255 238 187 136 136 102 55 102 255 255 255 255 255 255 255 255 255 255 255 255 255 
255 255 255 255 255 255 255 255 153 238 255 255 255 255 255 255 255 255 119 255 255 255 51 119 255 255 255 255 255 255 102 0 255 255 255 255 255 255 255 136 0 0 0 0 0 119 255 255 255 255 255 255 255 255 255 255 255 255 255 255 255 255 255 255 255 119 0 0 0 0 0 0 0 51 68 51 92 255 34 187 255 255 255 255 255 255 255 204 221 255 255 255 255 255 255 255 255 255 255 255 255 255 
255 255 255 255 255 255 255 255 136 255 255 255 255 255 255 255 255 153 221 255 255 255 0 17 238 255 255 255 238 221 119 0 255 255 255 255 255 255 255 221 0 0 0 0 0 0 136 255 255 255 255 255 255 255 255 255 255 255 255 255 255 255 255 255 153 0 0 0 0 0 17 170 204 119 0 0 56 221 17 255 255 255 255 255 255 255 255 255 255 255 255 255 255 255 255 255 255 255 255 255 255 255 
255 255 255 255 255 255 255 255 136 255 255 255 255 255 255 255 255 119 255 255 255 255 0 17 221 255 255 204 17 153 119 0 255 255 255 255 255 255 255 255 68 0 0 0 0 0 0 85 238 255 255 255 255 255 255 255 255 255 255 255 255 255 255 153 0 0 0 0 0 17 204 255 255 153 0 0 91 153 85 255 255 255 255 255 255 255 255 255 255 255 255 255 255 255 255 255 255 255 255 255 255 255 
255 255 255 255 255 255 255 255 119 255 255 255 255 255 255 255 238 136 255 255 255 255 119 204 255 255 170 17 51 255 136 0 255 255 255 255 255 255 255 255 153 0 0 0 0 0 0 0 17 119 238 255 255 255 255 255 255 255 255 255 255 221 102 0 0 0 0 0 17 204 255 255 255 119 0 0 118 85 153 255 255 255 255 255 255 255 255 255 255 255 255 255 255 255 255 255 255 255 255 255 255 255 
255 255 255 255 255 255 255 255 119 255 255 255 255 255 255 255 153 238 255 255 255 238 68 153 255 204 17 17 221 255 187 0 255 255 255 255 255 255 255 255 255 34 0 0 0 0 0 0 0 0 0 85 119 153 187 187 170 119 119 68 34 0 0 0 0 0 0 0 187 255 255 255 187 119 0 118 143 17 221 255 255 255 255 255 255 255 255 255 255 255 255 255 255 255 255 255 255 255 255 255 255 255 
255 255 255 255 255 255 255 255 170 255 119 68 85 119 119 102 92 255 255 255 255 255 51 0 51 0 0 187 255 255 204 0 238 255 255 255 255 255 255 255 255 170 0 0 0 0 0 0 0 0 0 0 0 0 0 0 0 0 0 0 0 0 0 0 0 0 0 136 255 255 255 255 187 85 221 136 143 17 255 255 255 255 255 255 255 255 255 255 255 255 255 255 255 255 255 255 255 255 255 255 255 255 
255 255 255 255 255 255 255 255 153 255 0 0 0 0 0 0 104 255 255 255 255 255 68 0 0 0 34 255 255 255 255 0 187 255 255 255 255 255 255 255 255 255 68 0 0 0 0 0 0 0 0 0 0 0 0 0 0 0 0 0 0 0 0 0 0 0 34 255 255 255 255 255 221 255 255 153 68 85 255 255 255 255 255 255 255 255 255 255 255 255 255 255 255 255 255 255 255 255 255 255 255 255 
255 255 255 255 255 255 255 255 187 170 119 0 0 0 85 102 187 255 255 17 0 51 0 0 119 51 0 68 255 255 255 37 187 255 255 255 255 255 255 255 255 255 170 0 0 0 0 0 0 0 0 0 0 0 0 0 0 0 0 0 0 0 0 0 0 0 119 255 255 255 255 255 255 255 221 92 0 119 255 255 255 255 255 255 255 255 255 255 255 255 255 255 255 255 255 255 255 255 255 255 255 255 
255 255 255 255 255 255 255 255 255 119 238 102 0 102 255 204 153 255 255 85 0 0 51 204 255 68 0 68 255 255 255 37 221 255 255 255 255 255 255 255 255 255 255 17 0 0 0 0 0 0 0 0 0 0 0 0 0 0 0 0 0 0 0 0 0 0 187 255 255 255 255 255 255 255 119 17 0 136 255 255 255 255 255 255 255 255 255 255 255 255 255 255 255 255 255 255 255 255 255 255 255 255 
255 255 255 255 255 255 255 255 255 255 102 238 73 191 255 153 119 255 255 221 17 0 187 255 255 34 0 153 255 255 255 113 255 255 255 255 255 255 255 255 255 255 255 68 0 0 0 0 0 0 0 0 0 0 0 0 0 0 0 0 0 0 0 0 0 17 255 255 255 255 255 255 255 153 136 0 0 204 255 255 255 255 255 255 255 255 255 255 255 255 255 255 255 255 255 255 255 255 255 255 255 255 
255 255 255 255 255 255 255 255 255 255 238 187 238 255 255 102 17 221 255 255 170 0 187 255 255 0 0 0 17 119 255 187 187 255 255 255 255 255 255 255 255 255 255 119 0 0 0 0 0 0 0 0 0 0 0 0 0 0 0 0 0 0 0 0 0 51 255 255 255 255 255 204 119 159 34 0 85 255 255 255 255 255 255 255 255 255 255 255 255 255 255 255 255 255 255 255 255 255 255 255 255 255 
255 255 255 255 255 255 255 255 255 255 255 255 255 255 255 68 0 85 255 255 255 68 136 255 136 0 204 102 0 0 238 255 136 255 255 255 255 255 255 255 255 255 255 187 0 0 0 0 0 0 0 0 0 0 0 0 0 0 0 0 0 0 0 0 0 72 255 255 255 255 255 119 221 51 0 17 221 255 255 255 255 255 255 255 255 255 255 255 255 255 255 255 255 255 255 255 255 255 255 255 255 255 
255 255 255 255 255 255 255 255 255 255 255 255 255 255 255 119 0 0 187 255 255 238 187 136 0 0 238 255 153 0 153 255 153 255 255 255 255 255 255 255 255 255 255 255 68 0 0 0 0 0 0 0 0 0 0 0 0 0 0 0 0 0 0 0 34 119 255 255 255 255 136 207 17 51 170 238 255 255 255 255 255 255 255 255 255 255 255 255 255 255 255 255 255 255 255 255 255 255 255 255 255 255 
255 255 255 255 255 255 255 255 255 255 255 255 255 255 255 221 17 0 34 238 255 238 17 0 0 0 119 255 255 0 102 255 136 255 255 255 255 255 255 255 255 255 255 255 238 68 0 0 0 0 0 0 0 0 0 0 0 0 0 0 0 0 0 0 204 119 255 255 221 119 207 51 17 221 255 255 255 255 255 255 255 255 255 255 255 255 255 255 255 255 255 255 255 255 255 255 255 255 255 255 255 255 
255 255 255 255 255 255 255 255 255 255 255 255 255 255 255 255 221 170 17 102 255 119 0 0 0 0 119 255 255 68 17 255 119 255 255 255 255 255 255 255 255 255 255 255 255 255 119 17 0 0 0 0 0 0 0 0 0 0 0 0 0 0 34 204 255 119 255 255 102 255 17 17 204 255 255 255 255 255 255 255 255 255 255 255 255 255 255 255 255 255 255 255 255 255 255 255 255 255 255 255 255 255 
255 255 255 255 255 255 255 255 255 255 255 255 255 255 255 255 255 255 153 0 127 85 0 0 0 0 187 255 255 119 0 153 187 221 255 255 255 255 255 255 255 255 255 255 255 255 255 238 102 0 0 0 0 0 0 0 0 0 0 0 17 119 255 255 255 119 255 255 119 221 17 221 255 255 255 255 255 255 255 255 255 255 255 255 255 255 255 255 255 255 255 255 255 255 255 255 255 255 255 255 255 255 
255 255 255 255 255 255 255 255 255 255 255 255 255 255 255 255 255 255 255 187 118 191 187 187 238 68 221 255 255 221 0 34 207 170 255 255 255 255 255 255 255 255 255 255 255 255 255 255 255 221 102 17 0 0 0 0 0 0 0 102 221 255 255 255 255 119 255 153 175 34 102 255 255 255 255 255 255 255 255 255 255 255 255 255 255 255 255 255 255 255 255 255 255 255 255 255 255 255 255 255 255 255 
255 255 255 255 255 255 255 255 255 255 255 255 255 255 255 255 255 255 255 255 255 170 136 255 255 255 255 255 255 255 119 0 153 136 255 255 255 255 255 255 255 255 255 255 255 255 255 255 255 255 255 238 136 119 68 68 102 119 204 255 255 255 255 255 255 119 238 153 153 0 136 255 255 255 255 255 255 255 255 255 255 255 255 255 255 255 255 255 255 255 255 255 255 255 255 255 255 255 255 255 255 255 
255 255 255 255 255 255 255 255 255 255 255 255 255 255 255 255 255 255 255 255 255 255 238 102 238 255 255 255 255 255 255 119 85 119 255 255 255 255 255 255 255 255 255 255 255 255 255 255 255 255 255 255 255 255 255 255 255 255 255 255 255 255 255 255 255 119 136 238 34 0 187 255 255 255 255 255 255 255 255 255 255 255 255 255 255 255 255 255 255 255 255 255 255 255 255 255 255 255 255 255 255 255 
255 255 255 255 255 255 255 255 255 255 255 255 255 255 255 255 255 255 255 255 255 255 255 238 68 191 255 255 255 255 255 255 119 133 255 255 255 255 255 255 255 255 255 255 255 255 255 255 255 255 255 255 255 255 255 255 255 255 255 255 255 255 255 255 255 96 170 187 0 0 238 255 255 255 255 255 255 255 255 255 255 255 255 255 255 255 255 255 255 255 255 255 255 255 255 255 255 255 255 255 255 255 
255 255 255 255 255 255 255 255 255 255 255 255 255 255 255 255 255 255 255 255 255 255 255 255 223 7 191 255 255 255 255 255 238 82 255 255 255 255 255 255 255 255 255 255 255 255 255 255 255 255 255 255 255 255 255 255 255 255 255 255 255 255 255 255 255 80 255 102 0 102 255 255 255 255 255 255 255 255 255 255 255 255 255 255 255 255 255 255 255 255 255 255 255 255 255 255 255 255 255 255 255 255 
255 255 255 255 255 255 255 255 255 255 255 255 255 255 255 255 255 255 255 255 255 255 255 255 255 80 21 255 255 255 255 255 255 50 187 255 255 255 255 255 255 255 255 255 255 255 255 255 255 255 255 255 255 255 255 255 255 255 255 255 255 255 255 255 255 163 238 17 0 187 255 255 255 255 255 255 255 255 255 255 255 255 255 255 255 255 255 255 255 255 255 255 255 255 255 255 255 255 255 255 255 255 
255 255 255 255 255 255 255 255 255 255 255 255 255 255 255 255 255 255 255 255 255 255 255 255 255 119 0 187 255 255 255 255 255 0 136 255 255 255 255 255 255 255 255 255 255 255 255 255 255 255 255 255 255 255 255 255 255 255 255 255 255 255 255 255 255 187 119 68 68 255 255 255 255 255 255 255 255 255 255 255 255 255 255 255 255 255 255 255 255 255 255 255 255 255 255 255 255 255 255 255 255 255 
255 255 255 255 255 255 255 255 255 255 255 255 255 255 255 255 255 255 255 255 255 255 255 255 255 187 0 109 255 255 255 255 255 0 163 255 255 255 255 255 255 255 255 255 255 255 255 255 255 255 255 255 255 255 255 255 255 255 255 255 255 255 255 255 204 163 119 119 119 255 255 255 255 255 255 255 255 255 255 255 255 255 255 255 255 255 255 255 255 255 255 255 255 255 255 255 255 255 255 255 255 255 
255 255 255 255 255 255 255 255 255 255 255 255 255 255 255 255 255 255 255 255 255 255 255 255 255 136 0 16 255 255 255 255 255 17 153 255 255 255 255 255 255 255 255 255 255 255 255 255 255 255 255 255 255 255 255 255 255 255 255 255 255 255 255 255 170 127 238 34 187 255 255 255 255 255 255 255 255 255 255 255 255 255 255 255 255 255 255 255 255 255 255 255 255 255 255 255 255 255 255 255 255 255 
255 255 255 255 255 255 255 255 255 255 255 255 255 255 255 255 255 255 255 255 255 255 255 255 255 102 0 0 68 255 255 255 255 68 102 255 255 255 255 255 255 255 255 255 255 255 255 255 255 255 255 255 255 255 255 255 255 255 255 255 255 255 255 255 127 204 255 0 187 255 255 255 255 255 255 255 255 255 255 255 255 255 255 255 255 255 255 255 255 255 255 255 255 255 255 255 255 255 255 255 255 255 
255 255 255 255 255 255 255 255 255 255 255 255 255 255 255 255 255 255 255 255 255 255 255 255 255 34 0 0 0 82 255 255 255 136 17 238 255 255 255 255 255 255 255 255 255 255 255 255 255 255 255 255 255 255 255 255 255 255 255 255 255 255 255 255 118 255 187 0 204 255 255 255 255 255 255 255 255 255 255 255 255 255 255 255 255 255 255 255 255 255 255 255 255 255 255 255 255 255 255 255 255 255 
255 255 255 255 255 255 255 255 255 255 255 255 255 255 255 255 255 255 255 255 255 255 255 255 255 0 0 0 0 0 82 255 255 221 0 119 255 255 255 255 255 255 255 255 255 255 255 255 255 255 255 255 255 255 255 255 255 255 255 255 255 255 255 255 153 255 136 68 255 255 255 255 255 255 255 255 255 255 255 255 255 255 255 255 255 255 255 255 255 255 255 255 255 255 255 255 255 255 255 255 255 255 
255 255 255 255 255 255 255 255 255 255 255 255 255 255 255 255 255 255 255 255 255 255 255 255 255 0 0 170 221 119 0 82 255 255 68 17 238 255 255 255 255 255 255 255 255 255 255 255 255 255 255 255 255 255 255 255 255 255 255 255 255 255 255 221 153 255 102 170 255 255 255 255 255 255 255 255 255 255 255 255 255 255 255 255 255 255 255 255 255 255 255 255 255 255 255 255 255 255 255 255 255 255 
255 255 255 255 255 255 255 255 255 255 255 255 255 255 255 255 255 255 255 255 255 255 255 255 255 17 0 221 255 119 0 0 82 255 221 0 153 255 255 255 255 255 255 255 255 255 255 255 255 255 255 255 255 255 255 255 255 255 255 255 255 255 255 119 255 255 68 187 255 255 255 255 255 255 255 255 255 255 255 255 255 255 255 255 255 255 255 255 255 255 255 255 255 255 255 255 255 255 255 255 255 255 
255 255 255 255 255 255 255 255 255 255 255 255 255 255 255 255 255 255 255 255 255 255 255 255 255 68 0 102 255 34 0 0 0 175 255 102 102 255 255 255 255 255 255 255 255 255 255 255 255 255 255 255 255 255 255 255 255 255 255 255 255 255 221 153 255 255 34 187 255 255 255 255 255 255 255 255 255 255 255 255 221 153 119 68 68 136 204 255 255 255 255 255 255 255 255 255 255 255 255 255 255 255 
255 255 255 255 255 255 255 255 255 255 255 255 255 255 255 255 255 255 255 255 255 255 255 255 255 68 0 0 153 119 34 0 0 104 238 221 51 255 255 255 255 255 255 255 255 255 255 255 255 255 255 255 255 255 255 255 255 255 255 255 255 255 119 255 255 255 34 255 255 255 255 255 255 255 255 255 255 238 153 34 34 119 136 187 187 136 51 51 187 255 255 255 255 255 255 255 255 255 255 255 255 255 
255 255 255 255 255 255 255 255 255 255 255 255 255 255 255 255 255 255 255 255 255 255 255 255 255 17 0 0 34 255 255 221 204 238 119 255 34 255 255 255 255 255 255 255 255 255 255 255 255 255 255 255 255 255 255 255 255 255 255 255 255 221 153 255 255 170 170 255 255 255 255 255 255 255 238 153 119 17 102 204 255 255 255 255 255 255 255 221 136 119 170 221 255 255 255 255 187 119 102 68 204 255 
255 255 255 255 255 255 255 255 255 255 255 255 255 255 255 255 255 255 255 255 255 255 255 255 170 0 0 0 0 102 255 255 255 255 238 136 68 204 255 255 255 255 255 255 255 255 255 255 255 255 255 255 255 255 255 255 255 255 255 255 255 136 255 255 255 85 187 255 255 255 255 255 255 221 17 17 102 187 255 255 255 255 255 255 255 255 255 255 255 255 255 187 187 187 221 204 187 187 187 187 238 255 
255 255 255 255 255 255 255 255 255 255 255 255 255 255 255 255 255 255 255 255 255 255 255 255 119 0 0 0 0 0 136 255 255 255 255 119 34 204 255 255 255 255 255 255 255 255 255 255 255 255 255 255 255 255 255 255 255 255 255 255 255 119 255 255 204 17 187 255 255 255 255 255 204 119 153 255 255 255 255 255 255 255 255 255 255 255 255 255 255 255 255 255 255 255 255 255 255 255 255 255 255 255 
255 255 255 255 255 255 255 255 255 255 255 255 255 255 255 255 255 255 255 255 255 255 255 255 119 0 0 0 0 0 51 255 255 255 204 136 0 255 255 255 255 255 255 255 255 255 255 255 255 255 255 255 255 255 255 255 255 255 255 255 221 170 255 204 17 0 187 255 255 136 68 102 187 255 255 255 255 255 255 255 255 255 255 255 255 255 255 255 255 255 255 255 255 255 255 255 255 255 255 255 255 255 
255 255 255 255 255 255 255 255 255 255 255 255 255 255 255 255 255 255 255 255 255 255 255 255 119 0 0 0 0 0 0 238 255 255 136 136 17 255 255 255 255 255 255 255 255 255 255 255 255 255 255 255 255 255 255 255 255 255 255 255 136 255 255 34 0 0 119 204 204 187 255 255 255 255 255 255 255 255 255 255 255 255 255 255 255 255 255 255 255 255 255 255 255 255 255 255 255 255 255 255 255 255 
255 255 255 255 255 255 255 255 255 255 255 255 255 255 255 255 255 255 255 255 255 255 255 255 153 0 0 0 0 0 0 187 255 255 119 85 85 255 255 255 255 255 255 255 255 255 255 255 255 255 255 255 255 255 255 255 255 255 255 255 136 255 255 0 0 0 153 255 255 255 255 255 255 255 255 255 255 255 255 255 255 255 255 255 255 255 255 255 255 255 255 255 255 255 255 255 255 255 255 255 255 255 
255 255 255 255 255 255 255 255 255 255 255 255 255 255 255 255 255 255 255 255 255 255 255 255 255 187 187 187 187 187 187 238 255 255 221 204 221 255 255 255 255 255 255 255 255 255 255 255 255 255 255 255 255 255 255 255 255 255 255 255 221 255 255 204 187 187 221 255 255 255 255 255 255 255 255 255 255 255 255 255 255 255 255 255 255 255 255 255 255 255 255 255 255 255 255 255 255 255 255 255 255 255 
255 255 255 255 255 255 255 255 255 255 255 255 255 255 255 255 255 255 255 255 255 255 255 255 255 255 255 255 255 255 255 255 255 255 255 255 255 255 255 255 255 255 255 255 255 255 255 255 255 255 255 255 255 255 255 255 255 255 255 255 255 255 255 255 255 255 255 255 255 255 255 255 255 255 255 255 255 255 255 255 255 255 255 255 255 255 255 255 255 255 255 255 255 255 255 255 255 255 255 255 255 255 
