P2
74 101
255
255 255 255 255 255 255 255 255 255 255 255 255 255 255 255 255 255 255 255 255 255 255 255 255 255 255 255 255 255 255 255 255 255 255 255 255 255 255 255 255 255 255 255 255 255 255 255 255 255 255 255 255 255 255 255 255 255 255 255 255 255 255 255 255 255 255 255 255 255 255 255 255 255 255 
255 255 255 255 255 255 255 255 255 255 255 255 255 255 255 255 255 255 255 255 119 17 0 0 0 0 0 0 0 0 0 0 0 0 0 0 0 0 0 0 0 0 0 0 0 0 0 0 0 0 0 0 0 0 0 0 0 0 0 0 0 0 0 0 0 0 0 0 0 0 0 0 68 255 
255 255 255 255 255 255 255 255 255 255 255 255 255 255 255 255 255 255 255 255 51 0 0 0 0 0 0 0 0 0 0 0 0 0 0 0 0 0 0 0 0 0 0 0 0 0 0 0 0 0 0 0 0 0 0 0 0 0 0 0 0 0 0 0 0 0 0 0 0 0 0 0 68 255 
255 255 255 255 255 255 255 255 255 255 255 255 255 255 255 255 255 255 255 68 0 0 0 0 0 0 136 63 0 0 0 0 0 0 0 0 0 0 0 0 0 0 0 0 0 0 0 0 0 0 0 0 0 0 0 0 0 0 0 0 0 0 0 0 0 0 0 0 0 0 0 0 68 255 
255 255 255 255 255 255 255 255 255 255 255 255 255 255 255 255 255 255 187 0 0 0 0 0 0 153 238 51 0 0 0 0 0 0 0 0 0 0 0 0 0 0 0 0 0 0 0 0 0 0 0 0 0 0 0 0 0 0 0 0 0 0 0 0 0 0 0 0 0 0 0 0 68 255 
255 255 255 255 255 255 255 255 255 255 255 255 255 255 255 255 255 255 119 0 0 0 0 0 153 238 68 0 0 0 0 0 0 0 0 0 0 0 0 0 0 0 0 0 0 0 0 0 0 0 0 0 0 0 0 0 0 0 0 0 0 0 0 0 0 0 0 0 0 0 0 0 68 255 
255 255 255 255 255 255 255 255 255 238 255 255 255 255 255 255 255 255 119 0 17 119 0 136 255 255 68 0 0 0 0 0 0 0 0 0 0 0 0 0 0 0 0 0 0 0 0 0 0 0 0 0 0 0 0 0 0 0 0 0 0 0 0 0 0 0 0 0 0 0 0 0 68 255 
255 255 255 255 255 255 255 255 255 170 170 255 255 255 255 255 255 255 68 78 143 68 85 255 221 136 0 0 0 0 0 0 0 0 0 0 0 0 0 0 0 0 0 0 0 0 0 0 0 0 0 0 0 0 0 0 0 0 0 0 0 0 0 0 0 0 0 0 0 0 0 0 68 255 
255 255 255 255 255 255 255 255 255 255 153 85 221 255 255 187 187 170 0 51 51 0 51 17 0 0 0 0 0 0 0 0 0 0 0 0 0 0 0 0 0 0 0 0 0 0 0 0 0 0 0 0 0 0 0 0 0 0 0 0 0 0 0 0 0 0 0 0 0 0 0 0 68 255 
255 255 255 255 255 255 255 255 255 255 255 153 0 68 119 68 34 0 0 0 0 0 0 0 0 0 0 0 0 0 0 0 0 0 0 0 0 0 0 0 0 0 0 0 0 0 0 0 0 0 0 0 0 0 0 0 0 0 0 0 0 0 0 0 0 0 0 0 0 0 0 0 68 255 
255 255 255 255 255 255 255 255 255 255 255 255 187 34 0 17 51 0 0 0 0 0 0 0 0 0 0 0 0 0 0 0 0 0 0 0 0 0 0 0 0 0 0 0 0 0 0 0 0 0 0 0 0 0 0 0 0 0 0 0 0 0 0 0 0 0 0 0 0 0 0 0 68 255 
255 255 255 255 255 255 255 255 255 255 255 238 187 221 119 17 0 0 0 0 0 0 0 0 0 0 0 0 0 0 0 0 0 0 0 0 0 0 0 0 0 0 0 0 0 0 0 0 0 0 0 0 0 0 0 0 0 0 0 0 0 0 0 0 0 0 0 0 0 0 0 0 68 255 
255 255 255 255 255 255 255 187 68 0 0 0 0 17 51 17 0 0 0 0 0 0 0 0 0 0 0 0 0 0 0 0 0 0 0 0 0 0 0 0 0 0 0 0 0 0 0 0 0 0 0 0 0 0 0 0 0 0 0 0 0 0 0 0 0 0 0 0 0 0 0 0 68 255 
255 255 255 255 255 204 51 0 0 0 0 0 0 17 68 0 0 0 0 0 0 0 0 0 0 0 0 0 0 0 0 0 0 0 0 0 0 0 0 0 0 0 0 0 0 0 0 0 0 0 0 0 0 0 0 0 0 0 0 0 0 0 0 0 0 0 0 0 0 0 0 0 68 255 
255 255 255 255 255 0 0 0 0 0 0 0 0 0 34 85 0 0 0 0 0 0 0 0 0 0 0 0 0 0 0 0 0 0 0 0 0 0 0 0 0 0 0 0 0 0 0 0 0 0 0 0 0 0 0 0 0 0 0 0 0 0 0 0 0 0 0 0 0 0 0 0 68 255 
255 255 255 255 255 34 0 0 0 17 34 85 17 0 0 0 0 0 0 0 0 0 0 0 0 0 0 0 0 0 0 0 0 0 0 0 0 0 0 0 0 0 0 0 0 0 0 0 0 0 0 0 0 0 0 0 0 0 0 0 0 0 0 0 0 0 0 0 0 0 0 0 68 255 
255 255 255 255 255 153 119 170 221 255 255 238 153 17 0 0 0 0 0 0 0 0 0 0 0 0 0 0 0 0 0 0 0 0 0 0 0 0 0 0 0 0 0 0 0 0 0 0 0 0 0 0 0 0 0 0 0 0 0 0 0 0 0 0 0 0 0 0 0 0 0 0 68 255 
255 255 255 255 255 255 255 255 255 255 255 255 255 204 51 0 0 0 0 0 0 0 0 0 0 0 0 0 0 0 0 0 0 0 0 0 0 0 0 0 0 0 0 0 0 0 0 0 0 0 0 0 0 0 0 0 0 0 0 0 0 0 0 0 0 0 0 0 0 0 0 0 68 255 
255 255 255 255 255 255 255 255 255 255 255 255 255 255 204 17 0 0 0 0 0 0 0 0 0 0 0 0 0 0 0 0 0 0 0 0 0 0 0 0 0 0 0 0 0 0 0 0 0 0 0 0 0 0 0 0 0 0 0 0 0 0 0 0 0 0 0 0 0 0 0 0 68 255 
255 255 255 255 255 255 255 255 255 255 255 255 255 255 221 17 0 0 0 0 0 0 0 0 0 0 0 0 0 0 0 0 0 0 0 0 0 0 0 0 0 0 0 0 0 0 0 0 0 0 0 0 0 0 0 0 0 0 0 0 0 0 0 0 0 0 0 0 0 0 0 0 68 255 
255 255 255 255 255 255 255 255 255 255 255 255 255 255 153 0 0 0 0 0 0 0 0 0 0 0 0 0 0 0 0 0 0 0 0 0 0 0 0 0 0 0 0 0 0 0 0 0 0 0 0 0 0 0 0 0 0 0 0 0 0 0 0 0 0 0 0 0 0 0 0 0 68 255 
255 255 255 255 255 255 255 255 255 255 255 255 255 255 68 0 0 0 0 0 0 0 0 0 0 0 0 0 0 0 0 0 0 0 0 0 0 0 0 0 0 0 0 0 0 0 0 0 0 0 0 0 0 0 0 0 0 0 0 0 0 0 0 0 0 0 0 0 0 0 0 0 68 255 
255 255 255 255 255 255 255 255 255 255 255 255 255 255 0 0 0 0 0 0 0 0 0 0 0 0 0 0 0 0 0 0 0 0 0 0 0 0 0 0 0 0 0 0 0 0 0 0 0 0 0 0 0 0 0 0 0 0 0 0 0 0 0 0 0 0 0 0 0 0 0 0 68 255 
255 255 255 255 255 255 255 255 255 255 255 255 255 187 0 0 0 0 17 0 0 0 0 0 0 0 0 0 0 0 0 0 0 0 0 0 0 0 0 0 0 0 0 0 0 0 0 0 0 0 0 0 0 0 0 0 0 0 0 0 0 0 0 0 0 0 0 0 0 0 0 0 68 255 
255 255 255 255 255 255 255 255 255 255 255 255 255 170 34 0 0 102 119 0 0 0 0 0 0 0 0 0 0 0 0 0 0 0 0 0 0 0 0 0 0 0 0 0 0 0 0 0 0 0 0 0 0 0 0 0 0 0 0 0 0 0 0 0 0 0 0 0 0 0 0 0 68 255 
255 255 255 255 255 255 255 255 255 255 255 255 255 187 17 0 0 221 221 0 0 0 0 0 0 0 0 0 0 0 0 0 0 0 0 0 0 0 0 0 0 0 0 0 0 0 0 0 0 0 0 0 0 0 0 0 0 0 0 0 0 0 0 0 0 0 0 0 0 0 0 0 68 255 
255 255 255 255 255 255 255 255 255 255 255 255 255 221 0 0 102 255 255 68 0 0 0 0 0 0 0 0 0 0 0 0 0 0 0 0 0 0 0 0 0 0 0 0 0 0 0 0 0 0 0 0 0 0 0 0 0 0 0 0 0 0 0 0 0 0 0 0 0 0 0 0 68 255 
255 255 255 255 255 255 255 255 255 255 255 255 255 221 102 0 204 255 255 119 0 0 0 0 0 0 0 0 0 0 0 0 0 0 0 0 0 0 0 0 0 0 0 0 0 0 0 0 0 0 0 0 0 0 0 0 0 0 0 0 0 0 0 0 0 0 0 0 0 0 0 0 68 255 
255 255 255 255 255 255 255 255 255 255 255 255 255 255 68 51 255 255 255 204 0 0 0 0 0 0 0 0 0 0 0 0 0 0 0 0 0 0 0 0 0 0 0 0 0 0 0 0 0 0 0 0 0 0 0 0 0 0 0 0 0 0 0 0 0 0 0 0 0 0 0 0 68 255 
255 255 255 255 255 255 255 255 255 255 255 255 255 255 68 118 238 255 255 238 0 0 0 0 0 0 0 0 0 0 0 0 0 0 0 0 0 0 0 0 0 0 0 0 0 0 0 0 0 0 0 0 0 0 0 0 0 0 17 0 0 0 0 0 0 0 17 0 0 0 0 0 68 255 
255 255 255 255 255 255 255 255 255 255 255 255 255 255 0 143 153 255 255 153 0 0 0 0 0 0 0 0 0 0 0 0 0 0 0 0 0 0 0 0 0 0 0 0 0 0 0 0 0 0 0 0 0 0 17 136 221 255 136 0 0 0 0 0 0 0 153 0 0 0 0 0 68 255 
255 255 255 255 255 255 255 255 255 255 255 255 255 255 85 119 119 255 255 85 0 0 0 0 0 0 0 0 0 0 0 0 0 0 0 0 0 0 0 0 0 0 0 0 0 0 0 0 0 0 0 0 0 0 187 255 153 51 0 0 34 68 34 0 0 68 255 0 0 0 0 0 68 255 
255 255 255 255 255 255 255 255 255 255 255 255 255 255 136 187 102 255 255 17 0 0 0 0 0 0 0 0 0 0 0 0 0 0 0 0 0 0 0 0 0 0 0 0 0 0 0 0 0 0 0 0 0 119 255 255 255 255 255 255 255 204 17 0 34 238 255 51 0 0 0 0 68 255 
255 255 255 255 255 255 255 255 255 255 255 255 255 255 238 137 34 255 255 0 0 0 0 0 0 0 0 0 0 0 0 0 0 0 0 0 0 0 0 0 0 0 0 0 0 0 0 0 0 0 0 0 0 17 238 255 255 255 255 238 136 0 0 17 204 255 255 68 0 0 0 0 68 255 
255 255 255 255 255 255 255 255 255 255 255 255 255 255 204 17 0 204 255 68 0 0 0 0 0 0 0 0 0 0 0 0 0 0 0 0 0 0 0 0 0 0 0 0 0 0 0 0 0 0 0 0 0 0 0 51 68 68 68 0 0 0 51 204 255 255 255 119 0 0 0 0 68 255 
255 255 255 255 255 255 255 255 255 255 255 255 255 255 255 0 0 51 255 204 51 0 0 0 0 0 0 0 0 0 0 0 0 0 0 0 0 0 0 0 0 0 0 0 0 0 0 0 0 0 0 0 0 0 0 34 119 68 68 68 17 119 238 255 255 255 255 119 0 0 0 0 68 255 
255 255 255 255 255 255 255 255 255 255 255 255 255 255 255 68 34 34 119 255 170 0 0 0 0 0 0 0 0 0 0 0 0 0 0 0 0 0 0 0 0 0 0 0 0 0 0 0 0 0 0 0 0 0 0 17 187 221 238 187 204 255 255 255 255 255 255 187 0 0 0 0 68 255 
255 255 255 255 255 255 255 255 255 255 255 255 255 255 255 238 51 0 0 153 255 0 0 0 0 0 0 0 0 0 0 0 0 0 0 0 0 0 0 0 0 0 0 0 0 0 0 0 0 0 0 0 0 0 0 0 119 170 119 119 0 34 119 255 255 255 255 187 0 0 0 0 68 255 
255 255 255 255 255 255 255 255 255 255 255 255 255 255 255 255 255 204 119 17 119 102 68 17 0 0 0 0 0 0 0 0 0 0 0 0 0 0 0 0 0 0 0 0 0 0 0 0 0 0 0 0 0 0 0 0 187 255 255 255 221 136 17 51 238 255 255 187 0 0 0 0 68 255 
255 255 255 255 255 255 255 255 255 255 255 255 255 255 255 255 255 255 255 221 102 74 238 187 0 0 0 0 0 0 0 0 0 0 0 0 0 0 0 0 0 0 0 0 0 0 0 0 0 0 0 0 0 17 0 0 153 255 255 255 255 255 204 17 51 238 255 170 0 0 0 0 68 255 
255 255 255 255 255 255 255 255 255 255 255 255 255 255 255 255 255 255 255 255 255 221 238 255 204 17 0 0 0 0 0 0 0 0 0 0 0 0 0 0 0 0 0 0 0 0 0 0 0 0 0 0 0 64 0 0 119 255 255 255 255 255 255 170 0 102 255 119 0 0 0 0 68 255 
255 255 255 255 255 255 255 255 255 255 255 255 255 255 255 255 255 255 255 255 255 255 255 255 255 119 0 0 0 0 0 0 0 0 0 0 0 0 0 0 0 0 0 0 0 0 0 0 0 0 0 0 0 119 0 0 153 255 255 255 255 255 255 255 119 34 255 68 0 0 0 0 68 255 
255 255 255 255 255 255 255 255 255 255 255 255 255 255 255 255 255 255 255 255 255 255 255 255 255 238 17 0 0 0 0 0 0 0 0 0 0 0 0 0 0 0 0 0 0 0 0 0 0 0 0 17 119 34 0 0 187 255 255 255 255 255 255 255 255 238 221 0 0 0 0 0 68 255 
255 255 255 255 255 255 255 255 255 255 255 255 255 255 255 255 255 255 255 255 255 255 255 255 255 255 119 0 0 0 0 0 0 0 0 0 0 0 0 0 0 0 0 0 0 0 0 0 0 0 0 153 153 0 0 0 255 255 255 255 255 255 255 255 255 255 85 0 0 0 0 0 68 255 
255 255 255 255 255 255 255 255 255 255 255 255 255 255 255 255 255 255 255 255 255 255 255 255 255 255 170 0 0 0 0 0 0 0 0 0 0 0 0 0 0 0 0 0 0 0 0 0 0 34 170 255 170 0 0 34 68 170 238 255 255 255 255 136 255 204 0 0 0 0 0 0 68 255 
255 255 255 255 255 255 255 255 255 255 255 255 255 255 255 255 255 255 255 255 255 255 255 255 255 255 204 0 0 0 0 0 0 0 0 0 0 0 0 0 0 0 0 0 0 0 0 0 136 255 255 255 85 0 0 187 221 51 17 119 221 255 238 119 255 119 0 0 0 0 0 0 68 255 
255 255 255 255 255 255 255 255 255 255 255 255 255 255 255 255 255 255 255 255 255 255 255 255 255 255 255 0 0 0 0 0 0 0 0 0 0 0 0 0 0 0 17 204 0 0 0 34 255 255 255 221 0 34 105 255 255 238 0 51 119 255 85 204 255 51 0 0 0 0 0 0 68 255 
255 255 255 255 255 255 255 255 255 255 255 255 255 255 255 255 255 255 255 255 255 255 255 255 255 255 255 51 0 0 0 0 0 0 0 51 0 0 0 0 0 17 204 255 34 0 0 85 255 255 255 102 17 68 187 255 255 255 170 34 0 0 68 255 255 0 0 0 0 0 0 0 68 255 
255 255 255 255 255 255 255 255 255 255 255 255 255 255 255 255 255 255 255 255 255 255 255 255 255 255 255 85 0 0 0 0 0 0 68 136 0 0 0 0 0 204 255 221 119 0 0 136 255 255 136 0 68 153 255 255 255 255 255 238 102 0 68 255 255 0 0 0 0 0 0 0 68 255 
255 255 255 255 255 255 255 255 255 255 255 255 255 255 255 255 255 255 255 255 255 255 255 255 255 255 255 119 0 0 0 0 0 0 102 187 0 0 0 0 0 153 255 255 238 0 0 85 136 34 17 102 136 255 255 255 255 255 255 255 238 170 68 238 255 17 0 0 0 0 0 0 68 255 
255 255 255 255 255 255 255 255 255 255 255 255 255 255 255 255 255 255 255 255 255 255 255 255 255 255 255 119 0 0 0 0 0 0 102 119 102 0 0 0 0 34 136 119 68 17 0 0 0 136 128 136 255 255 255 255 255 255 255 255 255 255 221 119 221 68 0 0 0 0 0 0 68 255 
255 255 255 255 255 255 255 255 255 255 255 255 255 255 255 255 255 255 255 255 255 255 255 255 255 255 255 119 0 0 0 0 0 0 204 187 204 68 17 0 0 0 17 68 68 68 0 0 17 92 238 255 255 255 255 255 255 255 255 255 255 255 255 255 255 102 0 0 0 0 0 0 68 255 
255 255 255 255 255 255 255 255 255 255 255 255 255 255 255 255 255 255 255 255 255 255 255 255 255 255 255 119 0 0 0 0 0 17 255 255 255 204 119 153 51 0 17 221 255 255 119 0 0 51 255 255 255 255 255 255 255 255 255 255 255 255 255 255 255 153 0 0 0 0 0 0 68 255 
255 255 255 255 255 255 255 255 255 255 255 255 255 255 255 255 255 255 255 255 255 255 255 255 255 255 255 119 0 0 0 0 0 119 255 255 255 255 238 119 238 51 0 85 255 255 255 51 0 0 102 255 255 255 255 255 255 255 255 255 255 255 255 255 255 221 0 0 0 0 0 0 68 255 
255 255 255 255 255 255 255 255 255 255 255 255 255 255 255 255 255 255 255 255 255 255 255 255 255 255 255 119 0 0 0 0 0 204 255 255 255 255 255 153 221 187 0 0 187 255 255 238 51 0 0 51 119 255 255 255 255 255 255 255 255 255 255 255 255 255 34 0 0 0 0 0 68 255 
255 255 255 255 255 255 255 255 255 255 255 255 255 255 255 255 255 255 255 255 255 255 255 255 255 255 255 119 0 0 0 0 51 255 255 255 255 255 255 255 170 255 68 0 119 255 255 255 238 119 68 85 170 255 255 255 255 255 255 255 255 255 255 255 255 255 119 0 0 0 0 0 68 255 
255 255 255 255 255 255 255 255 255 255 255 255 255 255 255 255 255 255 255 255 255 255 255 255 255 255 255 102 0 0 0 0 170 255 255 255 255 255 255 255 136 255 102 0 68 255 255 255 255 255 255 255 255 255 255 255 255 255 255 255 255 255 255 255 255 255 187 0 0 0 0 0 68 255 
255 255 255 255 255 255 255 255 255 255 255 255 255 255 255 255 255 255 255 255 255 255 255 255 255 255 255 34 0 0 0 51 255 255 255 255 255 255 255 255 221 204 17 0 136 255 255 255 255 255 255 255 255 255 255 255 255 255 255 255 255 255 255 255 255 255 255 17 0 0 0 0 68 255 
255 255 255 255 255 255 255 255 255 255 255 255 255 255 255 255 255 255 255 255 255 255 255 255 255 255 204 0 0 0 0 170 255 255 238 119 170 238 255 255 204 17 0 51 238 255 255 255 255 255 255 255 255 255 255 255 255 255 255 255 255 255 255 255 255 255 255 119 0 0 0 0 68 255 
255 255 255 255 255 255 255 255 255 255 255 255 255 255 255 255 255 255 255 255 255 255 255 255 255 255 85 0 0 0 102 255 255 255 255 119 0 51 136 153 17 0 85 238 255 255 255 255 255 255 255 255 255 255 255 255 255 255 255 255 255 255 255 255 255 255 255 221 0 0 0 0 68 255 
255 255 255 255 255 255 255 255 255 255 255 255 255 255 255 255 255 255 255 255 255 255 255 255 255 136 0 0 0 51 238 255 255 255 255 255 119 0 0 0 85 187 255 255 255 255 255 255 255 255 255 255 255 255 255 255 255 255 255 255 255 170 238 102 34 170 255 187 0 0 0 0 68 255 
255 255 255 255 255 255 255 255 255 255 255 255 255 255 255 255 255 255 255 187 221 255 221 153 68 0 0 0 85 238 255 255 255 255 255 255 255 255 238 238 255 255 255 255 255 255 255 255 255 255 255 255 255 255 255 255 255 255 255 255 255 221 119 238 255 170 102 0 0 0 0 0 68 255 
255 255 255 255 255 255 255 255 255 255 255 255 255 255 255 255 255 255 255 238 119 0 0 0 0 0 17 136 255 255 255 255 255 255 255 255 255 255 255 255 255 255 255 255 255 255 255 255 255 255 255 255 255 255 255 255 255 255 255 255 255 255 255 204 34 0 0 0 0 0 0 0 68 255 
255 255 255 255 255 255 255 255 255 255 255 255 255 255 255 255 255 255 255 255 255 238 187 119 119 136 238 255 255 255 255 255 255 255 255 255 255 255 255 255 255 255 255 255 255 255 255 255 255 255 255 255 255 255 255 255 255 255 255 255 255 255 255 34 0 0 0 0 0 0 0 0 68 255 
255 255 255 255 255 255 255 255 255 255 255 255 255 255 255 221 187 255 255 255 255 255 255 255 255 255 255 255 255 255 255 255 255 255 255 255 255 255 255 255 255 255 255 255 255 255 255 255 255 255 255 255 255 255 255 255 255 255 255 255 255 255 238 0 0 0 0 0 0 0 0 0 68 255 
255 255 255 255 255 255 255 255 255 255 255 255 170 204 255 255 204 119 255 255 255 255 255 255 255 255 255 255 255 255 255 255 255 255 255 255 255 255 255 255 255 255 255 255 255 255 255 255 255 255 255 255 255 255 255 255 255 255 255 255 255 255 238 0 0 0 0 0 0 0 0 0 68 255 
255 255 255 255 255 255 255 255 255 255 255 255 85 17 187 255 255 204 51 238 255 255 255 255 255 255 255 255 255 255 255 255 255 255 255 255 255 255 255 255 255 255 255 255 255 255 255 255 255 255 255 255 255 255 255 255 255 255 204 170 255 255 204 0 0 0 0 0 0 0 0 0 68 255 
255 255 255 255 255 255 255 255 255 255 255 255 34 0 0 187 255 255 119 85 255 255 255 255 255 255 255 255 255 255 255 255 255 255 255 255 255 255 255 255 255 255 255 255 255 255 255 255 255 255 255 255 255 255 255 255 255 255 255 187 119 85 0 0 0 0 0 0 0 0 0 0 68 255 
255 255 255 255 255 255 255 255 255 255 255 255 0 0 0 17 170 255 255 17 119 255 255 255 255 255 255 255 255 255 255 255 255 255 255 255 255 255 255 255 255 255 255 255 255 255 255 255 255 255 255 255 255 255 255 255 255 255 255 255 255 85 0 0 0 0 0 0 0 0 0 0 68 255 
255 255 255 255 255 255 255 255 255 255 255 255 0 0 0 0 0 204 255 153 17 238 255 255 255 255 255 255 255 255 255 255 255 255 255 255 255 255 255 255 255 255 255 255 255 255 255 255 255 255 255 255 255 255 255 255 255 255 255 255 255 119 0 0 0 0 0 0 0 0 0 0 68 255 
255 255 255 255 255 255 255 255 255 255 255 255 0 0 0 0 0 51 255 255 68 102 255 255 255 255 255 255 255 255 255 255 255 255 255 255 255 255 255 255 255 255 255 255 255 255 255 255 255 255 255 255 255 255 255 255 255 255 255 238 119 17 0 0 0 0 0 0 0 0 0 0 68 255 
255 255 255 255 255 255 255 255 255 255 255 255 68 0 0 0 0 0 119 255 204 0 187 255 255 255 255 255 255 255 255 255 255 255 255 255 255 255 255 255 255 255 255 255 255 255 255 255 255 255 255 255 255 255 255 255 255 255 255 153 0 0 0 0 0 0 0 0 0 0 0 0 68 255 
255 255 255 255 255 255 255 255 255 255 255 255 119 0 0 0 0 0 0 170 255 68 85 255 255 255 255 255 255 255 255 255 255 255 255 255 255 255 255 255 255 255 255 255 153 85 68 68 119 221 255 255 255 255 255 255 255 255 255 68 0 0 0 0 0 0 0 0 0 0 0 0 68 255 
255 255 255 255 255 255 255 255 255 255 255 255 187 0 0 0 0 0 0 17 238 136 0 221 255 255 255 255 255 255 255 255 255 255 255 255 255 255 255 255 255 255 255 119 0 0 0 0 0 0 102 238 255 255 255 255 255 255 255 34 0 0 0 0 0 0 0 0 0 0 0 0 68 255 
255 255 255 255 255 255 255 255 255 255 255 255 255 17 0 0 0 0 0 0 102 255 17 102 255 255 255 255 255 255 255 255 255 255 255 255 255 255 255 255 255 255 153 0 0 0 0 0 0 0 0 17 119 255 255 255 255 255 221 0 0 0 0 0 0 0 0 0 0 0 0 0 68 255 
255 255 255 255 255 255 255 255 255 255 255 255 255 102 0 0 0 0 0 0 0 221 85 17 238 255 255 255 255 255 255 255 255 255 255 255 255 255 255 255 255 204 17 0 0 0 0 0 0 0 0 0 0 68 221 255 255 238 51 0 0 0 0 0 0 0 0 0 0 0 0 0 68 255 
255 68 0 17 68 68 68 68 68 34 0 0 0 0 0 0 0 0 32 32 32 85 170 0 153 255 255 255 255 255 255 255 255 255 255 255 255 255 255 255 238 34 0 0 0 0 0 0 0 0 0 0 0 0 17 102 102 17 0 0 0 0 0 0 0 0 0 0 0 0 0 0 68 255 
255 68 0 0 0 0 0 0 0 17 85 136 85 119 51 0 0 68 223 127 51 34 207 0 85 255 255 255 255 255 255 255 255 255 255 255 255 255 255 255 68 0 0 0 0 0 0 0 0 0 0 0 0 0 0 0 0 0 0 0 0 0 0 0 0 0 0 0 0 0 0 0 68 255 
255 68 0 0 0 0 0 0 0 34 192 223 221 255 238 142 0 63 221 255 17 121 137 51 0 238 255 255 255 255 255 255 255 255 255 255 255 255 255 119 0 0 0 0 0 0 0 0 0 0 0 0 0 0 0 0 0 0 0 0 0 0 0 0 0 0 0 0 0 0 0 0 68 255 
255 68 0 0 0 0 0 0 0 68 118 163 207 238 255 119 0 51 75 106 51 0 92 136 0 153 255 255 255 255 255 255 255 255 255 255 255 255 204 0 0 0 0 0 0 0 0 0 0 0 0 0 0 0 0 0 0 0 0 0 0 0 0 0 0 0 0 0 0 0 0 0 68 255 
255 80 17 0 0 0 0 0 0 34 119 114 125 187 204 61 0 0 0 34 68 0 48 177 0 102 255 255 255 255 255 255 255 255 255 255 255 255 51 0 0 0 0 0 0 0 0 0 0 0 0 0 0 0 0 0 0 0 0 0 0 0 0 0 0 0 0 0 0 0 0 0 68 255 
255 187 177 170 119 85 68 45 51 51 64 17 106 164 105 63 0 0 0 0 0 0 92 119 34 34 255 255 255 255 255 255 255 255 255 255 255 119 0 0 0 0 0 0 0 0 0 0 0 0 0 0 0 0 0 0 0 0 0 0 0 0 0 0 0 0 0 0 0 0 0 0 68 255 
255 255 255 255 255 255 255 238 255 238 0 17 0 17 68 0 0 0 0 0 0 0 112 34 85 0 221 255 255 255 255 255 255 255 255 255 204 0 0 0 0 0 0 0 0 0 0 0 0 0 0 0 0 0 0 0 0 0 0 0 0 0 0 0 0 0 0 0 0 0 0 0 68 255 
255 153 153 187 187 204 238 238 221 255 0 0 0 0 0 0 0 0 0 0 0 0 151 48 133 0 170 255 255 255 255 255 255 255 255 255 51 0 0 0 0 0 0 0 0 0 0 0 0 0 0 0 0 0 0 0 0 0 0 0 0 0 0 0 0 0 0 0 0 0 0 0 68 255 
255 80 17 85 34 0 80 51 34 64 0 0 0 0 0 0 0 0 0 0 0 0 119 34 133 0 119 255 255 255 255 255 255 255 255 153 0 0 0 0 0 0 0 0 0 0 0 0 0 0 0 0 0 0 0 0 0 0 0 0 0 0 0 0 0 0 0 0 0 0 0 0 68 255 
255 191 153 98 119 136 109 64 34 0 51 0 0 0 0 0 0 0 0 0 0 0 78 32 119 17 85 255 255 255 255 255 255 255 238 17 0 0 0 0 0 0 0 0 0 0 0 0 0 0 0 0 0 0 0 0 0 0 0 0 0 0 0 0 0 0 0 0 0 0 0 0 68 255 
255 119 109 187 179 221 192 136 238 221 119 0 0 0 0 0 0 0 0 0 0 0 34 48 68 85 51 255 255 255 255 255 255 255 102 0 0 0 0 0 0 0 0 0 0 0 0 0 0 0 0 0 0 0 0 0 0 0 0 0 0 0 0 0 0 0 0 0 0 0 0 0 68 255 
255 68 0 17 0 0 34 17 112 159 68 0 0 0 0 0 0 0 0 0 0 0 17 78 34 119 0 255 255 255 255 255 255 255 85 51 0 0 0 0 0 0 0 0 0 0 0 0 0 0 0 0 0 0 0 0 0 0 0 0 0 0 0 0 0 0 0 0 0 0 0 0 68 255 
255 68 0 0 0 0 0 0 0 0 0 0 0 0 0 0 0 0 0 0 0 0 0 88 48 138 0 255 255 255 255 255 255 187 119 153 0 0 0 0 0 0 0 0 0 0 0 0 0 0 0 0 0 0 0 0 0 0 0 0 0 0 0 0 0 0 0 0 0 0 0 0 68 255 
255 68 0 0 0 0 0 0 0 0 0 0 0 0 0 0 0 0 0 0 0 0 0 85 136 125 0 187 255 255 255 255 255 170 204 68 0 0 0 0 0 0 0 0 0 0 0 0 0 0 0 0 0 0 0 0 0 0 0 0 0 0 0 0 0 0 0 0 0 0 0 0 68 255 
255 68 0 0 0 0 0 0 0 0 0 0 0 0 0 0 0 0 0 0 0 0 0 187 255 238 0 187 255 255 255 255 255 255 187 0 0 0 0 0 0 0 0 0 0 0 0 0 0 0 0 0 0 0 0 0 0 0 0 0 0 0 0 0 0 0 0 0 0 0 0 0 68 255 
255 68 0 0 0 0 0 0 0 0 0 0 0 0 0 0 0 0 0 0 0 0 0 170 255 255 0 153 255 255 255 255 255 255 187 0 0 0 0 0 0 0 0 0 0 0 0 0 0 0 0 0 0 0 0 0 0 0 0 0 0 0 0 0 0 0 0 0 0 0 0 0 68 255 
255 68 0 0 0 0 0 0 0 0 0 0 0 0 0 0 0 0 0 0 0 0 0 170 255 255 17 119 255 255 255 255 255 255 255 0 0 0 0 0 0 0 0 0 0 0 0 0 0 0 0 0 0 0 0 0 0 0 0 0 0 0 0 0 0 0 0 0 0 0 0 0 68 255 
255 68 0 0 0 0 0 0 0 0 0 0 0 0 0 0 0 0 0 0 0 0 0 119 255 255 68 119 255 255 255 255 255 255 255 0 0 0 0 0 0 0 0 0 0 0 0 0 0 0 0 0 0 0 0 0 0 0 0 0 0 0 0 0 0 0 0 0 0 0 0 0 68 255 
255 68 0 0 0 0 0 0 0 0 0 0 0 0 0 0 0 0 0 0 0 0 0 119 255 255 68 119 255 255 255 255 255 255 255 68 0 0 0 0 0 0 0 0 0 0 0 0 0 0 0 0 0 0 0 0 0 0 0 0 0 0 0 0 0 0 0 0 0 0 0 0 68 255 
255 68 0 0 0 0 0 0 0 0 0 0 0 0 0 0 0 0 0 0 0 0 0 119 255 255 102 119 255 255 255 255 255 255 255 68 0 0 0 0 0 0 0 0 0 0 0 0 0 0 0 0 0 0 0 0 0 0 0 0 0 0 0 0 0 0 0 0 0 0 0 0 68 255 
255 68 0 0 0 0 0 0 0 0 0 0 0 0 0 0 0 0 0 0 0 0 0 119 255 255 119 119 255 255 255 255 255 255 255 153 119 119 119 119 119 119 119 119 119 119 119 119 119 119 119 119 119 119 119 119 119 119 119 119 119 119 119 119 119 119 119 119 119 119 119 119 153 255 
255 68 0 0 0 0 0 0 0 0 0 0 0 0 0 0 0 0 0 0 0 0 0 119 255 255 119 68 255 255 255 255 255 255 255 255 255 255 255 255 255 255 255 255 255 255 255 255 255 255 255 255 255 255 255 255 255 255 255 255 255 255 255 255 255 255 255 255 255 255 255 255 255 255 
255 68 0 0 0 0 0 0 0 0 0 0 0 0 0 0 0 0 0 0 0 0 0 68 255 255 119 68 255 255 255 255 255 255 255 255 255 255 255 255 255 255 255 255 255 255 255 255 255 255 255 255 255 255 255 255 255 255 255 255 255 255 255 255 255 255 255 255 255 255 255 255 255 255 
255 153 119 119 119 119 119 119 119 119 119 119 119 119 119 119 119 119 119 119 119 119 119 153 255 255 187 153 255 255 255 255 255 255 255 255 255 255 255 255 255 255 255 255 255 255 255 255 255 255 255 255 255 255 255 255 255 255 255 255 255 255 255 255 255 255 255 255 255 255 255 255 255 255 
255 255 255 255 255 255 255 255 255 255 255 255 255 255 255 255 255 255 255 255 255 255 255 255 255 255 255 255 255 255 255 255 255 255 255 255 255 255 255 255 255 255 255 255 255 255 255 255 255 255 255 255 255 255 255 255 255 255 255 255 255 255 255 255 255 255 255 255 255 255 255 255 255 255 
