P2
91 113
255
255 255 255 255 255 255 255 255 255 255 255 255 255 255 255 255 255 255 255 255 255 255 255 255 255 255 255 255 255 255 255 255 255 255 255 255 255 255 255 255 255 255 255 255 255 255 255 255 255 255 255 255 255 255 255 255 255 255 255 255 255 255 255 255 255 255 255 255 255 255 255 255 255 255 255 255 255 255 255 255 255 255 255 255 255 255 255 255 255 255 255 
255 255 255 255 255 255 255 255 255 255 255 255 255 255 255 255 255 255 255 255 255 255 255 255 255 255 255 255 255 255 255 255 255 255 255 255 255 255 255 255 255 255 255 255 255 255 255 255 255 255 255 255 255 255 255 255 255 255 255 255 255 255 255 255 255 255 255 255 255 255 255 255 255 255 255 255 255 255 255 255 255 255 255 255 255 255 255 255 255 255 255 
255 255 255 255 255 255 255 255 255 255 255 255 255 255 255 255 255 255 255 255 255 255 255 255 255 255 255 255 255 255 255 255 255 255 255 255 255 255 255 255 255 255 204 187 136 119 136 187 204 255 255 255 255 255 255 255 255 255 255 255 255 255 255 255 255 255 255 255 255 255 255 255 255 255 255 255 255 255 255 255 255 255 255 255 255 255 255 255 255 255 255 
255 255 255 255 255 255 255 255 255 255 255 255 255 255 255 255 255 255 255 255 255 255 255 255 255 255 255 255 255 255 255 255 255 255 255 255 170 119 102 68 17 0 0 34 68 68 68 34 0 0 17 68 102 119 170 255 255 255 255 255 255 255 255 255 255 255 255 255 255 255 255 255 255 255 255 255 255 255 255 255 255 255 255 255 255 255 255 255 255 255 255 
255 255 255 255 255 255 255 255 255 255 255 255 255 255 255 255 255 255 255 255 255 255 255 255 255 255 255 255 255 255 255 255 255 221 119 34 17 85 119 153 187 221 255 255 255 255 255 255 255 221 187 153 119 85 17 34 119 221 255 255 255 255 255 255 255 255 255 255 255 255 255 255 255 255 255 255 255 255 255 255 255 255 255 255 255 255 255 255 255 255 255 
255 255 255 255 255 255 255 255 255 255 255 255 255 255 255 255 255 255 255 255 255 255 255 255 255 255 255 255 255 255 255 170 85 0 68 153 255 255 255 255 255 255 255 255 255 255 255 255 255 255 255 255 255 255 255 153 68 0 85 170 255 255 255 255 255 255 255 255 255 255 255 255 255 255 255 255 255 255 255 255 255 255 255 255 255 255 255 255 255 255 255 
255 255 255 255 255 255 255 255 255 255 255 255 255 255 255 255 255 255 255 255 255 255 255 255 255 255 255 255 221 119 34 17 119 221 255 255 255 255 255 255 255 255 255 255 255 255 255 255 255 255 255 255 255 255 255 255 255 221 119 17 34 119 238 255 255 255 255 255 255 255 255 255 255 255 255 255 255 255 255 255 255 255 255 255 255 255 255 255 255 255 255 
255 255 255 255 255 255 255 255 255 255 255 255 255 255 255 255 255 255 255 255 255 255 255 255 255 255 255 170 17 68 170 255 255 255 255 255 255 255 255 255 255 255 255 255 255 255 255 255 255 255 255 255 255 255 255 255 255 255 255 255 153 68 17 170 255 255 255 255 255 255 255 255 255 255 255 255 255 255 255 255 255 255 255 255 255 255 255 255 255 255 255 
255 255 255 255 255 255 255 255 255 255 255 255 255 255 255 255 255 255 255 255 255 255 255 255 255 238 85 17 136 255 255 255 255 255 255 255 255 255 255 255 255 255 255 255 255 255 255 255 255 255 255 255 255 255 255 255 255 255 255 255 255 255 136 17 85 238 255 255 255 255 255 255 255 255 255 255 255 255 255 255 255 255 255 255 255 255 255 255 255 255 255 
255 255 255 255 255 255 255 255 255 255 255 255 255 255 255 255 255 255 255 255 255 255 255 255 187 17 68 221 255 255 255 255 255 255 255 255 255 255 255 255 255 255 255 255 255 255 255 255 255 255 255 255 255 255 255 255 255 255 255 255 255 255 255 221 68 17 187 255 255 255 255 255 255 255 255 255 255 255 255 255 255 255 255 255 255 255 255 255 255 255 255 
255 255 255 255 255 255 255 255 255 255 255 255 255 255 255 255 255 255 255 255 255 255 238 119 0 136 255 255 255 255 255 255 255 255 255 255 255 255 255 255 255 255 255 255 255 255 255 255 255 255 255 255 255 255 255 255 255 255 255 255 255 255 255 255 255 136 0 119 238 255 255 255 255 255 255 255 255 255 255 255 255 255 255 255 255 255 255 255 255 255 255 
255 255 255 255 255 255 255 255 255 255 255 255 255 255 255 255 255 255 255 255 255 204 34 51 204 255 255 255 255 255 255 255 255 255 255 255 255 255 255 255 255 255 255 255 255 255 255 255 255 255 255 255 255 255 255 255 255 255 255 255 255 255 255 255 255 255 204 51 34 204 255 255 255 255 255 255 255 255 255 255 255 255 255 255 255 255 255 255 255 255 255 
255 255 255 255 255 255 255 255 255 255 255 255 255 255 255 255 255 255 255 255 204 17 119 255 255 255 255 255 255 255 255 255 255 255 255 255 255 255 255 255 255 255 255 255 255 255 255 255 255 255 255 255 255 255 255 255 255 255 255 255 255 255 255 255 255 255 255 255 119 17 204 255 255 255 255 255 255 255 255 255 255 255 255 255 255 255 255 255 255 255 255 
255 255 255 255 255 255 255 255 255 255 255 255 255 255 255 255 255 255 255 204 17 102 255 255 255 255 255 255 255 255 255 255 255 255 255 255 255 255 255 255 255 255 255 255 255 255 255 255 255 255 255 255 255 255 255 255 255 255 255 255 255 255 255 255 255 255 255 255 255 102 17 204 255 255 255 255 255 255 255 255 255 255 255 255 255 255 255 255 255 255 255 
255 255 255 255 255 255 255 255 255 255 255 255 255 255 255 255 255 255 204 17 102 255 255 255 255 255 255 255 255 255 255 255 255 255 255 255 255 255 255 255 255 255 255 255 255 255 255 255 255 255 255 255 255 255 255 255 255 255 255 255 255 255 255 255 255 255 255 255 255 255 102 17 204 255 255 255 255 255 255 255 255 255 255 255 255 255 255 255 255 255 255 
255 255 255 255 255 255 255 255 255 255 255 255 255 255 255 255 255 221 17 102 255 255 255 255 255 255 255 255 255 255 255 255 255 255 255 255 255 255 255 255 255 255 255 255 255 255 255 255 255 255 255 255 255 255 255 255 255 255 255 255 255 255 255 255 255 255 255 255 255 255 255 102 17 221 255 255 255 255 255 255 255 255 255 255 255 255 255 255 255 255 255 
255 255 255 255 255 255 255 255 255 255 255 255 255 255 255 255 238 51 102 255 255 255 255 255 255 255 255 255 255 255 255 255 255 255 255 255 255 255 255 255 255 255 255 255 255 255 255 255 255 255 255 255 255 255 255 255 255 255 255 255 255 255 255 255 255 255 255 255 255 255 255 255 102 51 238 255 255 255 255 255 255 255 255 255 255 255 255 255 255 255 255 
255 255 255 255 255 255 255 255 255 255 255 255 255 255 255 238 51 102 255 255 255 255 255 255 255 255 255 255 255 255 255 255 255 255 255 255 255 255 255 255 255 255 255 255 255 255 255 255 255 255 255 255 255 255 255 255 255 255 255 255 255 255 255 255 255 255 255 255 255 255 255 255 255 102 51 238 255 255 255 255 255 255 255 255 255 255 255 255 255 255 255 
255 255 255 255 255 255 255 255 255 255 255 255 255 255 255 51 68 255 255 255 255 255 255 255 255 255 255 255 255 255 255 255 255 255 255 255 255 255 255 255 255 255 255 255 255 255 255 255 255 255 255 255 255 255 255 255 255 255 255 255 255 255 255 255 255 255 255 255 255 255 255 255 255 255 68 51 255 255 255 255 255 255 255 255 255 255 255 255 255 255 255 
255 255 255 255 255 255 255 255 255 255 255 255 255 255 119 34 238 255 255 255 255 255 255 255 255 255 255 255 255 255 255 255 255 255 255 255 255 255 255 255 255 255 255 255 255 255 255 255 255 255 255 255 255 255 255 255 255 255 255 255 255 255 255 255 255 255 255 255 255 255 255 255 255 255 238 34 119 255 255 255 255 255 255 255 255 255 255 255 255 255 255 
255 255 255 255 255 255 255 255 255 255 255 255 255 221 17 187 255 255 255 255 255 255 255 255 255 255 255 255 255 255 255 255 255 255 255 255 255 255 255 255 255 255 255 255 255 255 255 255 255 255 255 255 255 255 255 255 255 255 255 255 255 255 255 255 255 255 255 255 255 255 255 255 255 255 255 187 17 221 255 255 255 255 255 255 255 255 255 255 255 255 255 
255 255 255 255 255 255 255 255 255 255 255 255 255 68 102 255 255 255 255 255 255 255 255 255 255 255 255 255 255 255 255 255 255 255 255 255 255 255 255 255 255 255 255 255 255 255 255 255 255 255 255 255 255 255 255 255 255 255 255 255 255 255 255 255 255 255 255 255 255 255 255 255 255 255 255 255 85 68 255 255 255 255 255 255 255 255 255 255 255 255 255 
255 255 255 255 255 255 255 255 255 255 255 255 136 17 238 255 255 255 255 255 255 255 255 255 255 255 255 255 255 255 255 255 255 255 255 255 255 255 255 255 255 255 255 255 255 255 255 255 255 255 255 255 255 255 255 255 255 255 255 255 255 255 255 255 255 255 255 255 255 255 255 255 255 255 255 255 238 17 136 255 255 255 255 255 255 255 255 255 255 255 255 
255 255 255 255 255 255 255 255 255 255 255 221 17 170 255 255 255 255 255 255 255 255 255 255 255 255 255 255 255 255 255 255 255 255 255 255 255 255 255 255 255 255 255 255 255 255 255 255 255 255 255 255 255 255 255 255 255 255 255 255 255 255 255 255 255 255 255 255 255 255 255 255 255 255 255 255 255 170 17 221 255 255 255 255 255 255 255 255 255 255 255 
255 255 255 255 255 255 255 255 255 255 255 68 85 255 255 255 255 255 255 255 255 255 255 255 255 255 255 255 255 255 255 255 255 255 255 255 255 255 255 255 255 255 255 255 255 255 255 255 255 255 255 255 255 255 255 255 255 255 255 255 255 255 255 255 255 255 255 255 255 255 255 255 255 255 255 255 255 255 85 68 255 255 255 255 255 255 255 255 255 255 255 
255 255 255 255 255 255 255 255 255 255 170 17 238 255 255 255 255 255 255 255 255 255 255 255 255 255 255 255 255 255 255 255 255 255 255 255 255 255 255 255 255 255 255 255 255 255 255 255 255 255 255 255 255 255 255 255 255 255 255 255 255 255 255 255 255 255 255 255 255 255 255 255 255 255 255 255 255 255 238 17 170 255 255 255 255 255 255 255 255 255 255 
255 255 255 255 255 255 255 255 255 238 17 136 255 255 255 255 255 255 255 255 255 255 255 255 204 187 187 170 119 119 119 119 119 119 119 119 119 119 68 68 68 68 68 68 68 68 68 51 68 68 68 119 119 119 170 187 187 238 255 255 255 255 255 255 255 255 255 255 255 255 255 255 255 255 255 255 255 255 255 136 17 238 255 255 255 255 255 255 255 255 255 
255 255 255 255 255 255 255 255 255 153 34 255 255 255 255 255 255 255 255 255 255 255 255 255 119 68 68 68 68 68 68 68 68 119 119 119 119 119 119 119 119 119 136 187 187 187 187 187 187 136 119 119 102 68 68 34 0 0 0 0 34 68 68 102 119 119 136 187 187 204 255 255 255 255 255 255 255 255 255 255 34 153 255 255 255 255 255 255 255 255 255 
255 255 255 255 255 255 255 255 255 34 136 255 255 255 255 255 255 255 255 255 255 255 255 255 255 255 255 255 255 255 255 255 255 255 255 255 255 255 238 187 204 255 255 255 255 255 255 255 255 255 255 255 255 255 255 255 255 255 238 187 187 170 119 119 119 68 68 68 17 0 0 255 255 255 255 255 255 255 255 255 136 34 255 255 255 255 255 255 255 255 255 
255 255 255 255 255 255 255 255 187 17 238 255 255 255 255 255 255 255 255 255 255 255 255 255 255 255 255 255 255 255 255 238 187 153 119 85 68 0 0 17 85 255 255 255 255 255 255 255 187 0 51 68 119 136 187 221 255 255 255 255 255 255 255 255 255 255 255 255 255 255 255 255 255 255 255 255 255 255 255 255 238 17 187 255 255 255 255 255 255 255 255 
255 255 255 255 255 255 255 255 85 102 255 255 255 255 255 255 255 255 255 255 255 255 255 255 255 255 255 221 153 119 51 0 17 68 102 119 170 187 255 255 255 255 255 255 255 255 255 255 255 187 170 119 102 68 17 0 0 51 102 153 221 255 255 255 255 255 255 255 255 255 255 255 255 255 255 255 255 255 255 255 255 102 85 255 255 255 255 255 255 255 255 
255 255 255 255 255 255 255 221 0 221 255 255 255 255 255 255 255 255 255 255 255 255 255 221 136 85 34 0 51 119 153 221 255 255 255 255 255 255 255 255 255 255 255 255 255 255 255 255 255 255 255 255 255 255 255 255 204 170 119 51 0 17 85 136 187 255 255 255 255 255 255 255 255 255 255 255 255 255 255 255 255 221 0 221 255 255 255 255 255 255 255 
255 255 255 255 255 255 255 119 68 255 255 255 255 255 255 255 255 255 255 255 255 255 255 204 68 119 187 238 255 255 255 255 255 255 255 255 255 255 255 255 255 255 255 255 255 255 255 255 255 255 255 255 255 255 255 255 255 255 255 255 255 187 119 68 17 17 255 255 255 255 255 255 255 255 255 255 255 255 255 255 255 255 68 119 255 255 255 255 255 255 255 
255 255 255 255 255 255 255 17 170 255 255 255 255 255 255 255 255 255 255 255 255 255 255 255 255 255 255 255 255 255 255 255 255 204 187 170 238 255 255 255 255 255 255 255 255 255 255 255 255 255 255 255 255 255 255 255 255 255 255 255 255 255 255 255 255 221 255 255 255 255 255 255 255 255 255 255 255 255 255 255 255 255 170 17 255 255 255 255 255 255 255 
255 255 255 255 255 255 153 34 255 255 255 255 255 255 255 255 255 255 255 255 255 255 255 255 255 255 255 255 255 153 50 16 0 0 5 5 0 55 175 255 255 255 255 255 255 255 255 255 255 255 255 238 109 31 0 16 32 68 112 170 255 255 255 255 255 255 255 255 255 255 255 255 255 255 255 255 255 255 255 255 255 255 255 34 153 255 255 255 255 255 255 
255 255 255 255 255 255 51 136 255 255 255 255 255 255 255 255 255 255 255 255 255 255 255 255 255 255 255 143 21 3 0 0 0 0 0 0 0 0 2 16 112 238 255 255 255 255 255 255 255 170 51 0 0 0 0 0 0 0 0 5 41 187 255 255 255 255 255 255 255 255 255 255 255 255 255 255 255 255 255 255 255 255 255 136 51 255 255 255 255 255 255 
255 255 255 255 255 238 0 221 255 255 255 255 255 255 255 255 255 255 255 255 255 255 255 255 255 187 34 3 0 0 0 10 0 0 0 13 50 11 8 4 2 41 238 255 255 255 255 238 41 0 0 4 0 0 24 23 14 0 0 0 0 3 46 187 255 255 255 255 255 255 255 255 255 255 255 255 255 255 255 255 255 255 255 221 0 238 255 255 255 255 255 
255 255 255 255 255 170 34 255 255 255 255 255 255 255 255 255 255 255 255 255 255 255 255 238 96 5 0 0 0 7 28 119 221 255 255 255 255 255 170 102 0 0 136 255 255 255 255 59 0 0 32 119 187 187 187 187 119 96 11 12 0 0 0 5 74 238 255 255 255 255 255 255 255 255 255 255 255 255 255 255 255 255 255 255 34 170 255 255 255 255 255 
255 255 255 255 255 119 102 255 255 255 255 255 255 255 255 255 255 255 255 255 255 255 204 34 4 0 0 0 96 170 255 255 255 255 255 255 255 255 255 255 238 153 102 255 255 255 221 14 96 187 255 255 255 255 255 255 255 255 238 153 45 0 0 0 5 19 187 255 255 255 255 255 255 255 255 255 255 255 255 255 255 255 255 255 102 119 255 255 255 255 255 
255 255 255 255 255 51 153 255 255 255 255 255 255 255 255 255 255 255 255 255 255 153 8 0 0 6 59 221 255 255 255 255 255 255 255 255 255 255 255 255 255 255 255 255 255 255 238 255 255 255 255 255 255 255 255 255 255 255 255 255 255 221 59 6 0 0 0 112 255 255 255 255 255 255 255 255 255 255 255 255 255 255 255 255 153 51 255 255 255 255 255 
255 255 255 255 238 0 221 255 255 255 255 255 255 255 255 255 255 255 255 238 85 0 5 5 12 153 255 255 255 255 255 255 255 255 255 255 255 255 255 255 255 255 255 255 255 255 255 255 255 255 255 255 255 255 255 255 255 255 255 255 255 255 255 170 13 7 0 0 55 238 255 255 255 255 255 255 255 255 255 255 255 255 255 255 221 0 255 255 255 255 255 
255 255 255 255 187 17 255 255 255 255 255 255 255 255 255 255 255 255 255 255 255 255 136 112 238 255 255 255 255 255 255 255 255 255 255 255 255 255 255 255 255 255 255 255 255 255 255 255 255 255 255 255 255 255 255 255 255 255 255 255 255 255 255 255 238 112 0 119 119 204 255 255 255 255 255 255 255 255 255 255 255 255 255 255 255 17 187 255 255 255 255 
255 255 255 255 119 85 255 255 255 255 255 255 255 255 255 255 255 255 255 255 255 255 255 255 255 255 255 255 255 255 255 255 255 221 255 255 255 255 255 255 255 85 204 255 255 255 255 255 255 255 255 255 255 255 255 255 255 255 255 255 255 255 255 255 255 255 255 255 255 255 255 255 255 255 255 255 255 255 255 255 255 255 255 255 255 85 119 255 255 255 255 
255 255 255 255 68 136 255 255 255 255 255 255 255 255 255 255 255 255 255 255 255 255 255 255 255 255 255 255 238 153 55 19 0 0 0 0 23 153 255 255 255 68 136 255 255 255 255 255 255 255 255 255 204 89 50 50 50 63 119 187 255 255 255 255 255 255 255 255 255 255 255 255 255 255 255 255 255 255 255 255 255 255 255 255 255 136 68 255 255 255 255 
255 255 255 255 0 204 255 255 255 255 255 255 255 255 255 255 255 255 255 255 255 255 255 255 255 255 221 89 0 0 0 0 0 0 0 0 0 5 23 238 255 119 85 255 255 255 255 255 255 255 204 50 0 0 0 0 0 0 0 5 19 112 221 255 255 255 255 255 255 255 255 255 255 255 255 255 255 255 255 255 255 255 255 255 255 204 0 255 255 255 255 
255 255 255 187 17 255 255 255 255 255 255 255 255 255 255 255 255 255 255 255 255 255 255 255 238 112 0 0 0 0 50 50 50 50 0 0 10 7 0 31 238 187 34 255 255 255 255 255 255 238 31 0 0 0 14 0 0 0 0 0 0 0 0 112 238 255 255 255 255 255 255 255 255 255 255 255 255 255 255 255 255 255 255 255 255 255 17 187 255 255 255 
255 255 255 170 68 255 255 255 255 255 255 255 255 255 255 255 255 255 255 255 255 255 255 221 34 0 11 102 153 238 255 255 255 255 255 238 170 102 12 0 96 187 68 255 255 255 255 255 255 50 0 0 28 119 187 187 187 187 238 204 119 48 0 0 12 204 255 255 255 255 255 255 255 255 255 255 255 255 255 255 255 255 255 255 255 255 68 170 255 255 255 
255 255 255 119 68 255 255 255 255 255 255 255 255 255 255 255 255 255 255 255 255 255 204 11 0 102 255 255 255 255 255 255 255 255 255 255 255 255 255 204 119 90 68 255 255 255 255 255 102 64 136 221 255 255 255 255 255 255 255 255 255 255 221 119 0 0 153 255 255 255 255 255 255 255 255 255 255 255 255 255 255 255 255 255 255 255 68 119 255 255 255 
255 255 255 119 102 255 255 255 255 255 255 255 255 255 255 255 255 255 255 255 255 255 21 0 153 255 255 255 255 255 255 255 255 255 255 255 255 255 255 255 255 119 119 255 255 255 255 255 238 255 255 255 255 255 255 255 255 255 255 255 255 255 255 255 187 14 0 187 255 255 255 255 255 255 255 255 255 255 255 255 255 255 255 255 255 255 102 119 255 255 255 
255 255 255 119 119 255 255 255 255 255 255 255 255 255 255 255 255 255 255 255 255 127 12 153 255 255 255 255 255 255 255 255 255 255 255 255 255 255 255 255 255 221 221 255 255 255 255 255 255 255 255 255 255 255 255 255 255 255 255 255 255 255 255 255 255 204 14 23 238 255 255 255 255 255 255 255 255 255 255 255 255 255 255 255 255 255 119 119 255 255 255 
255 255 255 68 119 255 255 255 255 255 255 255 255 255 255 255 255 255 255 255 255 238 221 255 255 255 255 255 255 255 255 255 255 255 255 255 255 255 255 255 255 255 255 255 255 255 255 255 255 255 255 255 255 255 255 255 255 255 255 255 255 255 255 255 255 255 238 112 238 255 255 255 255 255 255 255 255 255 255 255 255 255 255 255 255 255 119 68 255 255 255 
255 255 255 68 136 255 255 255 255 255 255 255 255 255 255 255 255 255 255 255 255 255 255 255 255 255 255 255 255 255 255 255 255 255 255 255 255 255 255 255 255 255 255 255 255 255 255 255 255 255 255 255 255 255 255 255 255 255 255 255 255 255 255 255 255 255 255 255 255 255 255 255 255 255 255 255 255 255 255 255 255 255 255 255 255 255 136 68 255 255 255 
255 255 255 68 187 255 255 255 255 255 255 255 255 255 255 255 255 255 255 255 255 255 255 255 255 255 255 255 255 255 255 255 255 255 255 255 255 255 255 255 255 255 255 255 255 255 255 255 255 255 255 255 255 255 255 255 255 255 255 255 255 255 255 255 255 255 255 255 255 255 255 255 255 255 255 255 255 255 255 255 255 255 255 255 255 255 187 68 255 255 255 
255 255 255 17 187 255 255 255 255 255 255 255 255 255 255 255 255 255 255 255 255 255 255 255 255 255 255 255 255 255 255 255 255 255 255 255 255 255 255 255 255 255 255 255 255 255 255 255 255 255 255 255 255 255 255 255 255 255 255 255 255 255 255 255 255 255 255 255 255 255 255 255 255 255 255 255 255 255 255 255 255 255 255 255 255 255 187 17 255 255 255 
255 255 255 0 187 255 255 255 255 255 255 255 255 255 255 255 255 255 255 255 255 255 255 255 255 255 255 255 255 255 255 255 255 255 255 255 255 255 255 255 255 255 255 255 255 255 255 255 255 255 255 255 255 255 255 255 255 255 255 255 255 255 255 255 255 255 255 255 255 255 255 255 255 255 255 255 255 255 255 255 255 255 255 255 255 255 187 0 255 255 255 
255 255 255 0 255 255 255 255 255 255 255 255 255 255 255 255 255 255 255 255 255 255 255 255 255 255 255 255 255 255 255 255 255 255 255 255 255 255 255 255 255 255 255 255 255 255 255 255 255 255 255 255 255 255 255 255 255 255 255 255 255 255 255 255 255 255 255 255 255 255 255 255 255 255 255 255 255 255 255 255 255 255 255 255 255 255 255 0 255 255 255 
255 255 221 0 255 255 255 255 255 255 255 255 255 255 255 255 255 255 255 255 255 255 255 255 255 255 255 255 255 255 255 255 255 255 255 255 255 255 255 255 255 255 255 255 255 255 255 255 255 255 255 255 255 255 255 255 255 255 255 255 255 255 255 255 255 255 255 255 255 255 255 255 255 255 255 255 255 255 255 255 255 255 255 255 255 255 255 0 221 255 255 
255 255 255 0 255 255 255 255 255 255 255 255 255 255 255 255 255 255 255 255 255 255 255 255 255 255 255 255 255 255 255 255 255 255 255 255 255 255 255 255 255 119 221 255 255 255 255 255 255 255 255 255 255 255 255 255 255 255 255 255 255 255 255 255 255 255 255 255 255 255 255 255 255 255 255 255 255 255 255 255 255 255 255 255 255 255 255 0 255 255 255 
255 255 255 0 187 255 255 255 255 255 255 255 255 255 255 255 255 255 255 255 255 255 255 255 255 255 255 255 255 255 255 255 255 255 255 255 255 255 255 255 204 0 255 255 255 255 255 255 255 255 255 255 255 255 255 255 255 255 255 255 255 255 255 255 255 255 255 255 255 255 255 255 255 255 255 255 255 255 255 255 255 255 255 255 255 255 187 0 255 255 255 
255 255 255 17 187 255 255 255 255 255 255 255 255 255 255 255 255 255 255 255 255 255 255 255 255 255 255 255 255 255 255 255 255 255 255 255 255 255 255 255 136 68 255 255 255 255 255 255 255 255 255 255 255 255 255 255 255 255 255 255 255 255 255 255 255 255 255 255 255 255 255 255 255 255 255 255 255 255 255 255 255 255 255 255 255 255 187 17 255 255 255 
255 255 255 68 187 255 255 255 255 255 255 255 255 255 255 255 255 255 255 255 255 255 255 255 255 255 255 255 255 255 255 255 255 255 255 255 255 255 255 255 68 119 255 255 255 255 255 255 255 255 255 255 255 255 255 255 255 255 255 255 255 255 255 255 255 255 255 255 255 255 255 255 255 255 255 255 255 255 255 255 255 255 255 255 255 255 187 68 255 255 255 
255 255 255 68 136 255 255 255 255 255 255 255 255 255 255 255 255 255 255 255 255 255 255 255 255 255 255 255 255 255 255 255 255 255 255 255 255 255 255 127 22 97 34 34 102 153 221 255 255 255 255 255 255 255 255 255 255 255 255 255 255 255 255 255 255 255 255 255 255 255 255 255 255 255 255 255 255 255 255 255 255 255 255 255 255 255 136 68 255 255 255 
255 255 255 68 119 255 255 255 255 255 255 255 255 255 255 255 255 255 255 255 255 255 255 255 255 255 255 255 255 255 255 255 255 255 238 187 119 136 111 0 34 119 170 170 119 51 0 136 255 255 255 255 187 119 153 255 255 255 255 255 255 255 255 255 255 255 255 255 255 255 255 255 255 255 255 255 255 255 255 255 255 255 255 255 255 255 119 68 255 255 255 
255 255 255 119 119 255 255 255 255 255 255 255 255 255 255 255 255 255 255 255 255 255 255 255 255 255 255 255 255 255 255 255 255 153 14 34 68 63 16 204 255 255 255 255 255 255 238 238 255 255 255 255 187 68 34 17 153 255 255 255 255 255 255 255 255 255 255 255 255 255 255 255 255 255 255 255 255 255 255 255 255 255 255 255 255 255 119 119 255 255 255 
255 255 255 119 102 255 255 255 255 255 255 255 255 255 255 255 255 255 255 255 255 255 153 34 221 255 255 255 255 255 255 255 136 16 153 255 153 0 170 255 255 255 255 255 255 255 255 255 255 255 255 255 255 255 255 170 17 153 255 255 255 255 255 102 102 221 255 255 255 255 255 255 255 255 255 255 255 255 255 255 255 255 255 255 255 255 102 119 255 255 255 
255 255 255 119 68 255 255 255 255 255 255 255 255 255 255 255 255 255 255 238 153 68 17 136 255 255 255 255 255 255 255 238 15 153 255 255 34 136 255 255 255 255 255 255 255 255 255 255 255 255 255 255 255 255 255 255 204 0 221 255 255 255 255 221 68 17 119 204 255 255 255 255 255 255 255 255 255 255 255 255 255 255 255 255 255 255 68 119 255 255 255 
255 255 255 170 68 255 255 255 255 255 255 255 255 255 255 255 255 204 85 0 51 136 238 255 255 255 255 255 255 255 255 159 45 255 255 170 17 255 255 255 255 255 255 255 255 255 255 255 255 255 255 255 255 255 255 255 255 49 64 255 255 255 255 255 255 187 102 17 34 119 255 255 255 255 255 255 255 255 255 255 255 255 255 255 255 255 68 170 255 255 255 
255 255 255 187 17 255 255 255 255 255 255 255 255 255 255 238 119 0 119 221 255 255 255 255 255 255 255 255 255 255 255 32 68 255 255 85 119 255 255 255 255 255 255 255 255 255 255 255 255 255 255 255 255 255 255 255 255 119 21 170 255 255 255 255 255 255 255 255 170 34 34 187 255 255 255 255 255 255 255 255 255 255 255 255 255 255 17 187 255 255 255 
255 255 255 255 0 204 255 255 255 255 255 255 255 255 255 51 68 204 255 255 255 255 255 255 255 255 255 255 255 255 119 12 17 238 255 0 187 255 255 255 255 255 255 255 255 255 255 255 255 255 255 255 255 255 255 255 255 68 64 17 221 255 255 255 255 255 255 255 255 255 119 17 170 255 255 255 255 255 255 255 255 255 255 255 255 204 0 255 255 255 255 
255 255 255 255 68 136 255 255 255 255 255 255 255 255 153 17 238 255 255 255 255 255 255 255 255 255 255 255 255 221 0 187 34 102 255 0 238 255 255 255 255 255 255 255 255 255 255 255 255 255 255 255 255 255 255 255 187 0 221 85 51 255 255 255 255 255 255 255 255 255 255 104 34 255 255 255 255 255 255 255 255 255 255 255 255 136 68 255 255 255 255 
255 255 255 255 119 85 255 255 255 255 255 255 255 238 17 145 64 221 255 255 255 255 255 255 255 255 255 255 255 68 85 255 204 51 30 0 255 255 255 255 255 255 255 255 255 255 255 255 255 255 255 221 51 102 153 102 17 136 255 238 17 170 255 255 255 255 255 255 255 255 119 34 34 119 255 255 255 255 255 255 255 255 255 255 255 85 119 255 255 255 255 
255 255 255 255 187 17 255 255 255 255 255 255 255 119 68 255 68 51 204 255 255 255 255 255 255 255 255 255 170 17 238 255 255 238 136 13 204 255 255 255 255 255 255 255 255 255 255 255 255 255 255 102 68 119 68 102 187 255 255 255 102 102 255 255 255 255 255 255 255 119 0 187 187 17 221 255 255 255 255 255 255 255 255 255 255 17 187 255 255 255 255 
255 255 255 255 238 0 221 255 255 255 255 255 255 221 204 255 238 51 17 136 255 255 255 255 255 255 255 238 17 136 255 255 255 255 255 102 102 255 255 255 255 255 255 255 255 255 255 255 255 255 221 0 221 255 255 255 255 255 255 255 170 17 255 255 255 255 255 221 68 0 153 255 255 170 255 255 255 255 255 255 255 255 255 255 221 0 255 255 255 255 255 
255 255 255 255 255 51 153 255 255 255 255 255 255 255 255 255 255 204 17 0 34 153 255 255 255 255 255 119 68 255 255 255 255 255 255 187 0 204 255 255 255 255 255 255 255 255 255 255 255 255 85 102 255 255 255 255 255 255 255 255 255 17 170 255 255 221 102 0 0 102 255 255 255 255 255 255 255 255 255 255 255 255 255 255 153 51 255 255 255 255 255 
255 255 255 255 255 119 102 255 255 255 255 255 255 255 255 255 255 255 187 0 119 34 34 153 255 255 255 153 204 255 255 255 255 255 255 255 136 17 204 255 255 255 255 255 255 255 255 255 187 34 34 221 255 255 255 255 255 255 255 255 255 102 102 221 102 0 102 51 68 255 255 255 255 255 255 255 255 255 255 255 255 255 255 255 102 119 255 255 255 255 255 
255 255 255 255 255 170 34 255 255 255 255 255 255 255 255 255 255 255 255 119 34 238 153 34 34 136 238 255 255 255 255 255 255 255 255 255 255 119 0 68 170 187 221 255 238 187 119 85 0 119 255 255 255 255 255 255 255 255 255 255 255 163 89 0 102 221 136 17 238 255 255 255 255 255 255 255 255 255 255 255 255 255 255 255 34 170 255 255 255 255 255 
255 255 255 255 255 238 0 221 255 255 255 255 255 255 255 255 255 255 255 255 51 119 255 255 153 34 17 119 238 255 255 255 255 255 255 255 255 255 221 119 34 0 0 0 0 34 68 119 221 255 255 255 255 255 255 255 255 255 255 187 68 0 102 221 255 221 17 170 255 255 255 255 255 255 255 255 255 255 255 255 255 255 255 221 0 238 255 255 255 255 255 
255 255 255 255 255 255 51 136 255 255 255 255 255 255 255 255 255 255 255 255 204 17 170 255 255 255 153 34 17 119 238 255 255 255 255 255 255 255 255 255 255 255 255 255 255 255 255 255 255 255 255 255 255 255 255 255 255 187 68 0 102 221 255 255 255 51 85 255 255 255 255 255 255 255 255 255 255 255 255 255 255 255 255 136 51 255 255 255 255 255 255 
255 255 255 255 255 255 153 34 255 255 255 255 255 255 255 255 255 255 255 255 255 136 17 238 255 255 255 255 153 51 17 119 136 187 221 255 255 255 255 255 255 255 255 255 255 255 255 255 255 255 255 255 255 187 170 119 68 17 102 221 255 255 255 255 119 34 238 255 255 255 255 255 255 255 255 255 255 255 255 255 255 255 255 34 153 255 255 255 255 255 255 
255 255 255 255 255 255 255 17 170 255 255 255 255 255 255 255 255 255 255 255 255 255 85 68 255 255 255 255 255 255 187 119 68 34 0 0 51 85 119 153 187 255 255 255 255 255 221 187 119 119 68 17 0 0 68 85 136 238 255 255 255 255 255 187 0 204 255 255 255 255 255 255 255 255 255 255 255 255 255 255 255 255 170 17 255 255 255 255 255 255 255 
255 255 255 255 255 255 255 119 68 255 255 255 255 255 255 255 255 255 255 255 255 255 238 34 119 255 255 255 255 255 255 255 255 255 255 187 170 119 102 68 0 0 17 68 51 0 0 34 68 119 136 187 221 255 255 255 255 255 255 255 255 255 238 17 136 255 255 255 255 255 255 255 255 255 255 255 255 255 255 255 255 255 68 119 255 255 255 255 255 255 255 
255 255 255 255 255 255 255 221 0 221 255 255 255 255 255 255 255 255 255 255 255 255 255 204 0 113 238 255 255 255 255 255 255 255 255 255 255 255 255 255 255 238 187 136 170 204 255 255 255 255 255 255 255 255 255 255 255 255 255 255 204 102 5 85 255 255 255 255 255 255 255 255 255 255 255 255 255 255 255 255 255 221 0 221 255 255 255 255 255 255 255 
255 255 255 255 255 255 255 255 85 102 255 255 255 255 255 255 255 255 255 255 255 255 255 255 109 3 0 85 153 238 255 255 255 255 255 255 255 255 255 255 255 255 255 255 255 255 255 255 255 255 255 255 255 255 255 255 255 255 170 68 0 48 25 238 255 255 255 255 255 255 255 255 255 255 255 255 255 255 255 255 255 102 85 255 255 255 255 255 255 255 255 
255 255 255 255 255 255 255 255 187 17 238 255 255 255 255 255 255 255 255 255 255 255 255 255 255 102 15 109 51 0 68 136 221 255 255 255 255 255 255 255 255 255 255 255 255 255 255 255 255 255 255 255 255 255 255 238 136 34 17 119 89 17 204 255 255 255 255 255 255 255 255 255 255 255 255 255 255 255 255 255 238 17 187 255 255 255 255 255 255 255 255 
255 255 255 255 255 255 255 255 255 34 136 255 255 255 255 255 255 255 255 255 255 255 255 255 255 255 102 17 204 221 136 51 0 51 136 187 255 255 255 255 255 255 255 255 255 255 255 255 255 255 255 204 153 119 51 0 34 153 255 102 17 204 255 255 255 255 255 255 255 255 255 255 255 255 255 255 255 255 255 255 136 34 255 255 255 255 255 255 255 255 255 
255 255 255 255 255 255 255 255 255 153 34 255 255 255 255 255 255 255 255 255 255 255 255 255 255 255 255 102 17 204 255 255 221 136 51 0 0 0 68 85 119 136 187 187 187 119 119 119 85 68 17 0 51 119 153 221 255 255 102 17 204 255 255 255 255 255 255 255 255 255 255 255 255 255 255 255 255 255 255 255 34 153 255 255 255 255 255 255 255 255 255 
255 255 255 255 255 255 255 255 255 238 17 136 255 255 255 255 255 255 255 255 255 255 255 255 255 255 255 255 119 17 153 255 255 255 255 255 238 187 170 119 102 68 51 68 68 68 85 119 119 136 187 255 255 255 255 255 221 85 34 204 255 255 255 255 255 255 255 255 255 255 255 255 255 255 255 255 255 255 255 136 17 238 255 255 255 255 255 255 255 255 255 
255 255 255 255 255 255 255 255 255 255 170 17 238 255 255 255 255 255 255 255 255 255 255 255 255 255 255 255 255 153 17 34 153 255 255 255 255 255 255 255 255 255 255 255 255 255 255 255 255 255 255 255 255 255 238 119 0 68 238 255 255 255 255 255 255 255 255 255 255 255 255 255 255 255 255 255 255 255 238 17 170 255 255 255 255 255 255 255 255 255 255 
255 255 255 255 255 255 255 255 255 255 255 68 85 255 255 255 255 255 255 255 255 255 255 255 255 255 255 255 255 255 238 119 17 51 187 255 255 255 255 255 255 255 255 255 255 255 255 255 255 255 255 255 238 119 17 68 187 255 255 255 255 255 255 255 255 255 255 255 255 255 255 255 255 255 255 255 255 255 85 68 255 255 255 255 255 255 255 255 255 255 255 
255 255 255 255 255 255 255 255 255 255 255 221 17 170 255 255 255 255 255 255 255 255 255 255 255 255 255 255 255 255 255 255 238 119 17 68 187 255 255 255 255 255 255 255 255 255 255 255 255 255 255 119 17 51 187 255 255 255 255 255 255 255 255 255 255 255 255 255 255 255 255 255 255 255 255 255 255 170 17 221 255 255 255 255 255 255 255 255 255 255 255 
255 255 255 255 255 255 255 255 255 255 255 255 136 17 238 255 255 255 255 255 255 255 255 255 255 255 255 255 255 255 255 255 255 255 238 119 17 0 68 102 119 187 238 255 255 221 170 119 85 51 0 34 153 255 255 255 255 255 255 255 255 255 255 255 255 255 255 255 255 255 255 255 255 255 255 255 238 17 136 255 255 255 255 255 255 255 255 255 255 255 255 
255 255 255 255 255 255 255 255 255 255 255 255 255 68 102 255 255 255 255 255 255 255 255 255 255 255 255 255 255 255 255 255 255 255 255 255 255 187 153 119 68 34 0 17 0 0 51 85 119 170 221 255 255 255 255 255 255 255 255 255 255 255 255 255 255 255 255 255 255 255 255 255 255 255 255 255 85 68 255 255 255 255 255 255 255 255 255 255 255 255 255 
255 255 255 255 255 255 255 255 255 255 255 255 255 221 17 187 255 255 255 255 255 255 255 255 255 255 255 255 255 255 255 255 255 255 255 255 255 255 255 255 255 255 255 187 187 255 255 255 255 255 255 255 255 255 255 255 255 255 255 255 255 255 255 255 255 255 255 255 255 255 255 255 255 255 255 187 17 221 255 255 255 255 255 255 255 255 255 255 255 255 255 
255 255 255 255 255 255 255 255 255 255 255 255 255 255 119 34 238 255 255 255 255 255 255 255 255 255 255 255 255 255 255 255 221 238 255 255 255 255 255 255 255 255 255 255 255 255 255 255 255 255 255 255 255 255 255 204 255 255 255 255 255 255 255 255 255 255 255 255 255 255 255 255 255 255 238 34 119 255 255 255 255 255 255 255 255 255 255 255 255 255 255 
255 255 255 255 255 255 255 255 255 255 255 255 255 255 255 51 68 255 255 255 255 255 255 255 255 255 255 255 255 255 255 255 85 68 255 255 255 255 255 255 255 255 255 255 255 255 255 255 255 255 255 255 255 255 153 17 221 255 255 255 255 255 255 255 255 255 255 255 255 255 255 255 255 255 68 51 255 255 255 255 255 255 255 255 255 255 255 255 255 255 255 
255 255 255 255 255 255 255 255 255 255 255 255 255 255 255 238 51 102 255 255 255 255 255 255 255 255 255 255 255 255 255 255 238 34 68 170 255 255 255 255 255 255 255 255 255 255 255 255 255 255 255 255 221 102 0 170 255 255 255 255 255 255 255 255 255 255 255 255 255 255 255 255 255 102 51 238 255 255 255 255 255 255 255 255 255 255 255 255 255 255 255 
255 255 255 255 255 255 255 255 255 255 255 255 255 255 255 255 238 51 102 255 255 255 255 255 255 255 255 255 255 255 255 255 255 221 119 17 34 119 170 238 255 255 255 255 255 255 255 255 255 187 136 85 0 85 187 255 255 255 255 255 255 255 255 255 255 255 255 255 255 255 255 255 102 51 238 255 255 255 255 255 255 255 255 255 255 255 255 255 255 255 255 
255 255 255 255 255 255 255 255 255 255 255 255 255 255 255 255 255 221 17 102 255 255 255 255 255 255 255 255 255 255 255 255 255 255 255 238 153 85 34 0 34 68 68 68 68 68 68 51 0 17 68 119 221 255 255 255 255 255 255 255 255 255 255 255 255 255 255 255 255 255 255 102 17 221 255 255 255 255 255 255 255 255 255 255 255 255 255 255 255 255 255 
255 255 255 255 255 255 255 255 255 255 255 255 255 255 255 255 255 255 204 17 102 255 255 255 255 255 255 255 255 255 255 255 255 255 255 255 255 255 255 238 187 187 187 187 170 187 187 187 204 255 255 255 255 255 255 255 255 255 255 255 255 255 255 255 255 255 255 255 255 255 102 17 204 255 255 255 255 255 255 255 255 255 255 255 255 255 255 255 255 255 255 
255 255 255 255 255 255 255 255 255 255 255 255 255 255 255 255 255 255 255 204 17 102 255 255 255 255 255 255 255 255 255 255 255 255 255 255 255 255 255 255 255 255 255 255 255 255 255 255 255 255 255 255 255 255 255 255 255 255 255 255 255 255 255 255 255 255 255 255 255 102 17 204 255 255 255 255 255 255 255 255 255 255 255 255 255 255 255 255 255 255 255 
255 255 255 255 255 255 255 255 255 255 255 255 255 255 255 255 255 255 255 255 204 17 119 255 255 255 255 255 255 255 255 255 255 255 255 255 255 255 255 255 255 255 255 255 255 255 255 255 255 255 255 255 255 255 255 255 255 255 255 255 255 255 255 255 255 255 255 255 119 17 204 255 255 255 255 255 255 255 255 255 255 255 255 255 255 255 255 255 255 255 255 
255 255 255 255 255 255 255 255 255 255 255 255 255 255 255 255 255 255 255 255 255 204 34 51 204 255 255 255 255 255 255 255 255 255 255 255 255 255 255 255 255 255 255 255 255 255 255 255 255 255 255 255 255 255 255 255 255 255 255 255 255 255 255 255 255 255 204 51 34 204 255 255 255 255 255 255 255 255 255 255 255 255 255 255 255 255 255 255 255 255 255 
255 255 255 255 255 255 255 255 255 255 255 255 255 255 255 255 255 255 255 255 255 255 238 119 0 136 255 255 255 255 255 255 255 255 255 255 255 255 255 255 255 255 255 255 255 255 255 255 255 255 255 255 255 255 255 255 255 255 255 255 255 255 255 255 255 136 0 119 238 255 255 255 255 255 255 255 255 255 255 255 255 255 255 255 255 255 255 255 255 255 255 
255 255 255 255 255 255 255 255 255 255 255 255 255 255 255 255 255 255 255 255 255 255 255 255 187 17 68 221 255 255 255 255 255 255 255 255 255 255 255 255 255 255 255 255 255 255 255 255 255 255 255 255 255 255 255 255 255 255 255 255 255 255 255 221 68 17 187 255 255 255 255 255 255 255 255 255 255 255 255 255 255 255 255 255 255 255 255 255 255 255 255 
255 255 255 255 255 255 255 255 255 255 255 255 255 255 255 255 255 255 255 255 255 255 255 255 255 238 85 17 136 255 255 255 255 255 255 255 255 255 255 255 255 255 255 255 255 255 255 255 255 255 255 255 255 255 255 255 255 255 255 255 255 255 136 17 85 238 255 255 255 255 255 255 255 255 255 255 255 255 255 255 255 255 255 255 255 255 255 255 255 255 255 
255 255 255 255 255 255 255 255 255 255 255 255 255 255 255 255 255 255 255 255 255 255 255 255 255 255 255 170 17 68 170 255 255 255 255 255 255 255 255 255 255 255 255 255 255 255 255 255 255 255 255 255 255 255 255 255 255 255 255 255 170 68 17 170 255 255 255 255 255 255 255 255 255 255 255 255 255 255 255 255 255 255 255 255 255 255 255 255 255 255 255 
255 255 255 255 255 255 255 255 255 255 255 255 255 255 255 255 255 255 255 255 255 255 255 255 255 255 255 255 221 119 34 17 119 221 255 255 255 255 255 255 255 255 255 255 255 255 255 255 255 255 255 255 255 255 255 255 255 221 119 17 34 119 221 255 255 255 255 255 255 255 255 255 255 255 255 255 255 255 255 255 255 255 255 255 255 255 255 255 255 255 255 
255 255 255 255 255 255 255 255 255 255 255 255 255 255 255 255 255 255 255 255 255 255 255 255 255 255 255 255 255 255 255 170 85 0 68 153 255 255 255 255 255 255 255 255 255 255 255 255 255 255 255 255 255 255 255 153 68 0 85 170 255 255 255 255 255 255 255 255 255 255 255 255 255 255 255 255 255 255 255 255 255 255 255 255 255 255 255 255 255 255 255 
255 255 255 255 255 255 255 255 255 255 255 255 255 255 255 255 255 255 255 255 255 255 255 255 255 255 255 255 255 255 255 255 255 221 119 34 17 85 119 153 187 221 255 255 255 255 255 255 255 221 187 153 119 85 17 34 119 221 255 255 255 255 255 255 255 255 255 255 255 255 255 255 255 255 255 255 255 255 255 255 255 255 255 255 255 255 255 255 255 255 255 
255 255 255 255 255 255 255 255 255 255 255 255 255 255 255 255 255 255 255 255 255 255 255 255 255 255 255 255 255 255 255 255 255 255 255 255 170 119 102 68 17 0 0 34 68 68 68 34 0 0 17 68 102 119 170 255 255 255 255 255 255 255 255 255 255 255 255 255 255 255 255 255 255 255 255 255 255 255 255 255 255 255 255 255 255 255 255 255 255 255 255 
255 255 255 255 255 255 255 255 255 255 255 255 255 255 255 255 255 255 255 255 255 255 255 255 255 255 255 255 255 255 255 255 255 255 255 255 255 255 255 255 255 255 204 187 136 119 136 187 204 255 255 255 255 255 255 255 255 255 255 255 255 255 255 255 255 255 255 255 255 255 255 255 255 255 255 255 255 255 255 255 255 255 255 255 255 255 255 255 255 255 255 
255 255 255 255 255 255 255 255 255 255 255 255 255 255 255 255 255 255 255 255 255 255 255 255 255 255 255 255 255 255 255 255 255 255 255 255 255 255 255 255 255 255 255 255 255 255 255 255 255 255 255 255 255 255 255 255 255 255 255 255 255 255 255 255 255 255 255 255 255 255 255 255 255 255 255 255 255 255 255 255 255 255 255 255 255 255 255 255 255 255 255 
255 255 255 255 255 255 255 255 255 255 255 255 255 255 255 255 255 255 255 255 255 255 255 255 255 255 255 255 255 255 255 255 255 255 255 255 255 255 255 255 255 255 255 255 255 255 255 255 255 255 255 255 255 255 255 255 255 255 255 255 255 255 255 255 255 255 255 255 255 255 255 255 255 255 255 255 255 255 255 255 255 255 255 255 255 255 255 255 255 255 255 
