P2
91 113
255
255 255 255 255 255 255 255 255 255 255 255 255 255 255 255 255 255 255 255 255 255 255 255 255 255 255 255 255 255 255 255 255 255 255 255 255 255 255 255 255 255 255 255 255 255 255 255 255 255 255 255 255 255 255 255 255 255 255 255 255 255 255 255 255 255 255 255 255 255 255 255 255 255 255 255 255 255 255 255 255 255 255 255 255 255 255 255 255 255 255 255 
255 255 255 255 255 255 255 255 255 255 255 255 255 255 255 255 255 255 255 255 255 255 255 255 255 255 255 255 255 255 255 255 255 255 255 255 255 255 255 255 255 255 255 255 255 255 255 255 255 255 255 255 255 255 255 255 255 255 255 255 255 255 255 255 255 255 255 255 255 255 255 255 255 255 255 255 255 255 255 255 255 255 255 255 255 255 255 255 255 255 255 
255 255 255 255 255 255 255 255 255 255 255 255 255 255 255 255 255 255 255 255 255 255 255 255 255 255 255 255 255 255 255 255 255 255 255 255 255 255 255 255 255 255 204 187 136 119 136 187 204 255 255 255 255 255 255 255 255 255 255 255 255 255 255 255 255 255 255 255 255 255 255 255 255 255 255 255 255 255 255 255 255 255 255 255 255 255 255 255 255 255 255 
255 255 255 255 255 255 255 255 255 255 255 255 255 255 255 255 255 255 255 255 255 255 255 255 255 255 255 255 255 255 255 255 255 255 255 255 170 119 102 68 17 0 0 34 68 68 68 34 0 0 17 68 102 119 170 255 255 255 255 255 255 255 255 255 255 255 255 255 255 255 255 255 255 255 255 255 255 255 255 255 255 255 255 255 255 255 255 255 255 255 255 
255 255 255 255 255 255 255 255 255 255 255 255 255 255 255 255 255 255 255 255 255 255 255 255 255 255 255 255 255 255 255 255 255 221 119 34 17 85 119 153 187 221 255 255 255 255 255 255 255 221 187 153 119 85 17 34 119 221 255 255 255 255 255 255 255 255 255 255 255 255 255 255 255 255 255 255 255 255 255 255 255 255 255 255 255 255 255 255 255 255 255 
255 255 255 255 255 255 255 255 255 255 255 255 255 255 255 255 255 255 255 255 255 255 255 255 255 255 255 255 255 255 255 170 85 0 68 153 255 255 255 255 255 255 255 255 255 255 255 255 255 255 255 255 255 255 255 153 68 0 85 170 255 255 255 255 255 255 255 255 255 255 255 255 255 255 255 255 255 255 255 255 255 255 255 255 255 255 255 255 255 255 255 
255 255 255 255 255 255 255 255 255 255 255 255 255 255 255 255 255 255 255 255 255 255 255 255 255 255 255 255 221 119 34 17 119 221 255 255 255 255 255 255 255 255 255 255 255 255 255 255 255 255 255 255 255 255 255 255 255 221 119 17 34 119 238 255 255 255 255 255 255 255 255 255 255 255 255 255 255 255 255 255 255 255 255 255 255 255 255 255 255 255 255 
255 255 255 255 255 255 255 255 255 255 255 255 255 255 255 255 255 255 255 255 255 255 255 255 255 255 255 170 17 68 170 255 255 255 255 255 255 255 255 255 255 255 255 255 255 255 255 255 255 255 255 255 255 255 255 255 255 255 255 255 153 68 17 170 255 255 255 255 255 255 255 255 255 255 255 255 255 255 255 255 255 255 255 255 255 255 255 255 255 255 255 
255 255 255 255 255 255 255 255 255 255 255 255 255 255 255 255 255 255 255 255 255 255 255 255 255 238 85 17 136 255 255 255 255 255 255 255 255 255 255 255 255 255 255 255 255 255 255 255 255 255 255 255 255 255 255 255 255 255 255 255 255 255 136 17 85 238 255 255 255 255 255 255 255 255 255 255 255 255 255 255 255 255 255 255 255 255 255 255 255 255 255 
255 255 255 255 255 255 255 255 255 255 255 255 255 255 255 255 255 255 255 255 255 255 255 255 187 17 68 221 255 255 255 255 255 255 255 255 255 255 255 255 255 255 255 255 255 255 255 255 255 255 255 255 255 255 255 255 255 255 255 255 255 255 255 221 68 17 187 255 255 255 255 255 255 255 255 255 255 255 255 255 255 255 255 255 255 255 255 255 255 255 255 
255 255 255 255 255 255 255 255 255 255 255 255 255 255 255 255 255 255 255 255 255 255 238 119 0 136 255 255 255 255 255 255 255 255 255 255 255 255 255 255 255 255 255 255 255 255 255 255 255 255 255 255 255 255 255 255 255 255 255 255 255 255 255 255 255 136 0 119 238 255 255 255 255 255 255 255 255 255 255 255 255 255 255 255 255 255 255 255 255 255 255 
255 255 255 255 255 255 255 255 255 255 255 255 255 255 255 255 255 255 255 255 255 204 34 51 204 255 255 255 255 255 255 255 255 255 255 255 255 255 255 255 255 255 255 255 255 255 255 255 255 255 255 255 255 255 255 255 255 255 255 255 255 255 255 255 255 255 204 51 34 204 255 255 255 255 255 255 255 255 255 255 255 255 255 255 255 255 255 255 255 255 255 
255 255 255 255 255 255 255 255 255 255 255 255 255 255 255 255 255 255 255 255 204 17 119 255 255 255 255 255 255 255 255 255 255 255 255 255 136 238 255 255 255 255 255 255 255 255 255 255 255 255 255 255 255 255 238 136 255 255 255 255 255 255 255 255 255 255 255 255 119 17 204 255 255 255 255 255 255 255 255 255 255 255 255 255 255 255 255 255 255 255 255 
255 255 255 255 255 255 255 255 255 255 255 255 255 255 255 255 255 255 255 204 17 102 255 255 255 255 255 255 255 255 255 255 255 255 255 187 0 221 255 255 255 255 255 255 255 255 255 255 255 255 255 255 255 255 238 17 187 255 255 255 255 255 255 255 255 255 255 255 255 102 17 204 255 255 255 255 255 255 255 255 255 255 255 255 255 255 255 255 255 255 255 
255 255 255 255 255 255 255 255 255 255 255 255 255 255 255 255 255 255 204 17 102 255 255 255 255 255 255 255 255 255 255 255 255 255 255 68 102 255 255 119 204 255 255 255 255 255 255 255 255 255 255 204 119 255 255 119 51 238 255 255 255 255 255 255 255 255 255 255 255 255 102 17 204 255 255 255 255 255 255 255 255 255 255 255 255 255 255 255 255 255 255 
255 255 255 255 255 255 255 255 255 255 255 255 255 255 255 255 255 221 17 102 255 255 255 255 255 255 255 255 255 255 255 255 255 255 102 51 238 255 187 0 221 255 255 255 255 255 255 255 255 255 255 221 17 187 255 238 51 102 255 255 255 255 255 255 255 255 255 255 255 255 255 102 17 221 255 255 255 255 255 255 255 255 255 255 255 255 255 255 255 255 255 
255 255 255 255 255 255 255 255 255 255 255 255 255 255 255 255 238 51 102 255 255 255 255 255 255 255 255 255 255 255 255 255 255 102 51 238 255 255 51 119 255 255 255 255 255 255 255 255 255 255 255 255 119 34 255 255 238 51 102 255 255 255 255 255 255 255 255 255 255 255 255 255 102 51 238 255 255 255 255 255 255 255 255 255 255 255 255 255 255 255 255 
255 255 255 255 255 255 255 255 255 255 255 255 255 255 255 238 51 102 255 255 255 255 255 255 255 255 255 255 255 255 255 187 68 17 221 255 255 136 34 238 255 255 255 255 255 255 255 255 255 255 255 255 255 34 119 255 255 238 51 51 187 255 255 255 255 255 255 255 255 255 255 255 255 102 51 238 255 255 255 255 255 255 255 255 255 255 255 255 255 255 255 
255 255 255 255 255 255 255 255 255 255 255 255 255 255 255 51 68 255 255 255 255 255 255 255 255 255 255 255 255 204 85 0 119 238 255 255 136 17 170 255 255 255 255 255 255 255 255 255 255 255 255 255 255 187 17 119 255 255 238 119 17 68 187 255 255 255 255 255 255 255 255 255 255 255 68 51 255 255 255 255 255 255 255 255 255 255 255 255 255 255 255 
255 255 255 255 255 255 255 255 255 255 255 255 255 255 119 34 238 255 255 255 255 255 255 255 255 255 255 187 68 0 102 221 255 255 204 51 34 170 255 255 255 255 255 255 255 255 255 255 255 255 255 255 255 255 170 34 51 187 255 255 221 102 0 68 187 255 255 255 255 255 255 255 255 255 238 34 119 255 255 255 255 255 255 255 255 255 255 255 255 255 255 
255 255 255 255 255 255 255 255 255 255 255 255 255 221 17 187 255 255 255 255 255 255 255 255 255 238 119 0 102 221 255 255 238 119 0 119 238 255 255 255 255 255 255 255 255 255 255 255 255 255 255 255 255 255 255 238 119 0 102 221 255 255 221 102 17 85 238 255 255 255 255 255 255 255 255 187 17 221 255 255 255 255 255 255 255 255 255 255 255 255 255 
255 255 255 255 255 255 255 255 255 255 255 255 255 68 102 255 255 255 255 255 255 255 255 255 187 34 51 204 255 255 238 119 17 68 204 255 255 255 255 255 255 255 255 255 255 255 255 255 255 255 255 255 255 255 255 255 255 204 68 0 102 221 255 255 221 68 17 170 255 255 255 255 255 255 255 255 85 68 255 255 255 255 255 255 255 255 255 255 255 255 255 
255 255 255 255 255 255 255 255 255 255 255 255 136 17 238 255 255 255 255 255 255 255 255 221 0 119 255 255 238 119 17 68 187 255 255 255 255 255 255 255 255 255 255 255 255 255 255 255 255 255 255 255 255 255 255 255 255 255 255 187 68 0 102 238 255 255 136 0 204 255 255 255 255 255 255 255 238 17 136 255 255 255 255 255 255 255 255 255 255 255 255 
255 255 255 255 255 255 255 255 255 255 255 221 17 170 255 255 255 255 255 255 255 255 255 68 102 255 255 204 51 68 187 255 255 255 255 255 255 255 255 255 255 255 255 255 255 255 255 255 255 255 255 255 255 255 255 255 255 255 255 255 255 187 68 17 204 255 255 119 51 255 255 255 255 255 255 255 255 170 17 221 255 255 255 255 255 255 255 255 255 255 255 
255 255 255 255 255 255 255 255 255 255 255 68 85 255 255 255 255 255 255 255 255 255 221 34 238 255 204 17 102 255 255 255 255 255 255 255 255 255 255 255 255 255 255 255 255 255 255 255 255 255 255 255 255 255 255 255 255 255 255 255 255 255 255 102 17 204 255 238 34 204 255 255 255 255 255 255 255 255 85 68 255 255 255 255 255 255 255 255 255 255 255 
255 255 255 255 255 255 255 255 255 255 170 17 238 255 255 255 255 255 255 255 255 255 255 255 255 170 17 119 255 255 255 255 221 119 104 50 50 50 50 96 136 238 255 255 255 255 255 255 255 255 238 136 104 50 50 50 50 96 119 204 255 255 255 255 136 17 153 255 255 255 255 255 255 255 255 255 255 255 238 17 170 255 255 255 255 255 255 255 255 255 255 
255 255 255 255 255 255 255 255 255 238 17 136 255 255 255 255 255 255 255 255 255 255 255 255 255 102 153 255 255 255 136 31 0 5 0 0 0 0 0 0 3 104 255 255 255 255 255 255 255 255 112 2 0 0 0 0 0 0 0 0 31 136 238 255 255 153 102 255 255 255 255 255 255 255 255 255 255 255 255 136 17 238 255 255 255 255 255 255 255 255 255 
255 255 255 255 255 255 255 255 255 153 34 255 255 255 255 255 255 255 255 255 255 255 255 255 255 255 255 255 204 34 5 0 0 0 0 14 19 19 19 19 0 170 255 255 255 255 255 255 255 255 170 0 19 19 19 19 14 0 0 0 0 5 34 204 255 255 255 255 255 255 255 255 255 255 255 255 255 255 255 255 34 153 255 255 255 255 255 255 255 255 255 
255 255 255 255 255 255 255 255 255 34 136 255 255 255 255 255 255 255 255 255 255 255 255 255 255 255 255 153 0 0 6 0 11 59 119 119 136 187 187 187 204 255 255 255 255 255 255 255 255 255 255 204 187 187 187 136 119 119 74 12 0 6 0 0 153 255 255 255 255 255 255 255 255 255 255 255 255 255 255 255 136 34 255 255 255 255 255 255 255 255 255 
255 255 255 255 255 255 255 255 187 17 238 255 255 255 255 255 255 255 255 255 255 255 255 255 255 255 153 0 2 0 96 204 255 255 255 255 255 255 255 255 255 255 255 255 255 255 255 255 255 255 255 255 255 255 255 255 255 255 255 255 204 96 0 0 0 153 255 255 255 255 255 255 255 255 255 255 255 255 255 255 238 17 187 255 255 255 255 255 255 255 255 
255 255 255 255 255 255 255 255 85 102 255 255 255 255 255 255 255 255 255 255 255 255 255 255 255 204 0 0 74 221 255 255 255 255 255 255 255 255 255 255 255 255 255 255 255 255 255 255 255 255 255 255 255 255 255 255 255 255 255 255 255 255 221 80 0 0 187 255 255 255 255 255 255 255 255 255 255 255 255 255 255 102 85 255 255 255 255 255 255 255 255 
255 255 255 255 255 255 255 221 0 221 255 255 255 255 255 255 255 255 255 255 255 255 255 255 238 23 0 96 255 255 255 255 255 255 255 255 255 255 255 255 255 255 255 255 255 255 255 255 255 255 255 255 255 255 255 255 255 255 255 255 255 255 255 255 119 0 23 238 255 255 255 255 255 255 255 255 255 255 255 255 255 221 0 221 255 255 255 255 255 255 255 
255 255 255 255 255 255 255 119 68 255 255 255 255 255 255 255 255 255 255 255 255 255 255 255 112 0 96 255 255 255 255 255 255 255 255 255 255 255 255 255 255 255 255 255 255 255 255 255 255 255 255 255 255 255 255 255 255 255 255 255 255 255 255 255 255 112 0 74 255 255 255 255 255 255 255 255 255 255 255 255 255 255 68 119 255 255 255 255 255 255 255 
255 255 255 255 255 255 255 17 170 255 255 255 255 255 255 255 255 255 255 255 255 255 255 221 0 41 255 255 255 255 255 255 255 255 255 255 255 255 255 255 255 255 255 255 255 255 255 255 255 255 255 255 255 255 255 255 255 255 255 255 255 255 255 255 255 255 41 0 221 255 255 255 255 255 255 255 255 255 255 255 255 255 170 17 255 255 255 255 255 255 255 
255 255 255 255 255 255 153 34 255 255 255 255 255 255 255 255 255 255 255 255 255 255 255 119 0 187 255 255 255 255 255 255 255 255 255 255 255 255 255 255 255 255 255 255 255 255 255 255 255 255 255 255 255 255 255 255 255 255 255 255 255 255 255 255 255 255 221 0 112 255 255 255 255 255 255 255 255 255 255 255 255 255 255 34 153 255 255 255 255 255 255 
255 255 255 255 255 255 51 136 255 255 255 255 255 255 255 255 255 255 255 255 255 255 255 21 55 255 255 255 255 255 255 255 255 255 255 255 255 255 255 255 255 255 255 255 255 255 255 255 255 255 255 255 255 255 255 255 255 255 255 255 255 255 255 255 255 255 255 59 11 255 255 255 255 255 255 255 255 255 255 255 255 255 255 136 51 255 255 255 255 255 255 
255 255 255 255 255 238 0 221 255 255 255 255 255 255 255 255 255 255 255 255 255 255 221 0 153 255 255 255 255 255 255 255 255 255 255 255 255 255 255 255 255 255 255 255 255 255 255 255 255 255 255 255 255 255 255 255 255 255 255 255 255 255 255 255 255 255 255 170 0 204 255 255 255 255 255 255 255 255 255 255 255 255 255 221 0 238 255 255 255 255 255 
255 255 255 255 255 170 34 255 255 255 255 255 255 255 255 255 255 255 255 255 255 255 187 0 238 255 255 255 255 255 255 255 255 255 255 255 255 255 255 255 255 255 255 255 255 255 255 255 255 255 255 255 255 255 255 255 255 255 255 255 255 255 255 255 255 255 255 255 0 187 255 255 255 255 255 255 255 255 255 255 255 255 255 255 34 170 255 255 255 255 255 
255 255 255 255 255 119 102 255 255 255 255 255 255 255 255 255 255 255 255 255 255 255 136 41 255 255 255 255 255 255 238 187 119 119 119 187 238 255 255 255 255 255 255 255 255 255 255 255 255 255 255 255 255 255 255 238 187 119 119 119 187 238 255 255 255 255 255 255 50 119 255 255 255 255 255 255 255 255 255 255 255 255 255 255 102 119 255 255 255 255 255 
255 255 255 255 255 51 153 255 255 255 255 255 255 255 255 255 255 255 255 255 255 255 153 104 255 255 255 255 119 17 0 34 68 119 68 34 0 17 119 255 255 255 255 255 255 255 255 255 255 255 255 255 255 119 17 0 34 68 119 68 34 0 17 119 238 255 255 255 119 153 255 255 255 255 255 255 255 255 255 255 255 255 255 255 153 51 255 255 255 255 255 
255 255 255 255 238 0 221 255 255 255 255 255 255 255 255 255 255 255 255 255 255 255 255 255 255 255 187 34 34 170 238 255 255 255 255 255 238 170 34 34 187 255 255 255 255 255 255 255 255 255 255 187 51 34 170 238 255 255 255 255 255 238 170 34 34 187 255 255 255 255 255 255 255 255 255 255 255 255 255 255 255 255 255 255 221 0 255 255 255 255 255 
255 255 255 255 187 17 255 255 255 255 255 255 255 255 255 255 255 255 255 255 255 255 255 255 255 119 0 119 255 255 255 255 255 255 255 255 255 255 255 119 0 102 255 255 255 255 255 255 255 255 119 0 119 238 255 255 255 255 255 255 255 255 255 255 119 17 102 255 255 255 255 255 255 255 255 255 255 255 255 255 255 255 255 255 255 17 187 255 255 255 255 
255 255 255 255 119 85 255 255 255 255 255 255 255 255 255 255 255 255 255 255 255 255 255 255 153 17 204 255 255 255 255 255 255 255 255 255 255 255 255 255 204 17 153 255 255 255 255 255 255 170 17 204 255 255 255 255 255 255 255 255 255 255 255 255 255 204 17 153 255 255 255 255 255 255 255 255 255 255 255 255 255 255 255 255 255 85 119 255 255 255 255 
255 255 255 255 68 136 255 255 255 255 255 255 255 255 255 255 255 255 255 255 204 238 255 221 17 153 255 255 255 255 255 255 255 255 255 255 255 255 255 255 255 170 17 204 255 255 255 255 221 17 153 255 255 255 255 255 255 255 255 255 255 255 255 255 255 255 170 17 204 255 238 204 255 255 255 255 255 255 255 255 255 255 255 255 255 136 68 255 255 255 255 
255 255 255 255 0 204 255 255 255 255 255 255 255 255 255 255 255 255 255 255 17 187 255 51 102 255 255 255 255 255 255 255 255 255 255 255 255 255 255 255 255 255 102 51 255 255 255 255 51 102 255 255 255 255 255 255 255 255 255 255 255 255 255 255 255 255 255 119 51 255 187 0 255 255 255 255 255 255 255 255 255 255 255 255 255 204 0 255 255 255 255 
255 255 255 187 17 255 255 255 255 255 255 255 255 255 255 255 255 255 255 221 0 238 221 0 238 255 255 255 255 255 255 255 255 255 255 255 255 255 255 255 255 255 238 0 221 255 255 221 0 238 255 255 255 255 255 255 255 255 255 255 255 255 255 255 255 255 255 255 0 204 255 0 204 255 255 255 255 255 255 255 255 255 255 255 255 255 17 187 255 255 255 
255 255 255 170 68 255 255 255 255 255 255 255 255 255 255 255 255 255 255 153 51 255 153 51 255 255 255 255 255 255 255 255 255 255 255 170 34 0 34 136 255 255 255 51 153 255 255 170 34 255 255 255 136 34 0 34 136 255 255 255 255 255 255 255 255 255 255 255 68 153 255 68 136 255 255 255 255 255 255 255 255 255 255 255 255 255 68 170 255 255 255 
255 255 255 119 68 255 255 255 255 255 255 255 255 255 255 255 255 255 255 119 119 255 119 102 255 255 255 255 255 255 255 255 255 255 170 17 133 96 113 17 136 255 255 119 119 255 255 119 102 255 255 136 17 133 88 133 17 153 255 255 255 255 255 255 255 255 255 255 119 102 255 119 102 255 255 255 255 255 255 255 255 255 255 255 255 255 68 119 255 255 255 
255 255 255 119 102 255 255 255 255 255 255 255 255 255 255 255 255 255 255 68 153 255 68 153 255 255 255 255 255 255 255 255 255 255 68 119 23 0 0 159 34 255 255 153 68 255 255 68 119 255 255 51 143 8 0 10 143 68 255 255 255 255 255 255 255 255 255 255 170 68 255 170 51 255 255 255 255 255 255 255 255 255 255 255 255 255 102 119 255 255 255 
255 255 255 119 119 255 255 255 255 255 255 255 255 255 255 255 255 255 255 85 119 255 85 119 255 255 255 255 255 255 255 255 255 255 68 143 10 0 0 163 17 255 255 119 85 255 255 102 119 255 255 34 148 0 0 0 148 51 255 255 255 255 255 255 255 255 255 255 119 68 255 136 68 255 255 255 255 255 255 255 255 255 255 255 255 255 119 119 255 255 255 
255 255 255 68 119 255 255 255 255 255 255 255 255 255 255 255 255 255 255 119 85 255 136 68 255 255 255 255 255 255 255 255 255 255 119 34 148 50 97 51 119 255 255 85 119 255 255 136 68 255 255 119 51 138 50 148 51 119 255 255 255 255 255 255 255 255 255 255 85 119 255 102 119 255 255 255 255 255 255 255 255 255 255 255 255 255 119 68 255 255 255 
255 255 255 68 136 255 255 255 255 255 255 255 255 255 255 255 255 255 255 187 34 255 187 17 255 255 255 255 255 255 255 255 255 255 255 119 0 17 0 85 238 255 255 17 187 255 255 204 0 255 255 238 85 0 0 0 85 255 255 255 255 255 255 255 255 255 255 255 17 187 255 51 170 255 255 255 255 255 255 255 255 255 255 255 255 255 136 68 255 255 255 
255 255 255 68 187 255 255 255 255 255 255 255 255 255 255 255 255 255 255 238 0 238 255 17 170 255 255 255 255 255 255 255 255 255 255 255 221 187 221 255 255 255 170 0 255 255 255 255 17 170 255 255 255 221 187 221 255 255 255 255 255 255 255 255 255 255 255 187 0 238 255 0 221 255 255 255 255 255 255 255 255 255 255 255 255 255 187 68 255 255 255 
255 255 255 17 187 255 255 255 255 255 255 255 255 255 255 255 255 255 255 255 51 119 255 136 17 221 255 255 255 255 255 255 255 255 255 255 255 255 255 255 255 238 17 136 255 255 255 255 153 17 221 255 255 255 255 255 255 255 255 255 255 255 255 255 255 255 238 17 136 255 119 34 255 255 255 255 255 255 255 255 255 255 255 255 255 255 187 17 255 255 255 
255 255 255 0 187 255 255 255 255 255 255 255 255 255 255 255 255 255 255 255 204 0 187 255 85 51 255 255 255 255 255 255 255 255 255 255 255 255 255 255 255 68 85 255 255 255 255 255 255 102 51 255 255 255 255 255 255 255 255 255 255 255 255 255 255 255 68 85 255 204 0 187 255 255 255 255 255 255 255 255 255 255 255 255 255 255 187 0 255 255 255 
255 255 255 0 255 255 255 255 255 255 255 255 255 255 255 255 255 255 255 255 255 119 34 238 238 34 85 221 255 255 255 255 255 255 255 255 255 255 255 221 85 34 238 255 255 255 255 255 255 238 51 68 221 255 255 255 255 255 255 255 255 255 255 255 221 85 17 238 255 51 119 255 255 255 255 255 255 255 255 255 255 255 255 255 255 255 255 0 255 255 255 
255 255 221 0 255 255 255 255 255 255 255 255 255 255 255 255 255 255 255 255 255 255 51 102 255 221 85 17 119 255 255 255 255 255 255 255 255 255 119 17 85 221 255 255 255 255 255 255 255 255 221 85 17 119 255 255 255 255 255 255 255 255 255 136 17 68 221 255 102 34 238 255 255 255 255 255 255 255 255 255 255 255 255 255 255 255 255 0 221 255 255 
255 255 255 0 255 255 255 255 255 255 255 255 255 255 255 255 255 255 255 255 255 255 204 34 51 221 255 187 34 34 102 119 187 221 187 119 102 34 34 170 255 255 255 255 255 255 255 255 255 255 255 255 187 34 34 85 119 187 221 187 119 102 34 34 170 255 238 68 34 204 255 255 255 255 255 255 255 255 255 255 255 255 255 255 255 255 255 0 255 255 255 
255 255 255 0 187 255 255 255 255 255 255 255 255 255 255 255 255 255 255 255 255 255 255 238 85 17 170 255 238 170 119 68 34 0 34 68 119 170 238 255 255 221 119 255 255 255 255 255 255 255 255 255 255 255 170 119 68 34 0 34 68 119 170 238 255 170 17 85 238 255 255 255 255 255 255 255 255 255 255 255 255 255 255 255 255 255 187 0 255 255 255 
255 255 255 17 187 255 255 255 255 255 255 255 255 255 255 255 255 255 255 255 255 255 255 255 255 153 17 68 136 221 255 255 255 255 255 255 255 255 255 255 255 136 68 255 255 255 255 255 255 255 255 255 255 255 255 255 255 255 255 255 255 255 221 136 85 0 136 255 255 255 255 255 255 255 255 255 255 255 255 255 255 255 255 255 255 255 187 17 255 255 255 
255 255 255 68 187 255 255 255 255 255 255 255 255 255 255 255 255 255 255 255 255 255 255 255 255 255 221 136 51 0 51 136 255 255 255 255 255 255 255 255 255 68 136 255 255 255 255 255 255 255 255 255 255 255 255 255 255 255 255 255 170 51 0 51 136 221 255 255 255 255 255 255 255 255 255 255 255 255 255 255 255 255 255 255 255 255 187 68 255 255 255 
255 255 255 68 136 255 255 255 255 255 255 255 255 255 255 255 255 255 255 255 255 255 255 255 255 255 255 255 255 238 153 187 255 255 255 255 255 255 255 255 238 0 204 255 255 255 255 255 255 255 255 255 255 255 255 255 255 255 255 255 187 153 221 255 255 255 255 255 255 255 255 255 255 255 255 255 255 255 255 255 255 255 255 255 255 255 136 68 255 255 255 
255 255 255 68 119 255 255 255 255 255 255 255 255 255 255 255 255 255 255 255 255 255 255 255 255 255 255 255 255 255 255 255 255 255 255 255 255 255 255 255 78 48 102 51 68 119 187 255 255 255 255 255 255 255 255 255 255 255 255 255 255 255 255 255 255 255 255 255 255 255 255 255 255 255 255 255 255 255 255 255 255 255 255 255 255 255 119 68 255 255 255 
255 255 255 119 119 255 255 255 255 255 255 255 255 255 255 255 255 255 255 255 255 255 255 255 255 255 255 255 255 255 255 255 255 255 255 221 187 119 170 85 17 48 119 187 136 85 17 0 238 255 255 255 255 153 136 204 255 255 255 255 255 255 255 255 255 255 255 255 255 255 255 255 255 255 255 255 255 255 255 255 255 255 255 255 255 255 119 119 255 255 255 
255 255 255 119 102 255 255 255 255 255 255 255 255 255 255 255 255 255 255 255 255 255 255 255 255 255 255 255 255 255 255 255 255 238 112 0 34 68 48 50 221 255 255 255 255 255 255 204 255 255 255 255 255 119 68 0 68 204 255 255 255 255 255 255 255 255 255 255 255 255 255 255 255 255 255 255 255 255 255 255 255 255 255 255 255 255 102 119 255 255 255 
255 255 255 119 68 255 255 255 255 255 255 255 255 255 255 255 255 255 255 255 255 255 255 255 255 255 255 255 255 255 255 255 255 85 46 187 255 102 17 221 255 255 255 255 255 255 255 255 255 255 255 255 255 255 255 238 102 17 204 255 255 255 255 255 255 255 255 255 255 255 255 255 255 255 255 255 255 255 255 255 255 255 255 255 255 255 68 119 255 255 255 
255 255 255 170 68 255 255 255 255 255 255 255 255 255 255 255 255 255 255 255 255 255 255 255 255 255 255 255 255 255 255 255 187 14 221 255 204 0 204 255 255 255 255 255 255 255 255 255 255 255 255 255 255 255 255 255 255 102 52 255 255 255 255 255 255 255 255 255 255 255 255 255 255 255 255 255 255 255 255 255 255 255 255 255 255 255 68 170 255 255 255 
255 255 255 187 17 255 255 255 255 255 255 255 255 255 255 255 255 255 255 255 255 255 255 255 255 255 255 255 255 255 255 255 67 119 255 255 119 85 255 255 255 255 255 255 255 255 255 255 255 255 255 255 255 255 255 255 255 163 6 192 255 255 255 255 255 255 255 255 255 255 255 255 255 255 255 255 255 255 255 255 255 255 255 255 255 255 17 187 255 255 255 
255 255 255 255 0 204 255 255 255 255 255 255 255 255 255 255 255 255 255 255 255 255 255 255 255 255 255 255 255 255 255 238 22 119 255 255 17 170 255 255 255 255 255 255 255 255 255 255 255 255 255 255 255 255 255 255 255 255 31 67 255 255 255 255 255 255 255 255 255 255 255 255 255 255 255 255 255 255 255 255 255 255 255 255 255 204 0 255 255 255 255 
255 255 255 255 68 136 255 255 255 255 255 255 255 255 255 255 255 255 255 255 255 255 255 255 255 255 255 255 255 255 255 68 37 102 255 187 17 255 255 255 255 255 255 255 255 255 255 255 255 255 255 255 255 255 255 255 255 255 0 0 187 255 255 255 255 255 255 255 255 255 255 255 255 255 255 255 255 255 255 255 255 255 255 255 255 136 68 255 255 255 255 
255 255 255 255 119 85 255 255 255 255 255 255 255 255 255 255 255 255 255 255 255 255 255 255 255 255 255 255 255 255 153 17 191 0 170 187 68 255 255 255 255 255 255 255 255 255 255 255 255 255 255 255 255 255 255 255 255 119 34 119 51 255 255 255 255 255 255 255 255 255 255 255 255 255 255 255 255 255 255 255 255 255 255 255 255 85 119 255 255 255 255 
255 255 255 255 187 17 255 255 255 255 255 255 255 255 255 255 255 255 255 255 255 255 255 255 255 255 255 255 255 238 17 153 255 136 17 32 68 255 255 255 255 255 255 255 255 255 255 255 255 255 255 255 170 85 119 170 102 0 204 238 34 153 255 255 255 255 255 255 255 255 255 255 255 255 255 255 255 255 255 255 255 255 255 255 255 17 187 255 255 255 255 
255 255 255 255 238 0 221 255 255 255 255 255 255 255 255 255 255 255 255 255 255 255 255 255 255 255 255 255 255 102 68 255 255 255 221 80 16 255 255 255 255 255 255 255 255 255 255 255 255 255 255 255 34 102 85 68 102 204 255 255 119 34 255 255 255 255 255 255 255 255 255 255 255 255 255 255 255 255 255 255 255 255 255 255 221 0 255 255 255 255 255 
255 255 255 255 255 51 153 255 255 255 255 255 255 255 255 255 255 255 255 255 255 255 255 255 255 255 255 255 187 0 221 255 255 255 255 255 17 170 255 255 255 255 255 255 255 255 255 255 255 255 255 153 34 255 255 255 255 255 255 255 238 17 187 255 255 255 255 255 255 255 255 255 255 255 255 255 255 255 255 255 255 255 255 255 153 51 255 255 255 255 255 
255 255 255 255 255 119 102 255 255 255 255 255 255 255 255 255 255 255 255 255 255 255 255 255 255 255 255 255 34 119 255 255 255 255 255 255 119 51 238 255 255 255 255 255 255 255 255 255 255 255 238 34 153 255 255 255 255 255 255 255 255 119 68 255 255 255 255 255 255 255 255 255 255 255 255 255 255 255 255 255 255 255 255 255 102 119 255 255 255 255 255 
255 255 255 255 255 170 34 255 255 255 255 255 255 255 255 255 255 255 255 255 255 255 255 255 255 255 255 238 119 255 255 255 255 255 255 255 238 51 51 238 255 255 255 255 255 255 255 255 255 136 17 68 255 255 255 255 255 255 255 255 255 238 0 187 255 255 255 255 255 255 255 255 255 255 255 255 255 255 255 255 255 255 255 255 34 170 255 255 255 255 255 
255 255 255 255 255 238 0 221 255 255 255 255 255 255 255 255 255 255 255 255 255 255 255 255 255 255 255 255 255 255 255 255 255 255 255 255 255 238 51 17 119 187 221 255 255 238 187 119 68 17 153 255 255 255 255 255 255 255 255 255 255 255 170 238 255 255 255 255 255 255 255 255 255 255 255 255 255 255 255 255 255 255 255 221 0 238 255 255 255 255 255 
255 255 255 255 255 255 51 136 255 255 255 255 255 255 255 255 255 255 255 255 255 255 255 255 255 255 255 255 255 255 255 255 255 255 255 255 255 255 255 187 85 0 0 0 0 0 34 85 119 238 255 255 255 255 255 255 255 255 255 255 255 255 255 255 255 255 255 255 255 255 255 255 255 255 255 255 255 255 255 255 255 255 255 136 51 255 255 255 255 255 255 
255 255 255 255 255 255 153 34 255 255 255 255 255 255 255 255 255 255 255 255 255 255 255 255 255 255 255 255 255 255 255 255 255 255 255 255 255 255 255 255 255 255 255 255 238 255 255 255 255 255 255 255 255 255 255 255 255 255 255 255 255 255 255 255 255 255 255 255 255 255 255 255 255 255 255 255 255 255 255 255 255 255 255 34 153 255 255 255 255 255 255 
255 255 255 255 255 255 255 17 170 255 255 255 255 255 255 255 255 255 255 255 255 255 255 255 255 255 255 255 255 255 170 238 255 255 255 255 255 255 255 255 255 255 255 255 255 255 255 255 255 255 255 255 255 255 255 255 255 255 255 255 187 238 255 255 255 255 255 255 255 255 255 255 255 255 255 255 255 255 255 255 255 255 170 17 255 255 255 255 255 255 255 
255 255 255 255 255 255 255 119 68 255 255 255 255 255 255 255 255 255 255 255 255 255 255 255 255 255 255 255 255 187 0 187 255 255 255 255 255 255 255 255 255 255 255 255 255 255 255 255 255 255 255 255 255 255 255 255 255 255 255 255 85 136 255 255 255 255 255 255 255 255 255 255 255 255 255 255 255 255 255 255 255 255 68 119 255 255 255 255 255 255 255 
255 255 255 255 255 255 255 221 0 221 255 255 255 255 255 255 255 255 255 255 255 255 255 255 255 255 255 255 238 17 119 255 255 255 221 204 255 255 255 255 255 255 255 255 255 255 255 255 255 255 255 255 255 255 255 255 255 255 255 255 136 51 255 255 255 255 255 255 255 255 255 255 255 255 255 255 255 255 255 255 255 221 0 221 255 255 255 255 255 255 255 
255 255 255 255 255 255 255 255 85 102 255 255 255 255 255 255 255 255 255 255 255 255 255 255 255 255 255 255 68 68 255 238 136 34 0 0 0 10 136 255 255 255 255 255 255 255 255 238 255 255 255 255 255 255 255 255 255 255 255 255 221 0 221 255 255 255 255 255 255 255 255 255 255 255 255 255 255 255 255 255 255 102 85 255 255 255 255 255 255 255 255 
255 255 255 255 255 255 255 255 187 17 238 255 255 255 255 255 255 255 255 255 255 255 255 255 255 255 255 187 17 238 153 8 5 0 0 0 0 0 4 55 170 255 255 221 136 55 0 0 21 187 255 255 255 255 255 255 187 221 255 255 255 51 153 255 255 255 255 255 255 255 255 255 255 255 255 255 255 255 255 255 238 17 187 255 255 255 255 255 255 255 255 
255 255 255 255 255 255 255 255 255 34 136 255 255 255 255 255 255 255 255 255 255 255 255 255 255 255 255 102 102 112 4 0 0 0 0 0 0 0 0 0 7 12 25 0 19 0 0 0 0 0 112 255 255 255 153 16 4 0 40 175 255 119 85 255 255 255 255 255 255 255 255 255 255 255 255 255 255 255 255 255 136 34 255 255 255 255 255 255 255 255 255 
255 255 255 255 255 255 255 255 255 153 34 255 255 255 255 255 255 255 255 255 255 255 255 255 255 255 221 0 136 4 0 0 0 0 0 0 0 0 0 0 0 0 0 0 0 0 0 0 0 0 4 59 136 32 4 0 0 0 0 0 55 191 0 238 255 255 255 255 255 255 255 255 255 255 255 255 255 255 255 255 34 153 255 255 255 255 255 255 255 255 255 
255 255 255 255 255 255 255 255 255 238 17 136 255 255 255 255 255 255 255 255 255 255 255 255 255 255 136 68 50 0 0 0 0 0 0 0 0 0 0 0 0 0 0 0 0 0 0 0 0 0 0 0 11 0 0 0 0 0 0 0 3 112 34 170 255 255 255 255 255 255 255 255 255 255 255 255 255 255 255 136 17 238 255 255 255 255 255 255 255 255 255 
255 255 255 255 255 255 255 255 255 255 170 17 238 255 255 255 255 255 255 255 255 255 255 255 255 255 68 119 41 0 0 0 0 0 0 0 0 0 0 0 0 0 0 0 0 0 0 0 0 0 0 0 0 0 0 0 0 0 0 0 0 6 112 102 255 255 255 255 255 255 255 255 255 255 255 255 255 255 238 17 170 255 255 255 255 255 255 255 255 255 255 
255 255 255 255 255 255 255 255 255 255 255 68 85 255 255 255 255 255 255 255 255 255 255 255 255 255 68 136 55 0 0 0 0 0 0 0 41 68 64 0 0 0 0 0 0 0 0 0 0 0 0 0 0 0 0 0 0 0 0 0 0 0 70 34 255 255 255 255 255 255 255 255 255 255 255 255 255 255 85 68 255 255 255 255 255 255 255 255 255 255 255 
255 255 255 255 255 255 255 255 255 255 255 221 17 170 255 255 255 255 255 255 255 255 255 255 255 255 51 187 204 5 0 0 0 0 59 187 255 255 255 187 10 3 0 0 0 0 21 112 119 0 0 0 0 0 17 11 0 0 0 0 0 0 0 68 255 255 255 255 255 255 255 255 255 255 255 255 255 170 17 221 255 255 255 255 255 255 255 255 255 255 255 
255 255 255 255 255 255 255 255 255 255 255 255 136 17 238 255 255 255 255 255 255 255 255 255 255 255 0 187 255 191 19 34 118 204 255 255 255 255 255 255 238 112 50 63 119 204 255 255 255 204 46 0 0 50 119 153 55 7 0 0 0 0 10 68 255 255 255 255 255 255 255 255 255 255 255 255 238 17 136 255 255 255 255 255 255 255 255 255 255 255 255 
255 255 255 255 255 255 255 255 255 255 255 255 255 68 102 255 255 255 255 255 255 255 255 255 255 255 34 153 255 255 255 255 255 255 255 255 255 255 255 255 255 255 255 255 255 255 255 255 255 255 255 204 255 255 255 255 255 112 0 0 0 0 80 102 255 255 255 255 255 255 255 255 255 255 255 255 85 68 255 255 255 255 255 255 255 255 255 255 255 255 255 
255 255 255 255 255 255 255 255 255 255 255 255 255 221 17 187 255 255 255 255 255 255 255 255 255 255 119 85 255 255 255 255 255 255 255 255 255 255 255 255 255 221 187 187 187 255 255 255 255 255 255 238 119 34 255 255 255 255 204 104 82 187 119 119 255 255 255 255 255 255 255 255 255 255 255 187 17 221 255 255 255 255 255 255 255 255 255 255 255 255 255 
255 255 255 255 255 255 255 255 255 255 255 255 255 255 119 34 238 255 255 255 255 255 255 255 255 255 204 0 238 255 255 255 255 255 255 255 255 238 51 119 102 0 51 68 17 51 187 255 255 238 153 17 51 204 255 255 255 255 255 255 255 255 68 119 255 255 255 255 255 255 255 255 255 255 238 34 119 255 255 255 255 255 255 255 255 255 255 255 255 255 255 
255 255 255 255 255 255 255 255 255 255 255 255 255 255 255 51 68 255 255 255 255 255 255 255 255 255 255 34 170 255 255 255 255 255 255 255 255 238 153 85 102 221 255 255 238 119 17 0 0 0 17 136 255 255 255 255 255 255 255 255 255 255 68 153 255 255 255 255 255 255 255 255 255 255 68 51 255 255 255 255 255 255 255 255 255 255 255 255 255 255 255 
255 255 255 255 255 255 255 255 255 255 255 255 255 255 255 238 51 102 255 255 255 255 255 255 255 255 255 255 255 255 255 255 255 255 255 255 255 255 255 255 255 255 255 255 255 255 238 255 255 255 255 255 255 255 255 255 255 255 255 255 255 255 51 187 255 255 255 255 255 255 255 255 255 102 51 238 255 255 255 255 255 255 255 255 255 255 255 255 255 255 255 
255 255 255 255 255 255 255 255 255 255 255 255 255 255 255 255 238 51 102 255 255 255 255 255 255 255 255 255 255 255 255 255 255 255 255 255 255 255 255 255 255 255 255 255 255 255 255 255 255 255 255 255 255 255 255 255 255 255 255 255 255 255 0 187 255 255 255 255 255 255 255 255 102 51 238 255 255 255 255 255 255 255 255 255 255 255 255 255 255 255 255 
255 255 255 255 255 255 255 255 255 255 255 255 255 255 255 255 255 221 17 102 255 255 255 255 255 255 255 255 255 255 255 255 255 255 255 255 255 255 255 255 255 255 255 255 255 255 255 255 255 255 255 255 255 255 255 255 255 255 255 255 255 255 119 238 255 255 255 255 255 255 255 102 17 221 255 255 255 255 255 255 255 255 255 255 255 255 255 255 255 255 255 
255 255 255 255 255 255 255 255 255 255 255 255 255 255 255 255 255 255 204 17 102 255 255 255 255 255 255 255 255 255 255 255 255 255 255 255 255 255 255 255 255 255 255 255 255 255 255 255 255 255 255 255 255 255 255 255 255 255 255 255 255 255 255 255 255 255 255 255 255 255 102 17 204 255 255 255 255 255 255 255 255 255 255 255 255 255 255 255 255 255 255 
255 255 255 255 255 255 255 255 255 255 255 255 255 255 255 255 255 255 255 204 17 102 255 255 255 255 255 255 255 255 255 255 255 255 255 255 255 255 255 255 255 255 255 255 255 255 255 255 255 255 255 255 255 255 255 255 255 255 255 255 255 255 255 255 255 255 255 255 255 102 17 204 255 255 255 255 255 255 255 255 255 255 255 255 255 255 255 255 255 255 255 
255 255 255 255 255 255 255 255 255 255 255 255 255 255 255 255 255 255 255 255 204 17 119 255 255 255 255 255 255 255 255 255 255 255 255 255 255 255 255 255 255 255 255 255 255 255 255 255 255 255 255 255 255 255 255 255 255 255 255 255 255 255 255 255 255 255 255 255 119 17 204 255 255 255 255 255 255 255 255 255 255 255 255 255 255 255 255 255 255 255 255 
255 255 255 255 255 255 255 255 255 255 255 255 255 255 255 255 255 255 255 255 255 204 34 51 204 255 255 255 255 255 255 255 255 255 255 255 255 255 255 255 255 255 255 255 255 255 255 255 255 255 255 255 255 255 255 255 255 255 255 255 255 255 255 255 255 255 204 51 34 204 255 255 255 255 255 255 255 255 255 255 255 255 255 255 255 255 255 255 255 255 255 
255 255 255 255 255 255 255 255 255 255 255 255 255 255 255 255 255 255 255 255 255 255 238 119 0 136 255 255 255 255 255 255 255 255 255 255 255 255 255 255 255 255 255 255 255 255 255 255 255 255 255 255 255 255 255 255 255 255 255 255 255 255 255 255 255 136 0 119 238 255 255 255 255 255 255 255 255 255 255 255 255 255 255 255 255 255 255 255 255 255 255 
255 255 255 255 255 255 255 255 255 255 255 255 255 255 255 255 255 255 255 255 255 255 255 255 187 17 68 221 255 255 255 255 255 255 255 255 255 255 255 255 255 255 255 255 255 255 255 255 255 255 255 255 255 255 255 255 255 255 255 255 255 255 255 221 68 17 187 255 255 255 255 255 255 255 255 255 255 255 255 255 255 255 255 255 255 255 255 255 255 255 255 
255 255 255 255 255 255 255 255 255 255 255 255 255 255 255 255 255 255 255 255 255 255 255 255 255 238 85 17 136 255 255 255 255 255 255 255 255 255 255 255 255 255 255 255 255 255 255 255 255 255 255 255 255 255 255 255 255 255 255 255 255 255 136 17 85 238 255 255 255 255 255 255 255 255 255 255 255 255 255 255 255 255 255 255 255 255 255 255 255 255 255 
255 255 255 255 255 255 255 255 255 255 255 255 255 255 255 255 255 255 255 255 255 255 255 255 255 255 255 170 17 68 170 255 255 255 255 255 255 255 255 255 255 255 255 255 255 255 255 255 255 255 255 255 255 255 255 255 255 255 255 255 170 68 17 170 255 255 255 255 255 255 255 255 255 255 255 255 255 255 255 255 255 255 255 255 255 255 255 255 255 255 255 
255 255 255 255 255 255 255 255 255 255 255 255 255 255 255 255 255 255 255 255 255 255 255 255 255 255 255 255 221 119 34 17 119 221 255 255 255 255 255 255 255 255 255 255 255 255 255 255 255 255 255 255 255 255 255 255 255 221 119 17 34 119 221 255 255 255 255 255 255 255 255 255 255 255 255 255 255 255 255 255 255 255 255 255 255 255 255 255 255 255 255 
255 255 255 255 255 255 255 255 255 255 255 255 255 255 255 255 255 255 255 255 255 255 255 255 255 255 255 255 255 255 255 170 85 0 68 153 255 255 255 255 255 255 255 255 255 255 255 255 255 255 255 255 255 255 255 153 68 0 85 170 255 255 255 255 255 255 255 255 255 255 255 255 255 255 255 255 255 255 255 255 255 255 255 255 255 255 255 255 255 255 255 
255 255 255 255 255 255 255 255 255 255 255 255 255 255 255 255 255 255 255 255 255 255 255 255 255 255 255 255 255 255 255 255 255 221 119 34 17 85 119 153 187 221 255 255 255 255 255 255 255 221 187 153 119 85 17 34 119 221 255 255 255 255 255 255 255 255 255 255 255 255 255 255 255 255 255 255 255 255 255 255 255 255 255 255 255 255 255 255 255 255 255 
255 255 255 255 255 255 255 255 255 255 255 255 255 255 255 255 255 255 255 255 255 255 255 255 255 255 255 255 255 255 255 255 255 255 255 255 170 119 102 68 17 0 0 34 68 68 68 34 0 0 17 68 102 119 170 255 255 255 255 255 255 255 255 255 255 255 255 255 255 255 255 255 255 255 255 255 255 255 255 255 255 255 255 255 255 255 255 255 255 255 255 
255 255 255 255 255 255 255 255 255 255 255 255 255 255 255 255 255 255 255 255 255 255 255 255 255 255 255 255 255 255 255 255 255 255 255 255 255 255 255 255 255 255 204 187 136 119 136 187 204 255 255 255 255 255 255 255 255 255 255 255 255 255 255 255 255 255 255 255 255 255 255 255 255 255 255 255 255 255 255 255 255 255 255 255 255 255 255 255 255 255 255 
255 255 255 255 255 255 255 255 255 255 255 255 255 255 255 255 255 255 255 255 255 255 255 255 255 255 255 255 255 255 255 255 255 255 255 255 255 255 255 255 255 255 255 255 255 255 255 255 255 255 255 255 255 255 255 255 255 255 255 255 255 255 255 255 255 255 255 255 255 255 255 255 255 255 255 255 255 255 255 255 255 255 255 255 255 255 255 255 255 255 255 
255 255 255 255 255 255 255 255 255 255 255 255 255 255 255 255 255 255 255 255 255 255 255 255 255 255 255 255 255 255 255 255 255 255 255 255 255 255 255 255 255 255 255 255 255 255 255 255 255 255 255 255 255 255 255 255 255 255 255 255 255 255 255 255 255 255 255 255 255 255 255 255 255 255 255 255 255 255 255 255 255 255 255 255 255 255 255 255 255 255 255 
